<svg width="459" height="364" viewBox="0 0 459 364" fill="none" xmlns="http://www.w3.org/2000/svg">
<circle cx="240.58" cy="3.96252" r="3.96252" fill="#E7F0FC"/>
<circle cx="240.58" cy="27.736" r="3.96252" fill="#E7F0FC"/>
<circle cx="240.58" cy="51.5133" r="3.96252" fill="#E7F0FC"/>
<circle cx="240.58" cy="75.2906" r="3.96252" fill="#E7F0FC"/>
<circle cx="240.58" cy="99.0641" r="3.96252" fill="#E7F0FC"/>
<circle cx="240.58" cy="122.838" r="3.96252" fill="#E7F0FC"/>
<circle cx="240.58" cy="146.611" r="3.96252" fill="#E7F0FC"/>
<circle cx="240.58" cy="170.388" r="3.96252" fill="#E7F0FC"/>
<circle cx="264.353" cy="3.96252" r="3.96252" fill="#E7F0FC"/>
<circle cx="264.353" cy="27.736" r="3.96252" fill="#E7F0FC"/>
<circle cx="264.353" cy="51.5133" r="3.96252" fill="#E7F0FC"/>
<circle cx="264.353" cy="75.2906" r="3.96252" fill="#E7F0FC"/>
<circle cx="264.353" cy="99.0641" r="3.96252" fill="#E7F0FC"/>
<circle cx="264.353" cy="122.838" r="3.96252" fill="#E7F0FC"/>
<circle cx="264.353" cy="146.611" r="3.96252" fill="#E7F0FC"/>
<circle cx="264.353" cy="170.388" r="3.96252" fill="#E7F0FC"/>
<circle cx="288.134" cy="3.96252" r="3.96252" fill="#E7F0FC"/>
<circle cx="288.134" cy="27.736" r="3.96252" fill="#E7F0FC"/>
<circle cx="288.134" cy="51.5133" r="3.96252" fill="#E7F0FC"/>
<circle cx="288.134" cy="75.2867" r="3.96252" fill="#E7F0FC"/>
<circle cx="288.134" cy="99.0641" r="3.96252" fill="#E7F0FC"/>
<circle cx="288.134" cy="122.838" r="3.96252" fill="#E7F0FC"/>
<circle cx="288.134" cy="146.611" r="3.96252" fill="#E7F0FC"/>
<circle cx="288.134" cy="170.388" r="3.96252" fill="#E7F0FC"/>
<circle cx="311.908" cy="3.96252" r="3.96252" fill="#E7F0FC"/>
<circle cx="311.908" cy="27.736" r="3.96252" fill="#E7F0FC"/>
<circle cx="311.908" cy="51.5133" r="3.96252" fill="#E7F0FC"/>
<circle cx="311.908" cy="75.2906" r="3.96252" fill="#E7F0FC"/>
<circle cx="311.908" cy="99.0641" r="3.96252" fill="#E7F0FC"/>
<circle cx="311.908" cy="122.838" r="3.96252" fill="#E7F0FC"/>
<circle cx="311.908" cy="146.611" r="3.96252" fill="#E7F0FC"/>
<circle cx="311.908" cy="170.388" r="3.96252" fill="#E7F0FC"/>
<circle cx="335.681" cy="3.96252" r="3.96252" fill="#E7F0FC"/>
<circle cx="335.681" cy="27.736" r="3.96252" fill="#E7F0FC"/>
<circle cx="335.681" cy="51.5133" r="3.96252" fill="#E7F0FC"/>
<circle cx="335.681" cy="75.2906" r="3.96252" fill="#E7F0FC"/>
<circle cx="335.681" cy="99.0641" r="3.96252" fill="#E7F0FC"/>
<circle cx="335.681" cy="122.838" r="3.96252" fill="#E7F0FC"/>
<circle cx="335.681" cy="146.611" r="3.96252" fill="#E7F0FC"/>
<circle cx="335.681" cy="170.388" r="3.96252" fill="#E7F0FC"/>
<circle cx="359.455" cy="3.96252" r="3.96252" fill="#E7F0FC"/>
<circle cx="359.455" cy="27.736" r="3.96252" fill="#E7F0FC"/>
<circle cx="359.455" cy="51.5133" r="3.96252" fill="#E7F0FC"/>
<circle cx="359.455" cy="75.2906" r="3.96252" fill="#E7F0FC"/>
<circle cx="359.455" cy="99.0641" r="3.96252" fill="#E7F0FC"/>
<circle cx="359.455" cy="122.838" r="3.96252" fill="#E7F0FC"/>
<circle cx="359.455" cy="146.611" r="3.96252" fill="#E7F0FC"/>
<circle cx="359.455" cy="170.388" r="3.96252" fill="#E7F0FC"/>
<circle cx="383.228" cy="3.96252" r="3.96252" fill="#E7F0FC"/>
<circle cx="383.228" cy="27.736" r="3.96252" fill="#E7F0FC"/>
<circle cx="383.228" cy="51.5133" r="3.96252" fill="#E7F0FC"/>
<circle cx="383.228" cy="75.2906" r="3.96252" fill="#E7F0FC"/>
<circle cx="383.228" cy="99.0641" r="3.96252" fill="#E7F0FC"/>
<circle cx="383.228" cy="122.838" r="3.96252" fill="#E7F0FC"/>
<circle cx="383.228" cy="146.611" r="3.96252" fill="#E7F0FC"/>
<circle cx="383.228" cy="170.388" r="3.96252" fill="#E7F0FC"/>
<circle cx="407.009" cy="3.96252" r="3.96252" fill="#E7F0FC"/>
<circle cx="407.009" cy="27.736" r="3.96252" fill="#E7F0FC"/>
<circle cx="407.009" cy="51.5133" r="3.96252" fill="#E7F0FC"/>
<circle cx="407.009" cy="75.2867" r="3.96252" fill="#E7F0FC"/>
<circle cx="407.009" cy="99.0641" r="3.96252" fill="#E7F0FC"/>
<circle cx="407.009" cy="122.838" r="3.96252" fill="#E7F0FC"/>
<circle cx="407.009" cy="146.611" r="3.96252" fill="#E7F0FC"/>
<circle cx="407.009" cy="170.388" r="3.96252" fill="#E7F0FC"/>
<circle cx="430.783" cy="3.96252" r="3.96252" fill="#E7F0FC"/>
<circle cx="430.783" cy="27.736" r="3.96252" fill="#E7F0FC"/>
<circle cx="430.783" cy="51.5133" r="3.96252" fill="#E7F0FC"/>
<circle cx="430.783" cy="75.2906" r="3.96252" fill="#E7F0FC"/>
<circle cx="430.783" cy="99.0641" r="3.96252" fill="#E7F0FC"/>
<circle cx="430.783" cy="122.838" r="3.96252" fill="#E7F0FC"/>
<circle cx="430.783" cy="146.611" r="3.96252" fill="#E7F0FC"/>
<circle cx="430.783" cy="170.388" r="3.96252" fill="#E7F0FC"/>
<circle cx="454.556" cy="3.96252" r="3.96252" fill="#E7F0FC"/>
<circle cx="454.556" cy="27.736" r="3.96252" fill="#E7F0FC"/>
<circle cx="454.556" cy="51.5133" r="3.96252" fill="#E7F0FC"/>
<circle cx="454.556" cy="75.2906" r="3.96252" fill="#E7F0FC"/>
<circle cx="454.556" cy="99.0641" r="3.96252" fill="#E7F0FC"/>
<circle cx="454.556" cy="122.838" r="3.96252" fill="#E7F0FC"/>
<circle cx="454.556" cy="146.611" r="3.96252" fill="#E7F0FC"/>
<circle cx="454.556" cy="170.388" r="3.96252" fill="#E7F0FC"/>
<circle cx="240.58" cy="192.963" r="3.96252" fill="#E7F0FC"/>
<circle cx="240.58" cy="216.736" r="3.96252" fill="#E7F0FC"/>
<circle cx="240.58" cy="240.513" r="3.96252" fill="#E7F0FC"/>
<circle cx="240.58" cy="264.291" r="3.96252" fill="#E7F0FC"/>
<circle cx="240.58" cy="288.064" r="3.96252" fill="#E7F0FC"/>
<circle cx="240.58" cy="311.838" r="3.96252" fill="#E7F0FC"/>
<circle cx="240.58" cy="335.611" r="3.96252" fill="#E7F0FC"/>
<circle cx="240.58" cy="359.388" r="3.96252" fill="#E7F0FC"/>
<circle cx="264.353" cy="192.963" r="3.96252" fill="#E7F0FC"/>
<circle cx="264.353" cy="216.736" r="3.96252" fill="#E7F0FC"/>
<circle cx="264.353" cy="240.513" r="3.96252" fill="#E7F0FC"/>
<circle cx="264.353" cy="264.291" r="3.96252" fill="#E7F0FC"/>
<circle cx="264.353" cy="288.064" r="3.96252" fill="#E7F0FC"/>
<circle cx="264.353" cy="311.838" r="3.96252" fill="#E7F0FC"/>
<circle cx="264.353" cy="335.611" r="3.96252" fill="#E7F0FC"/>
<circle cx="264.353" cy="359.388" r="3.96252" fill="#E7F0FC"/>
<circle cx="288.134" cy="192.963" r="3.96252" fill="#E7F0FC"/>
<circle cx="288.134" cy="216.736" r="3.96252" fill="#E7F0FC"/>
<circle cx="288.134" cy="240.513" r="3.96252" fill="#E7F0FC"/>
<circle cx="288.134" cy="264.287" r="3.96252" fill="#E7F0FC"/>
<circle cx="288.134" cy="288.064" r="3.96252" fill="#E7F0FC"/>
<circle cx="288.134" cy="311.838" r="3.96252" fill="#E7F0FC"/>
<circle cx="288.134" cy="335.611" r="3.96252" fill="#E7F0FC"/>
<circle cx="288.134" cy="359.388" r="3.96252" fill="#E7F0FC"/>
<circle cx="311.908" cy="192.963" r="3.96252" fill="#E7F0FC"/>
<circle cx="311.908" cy="216.736" r="3.96252" fill="#E7F0FC"/>
<circle cx="311.908" cy="240.513" r="3.96252" fill="#E7F0FC"/>
<circle cx="311.908" cy="264.291" r="3.96252" fill="#E7F0FC"/>
<circle cx="311.908" cy="288.064" r="3.96252" fill="#E7F0FC"/>
<circle cx="311.908" cy="311.838" r="3.96252" fill="#E7F0FC"/>
<circle cx="311.908" cy="335.611" r="3.96252" fill="#E7F0FC"/>
<circle cx="311.908" cy="359.388" r="3.96252" fill="#E7F0FC"/>
<circle cx="335.681" cy="192.963" r="3.96252" fill="#E7F0FC"/>
<circle cx="335.681" cy="216.736" r="3.96252" fill="#E7F0FC"/>
<circle cx="335.681" cy="240.513" r="3.96252" fill="#E7F0FC"/>
<circle cx="335.681" cy="264.291" r="3.96252" fill="#E7F0FC"/>
<circle cx="335.681" cy="288.064" r="3.96252" fill="#E7F0FC"/>
<circle cx="335.681" cy="311.838" r="3.96252" fill="#E7F0FC"/>
<circle cx="335.681" cy="335.611" r="3.96252" fill="#E7F0FC"/>
<circle cx="335.681" cy="359.388" r="3.96252" fill="#E7F0FC"/>
<circle cx="359.455" cy="192.963" r="3.96252" fill="#E7F0FC"/>
<circle cx="359.455" cy="216.736" r="3.96252" fill="#E7F0FC"/>
<circle cx="359.455" cy="240.513" r="3.96252" fill="#E7F0FC"/>
<circle cx="359.455" cy="264.291" r="3.96252" fill="#E7F0FC"/>
<circle cx="359.455" cy="288.064" r="3.96252" fill="#E7F0FC"/>
<circle cx="359.455" cy="311.838" r="3.96252" fill="#E7F0FC"/>
<circle cx="359.455" cy="335.611" r="3.96252" fill="#E7F0FC"/>
<circle cx="359.455" cy="359.388" r="3.96252" fill="#E7F0FC"/>
<circle cx="383.228" cy="192.963" r="3.96252" fill="#E7F0FC"/>
<circle cx="383.228" cy="216.736" r="3.96252" fill="#E7F0FC"/>
<circle cx="383.228" cy="240.513" r="3.96252" fill="#E7F0FC"/>
<circle cx="383.228" cy="264.291" r="3.96252" fill="#E7F0FC"/>
<circle cx="383.228" cy="288.064" r="3.96252" fill="#E7F0FC"/>
<circle cx="383.228" cy="311.838" r="3.96252" fill="#E7F0FC"/>
<circle cx="383.228" cy="335.611" r="3.96252" fill="#E7F0FC"/>
<circle cx="383.228" cy="359.388" r="3.96252" fill="#E7F0FC"/>
<circle cx="407.009" cy="192.963" r="3.96252" fill="#E7F0FC"/>
<circle cx="407.009" cy="216.736" r="3.96252" fill="#E7F0FC"/>
<circle cx="407.009" cy="240.513" r="3.96252" fill="#E7F0FC"/>
<circle cx="407.009" cy="264.287" r="3.96252" fill="#E7F0FC"/>
<circle cx="407.009" cy="288.064" r="3.96252" fill="#E7F0FC"/>
<circle cx="407.009" cy="311.838" r="3.96252" fill="#E7F0FC"/>
<circle cx="407.009" cy="335.611" r="3.96252" fill="#E7F0FC"/>
<circle cx="407.009" cy="359.388" r="3.96252" fill="#E7F0FC"/>
<circle cx="430.783" cy="192.963" r="3.96252" fill="#E7F0FC"/>
<circle cx="430.783" cy="216.736" r="3.96252" fill="#E7F0FC"/>
<circle cx="430.783" cy="240.513" r="3.96252" fill="#E7F0FC"/>
<circle cx="430.783" cy="264.291" r="3.96252" fill="#E7F0FC"/>
<circle cx="430.783" cy="288.064" r="3.96252" fill="#E7F0FC"/>
<circle cx="430.783" cy="311.838" r="3.96252" fill="#E7F0FC"/>
<circle cx="430.783" cy="335.611" r="3.96252" fill="#E7F0FC"/>
<circle cx="430.783" cy="359.388" r="3.96252" fill="#E7F0FC"/>
<circle cx="454.556" cy="192.963" r="3.96252" fill="#E7F0FC"/>
<circle cx="454.556" cy="216.736" r="3.96252" fill="#E7F0FC"/>
<circle cx="454.556" cy="240.513" r="3.96252" fill="#E7F0FC"/>
<circle cx="454.556" cy="264.291" r="3.96252" fill="#E7F0FC"/>
<circle cx="454.556" cy="288.064" r="3.96252" fill="#E7F0FC"/>
<circle cx="454.556" cy="311.838" r="3.96252" fill="#E7F0FC"/>
<circle cx="454.556" cy="335.611" r="3.96252" fill="#E7F0FC"/>
<circle cx="454.556" cy="359.388" r="3.96252" fill="#E7F0FC"/>
<circle cx="3.96252" cy="3.96252" r="3.96252" fill="#E7F0FC"/>
<circle cx="3.96252" cy="27.736" r="3.96252" fill="#E7F0FC"/>
<circle cx="3.96252" cy="51.5133" r="3.96252" fill="#E7F0FC"/>
<circle cx="3.96252" cy="75.2906" r="3.96252" fill="#E7F0FC"/>
<circle cx="3.96252" cy="99.0641" r="3.96252" fill="#E7F0FC"/>
<circle cx="3.96252" cy="122.838" r="3.96252" fill="#E7F0FC"/>
<circle cx="3.96252" cy="146.611" r="3.96252" fill="#E7F0FC"/>
<circle cx="3.96252" cy="170.388" r="3.96252" fill="#E7F0FC"/>
<circle cx="27.736" cy="3.96252" r="3.96252" fill="#E7F0FC"/>
<circle cx="27.736" cy="27.736" r="3.96252" fill="#E7F0FC"/>
<circle cx="27.736" cy="51.5133" r="3.96252" fill="#E7F0FC"/>
<circle cx="27.736" cy="75.2906" r="3.96252" fill="#E7F0FC"/>
<circle cx="27.736" cy="99.0641" r="3.96252" fill="#E7F0FC"/>
<circle cx="27.736" cy="122.838" r="3.96252" fill="#E7F0FC"/>
<circle cx="27.736" cy="146.611" r="3.96252" fill="#E7F0FC"/>
<circle cx="27.736" cy="170.388" r="3.96252" fill="#E7F0FC"/>
<circle cx="51.5094" cy="3.96252" r="3.96252" fill="#E7F0FC"/>
<circle cx="51.5094" cy="27.736" r="3.96252" fill="#E7F0FC"/>
<circle cx="51.5094" cy="51.5133" r="3.96252" fill="#E7F0FC"/>
<circle cx="51.5094" cy="75.2867" r="3.96252" fill="#E7F0FC"/>
<circle cx="51.5094" cy="99.0641" r="3.96252" fill="#E7F0FC"/>
<circle cx="51.5094" cy="122.838" r="3.96252" fill="#E7F0FC"/>
<circle cx="51.5094" cy="146.611" r="3.96252" fill="#E7F0FC"/>
<circle cx="51.5094" cy="170.388" r="3.96252" fill="#E7F0FC"/>
<circle cx="75.2906" cy="3.96252" r="3.96252" fill="#E7F0FC"/>
<circle cx="75.2906" cy="27.736" r="3.96252" fill="#E7F0FC"/>
<circle cx="75.2906" cy="51.5133" r="3.96252" fill="#E7F0FC"/>
<circle cx="75.2906" cy="75.2906" r="3.96252" fill="#E7F0FC"/>
<circle cx="75.2906" cy="99.0641" r="3.96252" fill="#E7F0FC"/>
<circle cx="75.2906" cy="122.838" r="3.96252" fill="#E7F0FC"/>
<circle cx="75.2906" cy="146.611" r="3.96252" fill="#E7F0FC"/>
<circle cx="75.2906" cy="170.388" r="3.96252" fill="#E7F0FC"/>
<circle cx="99.0641" cy="3.96252" r="3.96252" fill="#E7F0FC"/>
<circle cx="99.0641" cy="27.736" r="3.96252" fill="#E7F0FC"/>
<circle cx="99.0641" cy="51.5133" r="3.96252" fill="#E7F0FC"/>
<circle cx="99.0641" cy="75.2906" r="3.96252" fill="#E7F0FC"/>
<circle cx="99.0641" cy="99.0641" r="3.96252" fill="#E7F0FC"/>
<circle cx="99.0641" cy="122.838" r="3.96252" fill="#E7F0FC"/>
<circle cx="99.0641" cy="146.611" r="3.96252" fill="#E7F0FC"/>
<circle cx="99.0641" cy="170.388" r="3.96252" fill="#E7F0FC"/>
<circle cx="122.838" cy="3.96252" r="3.96252" fill="#E7F0FC"/>
<circle cx="122.838" cy="27.736" r="3.96252" fill="#E7F0FC"/>
<circle cx="122.838" cy="51.5133" r="3.96252" fill="#E7F0FC"/>
<circle cx="122.838" cy="75.2906" r="3.96252" fill="#E7F0FC"/>
<circle cx="122.838" cy="99.0641" r="3.96252" fill="#E7F0FC"/>
<circle cx="122.838" cy="122.838" r="3.96252" fill="#E7F0FC"/>
<circle cx="122.838" cy="146.611" r="3.96252" fill="#E7F0FC"/>
<circle cx="122.838" cy="170.388" r="3.96252" fill="#E7F0FC"/>
<circle cx="146.611" cy="3.96252" r="3.96252" fill="#E7F0FC"/>
<circle cx="146.611" cy="27.736" r="3.96252" fill="#E7F0FC"/>
<circle cx="146.611" cy="51.5133" r="3.96252" fill="#E7F0FC"/>
<circle cx="146.611" cy="75.2906" r="3.96252" fill="#E7F0FC"/>
<circle cx="146.611" cy="99.0641" r="3.96252" fill="#E7F0FC"/>
<circle cx="146.611" cy="122.838" r="3.96252" fill="#E7F0FC"/>
<circle cx="146.611" cy="146.611" r="3.96252" fill="#E7F0FC"/>
<circle cx="146.611" cy="170.388" r="3.96252" fill="#E7F0FC"/>
<circle cx="170.384" cy="3.96252" r="3.96252" fill="#E7F0FC"/>
<circle cx="170.384" cy="27.736" r="3.96252" fill="#E7F0FC"/>
<circle cx="170.384" cy="51.5133" r="3.96252" fill="#E7F0FC"/>
<circle cx="170.384" cy="75.2867" r="3.96252" fill="#E7F0FC"/>
<circle cx="170.384" cy="99.0641" r="3.96252" fill="#E7F0FC"/>
<circle cx="170.384" cy="122.838" r="3.96252" fill="#E7F0FC"/>
<circle cx="170.384" cy="146.611" r="3.96252" fill="#E7F0FC"/>
<circle cx="170.384" cy="170.388" r="3.96252" fill="#E7F0FC"/>
<circle cx="194.166" cy="3.96252" r="3.96252" fill="#E7F0FC"/>
<circle cx="194.166" cy="27.736" r="3.96252" fill="#E7F0FC"/>
<circle cx="194.166" cy="51.5133" r="3.96252" fill="#E7F0FC"/>
<circle cx="194.166" cy="75.2906" r="3.96252" fill="#E7F0FC"/>
<circle cx="194.166" cy="99.0641" r="3.96252" fill="#E7F0FC"/>
<circle cx="194.166" cy="122.838" r="3.96252" fill="#E7F0FC"/>
<circle cx="194.166" cy="146.611" r="3.96252" fill="#E7F0FC"/>
<circle cx="194.166" cy="170.388" r="3.96252" fill="#E7F0FC"/>
<circle cx="217.939" cy="3.96252" r="3.96252" fill="#E7F0FC"/>
<circle cx="217.939" cy="27.736" r="3.96252" fill="#E7F0FC"/>
<circle cx="217.939" cy="51.5133" r="3.96252" fill="#E7F0FC"/>
<circle cx="217.939" cy="75.2906" r="3.96252" fill="#E7F0FC"/>
<circle cx="217.939" cy="99.0641" r="3.96252" fill="#E7F0FC"/>
<circle cx="217.939" cy="122.838" r="3.96252" fill="#E7F0FC"/>
<circle cx="217.939" cy="146.611" r="3.96252" fill="#E7F0FC"/>
<circle cx="217.939" cy="170.388" r="3.96252" fill="#E7F0FC"/>
<circle cx="3.96252" cy="192.963" r="3.96252" fill="#E7F0FC"/>
<circle cx="3.96252" cy="216.736" r="3.96252" fill="#E7F0FC"/>
<circle cx="3.96252" cy="240.513" r="3.96252" fill="#E7F0FC"/>
<circle cx="3.96252" cy="264.291" r="3.96252" fill="#E7F0FC"/>
<circle cx="3.96252" cy="288.064" r="3.96252" fill="#E7F0FC"/>
<circle cx="3.96252" cy="311.838" r="3.96252" fill="#E7F0FC"/>
<circle cx="3.96252" cy="335.611" r="3.96252" fill="#E7F0FC"/>
<circle cx="3.96252" cy="359.388" r="3.96252" fill="#E7F0FC"/>
<circle cx="27.736" cy="192.963" r="3.96252" fill="#E7F0FC"/>
<circle cx="27.736" cy="216.736" r="3.96252" fill="#E7F0FC"/>
<circle cx="27.736" cy="240.513" r="3.96252" fill="#E7F0FC"/>
<circle cx="27.736" cy="264.291" r="3.96252" fill="#E7F0FC"/>
<circle cx="27.736" cy="288.064" r="3.96252" fill="#E7F0FC"/>
<circle cx="27.736" cy="311.838" r="3.96252" fill="#E7F0FC"/>
<circle cx="27.736" cy="335.611" r="3.96252" fill="#E7F0FC"/>
<circle cx="27.736" cy="359.388" r="3.96252" fill="#E7F0FC"/>
<circle cx="51.5094" cy="192.963" r="3.96252" fill="#E7F0FC"/>
<circle cx="51.5094" cy="216.736" r="3.96252" fill="#E7F0FC"/>
<circle cx="51.5094" cy="240.513" r="3.96252" fill="#E7F0FC"/>
<circle cx="51.5094" cy="264.287" r="3.96252" fill="#E7F0FC"/>
<circle cx="51.5094" cy="288.064" r="3.96252" fill="#E7F0FC"/>
<circle cx="51.5094" cy="311.838" r="3.96252" fill="#E7F0FC"/>
<circle cx="51.5094" cy="335.611" r="3.96252" fill="#E7F0FC"/>
<circle cx="51.5094" cy="359.388" r="3.96252" fill="#E7F0FC"/>
<circle cx="75.2906" cy="192.963" r="3.96252" fill="#E7F0FC"/>
<circle cx="75.2906" cy="216.736" r="3.96252" fill="#E7F0FC"/>
<circle cx="75.2906" cy="240.513" r="3.96252" fill="#E7F0FC"/>
<circle cx="75.2906" cy="264.291" r="3.96252" fill="#E7F0FC"/>
<circle cx="75.2906" cy="288.064" r="3.96252" fill="#E7F0FC"/>
<circle cx="75.2906" cy="311.838" r="3.96252" fill="#E7F0FC"/>
<circle cx="75.2906" cy="335.611" r="3.96252" fill="#E7F0FC"/>
<circle cx="75.2906" cy="359.388" r="3.96252" fill="#E7F0FC"/>
<circle cx="99.0641" cy="192.963" r="3.96252" fill="#E7F0FC"/>
<circle cx="99.0641" cy="216.736" r="3.96252" fill="#E7F0FC"/>
<circle cx="99.0641" cy="240.513" r="3.96252" fill="#E7F0FC"/>
<circle cx="99.0641" cy="264.291" r="3.96252" fill="#E7F0FC"/>
<circle cx="99.0641" cy="288.064" r="3.96252" fill="#E7F0FC"/>
<circle cx="99.0641" cy="311.838" r="3.96252" fill="#E7F0FC"/>
<circle cx="99.0641" cy="335.611" r="3.96252" fill="#E7F0FC"/>
<circle cx="99.0641" cy="359.388" r="3.96252" fill="#E7F0FC"/>
<circle cx="122.838" cy="192.963" r="3.96252" fill="#E7F0FC"/>
<circle cx="122.838" cy="216.736" r="3.96252" fill="#E7F0FC"/>
<circle cx="122.838" cy="240.513" r="3.96252" fill="#E7F0FC"/>
<circle cx="122.838" cy="264.291" r="3.96252" fill="#E7F0FC"/>
<circle cx="122.838" cy="288.064" r="3.96252" fill="#E7F0FC"/>
<circle cx="122.838" cy="311.838" r="3.96252" fill="#E7F0FC"/>
<circle cx="122.838" cy="335.611" r="3.96252" fill="#E7F0FC"/>
<circle cx="122.838" cy="359.388" r="3.96252" fill="#E7F0FC"/>
<circle cx="146.611" cy="192.963" r="3.96252" fill="#E7F0FC"/>
<circle cx="146.611" cy="216.736" r="3.96252" fill="#E7F0FC"/>
<circle cx="146.611" cy="240.513" r="3.96252" fill="#E7F0FC"/>
<circle cx="146.611" cy="264.291" r="3.96252" fill="#E7F0FC"/>
<circle cx="146.611" cy="288.064" r="3.96252" fill="#E7F0FC"/>
<circle cx="146.611" cy="311.838" r="3.96252" fill="#E7F0FC"/>
<circle cx="146.611" cy="335.611" r="3.96252" fill="#E7F0FC"/>
<circle cx="146.611" cy="359.388" r="3.96252" fill="#E7F0FC"/>
<circle cx="170.384" cy="192.963" r="3.96252" fill="#E7F0FC"/>
<circle cx="170.384" cy="216.736" r="3.96252" fill="#E7F0FC"/>
<circle cx="170.384" cy="240.513" r="3.96252" fill="#E7F0FC"/>
<circle cx="170.384" cy="264.287" r="3.96252" fill="#E7F0FC"/>
<circle cx="170.384" cy="288.064" r="3.96252" fill="#E7F0FC"/>
<circle cx="170.384" cy="311.838" r="3.96252" fill="#E7F0FC"/>
<circle cx="170.384" cy="335.611" r="3.96252" fill="#E7F0FC"/>
<circle cx="170.384" cy="359.388" r="3.96252" fill="#E7F0FC"/>
<circle cx="194.166" cy="192.963" r="3.96252" fill="#E7F0FC"/>
<circle cx="194.166" cy="216.736" r="3.96252" fill="#E7F0FC"/>
<circle cx="194.166" cy="240.513" r="3.96252" fill="#E7F0FC"/>
<circle cx="194.166" cy="264.291" r="3.96252" fill="#E7F0FC"/>
<circle cx="194.166" cy="288.064" r="3.96252" fill="#E7F0FC"/>
<circle cx="194.166" cy="311.838" r="3.96252" fill="#E7F0FC"/>
<circle cx="194.166" cy="335.611" r="3.96252" fill="#E7F0FC"/>
<circle cx="194.166" cy="359.388" r="3.96252" fill="#E7F0FC"/>
<circle cx="217.939" cy="192.963" r="3.96252" fill="#E7F0FC"/>
<circle cx="217.939" cy="216.736" r="3.96252" fill="#E7F0FC"/>
<circle cx="217.939" cy="240.513" r="3.96252" fill="#E7F0FC"/>
<circle cx="217.939" cy="264.291" r="3.96252" fill="#E7F0FC"/>
<circle cx="217.939" cy="288.064" r="3.96252" fill="#E7F0FC"/>
<circle cx="217.939" cy="311.838" r="3.96252" fill="#E7F0FC"/>
<circle cx="217.939" cy="335.611" r="3.96252" fill="#E7F0FC"/>
<circle cx="217.939" cy="359.388" r="3.96252" fill="#E7F0FC"/>
</svg>
