<svg width="24" height="24" viewBox="0 0 24 24" fill="none" xmlns="http://www.w3.org/2000/svg">
<path d="M4.2565 16.5904C3.13983 14.7064 2.74924 12.4796 3.15804 10.328C3.56684 8.17647 4.74693 6.24811 6.47676 4.90496C8.2066 3.56181 10.3672 2.89626 12.553 3.03324C14.7388 3.17022 16.7994 4.10032 18.348 5.64893C19.8966 7.19753 20.8267 9.25815 20.9637 11.4439C21.1006 13.6297 20.4351 15.7903 19.0919 17.5201C17.7488 19.25 15.8204 20.4301 13.6689 20.8389C11.5173 21.2477 9.29049 20.8571 7.4065 19.7404V19.7404L4.294 20.6216C4.16648 20.6589 4.03128 20.6612 3.90256 20.6283C3.77384 20.5954 3.65635 20.5284 3.5624 20.4345C3.46845 20.3406 3.4015 20.2231 3.36858 20.0943C3.33565 19.9656 3.33796 19.8304 3.37525 19.7029L4.2565 16.5904Z" stroke="black" stroke-width="1.5" stroke-linecap="round" stroke-linejoin="round"/>
</svg>
