<svg width="24" height="24" viewBox="0 0 24 24" fill="none" xmlns="http://www.w3.org/2000/svg">
<path d="M12 7C12 6.20435 12.3161 5.44129 12.8787 4.87868C13.4413 4.31607 14.2044 4 15 4H21C21.1989 4 21.3897 4.07902 21.5303 4.21967C21.671 4.36032 21.75 4.55109 21.75 4.75V16.75C21.75 16.9489 21.671 17.1397 21.5303 17.2803C21.3897 17.421 21.1989 17.5 21 17.5H15C14.2044 17.5 13.4413 17.8161 12.8787 18.3787C12.3161 18.9413 12 19.7044 12 20.5" fill="#C4C4C4"/>
<path d="M12 7C12 6.20435 12.3161 5.44129 12.8787 4.87868C13.4413 4.31607 14.2044 4 15 4H21C21.1989 4 21.3897 4.07902 21.5303 4.21967C21.671 4.36032 21.75 4.55109 21.75 4.75V16.75C21.75 16.9489 21.671 17.1397 21.5303 17.2803C21.3897 17.421 21.1989 17.5 21 17.5H15C14.2044 17.5 13.4413 17.8161 12.8787 18.3787C12.3161 18.9413 12 19.7044 12 20.5" stroke="#969696" stroke-width="1.5" stroke-linecap="round" stroke-linejoin="round"/>
<path d="M2.25 16.75C2.25 16.9489 2.32902 17.1397 2.46967 17.2803C2.61032 17.421 2.80109 17.5 3 17.5H9C9.79565 17.5 10.5587 17.8161 11.1213 18.3787C11.6839 18.9413 12 19.7044 12 20.5V7C12 6.20435 11.6839 5.44129 11.1213 4.87868C10.5587 4.31607 9.79565 4 9 4H3C2.80109 4 2.61032 4.07902 2.46967 4.21967C2.32902 4.36032 2.25 4.55109 2.25 4.75V16.75Z" fill="#C4C4C4" stroke="#969696" stroke-width="1.5" stroke-linecap="round" stroke-linejoin="round"/>
</svg>
