<svg width="240" height="220" viewBox="0 0 240 220" fill="none" xmlns="http://www.w3.org/2000/svg">
<g clip-path="url(#clip0_866_18026)">
<path d="M153.762 175.693L156.069 180.87C154.194 180.571 152.451 182.174 152.412 184.233C152.372 186.291 154.044 188.433 155.919 188.726C155.561 190.324 154.015 191.029 152.673 191.675C151.331 192.321 149.884 193.392 149.984 195.095C150.064 196.462 151.193 197.67 152.393 198.155C153.592 198.641 154.851 198.566 156.065 198.484C154.225 200.412 154.045 204.036 155.662 206.635C157.278 209.235 160.506 210.515 162.924 209.514C161.216 211.641 161.587 215.537 163.706 217.732C165.843 219.945 168.94 220.159 171.647 219.926C178.541 219.343 185.11 216.736 190.531 212.433C192.601 210.787 194.534 208.85 195.715 206.324C196.895 203.799 197.243 200.601 196.143 197.726C196.44 201.327 200.04 204.171 203.278 204.33C206.516 204.489 209.343 202.663 211.746 200.58C214.941 197.811 217.899 193.929 217.461 189.139C217.244 186.768 216.209 184.488 215.195 182.279L213.228 177.996C212.434 176.267 211.622 174.509 210.427 173.058C209.231 171.608 207.573 170.484 205.913 170.495C206.292 168.759 206.673 166.958 206.355 165.113C206.037 163.269 204.819 161.359 203.163 160.927C201.055 160.377 199.268 162.325 197.148 162.141C195.108 161.965 193.422 159.915 191.441 159.102C190.625 158.749 189.725 158.642 188.849 158.793C187.973 158.945 187.161 159.349 186.511 159.956C185.255 161.184 184.732 163.257 185.182 165.22C185.577 166.939 186.628 168.455 187.265 170.113C187.903 171.77 188.002 173.902 186.777 174.807C185.299 175.9 183.05 174.413 181.896 172.615C180.741 170.816 180.078 168.638 178.618 167.126C176.895 165.34 174.198 164.922 172.423 166.165C170.649 167.407 169.971 170.191 170.865 172.556C171.596 174.491 173.272 176.448 172.691 178.269C172.077 180.194 169.39 179.951 167.769 178.59C166.148 177.229 165.072 175.18 163.471 173.789C161.845 172.376 159.721 171.757 157.857 172.152C156.911 172.372 156.036 172.827 155.312 173.474C154.589 174.122 154.039 174.942 153.715 175.858" fill="#E6E6E6"/>
<path d="M191.101 161.143L186.316 163.369C185.597 163.724 184.781 163.834 183.993 163.682C183.299 163.518 182.829 163.093 182.706 162.515L181.593 157.308C181.382 156.326 182.195 155.164 183.524 154.545L186.167 153.316C187.497 152.698 188.908 152.825 189.522 153.62L192.778 157.83C193.139 158.296 193.161 158.93 192.839 159.568C192.447 160.268 191.837 160.822 191.101 161.143Z" fill="#3F3D56"/>
<path d="M42.7226 64.9083C47.2213 52.5805 54.2417 41.3292 63.3343 31.8748C71.0486 23.8568 83.0547 24.1899 83.0547 24.1899L83.1233 24.1047C86.0129 20.5371 89.8904 17.9032 94.2694 16.5336C98.6484 15.164 103.334 15.1196 107.738 16.406C108.883 16.7349 109.763 16.8807 110.182 16.7342C117.817 14.0589 117.458 8.02045 124.045 3.15595C135.578 -5.36151 173.834 4.39507 179.228 20.0682C183.6 32.7709 203.116 38.9278 210.408 48.6444C211.548 50.1637 212.666 51.7006 213.763 53.2551C214.278 53.9773 214.786 54.7049 215.289 55.438C220.455 62.928 225.089 70.7719 229.158 78.9118C231.826 84.23 234.145 89.7167 236.099 95.337C243.703 117.593 241.103 134.175 220.137 130.078C217.655 129.592 215.233 129.157 212.87 128.773C209.449 128.214 206.147 127.755 202.964 127.395C198.678 126.907 194.601 126.587 190.732 126.436C189.431 126.383 188.154 126.348 186.901 126.33C168.372 126.073 154.628 129.565 144.157 134.985C142.382 135.901 140.701 136.871 139.111 137.893C136.684 139.447 134.367 141.166 132.175 143.038C129.143 145.643 126.346 148.512 123.819 151.611L123.68 151.781C111.433 166.78 107.403 183.384 98.8837 186.307C62.4679 198.806 39.4364 153.496 37.0745 109.173C36.9552 106.94 36.8894 104.713 36.8769 102.492C36.8695 101.5 36.8744 100.51 36.8915 99.5223C36.9289 96.9465 37.0423 94.3872 37.2322 91.8589C37.3031 90.8923 37.3854 89.9307 37.479 88.9743C37.5822 87.9429 37.6944 86.9177 37.8241 85.8988C38.7505 78.4307 40.3711 71.3254 42.7226 64.9083Z" fill="#067DE1"/>
<path d="M155.593 89.2943C152.685 90.6499 152.637 96.7221 153.549 98.6896L155.202 102.251L165.736 97.3505L164.083 93.7893C163.17 91.8226 158.504 87.9432 155.593 89.2943Z" fill="#3F3D56"/>
<path d="M127.285 140.424C127.1 140.424 126.917 140.379 126.753 140.293C126.588 140.208 126.447 140.083 126.341 139.931C126.235 139.779 126.167 139.604 126.143 139.42C126.119 139.236 126.139 139.049 126.203 138.874C126.254 138.732 126.334 138.601 126.436 138.49C126.538 138.378 126.662 138.288 126.799 138.224L181.201 112.918C181.338 112.854 181.486 112.818 181.637 112.812C181.788 112.805 181.939 112.829 182.081 112.881C182.223 112.933 182.354 113.012 182.465 113.114C182.577 113.217 182.667 113.34 182.731 113.478C182.859 113.755 182.872 114.072 182.767 114.359C182.662 114.646 182.448 114.88 182.171 115.009H182.171L127.77 140.316C127.618 140.387 127.453 140.424 127.285 140.424Z" fill="#3F3D56"/>
<path d="M169.84 99.6217L154.289 106.855L178.682 159.422L194.233 152.188L169.84 99.6217Z" fill="#E6E6E6"/>
<path d="M111.464 33.4495C108.556 34.8052 108.508 40.8773 109.42 42.8448L111.072 46.4061L121.607 41.5058L119.954 37.9445C119.04 35.9779 114.374 32.0985 111.464 33.4495Z" fill="#3F3D56"/>
<path d="M176.626 167.186L171.841 169.412C171.122 169.767 170.306 169.877 169.518 169.725C168.824 169.561 168.354 169.135 168.231 168.558L167.117 163.351C166.907 162.369 167.72 161.207 169.049 160.588L171.692 159.359C173.021 158.741 174.433 158.868 175.047 159.663L178.303 163.873C178.664 164.339 178.686 164.973 178.364 165.611C177.972 166.311 177.362 166.865 176.626 167.186Z" fill="#3F3D56"/>
<path d="M161.914 174.494L157.129 176.72C156.409 177.076 155.594 177.186 154.806 177.034C154.111 176.869 153.642 176.444 153.519 175.867L152.405 170.66C152.195 169.678 153.007 168.515 154.337 167.897L156.98 166.668C158.309 166.049 159.72 166.177 160.334 166.971L163.591 171.181C163.952 171.648 163.974 172.282 163.651 172.919C163.26 173.62 162.649 174.173 161.914 174.494Z" fill="#3F3D56"/>
<path d="M129.86 52.7184L114.309 59.9521L163.617 166.21L179.168 158.976L129.86 52.7184Z" fill="#E6E6E6"/>
<path d="M145.994 107.494L144.25 103.649L145.254 103.186L146.994 107.018L172.183 162.937L171.18 163.404" fill="#3F3D56"/>
<path d="M165.675 104.298L163.93 100.454L164.935 99.9902L166.674 103.822L191.864 159.742L190.86 160.209" fill="#3F3D56"/>
<path d="M137.199 61.2221L116.129 71.0236C114.788 68.934 110.744 58.2262 111.652 55.0493L110.97 52.0197L125.519 45.252L127.466 47.6504C130.357 48.5384 135.984 58.5959 137.199 61.2221Z" fill="#E6E6E6"/>
<path d="M126.127 45.3814L111.114 52.3653C110.559 52.623 109.969 52.5283 109.795 52.1536C109.771 52.0996 109.755 52.0417 109.75 51.9824L108.973 43.6831C108.939 43.3277 109.243 42.925 109.707 42.7092L119.663 38.0777C120.127 37.8619 120.631 37.8892 120.88 38.1439L126.714 44.0908C127.013 44.395 126.851 44.9156 126.352 45.2537C126.281 45.3023 126.205 45.345 126.127 45.3814Z" fill="#E6E6E6"/>
<path d="M137.902 110.404C137.74 110.404 137.578 110.385 137.42 110.347C137.197 110.3 136.988 110.204 136.808 110.064C136.629 109.925 136.483 109.746 136.384 109.541L127.205 89.7613C126.825 88.9424 127.335 87.8952 128.342 87.4269L141.782 81.1747C142.789 80.7061 143.917 80.9917 144.297 81.8104L153.476 101.59C153.567 101.799 153.61 102.025 153.601 102.253C153.592 102.48 153.531 102.703 153.422 102.903C153.186 103.356 152.805 103.716 152.339 103.925L138.899 110.177C138.587 110.324 138.247 110.401 137.902 110.404Z" fill="#3F3D56"/>
<path d="M139.74 113.397L124.189 120.631L148.583 173.198L164.133 165.964L139.74 113.397Z" fill="#E6E6E6"/>
<path d="M120.582 46.248L116.022 48.3694C115.142 48.7788 113.955 48.0966 113.376 46.849C112.797 45.6015 113.042 44.2531 113.922 43.8437L118.482 41.7224C119.362 41.313 120.549 41.9952 121.128 43.2427C121.707 44.4903 121.462 45.8387 120.582 46.248Z" fill="#3F3D56"/>
<path d="M125.798 102.929C122.889 104.285 122.841 110.357 123.753 112.324L125.406 115.886L135.94 110.985L134.288 107.424C133.374 105.457 128.708 101.578 125.798 102.929Z" fill="#3F3D56"/>
<path d="M77.4881 90.8082C76.461 91.4933 75.4098 89.8626 76.4566 89.2078C77.4837 88.5227 78.5349 90.1534 77.4881 90.8082Z" fill="#E6E6E6"/>
<path d="M184.401 67.3756C183.374 68.0607 182.322 66.4299 183.369 65.7752C184.396 65.09 185.447 66.7208 184.401 67.3756Z" fill="#E6E6E6"/>
<path d="M111.53 86.0152C110.503 86.7004 109.451 85.0696 110.498 84.4148C111.525 83.7297 112.576 85.3605 111.53 86.0152Z" fill="#E6E6E6"/>
<path d="M77.4881 149.921C76.461 150.607 75.4098 148.976 76.4566 148.321C77.4837 147.636 78.5349 149.267 77.4881 149.921Z" fill="#E6E6E6"/>
<path d="M129.881 16.5171C128.854 17.2023 127.802 15.5715 128.849 14.9168C129.876 14.2316 130.927 15.8624 129.881 16.5171Z" fill="#E6E6E6"/>
<path d="M79.3495 47.9371C78.3224 48.6223 77.2711 46.9915 78.318 46.3367C79.345 45.6516 80.3963 47.2824 79.3495 47.9371Z" fill="#E6E6E6"/>
<path d="M152.029 38.9298L151.375 38.7862L151.518 38.1317L151.083 38.0361L150.939 38.6906L150.286 38.5474L150.19 38.9835L150.844 39.1271L150.701 39.7813L151.136 39.8769L151.28 39.2224L151.933 39.3659L152.029 38.9298Z" fill="#E6E6E6"/>
<path d="M45.6217 93.4578L44.9683 93.3143L45.1114 92.66L44.6757 92.5645L44.5324 93.2187L43.8787 93.0754L43.7832 93.5116L44.4369 93.6551L44.2938 94.3096L44.7295 94.405L44.8728 93.7507L45.5263 93.894L45.6217 93.4578Z" fill="#E6E6E6"/>
<path d="M179.632 121.272C179.088 121.524 178.466 121.55 177.904 121.344C177.341 121.138 176.882 120.717 176.629 120.173L173.94 114.378C173.688 113.833 173.662 113.211 173.868 112.648C174.074 112.085 174.495 111.627 175.039 111.374C175.582 111.121 176.203 111.095 176.766 111.3C177.329 111.506 177.787 111.927 178.04 112.47L180.729 118.266C180.981 118.81 181.007 119.433 180.802 119.996C180.596 120.56 180.175 121.019 179.632 121.272Z" fill="#3F3D56"/>
<path d="M133.888 142.575C133.344 142.827 132.723 142.853 132.16 142.647C131.597 142.441 131.139 142.02 130.886 141.476L128.196 135.68C127.944 135.136 127.919 134.514 128.125 133.951C128.331 133.388 128.752 132.929 129.295 132.677C129.838 132.424 130.459 132.397 131.022 132.603C131.585 132.808 132.043 133.229 132.296 133.773L134.986 139.569C135.238 140.113 135.264 140.735 135.058 141.299C134.852 141.863 134.431 142.321 133.888 142.575Z" fill="#3F3D56"/>
<path d="M175.489 108.61L157.456 116.999C156.308 115.21 152.847 106.046 153.624 103.327L154.005 100.285L164.773 94.9961L167.159 96.9945C170.52 95.8566 175.462 104.197 175.489 108.61Z" fill="#E6E6E6"/>
<path d="M167.117 108.028L162.556 110.149C161.676 110.559 160.337 109.549 159.572 107.9C158.807 106.25 158.9 104.575 159.78 104.166L164.34 102.044C165.22 101.635 166.559 102.644 167.324 104.294C168.09 105.943 167.997 107.618 167.117 108.028Z" fill="#3F3D56"/>
<path d="M128.442 118.944L126.697 115.1L127.701 114.636L129.441 118.468L154.63 174.388L153.627 174.854" fill="#3F3D56"/>
<path d="M145.693 122.244L127.66 130.632C125 129.257 120.934 120.258 123.828 116.961L124.209 113.919L134.977 108.63L137.363 110.628C139.837 111.388 144.653 119.996 145.693 122.244Z" fill="#E6E6E6"/>
<path d="M136.95 120.863L132.389 122.984C131.509 123.393 130.254 122.563 129.591 121.134C128.927 119.705 129.104 118.209 129.984 117.8L134.544 115.679C135.424 115.269 136.68 116.099 137.343 117.528C138.006 118.957 137.83 120.453 136.95 120.863Z" fill="#3F3D56"/>
<path d="M45.5552 81.9722C60.6839 81.9722 72.9482 69.6929 72.9482 54.5457C72.9482 39.3984 60.6839 27.1191 45.5552 27.1191C30.4264 27.1191 18.1621 39.3984 18.1621 54.5457C18.1621 69.6929 30.4264 81.9722 45.5552 81.9722Z" fill="#FF6584"/>
<path opacity="0.3" d="M157.871 83.1115L174.517 34.4336L156.238 82.5288C156.148 82.6429 156.086 82.777 156.058 82.9199C156.029 83.0628 156.035 83.2104 156.075 83.3505C156.115 83.4905 156.188 83.619 156.288 83.7253C156.387 83.8315 156.511 83.9124 156.648 83.9613C156.785 84.0103 156.932 84.0258 157.076 84.0066C157.22 83.9874 157.358 83.934 157.477 83.8509C157.597 83.7678 157.695 83.6574 157.763 83.5288C157.832 83.4002 157.868 83.2571 157.871 83.1115H157.871Z" fill="#F0F0F0"/>
<path d="M200.304 54.0966C197.046 55.1809 193.433 56.2461 189.466 57.2921C168.949 62.7005 141.449 66.9192 112.03 69.1715C82.6119 71.4237 54.7901 71.44 33.6905 69.2179C23.4122 68.1353 15.2826 66.5782 9.52778 64.5897C3.43497 62.4847 0.233492 59.948 0.0121451 57.0505C-0.418894 51.4055 10.7068 46.437 20.116 43.2631L20.3708 44.0201C7.44946 48.3787 0.501895 52.9847 0.807793 56.9896C1.19723 62.0904 13.213 66.2577 33.774 68.4234C54.8272 70.6407 82.5975 70.6237 111.97 68.3751C141.341 66.1263 168.791 61.9159 189.263 56.5196C209.256 51.2498 220.499 45.3015 220.11 40.2007C219.786 35.9656 211.449 32.3427 196.632 29.9989L196.757 29.21C207.522 30.913 220.451 34.1915 220.905 40.1398C221.127 43.0374 218.348 46.0318 212.645 49.0398C209.395 50.7544 205.265 52.4461 200.304 54.0966Z" fill="#3F3D56"/>
<path d="M208.354 102.74C209.926 102.74 211.2 101.464 211.2 99.8898C211.2 98.3159 209.926 97.04 208.354 97.04C206.782 97.04 205.507 98.3159 205.507 99.8898C205.507 101.464 206.782 102.74 208.354 102.74Z" fill="#FF6584"/>
<path d="M226.438 179.96C228.01 179.96 229.284 178.684 229.284 177.111C229.284 175.537 228.01 174.261 226.438 174.261C224.866 174.261 223.592 175.537 223.592 177.111C223.592 178.684 224.866 179.96 226.438 179.96Z" fill="#F2F2F2"/>
<path d="M129.366 197.312C132.431 197.312 134.915 194.824 134.915 191.755C134.915 188.687 132.431 186.199 129.366 186.199C126.301 186.199 123.816 188.687 123.816 191.755C123.816 194.824 126.301 197.312 129.366 197.312Z" fill="#F2F2F2"/>
<path d="M87.0792 123.776C88.6512 123.776 89.9255 122.5 89.9255 120.926C89.9255 119.352 88.6512 118.076 87.0792 118.076C85.5072 118.076 84.2329 119.352 84.2329 120.926C84.2329 122.5 85.5072 123.776 87.0792 123.776Z" fill="#3F3D56"/>
<path d="M182.769 127.485L195.05 130.668L202.582 145.481L189.848 145.981L182.769 127.485Z" fill="#E6E6E6"/>
<path d="M154.424 106.131L161.183 112.902L178.349 150.062L175.189 152.796L154.424 106.131Z" fill="#CCCCCC"/>
<path d="M139.728 112.269L140.258 121.827L156.461 159.418L160.603 158.884L139.728 112.269Z" fill="#CCCCCC"/>
<path d="M139.285 150.883L132.671 161.721L137.547 177.609L147.045 169.103L139.285 150.883Z" fill="#E6E6E6"/>
<path d="M197.71 157.542C194.276 157.542 190.512 157.412 186.419 157.153C165.245 155.806 137.819 151.126 109.193 143.974C80.5662 136.822 54.1592 128.052 34.8364 119.281C25.4236 115.008 18.1994 110.963 13.3646 107.259C8.24585 103.338 6.00682 99.9194 6.70948 97.0998C8.07859 91.6068 20.2015 90.4051 30.1303 90.3643L30.1336 91.1631C16.4988 91.2191 8.45493 93.3963 7.48371 97.2933C6.24654 102.257 16.3363 110.006 35.1658 118.553C54.4462 127.305 80.8046 136.058 109.386 143.199C137.967 150.34 165.343 155.012 186.469 156.355C207.102 157.667 219.645 155.573 220.882 150.609C221.909 146.488 215.138 140.418 201.816 133.515L202.183 132.806C211.863 137.821 223.099 145.015 221.656 150.803C220.954 153.623 217.373 155.587 211.014 156.64C207.389 157.241 202.937 157.542 197.71 157.542Z" fill="#3F3D56"/>
</g>
<defs>
<clipPath id="clip0_866_18026">
<rect width="240" height="220" fill="white"/>
</clipPath>
</defs>
</svg>
