<svg width="188" height="56" viewBox="0 0 188 56" fill="none" xmlns="http://www.w3.org/2000/svg">
<path d="M87.1357 16.6719H90.7979V30.9248C90.7979 32.5459 90.4463 33.9033 89.7432 34.9971C89.04 36.0908 88.083 36.916 86.8721 37.4727C85.6709 38.0195 84.3281 38.293 82.8438 38.293C81.3105 38.293 79.9434 38.0195 78.7422 37.4727C77.541 36.916 76.5938 36.0908 75.9004 34.9971C75.2168 33.9033 74.875 32.5459 74.875 30.9248V16.6719H78.5371V30.9248C78.5371 31.9502 78.7129 32.7949 79.0645 33.459C79.416 34.1133 79.9141 34.5967 80.5586 34.9092C81.2031 35.2217 81.9648 35.3779 82.8438 35.3779C83.7227 35.3779 84.4795 35.2217 85.1143 34.9092C85.7588 34.5967 86.2568 34.1133 86.6084 33.459C86.96 32.7949 87.1357 31.9502 87.1357 30.9248V16.6719ZM97.9463 25.5342V38H94.416V22.1504H97.7412L97.9463 25.5342ZM97.3164 29.4893L96.1738 29.4746C96.1836 28.3516 96.3398 27.3213 96.6426 26.3838C96.9551 25.4463 97.3848 24.6406 97.9316 23.9668C98.4883 23.293 99.1523 22.7754 99.9238 22.4141C100.695 22.043 101.555 21.8574 102.502 21.8574C103.264 21.8574 103.952 21.9648 104.567 22.1797C105.192 22.3848 105.725 22.7217 106.164 23.1904C106.613 23.6592 106.955 24.2695 107.189 25.0215C107.424 25.7637 107.541 26.6768 107.541 27.7607V38H103.996V27.7461C103.996 26.9844 103.884 26.3838 103.659 25.9443C103.444 25.4951 103.127 25.1777 102.707 24.9922C102.297 24.7969 101.784 24.6992 101.169 24.6992C100.563 24.6992 100.021 24.8262 99.543 25.0801C99.0645 25.334 98.6592 25.6807 98.3271 26.1201C98.0049 26.5596 97.7559 27.0674 97.5801 27.6436C97.4043 28.2197 97.3164 28.835 97.3164 29.4893ZM114.924 22.1504V38H111.379V22.1504H114.924ZM111.145 17.9902C111.145 17.4531 111.32 17.0088 111.672 16.6572C112.033 16.2959 112.531 16.1152 113.166 16.1152C113.791 16.1152 114.284 16.2959 114.646 16.6572C115.007 17.0088 115.188 17.4531 115.188 17.9902C115.188 18.5176 115.007 18.957 114.646 19.3086C114.284 19.6602 113.791 19.8359 113.166 19.8359C112.531 19.8359 112.033 19.6602 111.672 19.3086C111.32 18.957 111.145 18.5176 111.145 17.9902ZM127.683 33.708C127.683 33.3564 127.595 33.0391 127.419 32.7559C127.243 32.4629 126.906 32.1992 126.408 31.9648C125.92 31.7305 125.197 31.5156 124.24 31.3203C123.4 31.1348 122.629 30.915 121.926 30.6611C121.232 30.3975 120.637 30.0801 120.139 29.709C119.641 29.3379 119.255 28.8984 118.981 28.3906C118.708 27.8828 118.571 27.2969 118.571 26.6328C118.571 25.9883 118.713 25.3779 118.996 24.8018C119.279 24.2256 119.685 23.7178 120.212 23.2783C120.739 22.8389 121.379 22.4922 122.131 22.2383C122.893 21.9844 123.742 21.8574 124.68 21.8574C126.008 21.8574 127.146 22.082 128.093 22.5312C129.05 22.9707 129.782 23.5713 130.29 24.333C130.798 25.085 131.052 25.9346 131.052 26.8818H127.521C127.521 26.4619 127.414 26.0713 127.199 25.71C126.994 25.3389 126.682 25.041 126.262 24.8164C125.842 24.582 125.314 24.4648 124.68 24.4648C124.074 24.4648 123.571 24.5625 123.171 24.7578C122.78 24.9434 122.487 25.1875 122.292 25.4902C122.106 25.793 122.014 26.125 122.014 26.4863C122.014 26.75 122.062 26.9893 122.16 27.2041C122.268 27.4092 122.443 27.5996 122.688 27.7754C122.932 27.9414 123.264 28.0977 123.684 28.2441C124.113 28.3906 124.65 28.5322 125.295 28.6689C126.506 28.9229 127.546 29.25 128.415 29.6504C129.294 30.041 129.968 30.5488 130.437 31.1738C130.905 31.7891 131.14 32.5703 131.14 33.5176C131.14 34.2207 130.988 34.8652 130.686 35.4512C130.393 36.0273 129.963 36.5303 129.396 36.96C128.83 37.3799 128.151 37.707 127.36 37.9414C126.579 38.1758 125.7 38.293 124.724 38.293C123.288 38.293 122.072 38.0391 121.076 37.5312C120.08 37.0137 119.323 36.3545 118.806 35.5537C118.298 34.7432 118.044 33.9033 118.044 33.0342H121.457C121.496 33.6885 121.677 34.2109 121.999 34.6016C122.331 34.9824 122.741 35.2607 123.229 35.4365C123.728 35.6025 124.24 35.6855 124.768 35.6855C125.402 35.6855 125.935 35.6025 126.364 35.4365C126.794 35.2607 127.121 35.0264 127.346 34.7334C127.57 34.4307 127.683 34.0889 127.683 33.708ZM133.557 30.251V29.9141C133.557 28.7715 133.723 27.7119 134.055 26.7354C134.387 25.749 134.865 24.8945 135.49 24.1719C136.125 23.4395 136.896 22.873 137.805 22.4727C138.723 22.0625 139.758 21.8574 140.91 21.8574C142.072 21.8574 143.107 22.0625 144.016 22.4727C144.934 22.873 145.71 23.4395 146.345 24.1719C146.979 24.8945 147.463 25.749 147.795 26.7354C148.127 27.7119 148.293 28.7715 148.293 29.9141V30.251C148.293 31.3936 148.127 32.4531 147.795 33.4297C147.463 34.4062 146.979 35.2607 146.345 35.9932C145.71 36.7158 144.938 37.2822 144.03 37.6924C143.122 38.0928 142.092 38.293 140.939 38.293C139.777 38.293 138.737 38.0928 137.819 37.6924C136.911 37.2822 136.14 36.7158 135.505 35.9932C134.87 35.2607 134.387 34.4062 134.055 33.4297C133.723 32.4531 133.557 31.3936 133.557 30.251ZM137.087 29.9141V30.251C137.087 30.9639 137.16 31.6377 137.307 32.2725C137.453 32.9072 137.683 33.4639 137.995 33.9424C138.308 34.4209 138.708 34.7969 139.196 35.0703C139.685 35.3438 140.266 35.4805 140.939 35.4805C141.594 35.4805 142.16 35.3438 142.639 35.0703C143.127 34.7969 143.527 34.4209 143.84 33.9424C144.152 33.4639 144.382 32.9072 144.528 32.2725C144.685 31.6377 144.763 30.9639 144.763 30.251V29.9141C144.763 29.2109 144.685 28.5469 144.528 27.9219C144.382 27.2871 144.147 26.7256 143.825 26.2373C143.513 25.749 143.112 25.3682 142.624 25.0947C142.146 24.8115 141.574 24.6699 140.91 24.6699C140.246 24.6699 139.67 24.8115 139.182 25.0947C138.703 25.3682 138.308 25.749 137.995 26.2373C137.683 26.7256 137.453 27.2871 137.307 27.9219C137.16 28.5469 137.087 29.2109 137.087 29.9141ZM155.031 15.5V38H151.486V15.5H155.031ZM164.055 35.2021L167.937 22.1504H171.599L166.091 38H163.806L164.055 35.2021ZM161.081 22.1504L165.036 35.2607L165.227 38H162.941L157.404 22.1504H161.081ZM180.563 38.293C179.392 38.293 178.332 38.1025 177.385 37.7217C176.447 37.3311 175.646 36.7891 174.982 36.0957C174.328 35.4023 173.825 34.5869 173.474 33.6494C173.122 32.7119 172.946 31.7012 172.946 30.6172V30.0312C172.946 28.791 173.127 27.668 173.488 26.6621C173.85 25.6562 174.353 24.7969 174.997 24.084C175.642 23.3613 176.403 22.8096 177.282 22.4287C178.161 22.0479 179.113 21.8574 180.139 21.8574C181.271 21.8574 182.263 22.0479 183.112 22.4287C183.962 22.8096 184.665 23.3467 185.222 24.04C185.788 24.7236 186.208 25.5391 186.481 26.4863C186.765 27.4336 186.906 28.4785 186.906 29.6211V31.1299H174.66V28.5957H183.42V28.3174C183.4 27.6826 183.273 27.0869 183.039 26.5303C182.814 25.9736 182.468 25.5244 181.999 25.1826C181.53 24.8408 180.905 24.6699 180.124 24.6699C179.538 24.6699 179.016 24.7969 178.557 25.0508C178.107 25.2949 177.731 25.6514 177.429 26.1201C177.126 26.5889 176.892 27.1553 176.726 27.8193C176.569 28.4736 176.491 29.2109 176.491 30.0312V30.6172C176.491 31.3105 176.584 31.9551 176.77 32.5508C176.965 33.1367 177.248 33.6494 177.619 34.0889C177.99 34.5283 178.439 34.875 178.967 35.1289C179.494 35.373 180.095 35.4951 180.769 35.4951C181.618 35.4951 182.375 35.3242 183.039 34.9824C183.703 34.6406 184.279 34.1572 184.768 33.5322L186.628 35.334C186.286 35.832 185.842 36.3105 185.295 36.7695C184.748 37.2188 184.079 37.585 183.288 37.8682C182.507 38.1514 181.599 38.293 180.563 38.293Z" fill="white"/>
<rect x="0.5" y="0.5" width="55" height="55" rx="7.5" fill="white" stroke="#E8E8E8"/>
<path fill-rule="evenodd" clip-rule="evenodd" d="M19.9993 29.3359C19.266 29.3359 18.666 29.9359 18.666 30.6693C18.666 31.4026 19.266 32.0026 19.9993 32.0026C20.7327 32.0026 21.3327 31.4026 21.3327 30.6693C21.3327 29.9359 20.7327 29.3359 19.9993 29.3359ZM19.9993 34.6719C19.266 34.6719 18.666 35.2719 18.666 36.0052C18.666 36.7385 19.266 37.3385 19.9993 37.3385C20.7327 37.3385 21.3327 36.7385 21.3327 36.0052C21.3327 35.2719 20.7327 34.6719 19.9993 34.6719ZM19.9993 24C19.266 24 18.666 24.6 18.666 25.3333C18.666 26.0667 19.266 26.6667 19.9993 26.6667C20.7327 26.6667 21.3327 26.0667 21.3327 25.3333C21.3327 24.6 20.7327 24 19.9993 24ZM15.9997 24.6719C15.6263 24.6719 15.333 24.9652 15.333 25.3385C15.333 25.7119 15.6263 26.0052 15.9997 26.0052C16.373 26.0052 16.6663 25.7119 16.6663 25.3385C16.6663 24.9652 16.373 24.6719 15.9997 24.6719ZM19.9993 18.6719C19.266 18.6719 18.666 19.2719 18.666 20.0052C18.666 20.7385 19.266 21.3385 19.9993 21.3385C20.7327 21.3385 21.3327 20.7385 21.3327 20.0052C21.3327 19.2719 20.7327 18.6719 19.9993 18.6719ZM39.9997 26.0052C40.373 26.0052 40.6663 25.7119 40.6663 25.3385C40.6663 24.9652 40.373 24.6719 39.9997 24.6719C39.6263 24.6719 39.333 24.9652 39.333 25.3385C39.333 25.7119 39.6263 26.0052 39.9997 26.0052ZM30.6663 21.3385C31.3997 21.3385 31.9997 20.7385 31.9997 20.0052C31.9997 19.2719 31.3997 18.6719 30.6663 18.6719C29.933 18.6719 29.333 19.2719 29.333 20.0052C29.333 20.7385 29.933 21.3385 30.6663 21.3385ZM30.6667 16.6693C31.04 16.6693 31.3333 16.3759 31.3333 16.0026C31.3333 15.6293 31.04 15.3359 30.6667 15.3359C30.2933 15.3359 30 15.6293 30 16.0026C30 16.3759 30.2933 16.6693 30.6667 16.6693ZM15.9997 30C15.6263 30 15.333 30.2933 15.333 30.6667C15.333 31.04 15.6263 31.3333 15.9997 31.3333C16.373 31.3333 16.6663 31.04 16.6663 30.6667C16.6663 30.2933 16.373 30 15.9997 30ZM25.3327 39.3359C24.9593 39.3359 24.666 39.6293 24.666 40.0026C24.666 40.3759 24.9593 40.6693 25.3327 40.6693C25.706 40.6693 25.9993 40.3759 25.9993 40.0026C25.9993 39.6293 25.706 39.3359 25.3327 39.3359ZM25.3327 16.6693C25.706 16.6693 25.9993 16.3759 25.9993 16.0026C25.9993 15.6293 25.706 15.3359 25.3327 15.3359C24.9593 15.3359 24.666 15.6293 24.666 16.0026C24.666 16.3759 24.9593 16.6693 25.3327 16.6693ZM25.3333 21.3385C26.0667 21.3385 26.6667 20.7385 26.6667 20.0052C26.6667 19.2719 26.0667 18.6719 25.3333 18.6719C24.6 18.6719 24 19.2719 24 20.0052C24 20.7385 24.6 21.3385 25.3333 21.3385ZM25.333 28.6719C24.2263 28.6719 23.333 29.5652 23.333 30.6719C23.333 31.7785 24.2263 32.6719 25.333 32.6719C26.4397 32.6719 27.333 31.7785 27.333 30.6719C27.333 29.5652 26.4397 28.6719 25.333 28.6719ZM35.9993 29.3359C35.266 29.3359 34.666 29.9359 34.666 30.6693C34.666 31.4026 35.266 32.0026 35.9993 32.0026C36.7327 32.0026 37.3327 31.4026 37.3327 30.6693C37.3327 29.9359 36.7327 29.3359 35.9993 29.3359ZM35.9993 34.6719C35.266 34.6719 34.666 35.2719 34.666 36.0052C34.666 36.7385 35.266 37.3385 35.9993 37.3385C36.7327 37.3385 37.3327 36.7385 37.3327 36.0052C37.3327 35.2719 36.7327 34.6719 35.9993 34.6719ZM35.9993 24C35.266 24 34.666 24.6 34.666 25.3333C34.666 26.0667 35.266 26.6667 35.9993 26.6667C36.7327 26.6667 37.3327 26.0667 37.3327 25.3333C37.3327 24.6 36.7327 24 35.9993 24ZM35.9993 18.6719C35.266 18.6719 34.666 19.2719 34.666 20.0052C34.666 20.7385 35.266 21.3385 35.9993 21.3385C36.7327 21.3385 37.3327 20.7385 37.3327 20.0052C37.3327 19.2719 36.7327 18.6719 35.9993 18.6719ZM39.9997 30C39.6263 30 39.333 30.2933 39.333 30.6667C39.333 31.04 39.6263 31.3333 39.9997 31.3333C40.373 31.3333 40.6663 31.04 40.6663 30.6667C40.6663 30.2933 40.373 30 39.9997 30ZM30.6663 34.6719C29.933 34.6719 29.333 35.2719 29.333 36.0052C29.333 36.7385 29.933 37.3385 30.6663 37.3385C31.3997 37.3385 31.9997 36.7385 31.9997 36.0052C31.9997 35.2719 31.3997 34.6719 30.6663 34.6719ZM30.6667 39.3359C30.2933 39.3359 30 39.6293 30 40.0026C30 40.3759 30.2933 40.6693 30.6667 40.6693C31.04 40.6693 31.3333 40.3759 31.3333 40.0026C31.3333 39.6293 31.04 39.3359 30.6667 39.3359ZM25.333 23.3359C24.2263 23.3359 23.333 24.2293 23.333 25.3359C23.333 26.4426 24.2263 27.3359 25.333 27.3359C26.4397 27.3359 27.333 26.4426 27.333 25.3359C27.333 24.2293 26.4397 23.3359 25.333 23.3359ZM25.3333 34.6719C24.6 34.6719 24 35.2719 24 36.0052C24 36.7385 24.6 37.3385 25.3333 37.3385C26.0667 37.3385 26.6667 36.7385 26.6667 36.0052C26.6667 35.2719 26.0667 34.6719 25.3333 34.6719ZM30.666 28.6719C29.5593 28.6719 28.666 29.5652 28.666 30.6719C28.666 31.7785 29.5593 32.6719 30.666 32.6719C31.7727 32.6719 32.666 31.7785 32.666 30.6719C32.666 29.5652 31.7727 28.6719 30.666 28.6719ZM30.666 23.3359C29.5593 23.3359 28.666 24.2293 28.666 25.3359C28.666 26.4426 29.5593 27.3359 30.666 27.3359C31.7727 27.3359 32.666 26.4426 32.666 25.3359C32.666 24.2293 31.7727 23.3359 30.666 23.3359Z" fill="#231F20"/>
</svg>
