<svg xmlns="http://www.w3.org/2000/svg" fill="none" width="146" height="12" viewBox="0 0 146 12"><path d="M3.022 6.82a2.5 2.5 0 1 0 .83 4.93l-.83-4.93ZM142.24 7.955A2.5 2.5 0 0 0 142.903 3l-.663 4.956ZM3.853 11.75c1.165-.197 2.638-.448 4.43-.74l-.802-4.935c-1.811.295-3.305.55-4.459.744l.83 4.93ZM17.14 9.674a397.38 397.38 0 0 1 8.894-1.13l-.575-4.967c-3.316.384-6.32.772-9.006 1.145l.687 4.952Zm17.807-2.067c2.813-.267 5.794-.523 8.941-.761l-.377-4.986c-3.179.24-6.192.5-9.036.769l.472 4.978ZM52.855 6.25c2.872-.165 5.859-.312 8.957-.437L61.611.818c-3.127.126-6.142.275-9.043.441l.287 4.992Zm17.938-.725c2.91-.07 5.907-.12 8.988-.146l-.042-5c-3.108.027-6.13.077-9.066.147l.12 4.999Zm17.972-.154c1.48.01 2.977.025 4.492.047l.07-5a619.96 619.96 0 0 0-4.53-.046l-.032 5Zm4.492.047c2.186.03 4.255.06 6.214.09l.076-5c-1.962-.03-4.033-.06-6.22-.09l-.07 5Zm18.537.303c5.15.103 9.156.205 12.315.311l.167-4.997c-3.19-.107-7.22-.21-12.383-.313l-.099 4.999Zm24.278 1.14c1.442.247 2.937.662 6.168 1.094L142.903 3c-3.233-.432-3.95-.717-5.985-1.066l-.846 4.928Z" fill="#0DA650"/></svg>