<svg xmlns="http://www.w3.org/2000/svg" fill="none" width="177" height="12" viewBox="0 0 177 12"><path d="M2.693 6.886a2.5 2.5 0 0 0 .864 4.925l-.864-4.925Zm170.594 4.939a2.499 2.499 0 1 0 .691-4.953l-.691 4.953ZM3.557 11.81c1.165-.205 2.636-.466 4.427-.77l-.836-4.93c-1.81.307-3.303.573-4.455.775l.864 4.925Zm13.277-2.162a381.9 381.9 0 0 1 8.889-1.177l-.6-4.964c-3.315.4-6.32.805-9.005 1.193l.716 4.948Zm17.798-2.154c2.812-.278 5.793-.545 8.939-.793l-.392-4.984c-3.18.25-6.194.52-9.04.802l.493 4.975Zm17.904-1.413a505.07 505.07 0 0 1 8.958-.455L61.284.63c-3.129.131-6.145.286-9.046.46l.298 4.991Zm17.94-.756c2.91-.073 5.907-.125 8.989-.152l-.044-5c-3.11.028-6.133.08-9.07.153l.125 4.999Zm17.974-.16c1.48.01 2.978.026 4.493.048l.073-5a594.882 594.882 0 0 0-4.532-.048l-.034 5Zm4.493.048c1.72.025 3.405.054 5.056.088l.102-4.999a844.736 844.736 0 0 0-5.085-.088l-.073 4.999Zm15.156.36c3.527.12 6.88.259 10.067.414l.244-4.994a674.4 674.4 0 0 0-10.142-.417l-.169 4.998Zm20.127.99c3.598.238 6.945.496 10.06.766l.431-4.981a500.688 500.688 0 0 0-10.16-.774l-.331 4.99Zm20.073 1.751c3.742.414 7.048.835 9.975 1.24l.684-4.954a375.96 375.96 0 0 0-10.109-1.256l-.55 4.97Zm19.947 2.737c1.922.305 3.597.571 5.041.773l.691-4.953c-1.388-.193-3.011-.45-4.949-.758l-.783 4.938Z" fill="#067DE1"/></svg>