<svg xmlns="http://www.w3.org/2000/svg" fill="none" width="254" height="13" viewBox="0 0 254 13"><path d="M2.687 7.52a2.5 2.5 0 0 0 .626 4.96l-.626-4.96Zm248.064 4.968a2.5 2.5 0 1 0 .498-4.976l-.498 4.976ZM3.313 12.48c1.281-.161 2.823-.358 4.634-.583L7.33 6.935c-1.817.226-3.37.424-4.644.585l.626 4.96Zm13.884-1.675c2.78-.31 5.87-.639 9.265-.974l-.492-4.976a756.4 756.4 0 0 0-9.328.981l.555 4.97Zm18.56-1.835c2.928-.253 6.025-.505 9.288-.75l-.375-4.987c-3.283.247-6.399.501-9.345.756l.432 4.981Zm18.602-1.402a924.17 924.17 0 0 1 9.316-.554l-.272-4.993c-3.238.177-6.36.363-9.367.558l.323 4.99ZM72.99 6.552c3.02-.135 6.127-.26 9.322-.374l-.178-4.997c-3.21.114-6.333.24-9.367.376l.223 4.995Zm18.658-.664c3.04-.08 6.151-.15 9.333-.207l-.089-5C97.695.74 94.569.81 91.515.89l.133 4.998Zm18.66-.336c3.056-.029 6.171-.046 9.345-.05l-.007-5c-3.188.004-6.317.021-9.386.05l.048 5Zm18.674-.027c1.548.01 3.11.023 4.684.04l.052-5c-1.581-.017-3.149-.03-4.704-.04l-.032 5Zm4.684.04c1.66.017 3.298.036 4.914.058l.067-5c-1.621-.021-3.264-.04-4.929-.058l-.052 5Zm14.696.217c3.355.064 6.61.138 9.767.22l.129-4.998c-3.168-.082-6.433-.156-9.8-.221l-.096 4.999Zm19.557.508c3.38.112 6.636.233 9.772.362l.205-4.996c-3.15-.13-6.419-.25-9.812-.363l-.165 4.997Zm19.537.804c3.408.17 6.657.349 9.754.533l.298-4.991a976.918 976.918 0 0 0-9.803-.535l-.249 4.993Zm19.495 1.165c3.463.244 6.704.494 9.738.745l.412-4.983a813.146 813.146 0 0 0-9.798-.75l-.352 4.988Zm19.46 1.61c3.59.345 6.815.68 9.72.996l.539-4.971a769.496 769.496 0 0 0-9.783-1.001l-.476 4.977Zm19.447 2.088c1.805.204 3.431.384 4.893.53l.498-4.975c-1.429-.143-3.028-.32-4.829-.523l-.562 4.968Z" fill="#067DE1"/></svg>