<svg xmlns="http://www.w3.org/2000/svg" fill="none" width="133" height="13" viewBox="0 0 133 13"><path d="M2.402 7.573a2.5 2.5 0 0 0 1.196 4.854L2.402 7.574Zm67.525-4.508.05-2.5-.05 2.5Zm59.593 9.388a2.5 2.5 0 1 0 .96-4.907l-.96 4.907ZM3.598 12.428c1.297-.32 3.097-.772 5.419-1.3L7.91 6.254c-2.376.54-4.228 1.004-5.508 1.32l1.196 4.854Zm16.32-3.456c3.254-.552 6.925-1.1 11.004-1.59l-.597-4.964c-4.163.5-7.915 1.06-11.245 1.625l.838 4.93ZM42.012 6.3c3.495-.265 7.205-.477 11.127-.616L52.962.686c-3.99.141-7.768.357-11.329.628l.379 4.985Zm22.277-.798c1.825.004 3.687.025 5.587.063l.102-4.999C68.048.526 66.155.505 64.3.501l-.011 5Zm5.587.063c1.724.035 3.402.079 5.034.13l.16-4.997a445.136 445.136 0 0 0-5.091-.132l-.102 5Zm15.053.575c3.589.207 6.915.454 9.998.728l.443-4.98c-3.136-.28-6.514-.53-10.153-.74L84.93 6.14Zm19.934 1.795c3.745.477 7.017.984 9.879 1.484l.861-4.926a220.06 220.06 0 0 0-10.109-1.518l-.631 4.96Zm19.668 3.439c1.94.428 3.61.81 4.989 1.08l.96-4.907c-1.3-.254-2.866-.613-4.871-1.056l-1.078 4.883Z" fill="#FFCB34"/></svg>