<svg xmlns="http://www.w3.org/2000/svg" fill="none" width="459" height="364" viewBox="0 0 459 364"><circle fill="#E7F0FC" cx="240.58" cy="3.963" r="3.963"/><circle fill="#E7F0FC" cx="240.58" cy="27.736" r="3.963"/><circle fill="#E7F0FC" cx="240.58" cy="51.513" r="3.963"/><circle fill="#E7F0FC" cx="240.58" cy="75.291" r="3.963"/><circle fill="#E7F0FC" cx="240.58" cy="99.064" r="3.963"/><circle fill="#E7F0FC" cx="240.58" cy="122.838" r="3.963"/><circle fill="#E7F0FC" cx="240.58" cy="146.611" r="3.963"/><circle fill="#E7F0FC" cx="240.58" cy="170.388" r="3.963"/><circle fill="#E7F0FC" cx="264.353" cy="3.963" r="3.963"/><circle fill="#E7F0FC" cx="264.353" cy="27.736" r="3.963"/><circle fill="#E7F0FC" cx="264.353" cy="51.513" r="3.963"/><circle fill="#E7F0FC" cx="264.353" cy="75.291" r="3.963"/><circle fill="#E7F0FC" cx="264.353" cy="99.064" r="3.963"/><circle fill="#E7F0FC" cx="264.353" cy="122.838" r="3.963"/><circle fill="#E7F0FC" cx="264.353" cy="146.611" r="3.963"/><circle fill="#E7F0FC" cx="264.353" cy="170.388" r="3.963"/><circle fill="#E7F0FC" cx="288.134" cy="3.963" r="3.963"/><circle fill="#E7F0FC" cx="288.134" cy="27.736" r="3.963"/><circle fill="#E7F0FC" cx="288.134" cy="51.513" r="3.963"/><circle fill="#E7F0FC" cx="288.134" cy="75.287" r="3.963"/><circle fill="#E7F0FC" cx="288.134" cy="99.064" r="3.963"/><circle fill="#E7F0FC" cx="288.134" cy="122.838" r="3.963"/><circle fill="#E7F0FC" cx="288.134" cy="146.611" r="3.963"/><circle fill="#E7F0FC" cx="288.134" cy="170.388" r="3.963"/><circle fill="#E7F0FC" cx="311.908" cy="3.963" r="3.963"/><circle fill="#E7F0FC" cx="311.908" cy="27.736" r="3.963"/><circle fill="#E7F0FC" cx="311.908" cy="51.513" r="3.963"/><circle fill="#E7F0FC" cx="311.908" cy="75.291" r="3.963"/><circle fill="#E7F0FC" cx="311.908" cy="99.064" r="3.963"/><circle fill="#E7F0FC" cx="311.908" cy="122.838" r="3.963"/><circle fill="#E7F0FC" cx="311.908" cy="146.611" r="3.963"/><circle fill="#E7F0FC" cx="311.908" cy="170.388" r="3.963"/><circle fill="#E7F0FC" cx="335.681" cy="3.963" r="3.963"/><circle fill="#E7F0FC" cx="335.681" cy="27.736" r="3.963"/><circle fill="#E7F0FC" cx="335.681" cy="51.513" r="3.963"/><circle fill="#E7F0FC" cx="335.681" cy="75.291" r="3.963"/><circle fill="#E7F0FC" cx="335.681" cy="99.064" r="3.963"/><circle fill="#E7F0FC" cx="335.681" cy="122.838" r="3.963"/><circle fill="#E7F0FC" cx="335.681" cy="146.611" r="3.963"/><circle fill="#E7F0FC" cx="335.681" cy="170.388" r="3.963"/><circle fill="#E7F0FC" cx="359.455" cy="3.963" r="3.963"/><circle fill="#E7F0FC" cx="359.455" cy="27.736" r="3.963"/><circle fill="#E7F0FC" cx="359.455" cy="51.513" r="3.963"/><circle fill="#E7F0FC" cx="359.455" cy="75.291" r="3.963"/><circle fill="#E7F0FC" cx="359.455" cy="99.064" r="3.963"/><circle fill="#E7F0FC" cx="359.455" cy="122.838" r="3.963"/><circle fill="#E7F0FC" cx="359.455" cy="146.611" r="3.963"/><circle fill="#E7F0FC" cx="359.455" cy="170.388" r="3.963"/><circle fill="#E7F0FC" cx="383.228" cy="3.963" r="3.963"/><circle fill="#E7F0FC" cx="383.228" cy="27.736" r="3.963"/><circle fill="#E7F0FC" cx="383.228" cy="51.513" r="3.963"/><circle fill="#E7F0FC" cx="383.228" cy="75.291" r="3.963"/><circle fill="#E7F0FC" cx="383.228" cy="99.064" r="3.963"/><circle fill="#E7F0FC" cx="383.228" cy="122.838" r="3.963"/><circle fill="#E7F0FC" cx="383.228" cy="146.611" r="3.963"/><circle fill="#E7F0FC" cx="383.228" cy="170.388" r="3.963"/><circle fill="#E7F0FC" cx="407.009" cy="3.963" r="3.963"/><circle fill="#E7F0FC" cx="407.009" cy="27.736" r="3.963"/><circle fill="#E7F0FC" cx="407.009" cy="51.513" r="3.963"/><circle fill="#E7F0FC" cx="407.009" cy="75.287" r="3.963"/><circle fill="#E7F0FC" cx="407.009" cy="99.064" r="3.963"/><circle fill="#E7F0FC" cx="407.009" cy="122.838" r="3.963"/><circle fill="#E7F0FC" cx="407.009" cy="146.611" r="3.963"/><circle fill="#E7F0FC" cx="407.009" cy="170.388" r="3.963"/><circle fill="#E7F0FC" cx="430.783" cy="3.963" r="3.963"/><circle fill="#E7F0FC" cx="430.783" cy="27.736" r="3.963"/><circle fill="#E7F0FC" cx="430.783" cy="51.513" r="3.963"/><circle fill="#E7F0FC" cx="430.783" cy="75.291" r="3.963"/><circle fill="#E7F0FC" cx="430.783" cy="99.064" r="3.963"/><circle fill="#E7F0FC" cx="430.783" cy="122.838" r="3.963"/><circle fill="#E7F0FC" cx="430.783" cy="146.611" r="3.963"/><circle fill="#E7F0FC" cx="430.783" cy="170.388" r="3.963"/><circle fill="#E7F0FC" cx="454.556" cy="3.963" r="3.963"/><circle fill="#E7F0FC" cx="454.556" cy="27.736" r="3.963"/><circle fill="#E7F0FC" cx="454.556" cy="51.513" r="3.963"/><circle fill="#E7F0FC" cx="454.556" cy="75.291" r="3.963"/><circle fill="#E7F0FC" cx="454.556" cy="99.064" r="3.963"/><circle fill="#E7F0FC" cx="454.556" cy="122.838" r="3.963"/><circle fill="#E7F0FC" cx="454.556" cy="146.611" r="3.963"/><circle fill="#E7F0FC" cx="454.556" cy="170.388" r="3.963"/><circle fill="#E7F0FC" cx="240.58" cy="192.963" r="3.963"/><circle fill="#E7F0FC" cx="240.58" cy="216.736" r="3.963"/><circle fill="#E7F0FC" cx="240.58" cy="240.513" r="3.963"/><circle fill="#E7F0FC" cx="240.58" cy="264.291" r="3.963"/><circle fill="#E7F0FC" cx="240.58" cy="288.064" r="3.963"/><circle fill="#E7F0FC" cx="240.58" cy="311.838" r="3.963"/><circle fill="#E7F0FC" cx="240.58" cy="335.611" r="3.963"/><circle fill="#E7F0FC" cx="240.58" cy="359.388" r="3.963"/><circle fill="#E7F0FC" cx="264.353" cy="192.963" r="3.963"/><circle fill="#E7F0FC" cx="264.353" cy="216.736" r="3.963"/><circle fill="#E7F0FC" cx="264.353" cy="240.513" r="3.963"/><circle fill="#E7F0FC" cx="264.353" cy="264.291" r="3.963"/><circle fill="#E7F0FC" cx="264.353" cy="288.064" r="3.963"/><circle fill="#E7F0FC" cx="264.353" cy="311.838" r="3.963"/><circle fill="#E7F0FC" cx="264.353" cy="335.611" r="3.963"/><circle fill="#E7F0FC" cx="264.353" cy="359.388" r="3.963"/><circle fill="#E7F0FC" cx="288.134" cy="192.963" r="3.963"/><circle fill="#E7F0FC" cx="288.134" cy="216.736" r="3.963"/><circle fill="#E7F0FC" cx="288.134" cy="240.513" r="3.963"/><circle fill="#E7F0FC" cx="288.134" cy="264.287" r="3.963"/><circle fill="#E7F0FC" cx="288.134" cy="288.064" r="3.963"/><circle fill="#E7F0FC" cx="288.134" cy="311.838" r="3.963"/><circle fill="#E7F0FC" cx="288.134" cy="335.611" r="3.963"/><circle fill="#E7F0FC" cx="288.134" cy="359.388" r="3.963"/><circle fill="#E7F0FC" cx="311.908" cy="192.963" r="3.963"/><circle fill="#E7F0FC" cx="311.908" cy="216.736" r="3.963"/><circle fill="#E7F0FC" cx="311.908" cy="240.513" r="3.963"/><circle fill="#E7F0FC" cx="311.908" cy="264.291" r="3.963"/><circle fill="#E7F0FC" cx="311.908" cy="288.064" r="3.963"/><circle fill="#E7F0FC" cx="311.908" cy="311.838" r="3.963"/><circle fill="#E7F0FC" cx="311.908" cy="335.611" r="3.963"/><circle fill="#E7F0FC" cx="311.908" cy="359.388" r="3.963"/><circle fill="#E7F0FC" cx="335.681" cy="192.963" r="3.963"/><circle fill="#E7F0FC" cx="335.681" cy="216.736" r="3.963"/><circle fill="#E7F0FC" cx="335.681" cy="240.513" r="3.963"/><circle fill="#E7F0FC" cx="335.681" cy="264.291" r="3.963"/><circle fill="#E7F0FC" cx="335.681" cy="288.064" r="3.963"/><circle fill="#E7F0FC" cx="335.681" cy="311.838" r="3.963"/><circle fill="#E7F0FC" cx="335.681" cy="335.611" r="3.963"/><circle fill="#E7F0FC" cx="335.681" cy="359.388" r="3.963"/><circle fill="#E7F0FC" cx="359.455" cy="192.963" r="3.963"/><circle fill="#E7F0FC" cx="359.455" cy="216.736" r="3.963"/><circle fill="#E7F0FC" cx="359.455" cy="240.513" r="3.963"/><circle fill="#E7F0FC" cx="359.455" cy="264.291" r="3.963"/><circle fill="#E7F0FC" cx="359.455" cy="288.064" r="3.963"/><circle fill="#E7F0FC" cx="359.455" cy="311.838" r="3.963"/><circle fill="#E7F0FC" cx="359.455" cy="335.611" r="3.963"/><circle fill="#E7F0FC" cx="359.455" cy="359.388" r="3.963"/><circle fill="#E7F0FC" cx="383.228" cy="192.963" r="3.963"/><circle fill="#E7F0FC" cx="383.228" cy="216.736" r="3.963"/><circle fill="#E7F0FC" cx="383.228" cy="240.513" r="3.963"/><circle fill="#E7F0FC" cx="383.228" cy="264.291" r="3.963"/><circle fill="#E7F0FC" cx="383.228" cy="288.064" r="3.963"/><circle fill="#E7F0FC" cx="383.228" cy="311.838" r="3.963"/><circle fill="#E7F0FC" cx="383.228" cy="335.611" r="3.963"/><circle fill="#E7F0FC" cx="383.228" cy="359.388" r="3.963"/><circle fill="#E7F0FC" cx="407.009" cy="192.963" r="3.963"/><circle fill="#E7F0FC" cx="407.009" cy="216.736" r="3.963"/><circle fill="#E7F0FC" cx="407.009" cy="240.513" r="3.963"/><circle fill="#E7F0FC" cx="407.009" cy="264.287" r="3.963"/><circle fill="#E7F0FC" cx="407.009" cy="288.064" r="3.963"/><circle fill="#E7F0FC" cx="407.009" cy="311.838" r="3.963"/><circle fill="#E7F0FC" cx="407.009" cy="335.611" r="3.963"/><circle fill="#E7F0FC" cx="407.009" cy="359.388" r="3.963"/><circle fill="#E7F0FC" cx="430.783" cy="192.963" r="3.963"/><circle fill="#E7F0FC" cx="430.783" cy="216.736" r="3.963"/><circle fill="#E7F0FC" cx="430.783" cy="240.513" r="3.963"/><circle fill="#E7F0FC" cx="430.783" cy="264.291" r="3.963"/><circle fill="#E7F0FC" cx="430.783" cy="288.064" r="3.963"/><circle fill="#E7F0FC" cx="430.783" cy="311.838" r="3.963"/><circle fill="#E7F0FC" cx="430.783" cy="335.611" r="3.963"/><circle fill="#E7F0FC" cx="430.783" cy="359.388" r="3.963"/><circle fill="#E7F0FC" cx="454.556" cy="192.963" r="3.963"/><circle fill="#E7F0FC" cx="454.556" cy="216.736" r="3.963"/><circle fill="#E7F0FC" cx="454.556" cy="240.513" r="3.963"/><circle fill="#E7F0FC" cx="454.556" cy="264.291" r="3.963"/><circle fill="#E7F0FC" cx="454.556" cy="288.064" r="3.963"/><circle fill="#E7F0FC" cx="454.556" cy="311.838" r="3.963"/><circle fill="#E7F0FC" cx="454.556" cy="335.611" r="3.963"/><circle fill="#E7F0FC" cx="454.556" cy="359.388" r="3.963"/><circle fill="#E7F0FC" cx="3.963" cy="3.963" r="3.963"/><circle fill="#E7F0FC" cx="3.963" cy="27.736" r="3.963"/><circle fill="#E7F0FC" cx="3.963" cy="51.513" r="3.963"/><circle fill="#E7F0FC" cx="3.963" cy="75.291" r="3.963"/><circle fill="#E7F0FC" cx="3.963" cy="99.064" r="3.963"/><circle fill="#E7F0FC" cx="3.963" cy="122.838" r="3.963"/><circle fill="#E7F0FC" cx="3.963" cy="146.611" r="3.963"/><circle fill="#E7F0FC" cx="3.963" cy="170.388" r="3.963"/><circle fill="#E7F0FC" cx="27.736" cy="3.963" r="3.963"/><circle fill="#E7F0FC" cx="27.736" cy="27.736" r="3.963"/><circle fill="#E7F0FC" cx="27.736" cy="51.513" r="3.963"/><circle fill="#E7F0FC" cx="27.736" cy="75.291" r="3.963"/><circle fill="#E7F0FC" cx="27.736" cy="99.064" r="3.963"/><circle fill="#E7F0FC" cx="27.736" cy="122.838" r="3.963"/><circle fill="#E7F0FC" cx="27.736" cy="146.611" r="3.963"/><circle fill="#E7F0FC" cx="27.736" cy="170.388" r="3.963"/><circle fill="#E7F0FC" cx="51.509" cy="3.963" r="3.963"/><circle fill="#E7F0FC" cx="51.509" cy="27.736" r="3.963"/><circle fill="#E7F0FC" cx="51.509" cy="51.513" r="3.963"/><circle fill="#E7F0FC" cx="51.509" cy="75.287" r="3.963"/><circle fill="#E7F0FC" cx="51.509" cy="99.064" r="3.963"/><circle fill="#E7F0FC" cx="51.509" cy="122.838" r="3.963"/><circle fill="#E7F0FC" cx="51.509" cy="146.611" r="3.963"/><circle fill="#E7F0FC" cx="51.509" cy="170.388" r="3.963"/><circle fill="#E7F0FC" cx="75.291" cy="3.963" r="3.963"/><circle fill="#E7F0FC" cx="75.291" cy="27.736" r="3.963"/><circle fill="#E7F0FC" cx="75.291" cy="51.513" r="3.963"/><circle fill="#E7F0FC" cx="75.291" cy="75.291" r="3.963"/><circle fill="#E7F0FC" cx="75.291" cy="99.064" r="3.963"/><circle fill="#E7F0FC" cx="75.291" cy="122.838" r="3.963"/><circle fill="#E7F0FC" cx="75.291" cy="146.611" r="3.963"/><circle fill="#E7F0FC" cx="75.291" cy="170.388" r="3.963"/><circle fill="#E7F0FC" cx="99.064" cy="3.963" r="3.963"/><circle fill="#E7F0FC" cx="99.064" cy="27.736" r="3.963"/><circle fill="#E7F0FC" cx="99.064" cy="51.513" r="3.963"/><circle fill="#E7F0FC" cx="99.064" cy="75.291" r="3.963"/><circle fill="#E7F0FC" cx="99.064" cy="99.064" r="3.963"/><circle fill="#E7F0FC" cx="99.064" cy="122.838" r="3.963"/><circle fill="#E7F0FC" cx="99.064" cy="146.611" r="3.963"/><circle fill="#E7F0FC" cx="99.064" cy="170.388" r="3.963"/><circle fill="#E7F0FC" cx="122.838" cy="3.963" r="3.963"/><circle fill="#E7F0FC" cx="122.838" cy="27.736" r="3.963"/><circle fill="#E7F0FC" cx="122.838" cy="51.513" r="3.963"/><circle fill="#E7F0FC" cx="122.838" cy="75.291" r="3.963"/><circle fill="#E7F0FC" cx="122.838" cy="99.064" r="3.963"/><circle fill="#E7F0FC" cx="122.838" cy="122.838" r="3.963"/><circle fill="#E7F0FC" cx="122.838" cy="146.611" r="3.963"/><circle fill="#E7F0FC" cx="122.838" cy="170.388" r="3.963"/><circle fill="#E7F0FC" cx="146.611" cy="3.963" r="3.963"/><circle fill="#E7F0FC" cx="146.611" cy="27.736" r="3.963"/><circle fill="#E7F0FC" cx="146.611" cy="51.513" r="3.963"/><circle fill="#E7F0FC" cx="146.611" cy="75.291" r="3.963"/><circle fill="#E7F0FC" cx="146.611" cy="99.064" r="3.963"/><circle fill="#E7F0FC" cx="146.611" cy="122.838" r="3.963"/><circle fill="#E7F0FC" cx="146.611" cy="146.611" r="3.963"/><circle fill="#E7F0FC" cx="146.611" cy="170.388" r="3.963"/><circle fill="#E7F0FC" cx="170.384" cy="3.963" r="3.963"/><circle fill="#E7F0FC" cx="170.384" cy="27.736" r="3.963"/><circle fill="#E7F0FC" cx="170.384" cy="51.513" r="3.963"/><circle fill="#E7F0FC" cx="170.384" cy="75.287" r="3.963"/><circle fill="#E7F0FC" cx="170.384" cy="99.064" r="3.963"/><circle fill="#E7F0FC" cx="170.384" cy="122.838" r="3.963"/><circle fill="#E7F0FC" cx="170.384" cy="146.611" r="3.963"/><circle fill="#E7F0FC" cx="170.384" cy="170.388" r="3.963"/><circle fill="#E7F0FC" cx="194.166" cy="3.963" r="3.963"/><circle fill="#E7F0FC" cx="194.166" cy="27.736" r="3.963"/><circle fill="#E7F0FC" cx="194.166" cy="51.513" r="3.963"/><circle fill="#E7F0FC" cx="194.166" cy="75.291" r="3.963"/><circle fill="#E7F0FC" cx="194.166" cy="99.064" r="3.963"/><circle fill="#E7F0FC" cx="194.166" cy="122.838" r="3.963"/><circle fill="#E7F0FC" cx="194.166" cy="146.611" r="3.963"/><circle fill="#E7F0FC" cx="194.166" cy="170.388" r="3.963"/><circle fill="#E7F0FC" cx="217.939" cy="3.963" r="3.963"/><circle fill="#E7F0FC" cx="217.939" cy="27.736" r="3.963"/><circle fill="#E7F0FC" cx="217.939" cy="51.513" r="3.963"/><circle fill="#E7F0FC" cx="217.939" cy="75.291" r="3.963"/><circle fill="#E7F0FC" cx="217.939" cy="99.064" r="3.963"/><circle fill="#E7F0FC" cx="217.939" cy="122.838" r="3.963"/><circle fill="#E7F0FC" cx="217.939" cy="146.611" r="3.963"/><circle fill="#E7F0FC" cx="217.939" cy="170.388" r="3.963"/><circle fill="#E7F0FC" cx="3.963" cy="192.963" r="3.963"/><circle fill="#E7F0FC" cx="3.963" cy="216.736" r="3.963"/><circle fill="#E7F0FC" cx="3.963" cy="240.513" r="3.963"/><circle fill="#E7F0FC" cx="3.963" cy="264.291" r="3.963"/><circle fill="#E7F0FC" cx="3.963" cy="288.064" r="3.963"/><circle fill="#E7F0FC" cx="3.963" cy="311.838" r="3.963"/><circle fill="#E7F0FC" cx="3.963" cy="335.611" r="3.963"/><circle fill="#E7F0FC" cx="3.963" cy="359.388" r="3.963"/><circle fill="#E7F0FC" cx="27.736" cy="192.963" r="3.963"/><circle fill="#E7F0FC" cx="27.736" cy="216.736" r="3.963"/><circle fill="#E7F0FC" cx="27.736" cy="240.513" r="3.963"/><circle fill="#E7F0FC" cx="27.736" cy="264.291" r="3.963"/><circle fill="#E7F0FC" cx="27.736" cy="288.064" r="3.963"/><circle fill="#E7F0FC" cx="27.736" cy="311.838" r="3.963"/><circle fill="#E7F0FC" cx="27.736" cy="335.611" r="3.963"/><circle fill="#E7F0FC" cx="27.736" cy="359.388" r="3.963"/><circle fill="#E7F0FC" cx="51.509" cy="192.963" r="3.963"/><circle fill="#E7F0FC" cx="51.509" cy="216.736" r="3.963"/><circle fill="#E7F0FC" cx="51.509" cy="240.513" r="3.963"/><circle fill="#E7F0FC" cx="51.509" cy="264.287" r="3.963"/><circle fill="#E7F0FC" cx="51.509" cy="288.064" r="3.963"/><circle fill="#E7F0FC" cx="51.509" cy="311.838" r="3.963"/><circle fill="#E7F0FC" cx="51.509" cy="335.611" r="3.963"/><circle fill="#E7F0FC" cx="51.509" cy="359.388" r="3.963"/><circle fill="#E7F0FC" cx="75.291" cy="192.963" r="3.963"/><circle fill="#E7F0FC" cx="75.291" cy="216.736" r="3.963"/><circle fill="#E7F0FC" cx="75.291" cy="240.513" r="3.963"/><circle fill="#E7F0FC" cx="75.291" cy="264.291" r="3.963"/><circle fill="#E7F0FC" cx="75.291" cy="288.064" r="3.963"/><circle fill="#E7F0FC" cx="75.291" cy="311.838" r="3.963"/><circle fill="#E7F0FC" cx="75.291" cy="335.611" r="3.963"/><circle fill="#E7F0FC" cx="75.291" cy="359.388" r="3.963"/><circle fill="#E7F0FC" cx="99.064" cy="192.963" r="3.963"/><circle fill="#E7F0FC" cx="99.064" cy="216.736" r="3.963"/><circle fill="#E7F0FC" cx="99.064" cy="240.513" r="3.963"/><circle fill="#E7F0FC" cx="99.064" cy="264.291" r="3.963"/><circle fill="#E7F0FC" cx="99.064" cy="288.064" r="3.963"/><circle fill="#E7F0FC" cx="99.064" cy="311.838" r="3.963"/><circle fill="#E7F0FC" cx="99.064" cy="335.611" r="3.963"/><circle fill="#E7F0FC" cx="99.064" cy="359.388" r="3.963"/><circle fill="#E7F0FC" cx="122.838" cy="192.963" r="3.963"/><circle fill="#E7F0FC" cx="122.838" cy="216.736" r="3.963"/><circle fill="#E7F0FC" cx="122.838" cy="240.513" r="3.963"/><circle fill="#E7F0FC" cx="122.838" cy="264.291" r="3.963"/><circle fill="#E7F0FC" cx="122.838" cy="288.064" r="3.963"/><circle fill="#E7F0FC" cx="122.838" cy="311.838" r="3.963"/><circle fill="#E7F0FC" cx="122.838" cy="335.611" r="3.963"/><circle fill="#E7F0FC" cx="122.838" cy="359.388" r="3.963"/><circle fill="#E7F0FC" cx="146.611" cy="192.963" r="3.963"/><circle fill="#E7F0FC" cx="146.611" cy="216.736" r="3.963"/><circle fill="#E7F0FC" cx="146.611" cy="240.513" r="3.963"/><circle fill="#E7F0FC" cx="146.611" cy="264.291" r="3.963"/><circle fill="#E7F0FC" cx="146.611" cy="288.064" r="3.963"/><circle fill="#E7F0FC" cx="146.611" cy="311.838" r="3.963"/><circle fill="#E7F0FC" cx="146.611" cy="335.611" r="3.963"/><circle fill="#E7F0FC" cx="146.611" cy="359.388" r="3.963"/><circle fill="#E7F0FC" cx="170.384" cy="192.963" r="3.963"/><circle fill="#E7F0FC" cx="170.384" cy="216.736" r="3.963"/><circle fill="#E7F0FC" cx="170.384" cy="240.513" r="3.963"/><circle fill="#E7F0FC" cx="170.384" cy="264.287" r="3.963"/><circle fill="#E7F0FC" cx="170.384" cy="288.064" r="3.963"/><circle fill="#E7F0FC" cx="170.384" cy="311.838" r="3.963"/><circle fill="#E7F0FC" cx="170.384" cy="335.611" r="3.963"/><circle fill="#E7F0FC" cx="170.384" cy="359.388" r="3.963"/><circle fill="#E7F0FC" cx="194.166" cy="192.963" r="3.963"/><circle fill="#E7F0FC" cx="194.166" cy="216.736" r="3.963"/><circle fill="#E7F0FC" cx="194.166" cy="240.513" r="3.963"/><circle fill="#E7F0FC" cx="194.166" cy="264.291" r="3.963"/><circle fill="#E7F0FC" cx="194.166" cy="288.064" r="3.963"/><circle fill="#E7F0FC" cx="194.166" cy="311.838" r="3.963"/><circle fill="#E7F0FC" cx="194.166" cy="335.611" r="3.963"/><circle fill="#E7F0FC" cx="194.166" cy="359.388" r="3.963"/><circle fill="#E7F0FC" cx="217.939" cy="192.963" r="3.963"/><circle fill="#E7F0FC" cx="217.939" cy="216.736" r="3.963"/><circle fill="#E7F0FC" cx="217.939" cy="240.513" r="3.963"/><circle fill="#E7F0FC" cx="217.939" cy="264.291" r="3.963"/><circle fill="#E7F0FC" cx="217.939" cy="288.064" r="3.963"/><circle fill="#E7F0FC" cx="217.939" cy="311.838" r="3.963"/><circle fill="#E7F0FC" cx="217.939" cy="335.611" r="3.963"/><circle fill="#E7F0FC" cx="217.939" cy="359.388" r="3.963"/></svg>