<svg xmlns="http://www.w3.org/2000/svg" fill="none" width="175" height="154" viewBox="0 0 175 154"><g fill="#067DE1" opacity=".28"><circle cx="3.5" cy="3.5" r="3.5"/><circle cx="3.5" cy="24.5" r="3.5"/><circle cx="3.5" cy="45.5" r="3.5"/><circle cx="3.5" cy="66.5" r="3.5"/><circle cx="3.5" cy="87.5" r="3.5"/><circle cx="3.5" cy="108.5" r="3.5"/><circle cx="3.5" cy="129.5" r="3.5"/><circle cx="3.5" cy="150.5" r="3.5"/><circle cx="24.5" cy="3.5" r="3.5"/><circle cx="24.5" cy="24.5" r="3.5"/><circle cx="24.5" cy="45.5" r="3.5"/><circle cx="24.5" cy="66.5" r="3.5"/><circle cx="24.5" cy="87.5" r="3.5"/><circle cx="24.5" cy="108.5" r="3.5"/><circle cx="24.5" cy="129.5" r="3.5"/><circle cx="24.5" cy="150.5" r="3.5"/><circle cx="45.5" cy="3.5" r="3.5"/><circle cx="45.5" cy="24.5" r="3.5"/><circle cx="45.5" cy="45.5" r="3.5"/><circle cx="45.5" cy="66.5" r="3.5"/><circle cx="45.5" cy="87.5" r="3.5"/><circle cx="45.5" cy="108.5" r="3.5"/><circle cx="45.5" cy="129.5" r="3.5"/><circle cx="45.5" cy="150.5" r="3.5"/><circle cx="66.5" cy="3.5" r="3.5"/><circle cx="66.5" cy="24.5" r="3.5"/><circle cx="66.5" cy="45.5" r="3.5"/><circle cx="66.5" cy="66.5" r="3.5"/><circle cx="66.5" cy="87.5" r="3.5"/><circle cx="66.5" cy="108.5" r="3.5"/><circle cx="66.5" cy="129.5" r="3.5"/><circle cx="66.5" cy="150.5" r="3.5"/><circle cx="87.5" cy="3.5" r="3.5"/><circle cx="87.5" cy="24.5" r="3.5"/><circle cx="87.5" cy="45.5" r="3.5"/><circle cx="87.5" cy="66.5" r="3.5"/><circle cx="87.5" cy="87.5" r="3.5"/><circle cx="87.5" cy="108.5" r="3.5"/><circle cx="87.5" cy="129.5" r="3.5"/><circle cx="87.5" cy="150.5" r="3.5"/><circle cx="108.5" cy="3.5" r="3.5"/><circle cx="108.5" cy="24.5" r="3.5"/><circle cx="108.5" cy="45.5" r="3.5"/><circle cx="108.5" cy="66.5" r="3.5"/><circle cx="108.5" cy="87.5" r="3.5"/><circle cx="108.5" cy="108.5" r="3.5"/><circle cx="108.5" cy="129.5" r="3.5"/><circle cx="108.5" cy="150.5" r="3.5"/><circle cx="129.5" cy="3.5" r="3.5"/><circle cx="129.5" cy="24.5" r="3.5"/><circle cx="129.5" cy="45.5" r="3.5"/><circle cx="129.5" cy="66.5" r="3.5"/><circle cx="129.5" cy="87.5" r="3.5"/><circle cx="129.5" cy="108.5" r="3.5"/><circle cx="129.5" cy="129.5" r="3.5"/><circle cx="129.5" cy="150.5" r="3.5"/><circle cx="150.5" cy="3.5" r="3.5"/><circle cx="150.5" cy="24.5" r="3.5"/><circle cx="150.5" cy="45.5" r="3.5"/><circle cx="150.5" cy="66.5" r="3.5"/><circle cx="150.5" cy="87.5" r="3.5"/><circle cx="150.5" cy="108.5" r="3.5"/><circle cx="150.5" cy="129.5" r="3.5"/><circle cx="150.5" cy="150.5" r="3.5"/><circle cx="171.5" cy="3.5" r="3.5"/><circle cx="171.5" cy="24.5" r="3.5"/><circle cx="171.5" cy="45.5" r="3.5"/><circle cx="171.5" cy="66.5" r="3.5"/><circle cx="171.5" cy="87.5" r="3.5"/><circle cx="171.5" cy="108.5" r="3.5"/><circle cx="171.5" cy="129.5" r="3.5"/><circle cx="171.5" cy="150.5" r="3.5"/></g></svg>