<svg xmlns="http://www.w3.org/2000/svg" fill="none" width="521" height="471" viewBox="0 0 521 471"><path d="M145.384 245.642c-11.303-2.601-18.186-14.614-15.374-26.831 2.811-12.218 14.253-20.013 25.556-17.412 11.302 2.601 18.185 14.614 15.374 26.831-2.812 12.218-14.254 20.013-25.556 17.412Z" fill="#492B25"/><path d="M226.779 229.029s-1 8-2.85 19.35c-3 18.67-28.25 22.4-36.53 5.39-4.5-9.26-8.35-18.15-10.19-24.74 0 0-4.17-7.56-13.3 11.74s-13 174.78-13 174.78-2.11 31.44-2.11 52.6c27.4-.94 107.18-.42 107.24-.42l-9.13-209s-8.39-33.61-20.13-29.7Z" fill="#fff"/><path d="M226.429 231.629c13 1.55 11 29.49 11 35.23 0 5.74 2.35 200.87 2.35 200.87h70.18l30-105.65s-16.7-47.48-28.44-71.22c-11.74-23.74-33.91-30.78-39.39-31.83-5.48-1.05-26-14-31-23.74-5-9.74-14.35-9.65-14.35-9.65l-.35 5.99Z" fill="#2790D6"/><path d="m182.779 421.359 19.56 4.5 47.75-14.48 52.47 33.08s7 8.21-8.21 8.21c0 0 2.93 5.09-5.09 5.09s-10.66-2.64-10.66-2.64-4.6 6.55-17.12 0c0 0-2.74 5.57-13.11 1.27a159.817 159.817 0 0 1-18-8.8s-8.22 14.87-25.83 20.15h-28.37l6.61-46.38Z" fill="#E8AA80"/><path d="M177.998 225.639s-7.83-2.87-12.52 4.17c-4.69 7.04-19.83 18.53-22.44 21.14 0 0-60.52 13.3-66.26 16.43-5.74 3.13-15.39 21.13-18 26.61-2.61 5.48-37.26 57.07-48.26 141.65-4.17 32.09 18 34.88 23.48 34.44 5.48-.44 145.88-2.47 146.89-2.35 2.46-22.83 6.76-56.35 6.76-56.35l-22.17-5.22s3.91-160.43 3.91-164.08c0-3.65 3.13-13 7.82-13l.79-3.44Z" fill="#2790D6"/><path d="M298.259 458.339h-54.65c-2.48 0-7.83 2.61-8.48 9.39h61.65l1.48-9.39Z" fill="#6B6661"/><path d="m333.669 355.028-43.82 112.7h188.8l42.26-112.7h-187.24Z" fill="#9E9B97"/><path d="M402.981 427.888c-4.378-3.068-3.951-11.228.953-18.224s12.429-10.18 16.806-7.111c4.378 3.069 3.951 11.228-.953 18.224s-12.429 10.18-16.806 7.111Z" fill="#B7AEA3"/><path d="M184.259 212.858s-42.78-.52-44.35-51.65c-1.57-51.13 44.35-67.57 44.35-65.22 0 0 10.69 29.74 35.22 39.91l-35.22 76.96Z" fill="#422722"/><path d="M246.609 163.029s23.47-17.48 9.39-49.3c-14.08-31.82-65.74-27.13-71.74-17.74 0 0 11.8 42.32 63.13 49.3l-.78 17.74Z" fill="#492B25"/><path d="M226.429 218.859s16 0 23.31-18.26c7.31-18.26-1.31-55.57-1.31-55.57s-24.26-1.82-42.52-17.48c0 0-13.83 16.73-15.39 48.41 0 0-2.87-19.45-16.7-19.45-13.83 0-16.17 31.83 8.87 26.87 0 0-5.48 42-5.48 45.65 0 0 2.26 9.09 10.26 26.08 8.1 17.21 33.5 13.67 36.67-5.09 1.56-9.18 2.64-17.89 2.64-24.38l-.35-6.78Z" fill="#E8AA80"/><path d="M229.259 166.548s-8.09-7.56-13.83-7.56-12.65 3.13-14.22 4.69c0 0 5.82 9 14 9s14.05-6.13 14.05-6.13Z" fill="#fff"/><mask id="a" width="29" height="15" x="201" y="158" maskUnits="userSpaceOnUse" style="mask-type:alpha"><path d="M229.259 166.548s-8.09-7.56-13.83-7.56-12.65 3.13-14.22 4.69c0 0 5.82 9 14 9s14.05-6.13 14.05-6.13Z" fill="#fff"/></mask><g mask="url(#a)"><path d="M226.429 162.378s-14.52-7.43-17.65 9.39c0 0 5.35 7.31 22.3-4.82 0 0-3.3-4.57-4.65-4.57Z" fill="#281313"/></g><path d="M251.199 160.819a7.36 7.36 0 0 0-1.05 0c-5.72.5-12.33 4.22-13.75 5.92 0 0 6.58 8.45 14.75 7.74.51-.05.87-.09 1.35-.18-.45-7.15-.66-8.15-1.3-13.48Z" fill="#fff"/><mask id="b" width="17" height="15" x="236" y="160" maskUnits="userSpaceOnUse" style="mask-type:alpha"><path d="M251.199 160.819a7.36 7.36 0 0 0-1.05 0c-5.72.5-12.33 4.22-13.75 5.92 0 0 6.58 8.45 14.75 7.74.51-.05.87-.09 1.35-.18-.45-7.15-.66-8.15-1.3-13.48Z" fill="#fff"/></mask><g mask="url(#b)"><path d="M251.428 162.879c-3.21 1.23-8.36 3.64-9 10.59 0 0 4.88 3.36 10.49 2-.33-4.41-.83-6.77-1.49-12.59Z" fill="#281313"/></g><path d="M177.608 172.679a14.63 14.63 0 0 0-6.85-6.84m62.151 6.84s5.09 2.48 6.78 4.18c1.69 1.7-.41 3.33-1.43 3.52-2.48.46-10.79 0-10.79 0" stroke="#512E27" stroke-miterlimit="10" stroke-width=".75"/><path d="M241.549 155.339a13.514 13.514 0 0 0 9.27 2.56m-32.171-12.92a16.827 16.827 0 0 0-12.36 2.28" stroke="#512E27" stroke-miterlimit="10"/><path d="M195.149 201.249s4.85 18.59 31.28 17.61c0 0 .35 4 .35 7.82-10 .2-28.3-5.41-31.63-25.43Z" fill="#7F4E41"/><path d="m124.258 324.769-15.91 73-32.61-4.43s89.47 11.74 111.91 18m91.431-75.88s11.3 21.84-10.39 87.61" stroke="#000" stroke-miterlimit="10" stroke-width=".75"/><path d="m258.239 425.729 36.11 26.93s2 4.1-2.66 4.89m-50.56-31.82s33.11 23.56 35.38 25.82c2.27 2.26 3 3.64-1.72 6m-48.36-29.74s32.31 23.09 34.52 25.31c2.21 2.22-.89 5.1-4.59 4.84-3.89-.27-6.23-.24-32.84-14.1 0 0-5.67 12.11-27.39 13.69" stroke="#512E27" stroke-miterlimit="10" stroke-width=".75"/><path d="M199.009 89.778s11.37 27.54 61.44 41.66m-72.801-27.189s-44.09 21.63-46.57 63.42m57.931-47.141s-50.37 26.72-36.87 85.35" stroke="#000" stroke-miterlimit="10" stroke-width=".75"/><path d="M184.258 95.988s13.56 48.14 70.43 48.92" stroke="#000" stroke-miterlimit="10" stroke-width=".75"/><path d="M220 199c-4.971 0-9-2.015-9-4.5s4.029-4.5 9-4.5 9 2.015 9 4.5-4.029 4.5-9 4.5Z" fill="#63251F"/><path d="M0 52.105c0-6.833 3.574-13.012 9.344-17.45a13.433 13.433 0 0 1-.292-2.745c0-9.11 9.262-16.516 20.79-16.726C33.346 6.366 43.765 0 56.122 0c9.835 0 18.466 4.065 23.36 10.173a27.836 27.836 0 0 1 3.726-.257c11.75 0 21.281 7.499 21.281 16.75a13.265 13.265 0 0 1-.817 4.59c7.486 3.936 12.427 10.64 12.427 18.255 0 7.336-4.578 13.818-11.61 17.8v.234c0 8.982-8.97 16.352-20.253 16.726-6.214 6.074-15.745 9.963-26.432 9.963a40.144 40.144 0 0 1-20.043-5.162c-.961.108-1.928.162-2.896.163-11.75 0-21.281-7.498-21.281-16.749v-.163C5.36 67.883 0 60.49 0 52.105Zm117.024 49.183c0 1.53 1.775 2.768 3.959 2.768 2.185 0 3.96-1.238 3.96-2.768 0-1.53-1.775-2.769-3.96-2.769-2.184 0-3.959 1.239-3.959 2.769Zm-27.43-6.608c0 4.427 5.15 8.013 11.504 8.013 6.354 0 11.47-3.563 11.47-8.013 0-4.45-5.151-8.012-11.505-8.012-6.354 0-11.47 3.62-11.47 8.012Z" fill="#067DE1"/><path d="M0 52.105c0-6.833 3.574-13.012 9.344-17.45a13.433 13.433 0 0 1-.292-2.745c0-9.11 9.262-16.516 20.79-16.726C33.346 6.366 43.765 0 56.122 0c9.835 0 18.466 4.065 23.36 10.173a27.836 27.836 0 0 1 3.726-.257c11.75 0 21.281 7.499 21.281 16.75a13.265 13.265 0 0 1-.817 4.59c7.486 3.936 12.427 10.64 12.427 18.255 0 7.336-4.578 13.818-11.61 17.8v.234c0 8.982-8.97 16.352-20.253 16.726-6.214 6.074-15.745 9.963-26.432 9.963a40.144 40.144 0 0 1-20.043-5.162c-.961.108-1.928.162-2.896.163-11.75 0-21.281-7.498-21.281-16.749v-.163C5.36 67.883 0 60.49 0 52.105Zm117.024 49.183c0 1.53 1.775 2.768 3.959 2.768 2.185 0 3.96-1.238 3.96-2.768 0-1.53-1.775-2.769-3.96-2.769-2.184 0-3.959 1.239-3.959 2.769Zm-27.43-6.608c0 4.427 5.15 8.013 11.504 8.013 6.354 0 11.47-3.563 11.47-8.013 0-4.45-5.151-8.012-11.505-8.012-6.354 0-11.47 3.62-11.47 8.012Z" fill="#fff" opacity=".7"/><path d="M58.494 19c11.365 0 18.396 5.338 18.396 14.834 0 12.848-13.058 14.494-13.058 24.41H52.56c0-13.046 10.43-13.817 10.43-21.946 0-3.504-2.207-5.174-5.933-5.174-4.158 0-6.365 2.453-6.447 7.545H39C39.082 26.207 46.37 19 58.494 19Zm6.798 52.992a7.253 7.253 0 1 1-14.507 0 7.253 7.253 0 0 1 14.507 0Z" fill="#fff"/></svg>