<svg xmlns="http://www.w3.org/2000/svg" fill="none" width="199" height="181" viewBox="0 0 199 181"><path d="M60.856 35.461c1.523-9.524-4.962-18.48-14.486-20.004-9.524-1.523-18.48 4.962-20.003 14.486-1.524 9.524 4.961 18.48 14.485 20.003 9.524 1.524 18.48-4.961 20.004-14.485Zm101.332 19.366c1.167-7.27-3.78-14.111-11.052-15.278-7.27-1.168-14.11 3.78-15.278 11.051-1.168 7.271 3.78 14.112 11.05 15.28 7.272 1.166 14.113-3.782 15.28-11.053Z" fill="#BDC7FF"/><path d="M167.136 108.696c-1.157-9.992-4.986-19.988-11.911-27.412-6.48-6.945-15.747-7.674-22.759-13.564-7.511-6.314-4.38-16.976-2.414-25.094 2.442-10.068 2.49-20.805-3.15-29.95-11.009-17.836-34.835-14.097-46.16-.626-7.03 8.372-8.8 22.197-11.918 32.459C64.32 59.35 55.107 69.032 42.3 77.062c-8.906 5.585-18.232 11.309-22.16 21.539-5.383 14.02-.718 29.914 9.298 40.643 9.565 10.238 22.966 16.069 36.486 19.747a152.334 152.334 0 0 0 43.687 5.29c11.97-.29 24.147-2.09 34.833-7.49 7.967-4.033 15.89-10.36 19.93-18.49 2.01-4.041 2.132-9.233 2.691-13.7a66.48 66.48 0 0 0 .07-15.895Z" fill="#BDC7FF"/><g stroke="#fff" stroke-linecap="round" stroke-linejoin="round" clip-path="url(#a)"><path d="M121.294 26.48h-1.892a.947.947 0 0 0-.946.947v2.365a.948.948 0 0 0 .946.946h.946a.945.945 0 0 0 .946-.946V26.48Zm0 0a5.68 5.68 0 0 0-1.68-4.03 5.667 5.667 0 0 0-4.043-1.645 5.674 5.674 0 0 0-5.717 5.676v3.31a.943.943 0 0 0 .946.947h.946a.945.945 0 0 0 .945-.946v-2.365a.943.943 0 0 0-.94-.946h-1.89"/><path d="M121.294 29.79v1.418a1.892 1.892 0 0 1-1.892 1.892h-3.4"/></g><g stroke="#fff" stroke-linecap="round" stroke-linejoin="round" clip-path="url(#b)"><path d="M128.144 106.897h-3.903a.354.354 0 0 1-.354-.355v-3.902a4.255 4.255 0 0 1 4.257-4.257v0a4.258 4.258 0 0 1 4.257 4.257v0a4.258 4.258 0 0 1-4.257 4.257v0Z"/><path d="M127.912 106.897a4.263 4.263 0 0 0 4.015 2.838h3.902a.358.358 0 0 0 .25-.104.358.358 0 0 0 .105-.251v-3.902a4.248 4.248 0 0 0-4.027-4.25"/></g><g stroke="#fff" stroke-linecap="round" stroke-linejoin="round" clip-path="url(#c)"><path d="m38.988 33.337-2.341 1.891V27.66a.473.473 0 0 1 .473-.473h7.567a.473.473 0 0 1 .473.473v5.204a.473.473 0 0 1-.473.473h-5.7Z"/><path d="M39.484 33.327v2.365a.473.473 0 0 0 .473.473h5.7l2.341 1.892V30.49a.473.473 0 0 0-.473-.475H45.16"/></g><g clip-path="url(#d)"><path d="m74.103 61.083-1.946 1.632a.473.473 0 0 1-.774-.36v-9.39a.473.473 0 0 1 .473-.473h10.406a.473.473 0 0 1 .473.473v7.568a.473.473 0 0 1-.473.473h-7.94l-.22.077Zm1.063-5.286h3.784m-3.784 1.906h3.784" stroke="#fff" stroke-linecap="round" stroke-linejoin="round"/></g><g clip-path="url(#e)"><path d="m146.592 57.345-1.91 1.596a.475.475 0 0 1-.774-.36v-9.39a.472.472 0 0 1 .473-.472h10.406a.474.474 0 0 1 .473.473v7.568a.475.475 0 0 1-.473.473h-7.893a.462.462 0 0 0-.302.112v0Z" stroke="#fff" stroke-linecap="round" stroke-linejoin="round"/><path d="M149.583 53.677a.71.71 0 1 0-.001-1.42.71.71 0 0 0 .001 1.42Zm-2.838 0a.71.71 0 1 0-.001-1.42.71.71 0 0 0 .001 1.42Zm5.677 0a.71.71 0 1 0 0-1.42.71.71 0 0 0 0 1.42Z" fill="#fff"/></g><path d="M24.412 117.457h8.237v3.35a2.487 2.487 0 0 1-2.49 2.473h-3.258a2.485 2.485 0 0 1-2.485-2.485v-3.35l-.004.012Z" fill="#73382D" stroke="#73382D" stroke-miterlimit="10" stroke-width=".07"/><path d="M35.923 110.298c-1.284 2.378-3.567 3.674-5.073 2.861-1.507-.812-1.709-3.412-.424-5.81 1.284-2.398 3.567-3.675 5.073-2.862 1.506.812 1.704 3.417.424 5.811Z" fill="#00954F"/><path d="M35.675 110.157c-1.19 2.18-3.227 3.353-4.598 2.62-1.372-.734-1.534-3.1-.365-5.284 1.17-2.184 3.23-3.353 4.602-2.616 1.372.737 1.51 3.096.36 5.28Zm-3.57-4.376.928 3.07m-.828 1.87 3.714-1.12m-1.747-2.481 2.05-.618m-4.876 5.773 3.753-1.133m-3.04-.335-1.096-3.643m2.37 1.27 3.074-.926m-5.25 4.702-1.025-3.405" stroke="#BFBF5B" stroke-linecap="round" stroke-miterlimit="10" stroke-width=".47"/><path d="M27.69 105.246c.817 2.592.147 5.113-1.494 5.628-1.64.515-3.635-1.161-4.455-3.75-.82-2.588-.15-5.113 1.494-5.632 1.645-.52 3.635 1.173 4.456 3.754Z" fill="#00954F"/><path d="M27.402 105.337c.745 2.358.146 4.653-1.336 5.12-1.482.47-3.29-1.053-4.035-3.432-.745-2.378-.147-4.645 1.356-5.113 1.502-.467 3.27 1.062 4.015 3.425Zm-5.605-.501 2.842 1.478m.758 1.884 1.791-3.44m-3.004-.48.986-1.895m.734 7.511 1.812-3.48m-2.355 1.936-3.377-1.756m2.567-.795 1.482-2.846m-.3 7.028-3.151-1.637" stroke="#BFBF5B" stroke-linecap="round" stroke-miterlimit="10" stroke-width=".47"/><path d="M32.273 104.462c0 2.58-1.328 4.669-2.96 4.669-1.634 0-2.957-2.089-2.957-4.669 0-2.58 1.323-4.665 2.956-4.665s2.961 2.077 2.961 4.665Z" fill="#00C76A"/><path d="M29.312 108.717c1.476 0 2.672-1.904 2.672-4.253 0-2.35-1.196-4.253-2.672-4.253-1.475 0-2.671 1.904-2.671 4.253 0 2.35 1.196 4.253 2.671 4.253Zm-2.252-6.31 2.15 2.148m.142 1.928 2.604-2.6m-2.577-1.292 1.435-1.435m-1.486 7.015 2.632-2.632m-2.683 1.064-2.552-2.556m2.552.015 2.153-2.156m-2.28 6.289-2.386-2.383" stroke="#FFFF79" stroke-linecap="round" stroke-miterlimit="10" stroke-width=".47"/><path d="M29.313 118.527v-16.441m-1.409 4.062 1.427 1.427m.052-2.38 1.336-1.336m-2.272-1.85.79.784" stroke="#3D3F54" stroke-linecap="round" stroke-miterlimit="10" stroke-width=".68"/><path d="M23.154 109.412c1.585 1.308 2.172 3.17 1.34 4.174-.833 1.002-2.775.74-4.36-.567-1.586-1.308-2.173-3.17-1.34-4.178.832-1.007 2.786-.749 4.36.571Z" fill="#00C76A"/><path d="M22.99 109.579c1.432 1.19 1.983 2.89 1.233 3.79-.749.9-2.517.661-3.963-.532-1.447-1.193-1.982-2.893-1.233-3.793.75-.9 2.549-.658 3.964.535Zm-3.742 1.944 2.398-.218m1.252.893-.265-2.909m-2.1.914-.142-1.6m3.52 4.463-.26-2.941m-.71 2.187-2.851.258m1.303-1.547-.218-2.406m2.668 4.57-2.663.238" stroke="#FFFF79" stroke-linecap="round" stroke-miterlimit="10" stroke-width=".47"/><path d="M36.7 113.553c-1.632 1.586-3.765 2.01-4.756.975-.99-1.034-.487-3.135 1.146-4.72 1.633-1.586 3.761-2.014 4.756-.98.995 1.035.488 3.152-1.145 4.725Z" fill="#00C76A"/><path d="M36.526 113.369c-1.487 1.435-3.425 1.839-4.325.904-.9-.936-.424-2.854 1.063-4.29 1.486-1.434 3.42-1.834 4.32-.903.9.932.428 2.85-1.058 4.29Zm-1.705-4.377-.048 2.672m-1.132 1.266 3.238.059m-.754-2.42 1.784.033m-5.346 3.336 3.27.059m-2.32-1.033.06-3.175m1.554 1.617 2.68.048m-5.372 2.386.056-2.965" stroke="#FFFF79" stroke-linecap="round" stroke-miterlimit="10" stroke-width=".47"/><path d="M22.99 113.765c2.506.1 4.488 1.47 4.42 3.06-.067 1.589-2.148 2.774-4.653 2.687-2.505-.087-4.483-1.47-4.42-3.06.064-1.589 2.149-2.798 4.654-2.687Z" fill="#00954F"/><path d="M22.99 114.037c2.28.09 4.083 1.332 4.024 2.775-.06 1.442-1.962 2.505-4.245 2.418-2.284-.088-4.083-1.332-4.027-2.775.055-1.443 1.957-2.513 4.248-2.418Zm-2.209 4.699 2.172-2.002m1.883-.055-2.426-2.632m-1.361 2.443-1.336-1.45m6.758 1.729-2.453-2.66m.937 2.63-2.58 2.383m.103-2.483-2.005-2.18m6.013 2.47-2.41 2.223" stroke="#BFBF5B" stroke-linecap="round" stroke-miterlimit="10" stroke-width=".47"/><path d="M29.456 111.015c.792 2.117.396 4.249-.956 4.757-1.351.507-3.087-.793-3.9-2.898-.813-2.104-.396-4.249.951-4.756 1.348-.507 3.088.785 3.905 2.897Z" fill="#00C76A"/><path d="M29.217 111.104c.745 1.93.364 3.868-.849 4.336-1.212.468-2.774-.721-3.535-2.648-.761-1.926-.36-3.868.848-4.332 1.21-.464 2.8.718 3.54 2.644Zm-4.694-.135 2.442 1.086m.73 1.539 1.316-2.96m-2.525-.247.726-1.63m.995 6.228 1.328-2.993m-1.86 1.726-2.905-1.288m2.101-.805 1.086-2.445m.11 5.876-2.706-1.204" stroke="#FFFF79" stroke-linecap="round" stroke-miterlimit="10" stroke-width=".47"/><path d="M33.95 120.106c-2.248-.325-3.9-1.736-3.694-3.17.206-1.436 2.188-2.316 4.43-1.983 2.244.333 3.901 1.736 3.695 3.17-.206 1.436-2.188 2.316-4.43 1.983Z" fill="#00C76A"/><path d="M33.984 119.869c-2.045-.293-3.567-1.585-3.37-2.857.2-1.273 1.983-2.089 4.036-1.796 2.053.293 3.567 1.585 3.37 2.858-.2 1.272-1.995 2.089-4.036 1.795Zm2.412-4.025-2.14 1.6m-1.697-.116 1.938 2.592m1.45-2.084 1.07 1.427m-5.921-2.17 1.962 2.62m-.603-2.475 2.54-1.902m-.32 2.226 1.606 2.145m-5.185-2.775 2.374-1.776" stroke="#FFFF79" stroke-linecap="round" stroke-miterlimit="10" stroke-width=".47"/><path d="M25.3 118.764c.924-2.073 2.73-3.278 4.047-2.695 1.316.582 1.629 2.734.71 4.807-.92 2.073-2.73 3.278-4.043 2.696-1.312-.583-1.633-2.735-.714-4.808Z" fill="#00C76A"/><path d="M25.534 118.862c.837-1.886 2.478-2.992 3.663-2.465 1.185.527 1.47 2.485.63 4.36-.84 1.875-2.478 3.005-3.667 2.477-1.19-.527-1.466-2.485-.626-4.372Zm3.222 3.412-.96-2.493m.572-1.6-3.02 1.16m1.61 1.971-1.669.643m3.702-5.119-3.055 1.177m2.54.104 1.142 2.965m-2.054-.926-2.498.96m4.075-4.225 1.066 2.767" stroke="#FFFF79" stroke-linecap="round" stroke-miterlimit="10" stroke-width=".47"/><path d="M70.86 125.555h-1.007v38.237h1.007v-38.237Zm5.323 0h-1.007v38.237h1.007v-38.237Zm-46.045 0H29.13v38.237h1.007v-38.237Zm4.525 0h-1.007v38.237h1.007v-38.237Z" fill="#3D3F54"/><path d="M34.056 129.336h42.126v-2.72H34.056v2.72Z" fill="#707078"/><path d="M31.62 126.625h49.874v-3.484H31.62v3.484Z" fill="#A9A8B5"/><path d="M27.161 129.336h18.546v-2.72H27.161v2.72Z" fill="#5B5A61"/><path d="M25.457 126.609h23.219v-3.484h-23.22v3.484Z" fill="#68676F"/><path d="M50.165 104.375h22.014a1.324 1.324 0 0 1 1.296 1.035l3.694 16.286a1.035 1.035 0 0 1-1.007 1.265H54.081a1.72 1.72 0 0 1-1.673-1.336l-3.54-15.617a1.334 1.334 0 0 1 1.297-1.633Z" fill="#F1F0FF"/><path d="M62.333 104.883a.313.313 0 1 1-.626 0 .313.313 0 0 1 .626 0Z" fill="#3D3F54"/><path d="M51.264 105.406h20.131a1.221 1.221 0 0 1 1.19.948l3.377 14.883a.945.945 0 0 1-.513 1.064.972.972 0 0 1-.41.1H54.846a1.583 1.583 0 0 1-1.53-1.22l-3.242-14.27a1.221 1.221 0 0 1 1.189-1.5Z" fill="#FB4B62"/><path d="M55.492 109.094h12.803l2.18 9.616H57.827a.19.19 0 0 1-.125-.043.193.193 0 0 1-.07-.112l-2.14-9.461Z" fill="#fff"/><path d="m67.225 117.516-1.07-4.633h.919l1.07 4.633h-.92Zm-1.641-3.43.792 3.432h-.92l-.792-3.432h.92Zm-1.768 0 .797 3.432h-.92l-.793-3.432h.916Zm-1.498 1.148.527 2.28h-.92l-.527-2.28h.92Zm-1.563.891.322 1.387h-.92l-.321-1.387h.92Z" fill="#FB4B62"/><path d="m57.81 111.781 1.396 5.748h9.655m-9.38-1.3 7.134-4.58m-.556-.057h.57v.558" stroke="#4E506B" stroke-linecap="round" stroke-miterlimit="10" stroke-width=".46"/><path d="m68.612 110.493-.317-1.4h-12.81l.316 1.4h12.811Z" fill="#4E506B" stroke="#4E506B" stroke-linecap="round" stroke-linejoin="round" stroke-width=".68"/><path d="M86.409 123.112H53.66a1.249 1.249 0 0 1-1.249-1.248v-.31h32.068a2.009 2.009 0 0 1 1.938 1.558Z" fill="#F1F0FF"/><path d="M61.504 123.112a1.556 1.556 0 0 1 1.558-1.557h21.403a2.004 2.004 0 0 1 1.954 1.557H61.505Zm2.84 24.794c-2.81 0-2.815 4.36 0 4.36 2.814 0 2.818-4.36 0-4.36Zm59.518-12.042a3.403 3.403 0 0 0-2.318-.963c-.44-.02-.876.08-1.265.285a3.37 3.37 0 0 0-2.013 2.997c0 .869.346 1.702.959 2.318a3.422 3.422 0 0 0 2.32.96 3.373 3.373 0 0 0 3.277-3.278 3.324 3.324 0 0 0-.96-2.319Z" fill="#fff"/><path d="M72.29 156.57c-3.096 0-3.1 4.808 0 4.808s3.1-4.808 0-4.808Zm13.03-1.258c-1.88 0-1.88 2.914 0 2.914 1.878 0 1.882-2.914 0-2.914Zm5.766 6.967 1.03.782a5.099 5.099 0 0 0 2.006.663h1.224c.457-.052.9-.186 1.308-.396a4.592 4.592 0 0 0 2.696-2.696c.32-.602.472-1.28.44-1.962-.06-.455-.12-.907-.183-1.36a5.047 5.047 0 0 0-1.308-2.249l-1.03-.793a5.067 5.067 0 0 0-2.573-.694 3.815 3.815 0 0 0-1.98.44 4.59 4.59 0 0 0-2.697 2.695 3.808 3.808 0 0 0-.44 1.983c.05.452.11.904.18 1.356.24.843.69 1.61 1.32 2.223Zm15.732 1.45h3.072c2.695-1.374 2.188-6.34-1.534-6.34-3.722-.001-4.233 4.966-1.538 6.34Zm9.32-10.583c-1.785 0-1.785 2.775-.001 2.775 1.783 0 1.787-2.775 0-2.775Zm2.226-31.133c-6.47 0-6.481 10.056 0 10.056 6.48 0 6.492-10.056 0-10.056Zm18.32 19.61a3.1 3.1 0 0 0-2.113-.876 3.067 3.067 0 0 0-2.113.876c-.286.26-.5.591-.618.96a2.267 2.267 0 0 0-.258 1.152c.005.792.32 1.55.876 2.113a2.999 2.999 0 0 0 4.226 0 2.27 2.27 0 0 0 .614-.963c.188-.353.277-.75.258-1.15a3.007 3.007 0 0 0-.872-2.112Zm-56.285-5.53a2.266 2.266 0 0 0-3.195 0 2.257 2.257 0 0 0 0 3.194c.426.414.993.65 1.586.662a2.261 2.261 0 0 0 2.26-2.26 2.298 2.298 0 0 0-.65-1.596Zm44.002 15.279a5.545 5.545 0 0 0-5.127 3.425 5.553 5.553 0 0 0 1.203 6.048 5.548 5.548 0 0 0 9.473-3.924 5.627 5.627 0 0 0-5.549-5.548Zm11.803 12.358a2.22 2.22 0 0 0 .036-.46 2.659 2.659 0 0 0-.77-1.855 2.61 2.61 0 0 0-1.854-.77 2.622 2.622 0 0 0-1.855.77 2.917 2.917 0 0 0-.77 1.855c.01.155.03.309.06.46h5.16Zm-32.3-16.444c-5.438 0-5.446 8.45 0 8.45s5.45-8.451 0-8.451Z" fill="#EDF0FF"/><path d="M98.214 87.813a312.914 312.914 0 0 1-4.638 53.993m7.895-37.626a119.935 119.935 0 0 0 5.71 35.93m-7.24-45.305v26.219m-13.151 28.3a49.534 49.534 0 0 0 5.324-14.644" stroke="#DFE3FC" stroke-linecap="round" stroke-miterlimit="10" stroke-width=".71"/><path d="M78.962 154.812c-3.75 0-3.758 5.827 0 5.827 3.757 0 3.757-5.827 0-5.827Zm33.682-20.984c-1.312 0-1.316 2.037 0 2.037s1.316-2.037 0-2.037Z" fill="#D1D5ED"/><path d="M127.897 117.227c-1.407 0-1.407 2.187 0 2.187s1.41-2.187 0-2.187Z" fill="#fff"/><path d="M98.406 124.141v18.399m3.108-13.845a53.004 53.004 0 0 0 4.685 18.083" stroke="#DFE3FC" stroke-linecap="round" stroke-miterlimit="10" stroke-width=".71"/><path d="M84.967 65.742A32.25 32.25 0 0 0 85.76 76.9" stroke="#4E506B" stroke-linecap="round" stroke-miterlimit="10" stroke-width=".71"/><path d="M106.684 52.783a7.674 7.674 0 1 0-14.943-3.497 7.674 7.674 0 0 0 14.943 3.497Z" fill="#fff" stroke="#4E506B" stroke-linecap="round" stroke-miterlimit="10" stroke-width=".71"/><path d="M99.215 56.196a5.157 5.157 0 1 0 0-10.314 5.157 5.157 0 0 0 0 10.314Z" fill="#8AB5FF"/><path d="M101.609 50.262a2.375 2.375 0 0 0-1.504-2.213 2.38 2.38 0 0 0-.926-.166 2.425 2.425 0 0 0-2.36 2.458 2.379 2.379 0 0 0 1.425 2.124.586.586 0 0 1 .352.535v1.309h1.233v-1.324a.603.603 0 0 1 .352-.54 2.379 2.379 0 0 0 1.418-2.183Z" fill="#FFE7A0"/><path d="M98.907 53.023a6.619 6.619 0 0 0-.567-2.164m1.117 2.164c.065-.748.257-1.48.567-2.164" stroke="#4E506B" stroke-linecap="round" stroke-miterlimit="10" stroke-width=".71"/><path d="M99.215 54.7a.54.54 0 0 1-.543-.538v-.11a.543.543 0 0 1 1.042-.209.54.54 0 0 1 .04.208v.11a.539.539 0 0 1-.54.54Z" fill="#4E506B"/><path d="M99.746 53.11h-1.062a.174.174 0 0 0-.174.174v.888c0 .096.078.174.174.174h1.062a.174.174 0 0 0 .175-.174v-.888a.174.174 0 0 0-.17-.175Z" fill="#999"/><path d="M91.086 63.063c-3 0-3.005 4.665 0 4.665 3.004 0 3.004-4.665 0-4.665Z" fill="#fff"/><path d="M94.047 60.906c-1.982 0-1.982 3.06 0 3.06s1.974-3.06 0-3.06Zm20.79 3.634a2.13 2.13 0 0 0-2.18 2.203 3.004 3.004 0 0 0-1.703-.487 2.904 2.904 0 0 0-2.98 2.552 2.254 2.254 0 0 0-2.058 2.248 2.29 2.29 0 0 0 .662 1.585 2.37 2.37 0 0 0 1.585.673 2.335 2.335 0 0 0 1.586-.663c.08-.08.155-.17.222-.264.32.09.64.135.96.135 2.24 0 3.23-1.923 2.99-3.635.29.115.59.173.9.17 2.93.012 2.94-4.506.026-4.506Zm1.14-17.926a1.962 1.962 0 0 0-2.774 0 1.982 1.982 0 0 0 0 2.774 2.05 2.05 0 0 0 1.39.575 1.983 1.983 0 0 0 1.983-1.982 1.979 1.979 0 0 0-.598-1.367ZM79.403 89.359c-2.156 0-2.16 3.35 0 3.35s2.16-3.35 0-3.35Zm9.832-53.898a.511.511 0 1 0 0 1.03.511.511 0 0 0 0-1.021Zm-2.722-1.94a1.618 1.618 0 0 0-.218-.79 2.379 2.379 0 0 0-.658-1.023v-.022a3.172 3.172 0 0 0-1.41-.82 3.226 3.226 0 0 0-1.694 0 3.142 3.142 0 0 0-1.407.82 2.378 2.378 0 0 0-.662 1.026 2.423 2.423 0 0 0-.273 1.229 3.145 3.145 0 0 0 .436 1.61 3.208 3.208 0 0 0 2.755 1.585h.027l.845-.115.757-.32.642-.496c.304-.278.53-.63.658-1.022a3.17 3.17 0 0 0 .218-1.645l-.02-.012Zm-7.27-4.964a1.312 1.312 0 1 0 1.312 1.31 1.328 1.328 0 0 0-1.312-1.31Zm1.297-1.946a.293.293 0 0 0 0 .582.293.293 0 0 0 0-.582Zm5.365-5.633c-2.628 0-2.632 4.082 0 4.082s2.628-4.082 0-4.082Zm7.22-1.203a.659.659 0 0 0 0 1.31.658.658 0 0 0 0-1.311Zm7.4-4.228c-2.72 0-2.724 4.225 0 4.225s2.722-4.225 0-4.225Zm9.624-1.258c-1.502 0-1.502 2.332 0 2.332s1.502-2.33 0-2.33Z" fill="#fff"/><path d="M18.63 157.201c-.087-.57.48-.856.912-1.225.467-.119 1.006-.888 1.316-1.229.872-.975 3.63-4.95 3.63-4.95l2.862.856s-2.957 4.15-3.096 4.48a5.505 5.505 0 0 0 .286 3.376.891.891 0 0 1-.04.734.902.902 0 0 1-1.22.398l-4.65-2.45Z" fill="#FFBF9D"/><path d="m37.37 137.494 5.946-18.764 1.363-5.378c1.51-5.946-7.412-8.486-9.116-2.589a8.954 8.954 0 0 0-.273 1.328l-.868 6.524-2.09 13.58-3.48 4.855-6.948 15.911c.793.697 1.487 1.427 2.775 1.538l12.69-17.01Z" fill="#3D3F54"/><path d="m17.302 159.75 10.623 5.55a.537.537 0 0 0 .406.037.528.528 0 0 0 .31-.264.534.534 0 0 0-.221-.721l-10.626-5.55a.518.518 0 0 0-.406-.035.53.53 0 0 0-.348.67.536.536 0 0 0 .262.313Z" fill="#4E506B" stroke="#4E506B" stroke-linecap="round" stroke-linejoin="round" stroke-width=".68"/><path d="m24.576 157.53 1.486 3.258s2.775 1.827 3.108 3.353c0 0-.167.83-.59.607l-10.869-5.684a.542.542 0 0 1-.28-.555.54.54 0 0 1 .084-.206l2.405-3.92s1.044.166.763 1.637c-.283 1.47 3.903 1.51 3.903 1.51Z" fill="#FB4B62"/><path d="M22.55 157.78c-.77-.159-1.637-.33-2.2-.916-.563-.587.277-1.189-.21-1.831a5.752 5.752 0 0 0-.36-.444l.13-.206s1.043.166.761 1.637c-.281 1.47 3.904 1.506 3.904 1.506l.147.313c-.724.052-1.452.032-2.172-.059Z" fill="#4E506B" stroke="#4E506B" stroke-linecap="round" stroke-linejoin="round" stroke-width=".68"/><path d="M25.186 158.718a.833.833 0 0 0-.702 0m1.113.834a.6.6 0 0 0-.638 0m1.058.882a.645.645 0 0 0-.67.059" stroke="#4E506B" stroke-linecap="round" stroke-miterlimit="10" stroke-width=".91"/><path d="M22.64 157.616c1.027-.35 1.499.868 1.657 1.633a2.9 2.9 0 0 0 .516 1.33c.175.18.36.35.555.51.207.15.348.38.396.631m-6.257-1.615a3.9 3.9 0 0 0-1.007-3.365m7.74 4.243-.793.16m3.504 3.45-9.314-4.874m-.385-2.072a3.677 3.677 0 0 0 1.082-1.827" stroke="#4E506B" stroke-linecap="round" stroke-miterlimit="10" stroke-width=".46"/><path d="M38.333 163.338c-.345-.46.023-.979.237-1.506.361-.32.484-1.253.595-1.697.32-1.268.924-6.072.924-6.072l2.94-.57c0-.001-.697 5.045-.665 5.402a5.5 5.5 0 0 0 1.815 2.86.87.87 0 0 1 .31.68.906.906 0 0 1-.912.903h-5.25Z" fill="#FFBF9D"/><path d="m45.81 137.184.963-18.764-.321-8.494c0-6.136-9.252-6.433-9.466-.302-.013.454.007.91.06 1.36l1.086 9.481.77 14.352-.829 5.902 1.19 17.333c1.014.254 1.981.57 3.17.072l3.377-20.94Zm-7.46 29.042h11.99a.536.536 0 0 0 0-1.07H38.35a.54.54 0 0 0-.535.543.538.538 0 0 0 .535.527Z" fill="#4E506B" stroke="#4E506B" stroke-linecap="round" stroke-linejoin="round" stroke-width=".68"/><path d="m43.763 160.871 2.826 2.195s3.301.337 4.308 1.534c0 0 .238.813-.242.813H38.392a.533.533 0 0 1-.395-.173.54.54 0 0 1-.144-.406l.313-4.59s1.007-.333 1.44 1.102c.431 1.435 4.157-.475 4.157-.475Z" fill="#FB4B62"/><path d="M42.083 162.036c-.75.214-1.586.468-2.379.21-.793-.258-.309-1.19-1.034-1.526-.179-.083-.35-.166-.527-.23v-.246s1.006-.333 1.438 1.102c.432 1.435 4.158-.475 4.158-.475l.27.214a11.08 11.08 0 0 1-1.93.95Z" fill="#4E506B" stroke="#4E506B" stroke-linecap="round" stroke-linejoin="round" stroke-width=".68"/><path d="M44.853 161.633a.824.824 0 0 0-.626.32m1.385.244a.604.604 0 0 0-.567.297m1.33.295a.627.627 0 0 0-.566.365" stroke="#4E506B" stroke-linecap="round" stroke-miterlimit="10" stroke-width=".91"/><path d="M42.09 161.841c.745-.793 1.728.075 2.223.678.275.4.644.723 1.075.943.24.078.485.141.733.19.262.05.485.191.637.397m-6.283 1.46a3.9 3.9 0 0 0-2.45-2.52m8.829.165-.635.51m4.71 1.428H40.4m-1.294-1.653a3.72 3.72 0 0 0 .111-2.121" stroke="#4E506B" stroke-linecap="round" stroke-miterlimit="10" stroke-width=".46"/><path d="m56.979 73.46-7.594 10.703-9.747-2.339s-4.059 1.019-3.746 3.25c.175 1.249 8.324 4.305 14.666 3.54 2.865-3.46 8.426-14.84 8.426-14.84l-2.005-.313Z" fill="#FFBF9D"/><path d="m39.638 81.828 7.135 1.709c.23 1.716.053 3.462-.52 5.097-5.215-.492-10.237-2.577-10.372-3.568-.297-2.211 3.757-3.238 3.757-3.238Z" fill="#FF957D"/><path d="M45.044 89.09c-5.351-.575-9.798-2.95-9.91-3.88-.336-2.423 1.36-4.595 3.663-4.726l6.385 2.2c.797 2.12.56 4.273-.138 6.406Z" fill="#D13E52"/><path d="M45.142 82.578c.84 2.057.508 4.396-.261 6.48" stroke="#3D3F54" stroke-linecap="round" stroke-miterlimit="10" stroke-width=".68"/><path d="m56.555 74.159 1.145-2.902 2.287-.5 1.177.568.092 2.017-2.545.65-2.156.167Z" fill="#FFBF9D"/><path d="M59.516 70.86a5.815 5.815 0 0 1 2.62.265c.095.032.21.091.202.194-.008.103-.167.15-.286.15h-1.236" fill="#FFBF9D"/><path d="M59.516 70.86a5.815 5.815 0 0 1 2.62.265c.095.032.21.091.202.194-.008.103-.167.15-.286.15h-1.236" stroke="#3D3F54" stroke-linecap="round" stroke-linejoin="round" stroke-width=".68"/><path d="m60.04 68.403-1.788.261.917 6.287 1.78-.26-.918-6.277Z" fill="#3D3F54"/><path d="m58.477 69.258-.57.107a1.356 1.356 0 0 1-1.586-1.094 1.354 1.354 0 0 1 1.09-1.586l.57-.107.496 2.68Z" fill="#3D3F54"/><path d="m57.137 66.206 1.653-.301c1.633-.293 4.89-1.697 5.588-3.199l.849-1.823 2.033 11.19-1.435-1.412c-1.19-1.15-4.729-1.333-6.342-1.035l-1.657.3-.69-3.71Z" fill="#fff"/><path d="m58.284 66.007-.733.134.674 3.708.733-.133-.674-3.709Zm.45-.086h.056c.247-.044.49-.11.725-.194l.698 3.828c-.25.006-.5.03-.745.076h-.06l-.674-3.71Zm8.717 6.41a.397.397 0 0 0 .314-.452l-2.046-11.226a.396.396 0 0 0-.448-.313.396.396 0 0 0-.313.452l2.03 11.225a.396.396 0 0 0 .463.314Z" fill="#FB4B62"/><path d="m61.085 73.394-1.7.452a.397.397 0 0 1-.163.02.122.122 0 0 1-.103-.107.194.194 0 0 1 .075-.127 3.8 3.8 0 0 1 1.356-.741" fill="#FFBF9D"/><path d="m61.085 73.394-1.7.452a.397.397 0 0 1-.163.02.122.122 0 0 1-.103-.107.194.194 0 0 1 .075-.127 3.8 3.8 0 0 1 1.356-.741" stroke="#3D3F54" stroke-linecap="round" stroke-linejoin="round" stroke-width=".68"/><path d="M61.041 72.896a7.315 7.315 0 0 1-2.025.333c0-.206.17-.364.348-.475a3.567 3.567 0 0 1 1.475-.512" fill="#FFBF9D"/><path d="M61.041 72.896a7.315 7.315 0 0 1-2.025.333c0-.206.17-.364.348-.475a3.567 3.567 0 0 1 1.475-.512" stroke="#3D3F54" stroke-linecap="round" stroke-linejoin="round" stroke-width=".68"/><path d="M60.854 72.232a5.31 5.31 0 0 1-1.419.364c-.123 0-.273 0-.34-.095a.242.242 0 0 1 .059-.293.753.753 0 0 1 .29-.139l1.49-.46" fill="#FFBF9D"/><path d="M60.854 72.232a5.31 5.31 0 0 1-1.419.364c-.123 0-.273 0-.34-.095a.242.242 0 0 1 .059-.293.753.753 0 0 1 .29-.139l1.49-.46" stroke="#3D3F54" stroke-linecap="round" stroke-linejoin="round" stroke-width=".68"/><path d="m58.453 71.422 2.216-.313c.1 0 .27.12.26.226a.346.346 0 0 1-.17.258 1.12 1.12 0 0 1-.294.123l-1.19.345a1.11 1.11 0 0 1-.792.92" fill="#FFBF9D"/><path d="m58.453 71.422 2.216-.313c.1 0 .27.12.26.226a.346.346 0 0 1-.17.258 1.12 1.12 0 0 1-.294.123l-1.19.345a1.11 1.11 0 0 1-.792.92" stroke="#3D3F54" stroke-linecap="round" stroke-linejoin="round" stroke-width=".68"/><path d="m32.975 81.91 3.127 1.538 3.655-1.526c-.135-.349-.737-1.795-1.28-3.103l-.095-.23-.865-2.077-4.019-1.19-1.498-.44c0 .02.396 1.253.456 1.436a12.24 12.24 0 0 1 .52 5.592Z" fill="#FFBF9D"/><path d="M35.744 77.409c.884.67 1.84 1.24 2.85 1.7l-.119-.29-.095-.23-.864-2.087-3.936-1.16a19.882 19.882 0 0 0 2.164 2.057Z" fill="#FF957D"/><path d="M41.531 75.848c-.051-1.396-.54-4.135-.54-4.135a19.01 19.01 0 0 1-1.315-2.43c-.162-.396 0-.847-.119-1.11-1.015-1.981-2.723-4.014-4.899-4.545-2.858-.702-5.795.983-6.433 3.817-.57 2.525.983 5.688 2.933 7.4 1.518 1.336 3.46 1.534 5.343 1.637a16.39 16.39 0 0 0 3.992-.194c.38-.048.74-.2 1.038-.44Z" fill="#FFBF9D"/><path d="M26.062 66.895c.352-.34.776-.595 1.24-.749a1.324 1.324 0 0 1-.88-1.427c.043-.496.26-.963.611-1.315.171-.135.358-.248.555-.338.17-.09.583-.186.706-.325.182-.202 0-.685.08-.967.073-.338.254-.644.514-.872a1.648 1.648 0 0 1 1.824-.186 1.3 1.3 0 0 1 2.56.202c0-.701.674-.757 1.19-.82a2.065 2.065 0 0 1 1.727.626c.41.445.693.993.817 1.586a1.688 1.688 0 0 1 1.455.059 2.153 2.153 0 0 1 .836 2.473 1.078 1.078 0 0 1-1.15.646.682.682 0 0 1 .496.722 1.027 1.027 0 0 1-.535.753 1.44 1.44 0 0 1-1.903-.555.793.793 0 0 1-.396.733c-.333.182-.666.024-.99-.06a1.435 1.435 0 0 1-.936-.57c.527 1.019 1.37 2.152 1.553 3.29.04.25.183.836.226 1.165a3.452 3.452 0 0 0-1.847 1.84 6.315 6.315 0 0 0-.503 2.675c-.373.233-.801.36-1.24.368a3.14 3.14 0 0 1-1.32-.452l-.274-.162-.928-.583a4.394 4.394 0 0 1-.614-.451 2.153 2.153 0 0 1-.55-2.276 1.684 1.684 0 0 1-1.75-2.83 1.05 1.05 0 0 1-1.018-.868 1.586 1.586 0 0 1 .444-1.332Z" fill="#3D3F54" stroke="#3D3F54" stroke-linecap="round" stroke-linejoin="round" stroke-width=".68"/><path d="M39.725 69.477s.792 1.494 1.894 1.712c1.102.21-1.189 1.08-1.189 1.08l-.705-2.8Zm-4.387 1.604a2.656 2.656 0 0 0-1.483-.737c-.622 0-.927.626-.927 1.19a2.953 2.953 0 0 0 1.042 2.115 2.085 2.085 0 0 0 1.562.397" fill="#FFBF9D"/><path d="M35.338 71.081a2.656 2.656 0 0 0-1.483-.737c-.622 0-.927.626-.927 1.19a2.953 2.953 0 0 0 1.042 2.115 2.085 2.085 0 0 0 1.562.397" stroke="#3D3F54" stroke-linecap="round" stroke-miterlimit="10" stroke-width=".68"/><path d="M34.006 71.75a1.09 1.09 0 0 1 .872.622.428.428 0 0 0 .456.702m2.743-5.035a1.189 1.189 0 0 0-.72.892" stroke="#3D3F54" stroke-linecap="round" stroke-miterlimit="10" stroke-width=".68"/><path d="M38.35 69.817c.146.218.396.317.527.218.13-.1.146-.353 0-.575-.147-.222-.397-.317-.531-.218-.135.1-.143.357.004.575Z" fill="#3D3F54"/><path d="M46.773 99.764c-.674-4.605-1.503-8.958-3.468-13.246-.615-1.344-1.404-2.775-2.11-4.06-.617-1.129-1.62-1.41-2.774-1.711a9.91 9.91 0 0 0-6.492.368.161.161 0 0 0-.052.032c-1.748 1.95-1.244 5.287-.792 7.368.792 3.805 1.76 6.9 2.227 10.468.467 3.363.512 6.77.135 10.143-.09.478-.112.967-.064 1.45a20.547 20.547 0 0 0 7.773 1.555c1.352.032 2.482-.178 3.964-.274.396-.027 3.65-.487 3.567-1.062-.436-2.703-1.15-4.962-1.447-7.63-.178-1.13-.313-2.224-.467-3.4Z" fill="#FB4B62"/><path d="M32.17 81.038c3.333-1.264 6.116-.793 9.049 1.19" stroke="#3D3F54" stroke-linecap="round" stroke-miterlimit="10" stroke-width=".68"/><path d="M57.834 87.36s1.72-2.046 2.323-2.252c.602-.206 3.123-.23 3.091.25-.03.48-1.902 1.015-2.544 1.585-.642.571-.948 1.289-1.507 1.558-.394.18-.804.324-1.224.428l-.139-1.57Z" fill="#FFBF9D"/><path d="M57.834 87.352a9.69 9.69 0 0 0 .769-1.748.1.1 0 0 1 .052-.07.098.098 0 0 1 .087-.002c.166.072.396.262.202.75a2.38 2.38 0 0 1-1.11 1.07Zm.14.052-12.835 6.27-7.694-10.28c-1.7-1.23-2.378-.794-3.567 1.117-.646 1.066-.892 1.284-.884 2.54 2.379 4.385 6.413 10.263 11.154 12.724C46.83 99.695 59.21 88.28 59.21 88.28l-1.237-.876Z" fill="#FFBF9D"/><path d="M40.93 96.812a4.925 4.925 0 0 1-.397.353c-3.17-2.886-5.783-6.9-7.53-10.115 0-1.257.237-1.475.883-2.541 1.157-1.903 1.847-2.347 3.567-1.118l6.449 8.617a14.58 14.58 0 0 1-2.973 4.804Z" fill="#FF957D"/><path d="M37.163 95.497c-2.473-2.612-4.336-5.549-4.863-8.351a6.81 6.81 0 0 1 .848-3.607 3.702 3.702 0 0 1 5.3-1.225l5.033 7.075c-1.256 2.533-3.738 4.674-6.318 6.108Z" fill="#FB4B62"/><path d="M32.504 88.008a44.173 44.173 0 0 0 4.598 7.471m-2.883-12.933a3.031 3.031 0 0 1 1.64-.94c1.42-.281 2.422.63 3.27 1.725a42.472 42.472 0 0 1 2.309 3.35m-9.51 1.899 1.355 1.089" stroke="#3D3F54" stroke-linecap="round" stroke-miterlimit="10" stroke-width=".68"/><path d="M40.794 72.453c.052.201.091.405.12.61.056.26.078.527.063.793a1.72 1.72 0 0 1-1.982-1.078c-.15-.412 1.121-.19 1.8-.325Z" fill="#3D3F54"/><path d="M119.964 152.781h57.124a5.615 5.615 0 0 1 5.613 5.613v5.402h-68.349v-5.402a5.615 5.615 0 0 1 5.612-5.613Z" fill="#8FA0FF"/><path d="M140.1 128.168h13.627l-.82-22.042a6.267 6.267 0 0 0-6.252-6.032 6.264 6.264 0 0 0-6.262 6.183l-.293 21.891Z" fill="#3D3F54"/><path d="M142.459 119.789c2.069-2.18 2.192-5.529 1.7-8.625l5.74.07a11.518 11.518 0 0 0-.853 3.76c-.104.997-.09 2.004.04 2.999.119.758.487 1.455.539 2.228a3.475 3.475 0 0 1-.864 2.26 8.606 8.606 0 0 1-1.946 1.967 4.567 4.567 0 0 1-2.52.87 2.205 2.205 0 0 1-1.381-.395 2.612 2.612 0 0 1-.824-1.43c-.25-.99-.217-2.03.095-3a5.75 5.75 0 0 1 .274-.695Z" fill="#FFB9AE"/><path d="M149.407 112.107a7.978 7.978 0 0 1-2.806 3.302 6.543 6.543 0 0 1-1.93.844h-.448c.228-1.164.269-2.358.123-3.535l5.386-1.546-.325.935Z" fill="#33313B"/><path d="M141.869 118.757s3.234 1.982 2.156 4.784c-.816 2.125-4.241 11.856-5.398 13.28-3.258 3.998-8.72 6.055-12.926 6.816a6.69 6.69 0 0 1-.872-.602 3.994 3.994 0 0 1-.61-.849s10.127-8.54 10.575-9.833c.448-1.293 4.074-15.704 7.075-13.596Z" fill="#085899"/><path d="M134.715 132.367c1.003-3.27 1.237-4.836 2.453-7.987.539-1.395 2.466-5.521 3.889-5.747m-4.992 14.754a2.427 2.427 0 0 0-1.395-.84" stroke="#3D3F54" stroke-linecap="round" stroke-linejoin="round" stroke-width=".68"/><path d="M135.816 134.061a3.733 3.733 0 0 0-.793-1.332.49.49 0 0 0-.396-.198" stroke="#3D3F54" stroke-linecap="round" stroke-linejoin="round" stroke-width=".68"/><path d="M134.65 132.508c-1.34 1.518-4.86 4.669-6.088 5.79-1.23 1.122-3.005 2.728-4.273 3.774m-.04.053a2.818 2.818 0 0 0 1.7 1.558m-.77-2.355c.28.74 1.12 1.51 1.76 1.982m-1.537-1.498-.932.694m1.45-.053-.914.65m1.458-.126-.77.554m.271.161c.396-.131.63-.178 1.03-.309" stroke="#3D3F54" stroke-linecap="round" stroke-linejoin="round" stroke-width=".68"/><path d="M126.018 142.086a1.825 1.825 0 0 0-2.132.333 3.279 3.279 0 0 0-.674 1.264.73.73 0 0 0-.052.397.516.516 0 0 0 .36.325c.169.029.34.029.508 0 .607-.048 2.43.114 2.815-.397.443-.575-.314-1.645-.825-1.922Z" fill="#FFAE73"/><path d="M127.353 143.127c.083.04.167.07.254.103.087.032.111.047.123.1.012.05-.052.114-.107.146-.272.15-.578.227-.888.226-.25 0-.646.091-.836-.107-.191-.2-.076-.543.07-.73a.471.471 0 0 1 .714-.119 5.4 5.4 0 0 0 .67.381Z" fill="#FFAE73"/><path d="M149.676 153.827h-10.444c-2.719-1.248-4.55-3.841-4.455-6.817l1.982-3.643h16.774c2.775 2.581 2.442 5.839.702 8.21l-.024.027a5.636 5.636 0 0 1-4.535 2.223Z" fill="#3D3F54"/><path d="M141.108 154.829c.337-.67.773-1.288 1.122-1.946 1.8.737 5.153 2.168 7.012 2.509.276.052.555.085.836.1.496.023 1.094.213 1.217.69.123.474-.234.791-.543 1.093l-1.982 1.855c-.396.372-.876.76-1.463.67-.693-.108-.986-.71-1.379-1.19a7.763 7.763 0 0 0-1.906-1.585c-.555-.341-2.668-1.27-3.108-1.744.04-.163.107-.293.194-.452Z" fill="#FFB9AE"/><path d="M150.989 155.053a6.344 6.344 0 0 1-.935 0 18.305 18.305 0 0 1-3.45-.725 7.443 7.443 0 0 1-1.87 3.441c.518.379.976.833 1.36 1.347.42.599.472 1.629 1.336 1.728.73.084 1.605-.71 2.112-1.212 2.854-2.85 1.447-4.58 1.447-4.58Z" fill="#4E506B" stroke="#4E506B" stroke-linecap="round" stroke-linejoin="round" stroke-width=".68"/><path d="m148.864 155.319-1.328-.436a1.446 1.446 0 0 0-1.64.562l-.555.825a1.436 1.436 0 0 0 .238 1.87l1.082.976 2.212-3.797Z" fill="#4E506B" stroke="#4E506B" stroke-linecap="round" stroke-linejoin="round" stroke-width=".68"/><path d="m147.156 160.77.856.642a1.058 1.058 0 0 0 1.25.02c.121-.087.224-.197.3-.325l2.513-4.205a1.06 1.06 0 0 0-.333-1.435l-.753-.397.028 1.19-.654.396c-.523.328-.97.763-1.312 1.276a4.391 4.391 0 0 0-.662 1.586l-.19.931-1.043.32Z" fill="#fff"/><path d="M146.498 158.307a8.528 8.528 0 0 1 1.796-2.854m-2.657 2.5a4.958 4.958 0 0 1 1.692-2.664" stroke="#fff" stroke-linecap="round" stroke-miterlimit="10" stroke-width="1.48"/><path d="M116.801 141.045c1.035-1.486 4.824-1.435 6.39-.527l21.483 12.252c-1.748 2.144-.793 1.887-2.327 4.21l-23.072-8.947c-3.334-1.787-3.675-5.26-2.474-6.988Z" fill="#3D3F54"/><path d="M139.086 132.003s-1.348-7.282-1.36-6.96c.773-2.38 2.953-6.176 2.953-6.176s2.1-1.415 3.124-1.736c.119-.77.024-1.613.222-1.95 1.78.414 3.64.326 5.375-.254.277-.182-.286 1.586-.143 1.982.107.285.725.603.995.84.915.782 1.815 1.63 2.719 2.45.473.36.843.838 1.074 1.385.27.825-2.216 13.742-2.216 13.742l.127 12.565-10.662 2.176-5.99-4.114 3.782-13.96Z" fill="#067FE1"/><path d="M147.751 130.609c-2.493 3.928-5.022 6.46-9.267 7.86m10.473-21.18a6.2 6.2 0 0 1-4.955-.36m.042 15.43a8.41 8.41 0 0 1-4.36 2.135" stroke="#3D3F54" stroke-linecap="round" stroke-linejoin="round" stroke-width=".68"/><path d="M143.006 147.012h-17.388l-.313-1.371h15.98a1.757 1.757 0 0 1 1.721 1.371Z" fill="gray"/><path d="M111.692 136.219h15.46a1.412 1.412 0 0 1 1.132.602l6.085 9.446c.241.396.027.733-.44.733h-15.526a1.814 1.814 0 0 1-1.46-.793l-5.817-9.057c-.31-.471-.032-.931.566-.931Z" fill="#B3B3B3"/><path d="M120.191 140.836a1.896 1.896 0 0 0 1.704 1.082c.726 0 1.134-.483.916-1.082a1.906 1.906 0 0 0-1.7-1.086c-.721 0-1.133.488-.911 1.086Z" fill="#fff"/><path d="M122.256 155.091c-.567.147-1.15.373-1.19 1.067.007.382.123.755.333 1.074.418.746.93 1.435 1.526 2.05.5.518 1.213 1.133 1.982 1.045.864-.099 1.154-.86 1.586-1.458a7.395 7.395 0 0 1 2.1-1.863c.793-.5 1.73-.793 2.061-1.764.14-.54.147-1.108.024-1.653a1.039 1.039 0 0 0-.396-.832 1.149 1.149 0 0 0-.947.07c-1.538.58-3.064 1.19-4.642 1.678-.769.23-1.55.396-2.327.567l-.11.02Z" fill="#FFB9AE"/><path d="M121.587 154.827c.312.018.625.01.936-.02a18.038 18.038 0 0 0 3.448-.72 7.435 7.435 0 0 0 1.882 3.44 6.461 6.461 0 0 0-1.36 1.347c-.42.6-.476 1.629-1.34 1.728-.726.083-1.586-.71-2.109-1.213-2.854-2.834-1.447-4.562-1.447-4.562Z" fill="#4E506B" stroke="#4E506B" stroke-linecap="round" stroke-linejoin="round" stroke-width=".68"/><path d="m123.711 155.069 1.328-.436a1.43 1.43 0 0 1 .912.008c.296.1.55.296.725.555l.559.82a1.447 1.447 0 0 1-.23 1.875l-1.082.975-2.212-3.797Z" fill="#4E506B" stroke="#4E506B" stroke-linecap="round" stroke-linejoin="round" stroke-width=".68"/><path d="m125.416 160.532-.856.642a1.074 1.074 0 0 1-.841.191 1.065 1.065 0 0 1-.71-.496l-2.52-4.217a1.06 1.06 0 0 1 .332-1.435l.753-.397-.027 1.189.654.397a4.405 4.405 0 0 1 1.973 2.858l.19.93 1.043.338Z" fill="#fff"/><path d="M126.073 158.08a8.456 8.456 0 0 0-1.792-2.853m2.66 2.49a4.982 4.982 0 0 0-1.69-2.662" stroke="#fff" stroke-linecap="round" stroke-miterlimit="10" stroke-width="1.48"/><path d="m126.898 152.954 17.916-9.287c2.735-1.066 6.853-1.692 7.928 1.035 0 0 2.07 4.756-3.045 6.492l-21.007 6.203-1.792-4.443Z" fill="#4E506B" stroke="#4E506B" stroke-linecap="round" stroke-linejoin="round" stroke-width=".68"/><path d="M140.286 144.992s-2.715-.677-3.349-.479c-.634.198-2.774 1.716-2.465 2.105.309.388 2.235-.306 3.131-.214.896.09 1.586.51 2.232.396a7.498 7.498 0 0 0 1.3-.396l-.849-1.412Z" fill="#FFB9AE"/><path d="M140.287 144.999a10 10 0 0 1-1.725-1.01.113.113 0 0 0-.04-.024.12.12 0 0 0-.046-.003.099.099 0 0 0-.044.017.1.1 0 0 0-.032.033c-.095.162-.178.472.293.76a2.49 2.49 0 0 0 1.594.227Z" fill="#FFB9AE"/><path d="M151.845 119.196s3.824 1.89 4.241 4.99c.317 2.358 2.287 15.082 1.102 16.584-3.326 4.225-11.86 6.072-16.287 5.7a7.107 7.107 0 0 1-.703-.845 4.148 4.148 0 0 1-.397-1.014s12.434-6.243 12.196-7.65c-.237-1.4-3.939-18.19-.14-17.76Z" fill="#067FE1"/><path d="M150.049 126.414c.61 3.619 1.15 7.024 1.887 10.607m1.743.256a2.55 2.55 0 0 0-1.697-.07" stroke="#3D3F54" stroke-linecap="round" stroke-linejoin="round" stroke-width=".68"/><path d="M153.791 138.015a3.838 3.838 0 0 0-1.404-.813.51.51 0 0 0-.455 0m.016-.03c-.967 1.534-10.48 6.631-12.042 7.341m-.054.042a2.914 2.914 0 0 0 1.292 2.029m-.136-2.584c.083.82.725 1.823 1.236 2.473m-1.136-1.918-1.126.444m1.48.345-1.1.396m1.499.276-.927.35" stroke="#3D3F54" stroke-linecap="round" stroke-linejoin="round" stroke-width=".68"/><path d="m141.158 146.607 1.32-.063s9.553.17 14.828-6.005" stroke="#3D3F54" stroke-linecap="round" stroke-linejoin="round" stroke-width=".68"/><path d="M147.739 113.744c-.872.391-1.779.7-2.708.923a10.87 10.87 0 0 1-1.65.21l-.395-.019-.428-.032c-1.058-.793-1.728-1.923-1.85-3.904.035-2.474.566-5.37.99-6.188.753-1.442 3.456-4.978 7.812-2.818 1.312.654 2.38 1.697 2.692 3.171.29 1.383-.04 2.775-.48 4.07a.265.265 0 0 0-.174.18c-.559 1.922-2.117 3.372-3.809 4.407Z" fill="#FFB9AE"/><path d="M142.854 106.283a1.702 1.702 0 0 0-1.264-.262m5.19 1.26a1.919 1.919 0 0 0-1.415-.445" stroke="#3D3F54" stroke-linecap="round" stroke-miterlimit="10" stroke-width=".68"/><path d="m143.489 107.758-.607 2.013-.78.226.852.718" stroke="#3D3F54" stroke-linecap="round" stroke-linejoin="round" stroke-width=".68"/><path d="M142.321 111.562a2.603 2.603 0 0 0 1.605-.234s.341.955-.61 1.082a.792.792 0 0 1-.995-.848Zm2.575-3.178a.415.415 0 0 0 .022.246.422.422 0 0 0 .627.194.424.424 0 0 0 .065-.654.427.427 0 0 0-.534-.052.425.425 0 0 0-.18.266Zm-3.44-.811a.428.428 0 0 0 .177.437c.069.047.15.073.235.073a.42.42 0 0 0 .42-.504.42.42 0 0 0-.332-.335.415.415 0 0 0-.436.176.422.422 0 0 0-.064.153Z" fill="#3D3F54"/><path d="M150.014 109.532c-.051-.056-.1-.115-.146-.17a4.463 4.463 0 0 1-.793-2.906c.083-1.021.283-2.03.595-3.004-2.073 2.544-5.653 2.774-8.907 2.342-.131 0 1.15-2.556 1.36-2.87.638-.955 1.807-1.712 2.802-2.243 0 0 4.836-1.585 7.02 2.46a6.673 6.673 0 0 1 .86 3.61 6.672 6.672 0 0 1-1.2 3.51c-.199-.22-.592-.113-.857-.212a1.898 1.898 0 0 1-.734-.507Z" fill="#3D3F54" stroke="#3D3F54" stroke-linecap="round" stroke-miterlimit="10" stroke-width=".68"/><path d="M150.045 108.975a1.274 1.274 0 0 1 1.546.191c.17.25.24.552.19.848a2.843 2.843 0 0 1-1.513 2.2 1.854 1.854 0 0 1-.72.226.898.898 0 0 1-.874-.392.902.902 0 0 1-.027-.956c.27-.74.65-1.677 1.407-2.117Z" fill="#FFB9AE"/><path d="M150.833 110.331a.374.374 0 0 0-.042-.288.38.38 0 0 0-.102-.11.38.38 0 0 0-.137-.058.608.608 0 0 0-.547.195c-.134.151-.24.326-.313.515a.352.352 0 0 1 .333.42.35.35 0 0 1-.492.214" stroke="#3D3F54" stroke-linecap="round" stroke-miterlimit="10" stroke-width=".68"/><path d="M149.43 109.651a1.125 1.125 0 0 1 .896-.887c.436-.084 1.102.075 1.304.511.33.713-.07 1.585-.539 2.12a2.655 2.655 0 0 1-2.228.932" stroke="#3D3F54" stroke-linecap="round" stroke-miterlimit="10" stroke-width=".68"/><path d="M177.786 67.088c-.155 1.696-.856 3.286-1.39 4.903-.536 1.617-.897 3.38-.374 5.002a5.063 5.063 0 0 0 3.67 3.294c.337.04.664.143.964.3a.672.672 0 0 1 .285.86c-4.737.913-9.596 1.829-14.364 1.075a8.489 8.489 0 0 1-3.326-1.121 3.796 3.796 0 0 1-1.827-2.83 2.103 2.103 0 0 0 2.434-.143 3.498 3.498 0 0 0 1.212-2.212c.11-.85.15-1.708.115-2.564a21.74 21.74 0 0 1 3.223-11.19 5.02 5.02 0 0 1 1.665-1.827 3.889 3.889 0 0 1 3.313-.06c2.664 1.059 4.665 3.647 4.4 6.513Z" fill="#543234"/><path d="M165.215 163.795c.372-.44.035-.983-.147-1.522-.337-.345-.396-1.28-.487-1.728-.242-1.288-.544-6.116-.544-6.116l-2.901-.757s.396 5.08.33 5.438a5.491 5.491 0 0 1-1.983 2.739.885.885 0 0 0-.353.652.906.906 0 0 0 .845.955l5.24.329Z" fill="#B87E61"/><path d="m159.375 137.223.202-18.787.848-8.46c.365-6.123 9.636-5.84 9.466.29a9.144 9.144 0 0 1-.143 1.352l-1.689 9.398-1.66 14.269.46 5.946-2.276 17.222c-1.03.19-2.013.448-3.17-.123l-2.038-21.107Z" fill="#3D3F54"/><path d="M165.238 166.48h-11.99a.535.535 0 0 1-.376-.155.535.535 0 0 1 .376-.911h11.99c.142 0 .278.056.378.157a.531.531 0 0 1-.378.909Z" fill="#4E506B" stroke="#4E506B" stroke-linecap="round" stroke-linejoin="round" stroke-width=".68"/><path d="m159.824 161.13-2.826 2.187s-3.3.333-4.304 1.53c0 0-.242.813.238.813h12.263a.548.548 0 0 0 .395-.17.54.54 0 0 0 .144-.405l-.313-4.59s-1.007-.337-1.435 1.098c-.428 1.435-4.162-.463-4.162-.463Z" fill="#E2C479"/><path d="M161.505 162.283c.749.218 1.585.468 2.378.21.792-.258.309-1.189 1.034-1.526.18-.08.349-.166.527-.23v-.242s-1.006-.337-1.434 1.098c-.428 1.435-4.162-.47-4.162-.47l-.274.21c.61.38 1.257.698 1.93.95Z" fill="#4E506B" stroke="#4E506B" stroke-linecap="round" stroke-linejoin="round" stroke-width=".68"/><path d="M158.734 161.898a.854.854 0 0 1 .631.318m-1.388.24a.603.603 0 0 1 .566.296m-1.348.279a.653.653 0 0 1 .567.365" stroke="#4E506B" stroke-linecap="round" stroke-miterlimit="10" stroke-width=".91"/><path d="M161.501 162.099c-.749-.793-1.728.075-2.227.678-.274.396-.642.72-1.07.94a6.497 6.497 0 0 1-.738.193 1.04 1.04 0 0 0-.626.397m6.281 1.452a3.91 3.91 0 0 1 2.45-2.517" stroke="#4E506B" stroke-linecap="round" stroke-miterlimit="10" stroke-width=".46"/><path d="M156.744 163.422c.214.166.424.337.634.507m-4.704 1.415h10.515m1.293-1.626a3.646 3.646 0 0 1-.11-2.116" stroke="#4E506B" stroke-linecap="round" stroke-miterlimit="10" stroke-width=".46"/><path d="M177.684 163.446c.314-.483-.091-.979-.336-1.49-.397-.297-.563-1.217-.706-1.653-.396-1.244-1.324-5.997-1.324-5.997l-2.97-.376s1.028 4.99 1.02 5.347a5.516 5.516 0 0 1-1.625 2.976.888.888 0 0 0-.17 1.038.897.897 0 0 0 .868.5l5.243-.345Z" fill="#B87E61"/><path d="m168.497 137.844-2.204-18.657-.238-8.498c-.42-6.12 8.807-7.028 9.426-.924.042.45.053.904.031 1.356l-.456 9.536.175 14.368 1.221 5.847-.068 17.373c-.999.317-1.938.7-3.17.28l-4.717-20.681Zm9.15 28.636h-11.965a.534.534 0 0 1-.536-.53.535.535 0 0 1 .536-.536h11.986a.535.535 0 0 1 .19 1.033.535.535 0 0 1-.21.033Z" fill="#4E506B" stroke="#4E506B" stroke-linecap="round" stroke-linejoin="round" stroke-width=".68"/><path d="m172.235 161.13-2.826 2.187c-.01 0-3.3.333-4.31 1.53 0 0-.24.813.233.813H177.6a.53.53 0 0 0 .396-.169.549.549 0 0 0 .144-.4l-.313-4.59s-1.003-.333-1.435 1.1c-.432 1.437-4.162-.461-4.162-.461Z" fill="#FFE7A0"/><path d="M173.915 162.283c.753.218 1.585.468 2.378.21.793-.258.309-1.189 1.034-1.526.175-.08.349-.166.524-.23v-.242s-1.003-.337-1.435 1.098c-.432 1.435-4.162-.47-4.162-.47l-.274.21c.613.378 1.26.697 1.935.95Z" fill="#4E506B" stroke="#4E506B" stroke-linecap="round" stroke-linejoin="round" stroke-width=".68"/><path d="M171.148 161.898a.844.844 0 0 1 .627.318m-1.388.24a.606.606 0 0 1 .567.296m-1.343.279a.656.656 0 0 1 .567.365" stroke="#4E506B" stroke-linecap="round" stroke-miterlimit="10" stroke-width=".91"/><path d="M173.911 162.099c-.749-.793-1.728.075-2.223.678-.276.396-.645.72-1.074.94a6.458 6.458 0 0 1-.738.193 1.04 1.04 0 0 0-.626.397m6.28 1.452a3.93 3.93 0 0 1 2.45-2.517m-8.822.18.63.507m-4.704 1.415H175.6m1.296-1.626a3.638 3.638 0 0 1-.11-2.116" stroke="#4E506B" stroke-linecap="round" stroke-miterlimit="10" stroke-width=".46"/><path d="m163.149 83.95-3.964 6.029-5.493-8.526-2.323.567 6.893 13.655a1.19 1.19 0 0 0 2.013.127l7.135-10.247-4.26-1.605Z" fill="#B87E61"/><path d="m164.89 89.141 2.497-3.587-4.241-1.585-1.558 2.37a77.722 77.722 0 0 1 3.302 2.792Z" fill="#994E3D"/><path d="m166.689 87.218-4.978-1.585 2.41-4.435a2.998 2.998 0 0 1 4.15-.876 3.002 3.002 0 0 1 .59 4.201l-2.162 2.695Z" fill="#FFE7A0"/><path d="M158.576 91.11c.258-.44.337-.686.595-1.126" stroke="#3D3F54" stroke-linecap="round" stroke-linejoin="round" stroke-width=".68"/><path d="m153.676 81.453-2.2-2.656-2.576.261-1.04 1 .596 2.152 2.897-.19 2.323-.567Z" fill="#B87E61"/><path d="M149.432 79.008a6.465 6.465 0 0 0-2.663 1.189c-.088.067-.187.17-.143.277.043.107.222.103.349.064l1.304-.424" fill="#B87E61"/><path d="M149.432 79.008a6.465 6.465 0 0 0-2.663 1.189c-.088.067-.187.17-.143.277.043.107.222.103.349.064l1.304-.424" stroke="#3D3F54" stroke-linecap="round" stroke-linejoin="round" stroke-width=".68"/><path d="m148.639 82.206 1.946-.107c.06 0 .119-.011.174-.035a.135.135 0 0 0 .07-.15.196.196 0 0 0-.06-.066.2.2 0 0 0-.072-.038 4.165 4.165 0 0 0-1.677-.317" fill="#B87E61"/><path d="m148.639 82.206 1.946-.107c.06 0 .119-.011.174-.035a.135.135 0 0 0 .07-.15.196.196 0 0 0-.06-.066.2.2 0 0 0-.072-.038 4.165 4.165 0 0 0-1.677-.317" stroke="#3D3F54" stroke-linecap="round" stroke-linejoin="round" stroke-width=".68"/><path d="M148.512 81.663a8.243 8.243 0 0 0 2.24-.349c-.056-.222-.306-.325-.524-.396a3.93 3.93 0 0 0-1.732-.032" fill="#B87E61"/><path d="M148.512 81.663a8.243 8.243 0 0 0 2.24-.349c-.056-.222-.306-.325-.524-.396a3.93 3.93 0 0 0-1.732-.032" stroke="#3D3F54" stroke-linecap="round" stroke-linejoin="round" stroke-width=".68"/><path d="M148.495 80.908c.54.04 1.083.004 1.613-.107.135-.028.289-.08.325-.214a.265.265 0 0 0-.029-.17.264.264 0 0 0-.13-.116.764.764 0 0 0-.352-.047l-1.729.028" fill="#B87E61"/><path d="M148.495 80.908c.54.04 1.083.004 1.613-.107.135-.028.289-.08.325-.214a.265.265 0 0 0-.029-.17.264.264 0 0 0-.13-.116.764.764 0 0 0-.352-.047l-1.729.028" stroke="#3D3F54" stroke-linecap="round" stroke-linejoin="round" stroke-width=".68"/><path d="m148.686 70.917-11.54 2.185 3.104 16.395 11.54-2.184-3.104-16.396Z" fill="#FFE7A0" stroke="#4E506B" stroke-miterlimit="10" stroke-width=".68"/><path d="m147.528 72.48-8.735 1.653 2.614 13.806 8.735-1.654-2.614-13.806Z" fill="#fff"/><path d="m146.724 75.672-5.943 1.125.18.9 5.944-1.126-.171-.9Z" fill="#4E506B"/><path d="m150.738 79.21-2.438.437c-.107.047-.246.214-.202.325a.395.395 0 0 0 .266.218c.114.026.232.034.348.024l1.376-.048a1.239 1.239 0 0 0 1.161.69" fill="#B87E61"/><path d="m150.738 79.21-2.438.437c-.107.047-.246.214-.202.325a.395.395 0 0 0 .266.218c.114.026.232.034.348.024l1.376-.048a1.239 1.239 0 0 0 1.161.69" stroke="#4E506B" stroke-linecap="round" stroke-linejoin="round" stroke-width=".68"/><path d="M172.817 78.924c0-.056-.73-2.913.344-7.963-1.49.032-3.67.127-5.192.08.396 2.798.69 6.63-.793 8.35l-1.938 1.351-1.736 6.004 11.403.567.591-7.007-2.68-1.371Z" fill="#B87E61"/><path d="M168.199 76.653c1.942-.67 3.86-3.428 3.995-5.739-1.407.04-2.775.17-4.217.123a21.83 21.83 0 0 1 .222 5.616Z" fill="#994E3D"/><path d="M176.817 85.911s.642-4.4.206-4.835c-.436-.436-2.945-1.732-3.69-2.12a.217.217 0 0 0-.189-.008.213.213 0 0 0-.12.146l-1.396 5.644-3.476 1.134-2.644-1.126 1.24-4.974a.21.21 0 0 0-.006-.124.216.216 0 0 0-.31-.118l-1.546.884-2.374 8.383.246 6.068-2.55 13.663c.001 0 4.36 1.724 6.24 1.982 2.794.356 10.305-1.154 10.305-1.154L174.8 95.761l2.018-9.85Z" fill="#FFE7A0"/><path d="M163.424 90.203a18.58 18.58 0 0 0 5.77 8.684m-5.85-2.7a44.236 44.236 0 0 0 5.244 9.8" stroke="#3D3F54" stroke-linecap="round" stroke-linejoin="round" stroke-width=".68"/><path d="M171.595 73.658c-1.02.376-2.074.656-3.147.836-.627.085-1.26.122-1.891.111l-.432-.051-.487-.071c-1.138-.995-1.812-2.32-1.796-4.583.23-2.806 1.054-6.06 1.586-6.956.967-1.585 4.316-5.39 9.116-2.596 1.443.844 2.58 2.113 2.818 3.813.222 1.586-.26 3.143-.86 4.594a.297.297 0 0 0-.214.186c-.805 2.14-2.68 3.675-4.693 4.717Z" fill="#B87E61"/><path d="M166.511 62.87c.293-.19.546-.437.745-.725a.73.73 0 0 0-.119-.943.682.682 0 0 0-.634-.04c-.2.095-.38.23-.528.396a5.617 5.617 0 0 0-1.533 4.523c.48-1.245.99-2.343 2.07-3.21Z" fill="#543234"/><path d="M166.692 65.19a1.945 1.945 0 0 0-1.42-.396m5.804 1.84a2.21 2.21 0 0 0-1.586-.61" stroke="#543234" stroke-linecap="round" stroke-miterlimit="10" stroke-width=".68"/><path d="m167.125 66.453-.844 2.244-.908.198.912.88" stroke="#543234" stroke-linecap="round" stroke-linejoin="round" stroke-width=".68"/><path d="M165.789 67.046a.472.472 0 1 1-.945.01.472.472 0 0 1 .945-.01Zm3.553.789a.47.47 0 1 1-.943.01.47.47 0 0 1 .943-.01Zm-3.5 3.525a2.995 2.995 0 0 0 1.825-.29s.396 1.082-.678 1.245a.908.908 0 0 1-1.146-.955Zm10.467-1.297c-.736.94-1.462 1.87-1.596 3.024a4.898 4.898 0 0 1-3.73-3.53c-.315-1.254-.133-2.653-.77-3.779a5.626 5.626 0 0 0-1.84-1.72 6.275 6.275 0 0 1-1.883-1.676c-.463-.722-.594-1.954.076-2.605.746-.729 2.283-1.16 3.282-1.367a5.773 5.773 0 0 1 3.337.234c1.28.527 2.25 1.585 3.044 2.735a10.05 10.05 0 0 1 1.542 3.107 5.514 5.514 0 0 1-.11 3.43 9.1 9.1 0 0 1-1.36 2.147Z" fill="#543234"/><path d="m174.058 85.523 2.1 10.805-11.217 8.954 2.53.81 13.19-7.972-2.582-14.198-4.012 1.601Z" fill="#B87E61"/><path d="m178.916 88.58-.848-4.658-4.011 1.601.737 3.79 4.122-.734Z" fill="#994E3D"/><path d="m178.975 86.703-4.63 2.413-1.45-4.831a2.99 2.99 0 0 1 1.233-3.103 3.008 3.008 0 0 1 1.078-.464 3.004 3.004 0 0 1 3.396 2.544l.373 3.44Z" fill="#FFE7A0"/><path d="m164.941 105.281-2.8 1.18-.942 1.745-.111 1.487 2.132-1.542 1.776-.147 1.36-.9 1.113-1.014-2.528-.809Z" fill="#B87E61"/><path d="M162.071 106.492a4.168 4.168 0 0 0-1.585 2.073c-.095.242-.087.58.257.551a.516.516 0 0 0 .302-.139c.096-.089.182-.19.257-.297.23-.31.487-.598.765-.864" fill="#B87E61"/><path d="M162.071 106.492a4.168 4.168 0 0 0-1.585 2.073c-.095.242-.087.58.257.551a.516.516 0 0 0 .302-.139c.096-.089.182-.19.257-.297.23-.31.487-.598.765-.864" stroke="#3D3F54" stroke-linecap="round" stroke-linejoin="round" stroke-width=".68"/><path d="M162.273 107.023a4.17 4.17 0 0 0-1.586 2.073c-.091.242-.087.579.258.55a.509.509 0 0 0 .301-.137c.096-.09.183-.19.258-.298a7.13 7.13 0 0 1 1.434-1.427" fill="#B87E61"/><path d="M162.273 107.023a4.17 4.17 0 0 0-1.586 2.073c-.091.242-.087.579.258.55a.509.509 0 0 0 .301-.137c.096-.09.183-.19.258-.298a7.13 7.13 0 0 1 1.434-1.427" stroke="#3D3F54" stroke-linecap="round" stroke-linejoin="round" stroke-width=".68"/><path d="M162.952 107.422c-.626.54-1.189 1.078-1.42 1.906-.042.159-.062.36.065.464a.315.315 0 0 0 .317 0 .934.934 0 0 0 .257-.202c.238-.246.444-.523.702-.75.292-.215.604-.404.931-.562" fill="#B87E61"/><path d="M162.952 107.422c-.626.54-1.189 1.078-1.42 1.906-.042.159-.062.36.065.464a.315.315 0 0 0 .317 0 .934.934 0 0 0 .257-.202c.238-.246.444-.523.702-.75.292-.215.604-.404.931-.562" stroke="#3D3F54" stroke-linecap="round" stroke-linejoin="round" stroke-width=".68"/><path d="M163.7 107.867a2.42 2.42 0 0 0-.749.825c-.197.296-.332.63-.396.98a.234.234 0 0 0 .039.18.17.17 0 0 0 .089.037.17.17 0 0 0 .094-.02.497.497 0 0 0 .15-.129c.32-.43.703-.81 1.134-1.13a4.87 4.87 0 0 1 1.27-.559" fill="#B87E61"/><path d="M163.7 107.867a2.42 2.42 0 0 0-.749.825c-.197.296-.332.63-.396.98a.234.234 0 0 0 .039.18.17.17 0 0 0 .089.037.17.17 0 0 0 .094-.02.497.497 0 0 0 .15-.129c.32-.43.703-.81 1.134-1.13a4.87 4.87 0 0 1 1.27-.559" stroke="#3D3F54" stroke-linecap="round" stroke-linejoin="round" stroke-width=".68"/><path d="M6.459 167.344h187.256" stroke="#D5D5D5"/><path d="M151.752 108.637a.037.037 0 0 1 0 .021l-.089.406c-.001.008-3.94-.495-3.945-.488a.05.05 0 0 1-.023.01c-.122.02-.212.104-.27.253l.002-.005-.074.198a.349.349 0 0 0-.02.057 7.88 7.88 0 0 1-.236.534c-.052.114-.11.227-.172.34-.097.253-.338.368-.725.346l-.148-.006a4.573 4.573 0 0 1-.523-.059 4.294 4.294 0 0 1-.948-.26.622.622 0 0 1-.333-.419 7.665 7.665 0 0 1-.184-1.068 5.091 5.091 0 0 1-.033-.322c-.005-.166-.057-.274-.158-.327-.117.01-.213.092-.288.246v.002a8.71 8.71 0 0 1-.79 1.204.71.71 0 0 1-.25.207.614.614 0 0 1-.23.063 4.56 4.56 0 0 1-1.624-.267.94.94 0 0 1-.099-.034c-.3-.118-.445-.298-.434-.54a7.528 7.528 0 0 1 .018-1.213c.01-.158-.038-.268-.14-.33a.055.055 0 0 1-.02-.015.041.041 0 0 1 0-.027l.088-.405a.036.036 0 0 1 .015-.02.03.03 0 0 1 .008-.01 7.906 7.906 0 0 1 2.227.19c.106.017.213.043.32.072l.05.014c.17.045.337.088.501.129.264.067.52.126.768.177.417.065.865.12 1.345.166a8.066 8.066 0 0 1 1.392.256c.366.102.722.23 1.067.388.004 0 3.943.512 3.947.515a.027.027 0 0 1 .008.01Zm-4.621.325-.02.081c-.046.17-.11.335-.193.492l.114.055c.085-.174.162-.35.232-.527.007-.018.014-.036.019-.055l-.152-.046Zm-.091.063.001-.003.017-.081a3.71 3.71 0 0 0 .059-.348.602.602 0 0 0-.106-.339.568.568 0 0 0-.279-.21l-.02-.005a2.311 2.311 0 0 0-.099-.03 5.214 5.214 0 0 0-1.058-.239 3.275 3.275 0 0 0-.7-.006h-.005c-.32.05-.48.257-.48.62h-.003c.001.05.003.098.006.146.025.454.114.818.27 1.09.124.14.288.24.47.287.147.036.284.065.411.088.14.024.283.04.426.044.08.002.158 0 .237-.01a.74.74 0 0 0 .54-.32 2.584 2.584 0 0 0 .312-.683Zm-.396-1.088.057-.142a7.19 7.19 0 0 0-.608-.143l-.297-.054a2.98 2.98 0 0 0-.217-.032l-.012.127a5.19 5.19 0 0 1 1.077.244Zm-.619 2.287-.04-.105a2.998 2.998 0 0 1-.455-.046v.097a4.896 4.896 0 0 0 .495.054Zm-5.462-2.827a2.627 2.627 0 0 0-.106.426c-.043.248-.043.5 0 .744a.639.639 0 0 0 .32.462l.035.022c.195.106.499.19.912.248a1.18 1.18 0 0 0 .184.02.97.97 0 0 0 .5-.103c.26-.197.497-.5.71-.913.02-.043.043-.087.066-.132.15-.326.087-.574-.187-.733a2.94 2.94 0 0 0-.306-.133 4.099 4.099 0 0 0-.36-.113 5.458 5.458 0 0 0-1.162-.153l-.025-.004a.62.62 0 0 0-.343.1.654.654 0 0 0-.24.272h.01Zm1.787-.42-.009.127c.127.033.25.07.365.11l.016-.145a6.88 6.88 0 0 0-.374-.092h.002Zm-.427 2.51-.004-.089a.578.578 0 0 0-.07-.005c-.5-.064-.86-.156-1.08-.275l-.05-.029-.085.12.077.023v.003c.386.135.79.22 1.202.251Z" fill="#3D3533" fill-rule="evenodd" clip-rule="evenodd"/><defs><clipPath id="a"><path d="M0 0h15.136v15.136H0z" fill="#fff" transform="translate(107.961 18.914)"/></clipPath><clipPath id="b"><path d="M0 0h15.136v15.136H0z" fill="#fff" transform="translate(122.467 96.492)"/></clipPath><clipPath id="c"><path d="M0 0h15.136v15.136H0z" fill="#fff" transform="translate(34.754 24.82)"/></clipPath><clipPath id="d"><path d="M0 0h15.136v15.136H0z" fill="#fff" transform="translate(69.49 49.18)"/></clipPath><clipPath id="e"><path d="M0 0h15.136v15.136H0z" fill="#fff" transform="translate(142.016 45.406)"/></clipPath></defs></svg>