<svg xmlns="http://www.w3.org/2000/svg" fill="none" width="282" height="177" viewBox="0 0 282 177"><path d="M162.662 141.211c-19.306 0-37.327-3.143-53.513-8.045 70.616-.236 131.089-21.613 131.079-84.592 0-.68-.017-1.36-.051-2.044 21.377 25.762 2.523 87.688-60.202 93.835-5.875.576-11.647.846-17.313.846ZM23.394 59.921c.357-14.725 8.103-30.316 29.946-37.316 4.62-1.48 9.276-2.12 13.882-2.12 19.75 0 38.47 11.754 48.393 19.244a63.073 63.073 0 0 0 6.962 4.57c-9.364-.052-18.185-2.338-27.148-4.623-9.07-2.312-18.284-4.625-28.35-4.625-5.95 0-12.2.807-18.88 2.898-.5-.156-1.02-.282-1.55-.39a9.783 9.783 0 0 0-1.95-.2c-3.66 0-6.235 2.18-7.136 3.856a20.27 20.27 0 0 0-.932 1.926c-5.643 3.89-10.248 9.8-13.246 16.77Z" fill="#0DA650"/><path d="M247.267 42.852c-1.729 0-3.13-1.51-3.13-3.37 0-1.861 1.401-3.37 3.13-3.37 1.73 0 3.131 1.509 3.131 3.37 0 1.86-1.4 3.37-3.131 3.37Z" fill="#D5D9E4"/><path d="M43.152 21.281c-.308 0-.64-.06-.986-.194-1.754-1.298-.99-3.49.697-3.8a2.024 2.024 0 0 1 2.27 1.271c.48 1.297-.48 2.723-1.98 2.723Zm195.567-7.843a4.078 4.078 0 1 1 0-8.157 4.078 4.078 0 0 1 0 8.157Z" fill="#DB4A3B"/><path d="M51.256 19.297a4.122 4.122 0 0 1 .004-8.243 4.121 4.121 0 0 1-.004 8.243Z" fill="#067DE1"/><path d="M218.792 140.727a2.99 2.99 0 0 1-.535-.051c-1.965-.95-1.622-3.246-.023-3.864.24-.093.49-.137.738-.137.691 0 1.36.347 1.73.964.783 1.305-.115 3.088-1.91 3.088Z" fill="#0DA650"/><path d="M226.097 137.305a4.122 4.122 0 0 1-.006-8.242 4.12 4.12 0 0 1 .006 8.242Z" fill="#FFCB34"/><path d="M231.036 5.633a2.51 2.51 0 1 1 0-5.02 2.51 2.51 0 0 1 0 5.02Z" fill="#067DE1"/><path d="M107.956 133.164c-3.974 0-7.991-.066-12.02-.196-71.419-2.292-84.273-45.784-72.543-73.051-.193 7.99 1.79 15.722 4.877 21.69 5.96 11.524 36.574 38.136 80.878 51.555-.4.002-.793.002-1.192.002Zm44.806-80.982a64.56 64.56 0 0 1-9.443-.714c-7.292-1.077-14.306-3.53-20.744-7.172h.33c2.694 0 5.433-.185 8.23-.611C160.703 39.19 163.694 0 195.262 0c.6 0 1.217.015 1.839.044.416.02.828.042 1.236.068 22.522 1.439 40.752 24.576 41.84 46.414-3.23-3.894-7.38-6.961-12.435-8.885-5.561-2.117-10.515-2.983-15.09-2.983-10.29-.002-18.66 4.38-27.762 8.76-9.1 4.38-18.93 8.761-32.125 8.761Z" fill="#FFCB34"/><path d="M109.148 133.164C64.844 119.745 34.23 93.134 28.27 81.609c-3.087-5.969-5.07-13.701-4.876-21.69 2.998-6.97 7.604-12.878 13.246-16.77-.83 2.036-1.172 4.35-.157 7.985 1.018 3.642 3.903 5.15 5.436 5.708 1.755 1.176 4.42 2.627 6.886 2.627 1 0 1.966-.238 2.826-.83.524-.36.926-1.086 1.307-2.265.833-.16 1.44-1.113 1.696-2.148a3 3 0 0 0 .811-.287 2.984 2.984 0 0 0-.073-5.322c.204-1.257.235-2.538.069-3.773-.464-3.452-3.302-5.753-7.242-6.897 6.68-2.09 12.93-2.897 18.87-2.897 10.065 0 19.28 2.312 28.348 4.625 8.964 2.285 17.785 4.57 27.15 4.623 6.436 3.64 13.45 6.095 20.742 7.17a64.58 64.58 0 0 0 9.443.716c13.195 0 23.024-4.381 32.125-8.762 9.1-4.38 17.474-8.761 27.762-8.761 4.574 0 9.528.866 15.09 2.983 5.056 1.924 9.206 4.991 12.436 8.884.034.684.052 1.365.052 2.044.01 62.979-60.464 84.356-131.08 84.592ZM54.711 53.846c.08-.505.075-1.01-.031-1.433a1.54 1.54 0 0 0-.242-.55c.388-.918.682-1.89.87-2.88l.078.043a2.635 2.635 0 0 1 1.132 3.203 2.619 2.619 0 0 1-1.077 1.3 2.687 2.687 0 0 1-.73.31Z" fill="#D1D8E8"/><path d="M253.951 156.339c0 2.091-32.864 3.786-73.404 3.786s-73.404-1.695-73.404-3.786 32.864-3.787 73.404-3.787 73.404 1.696 73.404 3.787Z" fill="#D3DAE9"/><path d="M230.266 145.742h-10.172v10.578h11.894v-8.856a1.72 1.72 0 0 0-1.722-1.722Z" fill="#D3DAE9"/><path d="M200.989 145.742H165.68v-22.668h35.309v22.668Z" fill="#C2C6DF"/><path d="M227.986 156.32h-97.41v-3.927a6.652 6.652 0 0 1 6.652-6.651h84.106a6.652 6.652 0 0 1 6.652 6.651v3.927Zm-31.325-10.578h-35.309v-22.668h35.309v22.668Z" fill="#fff"/><path d="m161.352 130.039 35.309-2.827.005-4.133h-35.268l-.046 6.949Zm97.98-100.573v88.894a4.719 4.719 0 0 1-4.719 4.718H103.851a4.718 4.718 0 0 1-4.718-4.718V29.466a4.718 4.718 0 0 1 4.718-4.718h150.762a4.719 4.719 0 0 1 4.718 4.718Z" fill="#C2C6DF"/><path d="M259.331 29.468v82.321h-14.585V24.751h9.867a4.719 4.719 0 0 1 4.718 4.717Z" fill="#4F5058"/><path d="M253.332 29.466v88.894a4.718 4.718 0 0 1-4.717 4.718H103.85a4.718 4.718 0 0 1-4.718-4.718V29.466a4.718 4.718 0 0 1 4.718-4.718h144.764a3.679 3.679 0 0 1 .362.015h.006l.11.01c.06.004.12.012.181.02.04.006.08.011.12.02l.055.01a4.719 4.719 0 0 1 3.883 4.643Z" fill="#fff"/><path d="M247.216 103.567c0 .71-.574 1.283-1.283 1.283h-139.4a1.282 1.282 0 0 1-1.284-1.283V32.15c0-.71.574-1.283 1.283-1.283h139.401c.71 0 1.283.574 1.283 1.283v71.417Zm2.349-78.72a1.357 1.357 0 0 0-.116-.022l-.056-.01a1.324 1.324 0 0 0-.12-.018 2.822 2.822 0 0 0-.181-.022l-.11-.01h-.005c-.051-.005-.102-.007-.153-.01a4.387 4.387 0 0 0-.21-.004H103.852a4.718 4.718 0 0 0-4.718 4.72v82.32h154.199V29.47a4.719 4.719 0 0 0-3.767-4.623Z" fill="#424F56"/><path d="M247.215 32.152v71.417c0 .71-.574 1.283-1.283 1.283h-139.4c-.71 0-1.284-.574-1.284-1.283V32.152c0-.71.574-1.283 1.283-1.283h139.4c.71 0 1.284.574 1.284 1.283Z" fill="#C2C6DF"/><path d="M247.215 32.15v6.74H105.248v-6.74c0-.708.574-1.282 1.283-1.282h139.4c.71 0 1.284.574 1.284 1.283Z" fill="#fff"/><path d="M236.219 34.77a1.09 1.09 0 1 1-2.18 0 1.09 1.09 0 0 1 2.18 0Z" fill="#F03B53"/><path d="M239.752 34.77a1.09 1.09 0 1 1-2.18 0 1.09 1.09 0 0 1 2.18 0Z" fill="#3D7FCA"/><path d="M229.569 35.922H118.663a1.02 1.02 0 0 1-1.017-1.017v-.273c0-.56.458-1.017 1.017-1.017H229.57a1.02 1.02 0 0 1 1.016 1.017v.273a1.02 1.02 0 0 1-1.017 1.017Z" fill="#C3D1E3"/><path d="M110.375 34.775v1.068c0 .15-.163.245-.293.17l-.925-.534-.924-.534a.196.196 0 0 1 0-.34l.924-.533.925-.534c.13-.075.293.02.293.17v1.067Zm1.625 0v1.068c0 .15.163.245.294.17l.924-.534.925-.534a.196.196 0 0 0 0-.34l-.925-.533-.924-.534a.196.196 0 0 0-.294.17v1.067Z" fill="#131112"/><path d="m241.222 35.686-.048-.05a.273.273 0 0 1 0-.386l1.464-1.464a.272.272 0 0 1 .386 0l.05.049a.275.275 0 0 1 0 .386l-1.465 1.465a.274.274 0 0 1-.387 0Z" fill="#33313B"/><path d="m243.024 35.686.05-.05a.275.275 0 0 0 0-.386l-1.465-1.464a.273.273 0 0 0-.387 0l-.048.049a.273.273 0 0 0 0 .386l1.464 1.465c.107.106.28.106.386 0Z" fill="#33313B"/><path d="M228.105 101.977H123.98a2.683 2.683 0 0 1-2.683-2.683V43.2a2.683 2.683 0 0 1 2.683-2.683h104.125a2.683 2.683 0 0 1 2.683 2.683v56.094a2.683 2.683 0 0 1-2.683 2.683Z" fill="#fff"/><path d="M152.989 71.96h-24.006a.667.667 0 0 1 0-1.333h24.006a.667.667 0 1 1 0 1.334Zm0-5.64h-24.006a.667.667 0 1 1 0-1.333h24.006a.666.666 0 1 1 0 1.333Zm0 11.29h-24.006a.667.667 0 0 1 0-1.334h24.006a.666.666 0 1 1 0 1.333Zm73.762-5.65h-24.006a.667.667 0 0 1 0-1.333h24.006a.667.667 0 0 1 0 1.334Zm0-5.64h-24.006a.667.667 0 1 1 0-1.333h24.006a.667.667 0 1 1 0 1.333Zm0 11.29h-24.006a.667.667 0 0 1 0-1.334h24.006a.667.667 0 1 1 0 1.333Z" fill="#C2C6DF"/><path d="M121.297 92.432h109.491v8.977a.57.57 0 0 1-.57.568H121.866a.568.568 0 0 1-.568-.568v-8.977Z" fill="#33313B"/><path d="M220.032 95.969v-.81h1.013v-.72h-1.373a.36.36 0 0 0-.36.35v1.17h.72Zm0 1.44h-.72v1.23a.36.36 0 0 0 .36.35h1.373v-.719h-1.013v-.87Zm3.12-1.44h.722v-1.18a.36.36 0 0 0-.36-.36h-1.32v.72h.96v.809Zm.001 1.43v.87h-.96v.721h1.32a.36.36 0 0 0 .36-.36v-1.23h-.72Zm-95.477-.535v-2.27l1.97 1.138 1.968 1.137-1.969 1.137-1.97 1.137V96.87Zm10.916 2.095h-.518a.352.352 0 0 1-.35-.352v-3.43a.35.35 0 0 1 .35-.35h.518a.35.35 0 0 1 .35.349v3.437a.352.352 0 0 1-.35.352Zm2.55 0h-.517a.353.353 0 0 1-.352-.352v-3.43c0-.193.16-.35.352-.35h.517a.35.35 0 0 1 .352.349v3.437a.352.352 0 0 1-.352.352Z" fill="#fff"/><path d="M230.788 92.43H121.297v-1.795h109.491v1.795Z" fill="#C2C6DF"/><path d="M177.478 90.635v1.795h-56.181v-1.795h56.181Z" fill="#F03B53"/><path d="M213.279 83.656h1.236v2.706h1.654v.958h-2.89v-3.663Zm3.23 0h1.236v3.664h-1.235v-3.663Zm5.747 0-1.55 3.664h-1.213l-1.55-3.663h1.33l.874 2.14.895-2.14h1.214Zm3.165 2.733v.93h-3.046v-3.67h2.978v.93h-1.764v.43h1.55v.89h-1.55v.48h1.832Z" fill="#33313B"/><path d="M211.246 85.454a1.507 1.507 0 1 1-3.015-.001 1.507 1.507 0 0 1 3.015 0Z" fill="#F03B53"/><path d="M132.395 84.697c0 .233.148.369.345.369.196 0 .344-.136.344-.369 0-.234-.148-.369-.344-.369-.197 0-.345.135-.345.37Zm.818 1.728c0-.277-.197-.449-.473-.449-.277 0-.474.172-.474.45 0 .276.197.448.474.448.276 0 .473-.172.473-.449Zm1.457.05c0 .836-.793 1.377-1.93 1.377-1.138 0-1.931-.541-1.931-1.377 0-.431.215-.77.578-.99a1.047 1.047 0 0 1-.425-.85c0-.78.732-1.284 1.778-1.284 1.045 0 1.777.504 1.777 1.285 0 .356-.16.64-.425.848.363.222.578.56.578.99Zm2.712-.873c0-.831-.208-1.09-.491-1.09-.284 0-.492.26-.492 1.09 0 .83.208 1.088.492 1.088.283 0 .491-.258.491-1.088Zm-2.441 0c0-1.428.812-2.251 1.95-2.251 1.137 0 1.95.823 1.95 2.25s-.81 2.25-1.95 2.25c-1.127 0-1.939-.823-1.939-2.25Z" fill="#33313B"/><path d="M128.285 84.396a1.323 1.323 0 1 1-2.647-.001 1.323 1.323 0 0 1 2.647 0Zm1.15 3.346h-4.947s.563-1.572 2.436-1.572l.038.001H127a2.559 2.559 0 0 1 2.435 1.571Z" fill="#F03B53"/><path d="M142.164 54.522s-.661 4.037-3.634 4.76c-2.4.583-4.663-1.723-5.445-2.63-.187-.218-.29-.355-.29-.355.001 0-.178.019-.445.015-.625-.009-1.738-.137-2.174-.906-.62-1.097 1.64-1.846 1.64-1.846-.001 0-1.16-1.034-.869-1.787.285-.74 1.839-.894 1.839-.894s-1.673-1.09-1.113-2.04c.842-1.428 2.574.14 2.71.23-.108-.13-2.276-2.37-1.089-2.776 1.035-.353 2.738.812 3.858 1.967.178.183.278.291.278.291s.067-.053.185-.129c.56-.376 2.279-1.38 3.374-.465 1.324 1.105 1.175 6.556 1.175 6.556Z" fill="#FFB9AE"/><path d="M139.061 57a.237.237 0 0 1-.3-.344c.392-.583.514-1.177.36-1.767-.392-1.512-2.413-2.557-2.434-2.568a.236.236 0 1 1 .215-.42c.09.05 2.231 1.16 2.676 2.87.188.73.046 1.45-.425 2.15l-.092.08Z" fill="#F14558"/><path d="M136.999 51.18a.734.734 0 0 1-.486.72 1.71 1.71 0 0 1-.425.096c.115.077.22.158.302.247a.801.801 0 0 1 .182.277c.05.14.072.357-.104.595-.38.502-1.253.708-1.964.79.508.3.952.709 1.1 1.119.092.265.062.514-.092.72-.107.14-.288.267-.512.375-.556.27-1.37.44-1.914.53a5.896 5.896 0 0 1-.29-.355s-.18.02-.446.015a.226.226 0 0 1 .122-.05c.874-.101 2.369-.408 2.663-.8.038-.051.075-.13.023-.277-.16-.45-1.009-1.047-1.743-1.229a.23.23 0 0 1-.177-.257.233.233 0 0 1 .236-.206c.583.01 2.188-.09 2.616-.66.062-.08.046-.127.037-.15-.038-.106-.172-.218-.358-.327-.378-.22-.968-.422-1.397-.524a.22.22 0 0 1-.121-.074.23.23 0 0 1-.054-.21.237.237 0 0 1 .286-.175c.08.02.25.061.46.127.397.046.779.068 1.067.04.173-.018.311-.053.4-.11.053-.036.115-.096.118-.25.002-.196-.096-.454-.254-.717a.23.23 0 0 1 .02-.264l.004-.006a.23.23 0 0 1 .38.024c.197.33.322.67.32.966Z" fill="#F14558"/><path d="M135.27 46.762c.407.252.762.485 1.105.812.336.32.548.48.778.692l-4.536-19.243c-.068-.295-.509-.205-.456.094l3.11 17.645Zm3.942 10.691c-1.572 1.015-2.013.264-2.013.264l-.797-4.52.066-.077a.615.615 0 0 0 .104-.595.801.801 0 0 0-.182-.277 1.366 1.366 0 0 0-.183-.162l-.018-.098c.12-.02.23-.047.324-.083a.805.805 0 0 0 .153-.078.691.691 0 0 0 .29-.38c.192.181.43.287.71.316.074.008.15.01.227.007l1.32 5.683Z" fill="#33313B"/><path d="M140.578 50.392c-.044.04-.738.645-1.548 1.04-.45.218-.935.37-1.366.326a1.179 1.179 0 0 1-.854-.483c-.747-1.005-.107-2.316.342-3.01l.278.29s.066-.052.185-.13c-.387.57-1.033 1.755-.426 2.568a.7.7 0 0 0 .512.295c.834.088 2.127-.873 2.555-1.25a.236.236 0 1 1 .31.353Z" fill="#F14558"/><path d="m164.858 45.73-.001-.01-.001-.002-.006.026-.01.057-.03.139-.063.306a16.335 16.335 0 0 1-.142.647c-.1.439-.21.887-.33 1.334a43.925 43.925 0 0 1-1.783 5.296c-.182.427-.36.855-.556 1.275-.183.426-.39.838-.586 1.255a38.029 38.029 0 0 1-1.313 2.413c-.111.2-.236.389-.354.583-.12.191-.233.39-.36.575-.253.376-.496.757-.76 1.12-.509.743-1.072 1.437-1.633 2.128a31.198 31.198 0 0 1-1.804 1.947c-.158.153-.312.311-.471.463l-.49.442-.243.222-.061.056.03-.028.043-.036c.058-.047.119-.09.183-.13a2.87 2.87 0 0 1 .88-.406c.074-.02.137-.04.208-.052l.105-.016.088-.016a1.32 1.32 0 0 1 .175-.012.903.903 0 0 1 .137-.006l.066.004h.048l.092.01.058.008.026.007h.012c.069.012-.068-.008-.272-.098a6.857 6.857 0 0 1-.787-.41 14.35 14.35 0 0 1-.963-.635 28.773 28.773 0 0 1-2.083-1.65 55.599 55.599 0 0 1-2.12-1.934 71.094 71.094 0 0 1-2.107-2.09 111.845 111.845 0 0 1-2.078-2.185 87.29 87.29 0 0 1-1.025-1.11l-.985-1.078-7.613 5.71.253.384.24.355.48.7c.326.46.654.915.985 1.367.669.9 1.353 1.789 2.065 2.665.717.872 1.45 1.74 2.22 2.594.388.427.78.85 1.186 1.273.407.42.823.838 1.252 1.253.864.83 1.774 1.647 2.803 2.448.517.4 1.06.796 1.657 1.185s1.246.768 2.004 1.128c.76.356 1.628.704 2.74.937l.207.042a14.786 14.786 0 0 0 .676.098c.156.017.326.028.49.038l.247.013c.082.003.176-.001.264-.001.18 0 .358-.004.536-.013.187-.013.381-.034.57-.057.097-.012.19-.023.287-.04.1-.016.2-.036.3-.056.2-.043.395-.084.597-.144a8.227 8.227 0 0 0 2.318-1.08c.17-.122.335-.246.5-.373l.12-.097.11-.09.087-.078.35-.311.696-.624c.227-.213.448-.432.672-.648.9-.862 1.727-1.79 2.532-2.73a39.794 39.794 0 0 0 2.228-2.946 39.953 39.953 0 0 0 1.933-3.11l.436-.801c.144-.268.276-.54.414-.81.138-.27.274-.54.4-.813l.384-.82a44.547 44.547 0 0 0 3.208-10.255 37.48 37.48 0 0 0 .394-2.724c.017-.155.032-.32.047-.483l.043-.583-10.052-.92Z" fill="#F7942C"/><path d="M140.954 58.697Zm13.65 11.28a.28.28 0 0 0 .27-.213c.527-2.107.461-4.75.458-4.86a.281.281 0 0 0-.56.014c0 .027.066 2.679-.44 4.71a.28.28 0 0 0 .203.34l.068.009Z" fill="#D1692A"/><path d="M156.396 67.945a.28.28 0 0 0 .251-.406c-.038-.076-.945-1.89-1.373-2.43a.28.28 0 1 0-.44.349c.392.495 1.302 2.314 1.311 2.332.05.098.15.155.25.155Zm-17.459-3.804a.28.28 0 0 0 .2-.08c2.35-2.42 7.65-6.243 7.703-6.282a.28.28 0 0 0 .063-.39.28.28 0 0 0-.39-.065c-.055.04-5.395 3.894-7.777 6.35a.28.28 0 0 0 .201.476Z" fill="#D1692A"/><path d="M141.207 62.07a.281.281 0 0 0 .215-.46l-2.835-3.401a.28.28 0 1 0-.43.359l2.834 3.401a.28.28 0 0 0 .216.101Z" fill="#D1692A"/><path d="M193.921 91.834s.823 7.81-.954 12.159c-1.777 4.35-24.78 2.111-30.643-1.803-2.404-1.605 2.717-16.418 2.717-16.418l28.88 6.062Z" fill="#33313B"/><path d="M175.272 104.411a.292.292 0 0 0 .278.3h.003a.291.291 0 0 0 .309-.271 227.406 227.406 0 0 1 .22-3.83c.233-3.57.528-7.074.75-9.548.02-.2.035-.395.053-.58l.133-1.433c-.196-.03-.392-.062-.585-.095-.04.408-.084.894-.133 1.443l-.054.58c-.22 2.453-.513 5.926-.745 9.474l-.04.59c-.07 1.13-.135 2.265-.19 3.37Z" fill="#4F5058"/><path d="M174.428 100.646c.093.044.507.237 1.032.395.184.056.381.107.583.147.186.035.373.062.559.073.358.02.703-.018.99-.156.36-.171.593-.484.673-.901.215-1.102.666-5.648.97-8.865l.054-.578.12-1.38a41.005 41.005 0 0 1-.59-.073c-.037.4-.08.874-.13 1.395l-.053.578c-.304 3.208-.754 7.748-.962 8.816-.046.246-.16.404-.355.498-.313.15-.782.118-1.248.016a7.101 7.101 0 0 1-1.392-.475.299.299 0 0 0-.394.128.281.281 0 0 0 .134.382Z" fill="#4F5058"/><path d="M161.518 91.337c6.368 5.944 21.426 9.105 33.033 3.453 1.273-3.48 2.673-15.898 3.048-19.61.076-.739.136-1.478.185-2.218.235-3.56.184-7.147.012-10.9l-.029-.613c-.152-3.086-.379-6.29-.593-9.687-.424-6.728-2.67-10.874-6.57-11.494-1.815-.288-3.25-.8-4.308-1.299a9.128 9.128 0 0 1-.37-.182c-1.258-.64-1.97-1.22-1.97-1.22h-8.702c-.749 1.093-1.694 1.78-2.71 2.265-.111.053-.225.105-.34.155-3.089 1.333-6.69 1.068-7.433 4.793-.466 2.338 1.324 7.15 1.136 16.905a78 78 0 0 1-.211 4.463 93.587 93.587 0 0 1-.42 4.265 97.415 97.415 0 0 1-.29 2.21c-.58 4.053-2.134 13.5-3.468 18.714Z" fill="#F7942C"/><path d="m191.341 93.375-.07-.01a.261.261 0 0 1-.182-.32c4.834-17.72 3.858-35.733 3.848-35.912a.26.26 0 1 1 .52-.03c.01.18.991 18.278-3.864 36.08a.26.26 0 0 1-.252.192ZM165.117 70.36a.28.28 0 0 0 .278-.25c.578-5.125.585-15.321.585-15.423a.28.28 0 0 0-.56 0c0 .101-.008 10.267-.582 15.36a.28.28 0 0 0 .247.31l.032.002Zm11.921 19.297a.656.656 0 1 0 1.309-.112.656.656 0 0 0-1.31.112Zm-.104 3.18a.657.657 0 1 0 1.31-.112.657.657 0 0 0-1.31.112Zm-8.177-41.185c-.107.932-.392 4.353.94 5.9.437.507.997.754 1.71.754.714 0 1.273-.247 1.71-.754 1.331-1.545 1.047-4.968.94-5.9h-5.3Zm.515 6.265c-1.708-1.984-1.068-6.4-1.04-6.588a.28.28 0 0 1 .277-.239h5.795a.28.28 0 0 1 .278.24c.028.186.668 4.603-1.04 6.587-.542.63-1.26.95-2.135.95-.874 0-1.593-.32-2.135-.95Z" fill="#D1692A"/><path d="M184.742 16.117c-1.623-1.05-6.728-1.577-6.728-1.577s-.842-2.208-1.788-2.839c-2.152-1.423-2.418 1.483-2.418 1.483s-2.102-2.945-3.995-2.104c-1.892.841.526 3.575.526 3.575s-2.84-.527-2.524 1.89c.316 2.419 3.05 3.47 3.05 3.47s-.842 1.367-.421 3.575 1.367 2.313 1.367 2.313l11.78 1.05s2.42 0 3.05-3.05c.634-3.046-1.468-4.31-1.468-4.31s1.366-2.312-.421-3.47Z" fill="#33313B"/><path d="M175.123 36.09v2.21c.26.21.521.392.783.55 3.84 2.305 7.985-.55 7.985-.55v-7.67l-7.722 4.808-1.046.65Z" fill="#FFB9AE"/><path d="M175.123 36.027v2.276c.26.209.521.391.783.549 3.27-1.295 5.65-4.727 5.65-4.727l-5.387 1.315-1.046.587Z" fill="#33313B"/><path d="M183.872 36.054s2.584.433 3.294 3.391c-2.518 2.635-4.744 4.92-8.348 5.586v-5.29s3.18-.796 5.054-3.686Zm-8.828.765s-2.309.495-3.206 3.449c2.327 2.832 3.57 3.898 6.98 4.763v-5.29s-1.9-.03-3.774-2.92Z" fill="#F7942C"/><path d="m173.742 77.95 1.497 3.613v.001l.67 1.623 1.9 4.586.916-1.77.326-.627.735-1.42.325-.628.735-1.42.324-.626.737-1.42.325-.626.691-1.335-.015-.145-.108-1.059-.244-2.4-.108-1.06-.245-2.4-.107-1.059-.245-2.4-.107-1.059-.245-2.4-.108-1.06-.244-2.4-.108-1.06-.245-2.4-.106-1.06-.245-2.4-.108-1.06-.244-2.4-.108-1.06-.253-2.487-1.834-.071-.053.412-.112.84-.251 1.905-.11.84-.252 1.904-.11.842-.252 1.904-.11.84-.253 1.904-.11.84-.252 1.905-.11.84-.25 1.903-.11.84-.25 1.904-.11.841-.25 1.905-.11.84-.25 1.904-.11.841-.251 1.906-.11.84-.252 1.905-.112.84-.004.035Z" fill="#33313B"/><path d="m177.732 47.72 2.36 2.358-.108-1.06-2.14-2.14-.112.84Zm-.363 2.745 3.074 3.074-.108-1.06-2.855-2.854-.11.84Zm-.36 2.747L180.794 57l-.107-1.06-3.569-3.57-.11.842Zm-.364 2.747 4.502 4.502-.108-1.06-4.284-4.28-.11.84Zm-.362 2.738 5.217 5.217-.108-1.06-4.998-4.997-.111.84Zm-.363 2.747 5.931 5.93-.107-1.058-5.713-5.712-.111.84Zm-.36 2.746 6.644 6.646-.107-1.06-6.427-6.426-.11.84Zm-.365 2.747 7.36 7.36-.107-1.06-7.141-7.141-.112.84Zm-.36 2.746 8.074 8.075-.12-1.06-7.854-7.855-.111.84Zm-.364 2.742 7.435 7.434.325-.625-7.65-7.65-.11.84Zm-.362 2.744 6.738 6.737.324-.626-6.95-6.951-.112.829Zm-.363 2.745 6.04 6.04.324-.628-6.253-6.253-.11.841Zm1.492 3.648.672 1.623L178.725 86l.325-.627-3.812-3.811Z" fill="#4F5058"/><path d="m179.732 46.538-.914 1.357-.921-1.43-.16 1.22 1.067 1.088 1.023-1.29-.095-.945Z" fill="#4F5058"/><path d="m181.265 44.262-2.446 3.636-2.344-3.636 2.344-3.037 2.446 3.037Z" fill="#33313B"/><path d="M182.686 46.75a.28.28 0 0 0 .174-.061c2.422-1.931 4.484-6.922 4.57-7.133a.28.28 0 0 0-.517-.213c-.021.049-1.963 4.748-4.18 6.72l-3.683-5.004a.28.28 0 0 0-.455-.006l-3.438 4.879a161.618 161.618 0 0 1-3.063-5.796.28.28 0 1 0-.502.25c1.463 2.944 3.275 6.178 3.293 6.21a.28.28 0 0 0 .231.14.278.278 0 0 0 .243-.117l3.47-4.926 3.631 4.93a.28.28 0 0 0 .189.113l.037.002Z" fill="#D1692A"/><path d="M178.825 41.5a.28.28 0 0 0 .281-.28v-1.253a.28.28 0 0 0-.561 0v1.253c0 .155.125.28.28.28Z" fill="#D1692A"/><path d="M172.361 26.285s-1.257-1.484-1.967 0c-.71 1.484-.164 4.489 1.748 3.997l.219-3.997Z" fill="#F14558"/><path d="M171.02 31.492s-.007 4.573 4.75 4.563c4.727-.01 7.949-3.722 8.117-3.894l.004-.004.053-.96.268-4.99.144-2.666s.604-4.801-3.96-5.677c-3.333-.64-6.459-.086-8.036 1.653a4.108 4.108 0 0 0-1.045 2.408l-.148 4.79-.036 1.174-.11 3.603Z" fill="#FFB9AE"/><path d="M176.481 23.286s1.996 1.486 3.184.539c1.188-.948-1.58-1.98-2.49-1.903-.91.078-1.287 1.027-.694 1.364Zm-2.172 0s-1.995 1.486-3.183.539c-1.189-.948 1.58-1.98 2.49-1.903.909.078 1.286 1.027.693 1.364Z" fill="#33313B"/><path d="M175.883 32.095c.76.068 1.33-.411 1.359-.436a.211.211 0 0 0 .023-.297.212.212 0 0 0-.297-.022c-.03.025-.688.57-1.46.227a.21.21 0 1 0-.172.384c.189.085.373.128.547.144Z" fill="#F14558"/><path d="M177.944 28.829s-2.902.584-4.368.453c0 0 .545 2.16 2.706 1.614 1.68-.424 1.662-2.067 1.662-2.067Z" fill="#fff"/><path d="M172.213 19.695c.747-.265 1.286-.019 2.448.492 1.681.738 3.56.074 5.222-.775 1.66-.85 2.657.332 2.09 1.107-.565.775-.503 1.403.124 2.391.628.988-1.187 1.448-.185 2.223.423.327.397.814.227 1.27a.684.684 0 0 0 .77.905c.54-.137 1.3-1.096 1.3-1.096l.14-2.666s.603-4.802-3.96-5.677c-3.334-.64-6.46-.086-8.038 1.653-.05.056-.1.114-.147.173Z" fill="#33313B"/><path d="M177.371 27.303c0 .333.686.603 1.532.603s1.532-.27 1.532-.603c0-.332-.686-.602-1.532-.602s-1.532.27-1.532.602Zm-6.24.585c.118.012.242.018.369.018.845 0 1.53-.27 1.53-.603 0-.332-.685-.603-1.53-.603a3.58 3.58 0 0 0-.333.015l-.036 1.173Z" fill="#F14558"/><path d="M176.709 25.477c0 .457.207.828.463.828s.464-.371.464-.828c0-.458-.208-.828-.464-.828s-.463.37-.463.828Zm-4.596 0c0 .457.208.828.464.828s.463-.371.463-.828c0-.458-.207-.828-.463-.828s-.464.37-.464.828Zm10.285 4.831c.022.051.624 1.448 1.49 1.856l.004-.005.052-.96s-.75-.13-1.546-.89Z" fill="#33313B"/><path d="M183.234 27.13s1.829-2.456 3.168-.526c1.104 1.59-.983 5.735-3.168 4.315v-3.79Z" fill="#FFB9AE"/><path d="M183.485 30.18a.187.187 0 0 0 .187-.168c.203-1.858 1.76-2.507 1.826-2.534a.188.188 0 1 0-.14-.349c-.074.03-1.832.753-2.06 2.842a.188.188 0 0 0 .166.208h.021Z" fill="#33313B"/><path d="M185.24 29.04a.187.187 0 0 0 .146-.07.187.187 0 0 0-.027-.265c-.076-.061-.75-.592-1.315-.448a.188.188 0 1 0 .094.365c.325-.083.82.242.984.375a.185.185 0 0 0 .118.042Zm-10.016-1.267a.188.188 0 1 0 0-.376c-.693 0-1.016-.365-1.123-.523.75-1.547 1.496-3.107 1.504-3.122a.188.188 0 1 0-.34-.162c-.008.015-.782 1.635-1.547 3.21a.187.187 0 0 0 0 .162c.014.033.391.811 1.506.811Z" fill="#33313B"/><path d="M220.739 44.732s2.533 2.558 5.034 1.56c2.02-.805 2.467-3.613 2.565-4.663.023-.26.026-.41.026-.41s.138-.079.328-.218c.444-.324 1.177-.984 1.097-1.758-.12-1.103-2.12-.488-2.12-.488s.3-1.333-.29-1.725c-.587-.384-1.78.297-1.78.297s.646-1.631-.239-2.025c-1.33-.593-1.774 1.414-1.828 1.547.014-.146.647-6.298-.409-5.983-.924.275-1.773 5.418-1.988 6.817-.034.22-.052.349-.052.349s-.074-.003-.199.002c-.593.016-2.337.173-2.656 1.388-.386 1.468 2.5 5.302 2.5 5.302Z" fill="#FFB9AE"/><path d="M225.922 40.382c-.21.475-.322.994-.218 1.363.068.238.217.4.433.47.148.047.342.044.557.008.538-.09 1.207-.383 1.644-.597.024-.252.027-.401.027-.401s.138-.078.328-.217a.206.206 0 0 0-.114.026c-.678.373-1.906.916-2.317.785-.053-.018-.121-.056-.16-.187-.113-.406.19-1.267.625-1.77a.205.205 0 0 0-.003-.276.206.206 0 0 0-.276-.027c-.414.305-1.615 1.052-2.212.86-.087-.027-.099-.067-.103-.088-.028-.09.012-.24.09-.41.158-.35.478-.795.734-1.09a.208.208 0 0 0-.313-.27c-.114.13-.51.599-.748 1.08a1.73 1.73 0 0 0-.175.519.692.692 0 0 0 .022.293.532.532 0 0 0 .378.373c.528.168 1.26-.13 1.812-.434Z" fill="#F14558"/><path d="M222.746 38.635a.204.204 0 0 1 .15.178c.02.27.081.504.181.644.08.11.156.122.214.12a.823.823 0 0 0 .341-.126c.33-.187.75-.56 1.11-.922a.2.2 0 0 1-.048.114c-.256.292-.576.739-.735 1.09a2.2 2.2 0 0 1-.125.075 1.55 1.55 0 0 1-.376.161.643.643 0 0 1-.716-.27c-.152-.21-.236-.517-.263-.855a.204.204 0 0 1 .26-.211l.007.002Z" fill="#F14558"/><path d="M219.771 40.962c.053.006.86.087 1.642-.044.433-.072.86-.21 1.146-.462.236-.208.36-.47.366-.781.024-1.102-1.104-1.717-1.78-1.985-.034.221-.052.35-.052.35s-.073-.004-.198 0c.568.213 1.635.732 1.615 1.625a.628.628 0 0 1-.225.48c-.553.486-1.971.457-2.47.405a.206.206 0 0 0-.228.184.208.208 0 0 0 .184.228Zm4.457 3.968a.208.208 0 0 0 .039-.4c-.578-.218-.968-.583-1.16-1.084-.49-1.284.428-3.065.437-3.083a.207.207 0 1 0-.367-.192c-.042.08-1.012 1.966-.457 3.423.235.617.706 1.063 1.4 1.325l.108.01Z" fill="#F14558"/><path d="m193.408 41.748 4.33 3.76c.691.646 1.386 1.287 2.083 1.924.694.64 1.388 1.276 2.084 1.903.698.624 1.392 1.25 2.086 1.86.694.61 1.392 1.208 2.08 1.78a44.586 44.586 0 0 0 2.017 1.61c.32.236.63.454.881.617l.167.107.07.044.024.02.054.058.047.075c.027.024.093.04.214.033.241-.015.696-.17 1.214-.472.52-.3 1.094-.734 1.664-1.243.569-.512 1.15-1.09 1.71-1.717 1.122-1.257 2.205-2.673 3.228-4.158a61.715 61.715 0 0 0 2.683-4.207c1.502 1.815 3.806 2.713 6.308 2.413a56.097 56.097 0 0 1-2.44 5.63c-.93 1.843-1.958 3.668-3.21 5.455a27.89 27.89 0 0 1-2.084 2.65c-.781.869-1.65 1.727-2.713 2.535a13.71 13.71 0 0 1-1.767 1.147c-.654.352-1.381.672-2.192.914-.811.24-1.708.4-2.647.418a9.621 9.621 0 0 1-2.803-.357 10.2 10.2 0 0 1-1.297-.46l-.301-.137-.253-.123a7.451 7.451 0 0 1-.238-.12c-.076-.04-.16-.083-.228-.12a25.946 25.946 0 0 1-1.568-.928 52.989 52.989 0 0 1-2.65-1.82 92.257 92.257 0 0 1-2.418-1.853c-.79-.621-1.57-1.243-2.335-1.877a187.093 187.093 0 0 1-2.273-1.91 274.694 274.694 0 0 1-2.226-1.94 204.973 204.973 0 0 1-2.186-1.977l-1.08-1.004-.536-.509a49.59 49.59 0 0 1-.543-.523l7.056-7.508Z" fill="#F7942C"/><path d="M197.538 59.508a.257.257 0 0 1-.15-.048c-2.858-2-7.94-6.215-7.991-6.258a.261.261 0 1 1 .334-.402c.051.042 5.116 4.244 7.957 6.232a.261.261 0 0 1-.15.476Z" fill="#D1692A"/><path d="m191.626 54.945-.037-.003-2.014-.292a.26.26 0 1 1 .075-.517l2.014.293a.261.261 0 0 1-.038.52Zm33.32-5.542a.266.266 0 0 0-.18-.496c-3.792.826-5.68-2.79-5.698-2.828a.266.266 0 0 0-.358-.116h-.002a.265.265 0 0 0-.114.358c.02.04 2.097 4.018 6.285 3.106l.067-.024Z" fill="#D1692A"/><path d="M222.996 49.47a.264.264 0 0 0 .122-.131l1.248-2.915a.266.266 0 1 0-.49-.21l-1.247 2.915a.266.266 0 0 0 .367.34Zm-2.235-2.804a.462.462 0 1 0 .819-.427.462.462 0 0 0-.82.427Zm-12.033 12.117a.265.265 0 0 0 .14-.193c.003-.017.282-1.677.776-2.648a.265.265 0 1 0-.474-.24c-.53 1.043-.815 2.73-.826 2.8a.264.264 0 0 0 .384.28Z" fill="#D1692A"/><path d="m210.455 58.181.049-.032a.267.267 0 0 0 .033-.375c-.008-.008-.747-.9-.925-1.77a.265.265 0 1 0-.52.106c.204 1.004 1.003 1.965 1.037 2.006a.265.265 0 0 0 .315.065Z" fill="#D1692A"/><path d="M121.019 172.513c0 2.034-27.092 3.682-60.51 3.682-33.42 0-60.51-1.648-60.51-3.682s27.09-3.682 60.51-3.682c33.41 0 60.51 1.648 60.51 3.682Z" fill="#D3DAE9"/><path d="m56.734 70.02 6.112 22.35-2.178-2.512c.807.43 1.74.76 2.775.99 1.033.233 2.16.367 3.338.429 1.19.06 2.418.05 3.674-.002a89.518 89.518 0 0 0 3.842-.258h.007A3.493 3.493 0 0 1 78.08 94.2a3.505 3.505 0 0 1-2.93 3.747 98.145 98.145 0 0 1-4.113.58 46.516 46.516 0 0 1-4.327.316c-1.488.032-3.03-.023-4.624-.254-1.59-.23-3.24-.645-4.852-1.34a3.803 3.803 0 0 1-2.1-2.28l-.078-.233-7.333-21.978a4.716 4.716 0 1 1 9.022-2.737Z" fill="#FFBAB0"/><path d="M59.087 151.039a.796.796 0 0 1-.274-.048l-32.02-11.54a.807.807 0 1 1 .549-1.514l32.019 11.546a.808.808 0 0 1-.274 1.567Z" fill="#D1692A"/><path d="M25.738 151.039a.807.807 0 0 1-.275-1.567l32.399-11.734a.808.808 0 0 1 .55 1.518l-32.4 11.735a.802.802 0 0 1-.274.05Z" fill="#D1692A"/><path d="M61.935 171.672a1.383 1.383 0 0 1-1.368-1.199l-5.783-43.182H30.582L24.89 170.47a1.382 1.382 0 1 1-2.741-.36L28 125.727a1.382 1.382 0 0 1 1.37-1.202h26.623c.692 0 1.278.512 1.37 1.199l5.944 44.381a1.381 1.381 0 0 1-1.372 1.566Z" fill="#F7942C"/><path d="M48.282 125.906h-17.29c-5.478 0-11.344-2.998-12.185-8.411a102.67 102.67 0 0 1-1.09-20.68 25.18 25.18 0 0 1 9.549-18.553s3.454 15.052-.89 35.826c1.659 7.894 21.906 11.818 21.906 11.818Z" fill="#F7942C"/><path d="M44.68 37.63s-2.057-4.953-7.497-4.02c-3.804.652-5.424 5.39-5.2 12.706.326 10.649-3.276 17.066-3.276 17.066l4.781 1.087S45.658 46.214 44.68 37.63Z" fill="#33313B"/><path d="M88.284 153.164h-7.723s-1.787-8.572-2.386-13.378c-.6-4.807-.912-16.203-.912-16.203s-6.154 1.999-19.037 1.245c-28.546-1.667-17.722-22.64-17.722-22.64.964 1.333 6.872.409 10.91 1.046 12.393 1.19 23.142 6.053 29.592 8.836 1.553.67 2.934 1.38 4.144 2.125 1.555.958 2.528 3.867 3.114 7.692 1.763 11.498.02 31.277.02 31.277Z" fill="#424F56"/><path d="M81.52 149.039a.276.276 0 0 1-.27-.222c-1.114-5.514-1.488-12.378-1.789-17.893-.25-4.572-.484-8.892-1.072-9.411-.476-.42-2.451-.092-4.953.323-4.975.826-12.493 2.074-20.785.145-4.516-1.05-7.836-3.245-9.868-6.521-3.504-5.65-1.906-12.653-1.89-12.723a.277.277 0 0 1 .538.127c-.016.07-1.56 6.858 1.825 12.31 1.95 3.144 5.155 5.253 9.52 6.269 8.185 1.905 15.638.668 20.57-.15 2.953-.492 4.736-.787 5.41-.193.726.643.93 3.8 1.257 9.795.3 5.497.673 12.339 1.778 17.814a.277.277 0 0 1-.216.326l-.055.005Z" fill="#4F5058"/><path d="M88.433 149.18h-.006l-8.588-.185a.276.276 0 0 1-.28-.282.273.273 0 0 1 .282-.27l8.588.184a.276.276 0 0 1-.006.553Z" fill="#4F5058"/><path d="M88.072 163.062H82.62l-1.05-6.395-.575-3.5h6.773l.107 3.5.196 6.395Z" fill="#F57A68"/><path d="M88.071 163.062h-5.45l-.782-4.761-.269-1.634h6.306l.052 1.694.143 4.701Z" fill="#F7942C"/><path d="m87.928 158.359-6.09-.06-.268-1.634h6.306l.052 1.694Z" fill="#D1692A"/><path d="M101.523 171.672H80.905c-.153-.279-.236-.673-.27-1.145-.13-1.744.426-4.527.699-6.282.033-.205.062-.396.083-.57.038-.293.062-.537.062-.717 0-1.431 1.268-1.186 1.268-1.186 2.086 2.046 4.448-1.022 5.828-.016a21 21 0 0 1 .718.578c.352.294.845.72 1.513 1.32 1.636 1.473 4.42 2.445 6.79 3.436a15.17 15.17 0 0 1 1.402.664c1.936 1.047 2.553 2.046 2.692 2.773.134.698-.169 1.145-.169 1.145Z" fill="#2F67BA"/><path d="M99 167.755c-.532.423-1.713 1.268-2.66 1.268a1.72 1.72 0 0 1-.125-.004c-.669-.056-3.126-1.264-5.125-2.362a45.365 45.365 0 0 1-2.944-1.746c-1.234-.814-1.448-1.125-1.497-1.34-.18-.814 1.165-1.381 2.109-1.674.116.091.292.232.536.438-1.172.319-2.134.82-2.09 1.105.115.24 1.335 1.17 4.253 2.768 2.226 1.218 4.338 2.204 4.806 2.243.635.05 1.568-.527 2.177-.982.197.095.384.19.56.286Zm2.523 3.917H80.906c-.153-.279-.237-.674-.271-1.145h21.058c.134.697-.17 1.145-.17 1.145Z" fill="#304DA8"/><path d="M83.01 171.672h-.613c.611-.699 1.183-1.77 1.108-3.3-.1-2.038-1.32-3.411-2.17-4.127.032-.205.06-.397.083-.57.915.7 2.458 2.23 2.578 4.67.071 1.464-.409 2.555-.986 3.327Z" fill="#304DA8"/><path d="M90.457 164.867a.34.34 0 0 1-.082-.669l1.288-.32a.34.34 0 1 1 .164.66l-1.288.319-.082.01Zm-1.28-1.07a.34.34 0 0 1-.081-.67l1.288-.32a.34.34 0 0 1 .163.66l-1.287.319-.082.01Zm2.567 1.82a.34.34 0 0 1-.082-.67l1.288-.32a.34.34 0 1 1 .164.661l-1.288.319-.082.01Zm1.29.72a.34.34 0 0 1-.083-.67l1.288-.32a.34.34 0 1 1 .164.66l-1.288.318-.082.011Zm1.403.671a.34.34 0 0 1-.08-.67l1.287-.319a.339.339 0 0 1 .411.247.34.34 0 0 1-.248.412l-1.288.32-.082.01Zm1.524.562a.34.34 0 0 1-.082-.669l1.288-.32a.34.34 0 1 1 .164.66l-1.288.32-.082.01Z" fill="#fff"/><path d="M26.21 95.545s-.245 1.664 1.986 2.133l23.26.775s1.572-.79 1.288-2.737c0 0-9.82-5.516-26.535-.17Z" fill="#304DA8"/><path d="M51.774 103.234c-12.073 6.641-25.256 1.293-25.256 1.293.645-1.76 1.122-3.744 1.469-5.549.402-2.099.628-3.954.73-4.93 5.137-.28 17.726-.817 22.658.354l.04 1.977.36 6.855Z" fill="#F57A68"/><path d="M42.856 100.055c-.09.622-.37 1.097-.628 1.06-.257-.037-.394-.57-.304-1.194.09-.612.37-1.086.628-1.05.258.037.394.57.304 1.194Zm8.558-3.67c-5.141-.313-15.258-.422-23.428 2.6.403-2.1.628-3.955.731-4.93 5.136-.282 17.725-.817 22.657.353l.04 1.977Z" fill="#F14558"/><path d="M57.152 86.832a2.945 2.945 0 0 1-.25.567c-.647 1.199-1.649 2.238-2.487 2.978a15.875 15.875 0 0 1-1.25.995c-.166.119-.263.18-.263.18l-.003.036a34.087 34.087 0 0 0-.097 1.632c-.017.416-.028.872-.04 1.36-.006.364-.013.743-.017 1.139-6.823-3.048-20.875-1.125-26.535-.171.104-.49.198-.968.285-1.436.4-2.159.625-4.102.715-5.842.134-2.592-.093-6.486-.643-10.509a63.96 63.96 0 0 0-.188-1.292 70.985 70.985 0 0 0-.673-3.755c-1.117-5.354-.333-10.974 5.095-11.639a81.616 81.616 0 0 1 6.408-.521l.162-.006 10.495 3.047.998.29c.573.184 1.104.363 1.594.537.21.076.413.15.608.223.509.19.97.378 1.389.562.84.372 1.506.734 2.032 1.108 2.302 1.635 1.945 3.481 1.887 7.128l-.001.05-.002.14v.062a25.903 25.903 0 0 0 .05 1.855c.04.689.1 1.373.18 2.044a64.456 64.456 0 0 0 .19 1.544c.42 3.193.94 5.99.37 7.694Z" fill="#067FE1"/><path d="m56.37 73.49-.001.14v.063c-.002.148-.002.297-.001.446l-2.205 1.384a.306.306 0 0 1-.425-.097.308.308 0 0 1 .098-.424l2.338-1.467a.307.307 0 0 1 .197-.045ZM41.832 85.297a.309.309 0 0 1-.205-.537l2.052-1.847a.307.307 0 1 1 .412.458l-2.052 1.847a.306.306 0 0 1-.206.079Zm14.95-6.164-1.404 1.265a.306.306 0 0 1-.435-.023.31.31 0 0 1 .022-.435l1.722-1.55c.031.25.063.497.096.743Zm-19.11-1.258a.308.308 0 0 1 .324-.475l2.686.633a.308.308 0 1 1-.14.6L37.85 78a.308.308 0 0 1-.182-.125Zm-9.585 5.273a.308.308 0 0 1-.206-.536l2.052-1.847a.308.308 0 0 1 .412.457L28.29 83.07a.307.307 0 0 1-.206.08Zm23.88-.443a.307.307 0 0 1 .574-.026l1.103 2.53a.308.308 0 0 1-.565.247l-1.102-2.531a.306.306 0 0 1-.01-.22Zm5.185 4.127a2.945 2.945 0 0 1-.25.566l-1.499-.472a.302.302 0 0 1-.171-.138.307.307 0 0 1 .357-.45l1.565.494Zm-8.471.221a.308.308 0 0 1 .26.513l-1.86 2.044a.308.308 0 0 1-.45-.414l1.858-2.044a.303.303 0 0 1 .198-.099Zm-1.093-4.714a.307.307 0 0 1-.111-.564l2.337-1.467a.308.308 0 0 1 .327.521l-2.338 1.46a.305.305 0 0 1-.215.039Zm1.49-8.89a.307.307 0 0 1-.262.51l-2.745-.3a.308.308 0 0 1 .067-.61l2.744.298c.08.01.148.046.197.101Zm-3.991-5.957a.308.308 0 0 1 .57-.073l1.306 2.43a.308.308 0 1 1-.542.29l-1.306-2.43a.307.307 0 0 1-.028-.22Zm9.33 22.885c-.175.153-.342.294-.497.42l-.361-.92a.307.307 0 1 1 .562-.226l.286.726ZM29.18 85.7a.308.308 0 0 1 .377-.435l2.597.934a.308.308 0 0 1-.208.58l-2.598-.935a.303.303 0 0 1-.167-.144Zm1.274 3.504a.308.308 0 0 1 .201.538l-2.067 1.83a.308.308 0 0 1-.408-.462l2.068-1.829a.305.305 0 0 1 .206-.077Zm3.746 2.907a.307.307 0 0 1-.293.504l-2.72-.464a.307.307 0 1 1 .102-.606l2.72.463a.304.304 0 0 1 .19.114Zm2.277-25.832a.308.308 0 0 1 .464-.34l2.331 1.496a.308.308 0 0 1-.334.518l-2.32-1.496a.308.308 0 0 1-.13-.178Zm15.826 1.762a.308.308 0 0 1 .437.373l-.923 2.602a.308.308 0 0 1-.58-.206l.923-2.602a.304.304 0 0 1 .143-.167Zm-1.238-3.392-1.427 1.827a.307.307 0 1 1-.485-.378l1.304-1.672.608.222Z" fill="#304DA8"/><path d="M37.122 89.887a.251.251 0 0 0 .318.16c.045-.016 4.51-1.462 9.208.485 2.387.989 4.51 1.367 6.225 1.333.008-.1.015-.194.024-.284l.004-.03s.1-.06.27-.18c-1.683.087-3.85-.27-6.32-1.3-4.878-2.02-9.372-.56-9.561-.491a.25.25 0 0 0-.16.317Zm10.742-26.298c-.587.911-1.8 1.944-4.257 1.766-3.39-.246-5.619-3.48-6.398-4.808.106-.005.162-.006.162-.006l10.493 3.048Z" fill="#304DA8"/><path d="M44.258 69.594c.1.02.2.034.3.042.937.076 1.696-.196 2.255-.807 1.63-1.78.96-5.84.932-6.011a.252.252 0 0 0-.496.084c.007.04.658 3.99-.806 5.588-.456.497-1.06.709-1.844.645-3.285-.264-6.963-8.604-7-8.688a.25.25 0 1 0-.46.2c.15.346 3.639 8.24 7.12 8.947Z" fill="#fff"/><path d="M54.486 66.312c-.216 2.408.376 6.38 1.93 9.235a26.334 26.334 0 0 1-.046-1.855v-.063c0-.064.002-.126.003-.19.058-3.656.415-5.503-1.887-7.137Zm-19.304 4.232c-1.204 4.645-5.605 8.373-8.616 7.21a102.905 102.905 0 0 0-.188-1.293 70.046 70.046 0 0 0-.675-3.754c-1.115-5.354-.332-10.974 5.096-11.64a75.38 75.38 0 0 1 1.16-.131c2.718 1.158 4.61 4.26 3.223 9.608Z" fill="#FFBAB0"/><path d="m35.803 67.009 7.053 25.79-2.514-2.897c.932.494 2.01.875 3.203 1.142 1.192.269 2.494.424 3.853.494 1.36.07 2.778.058 4.227-.002 1.45-.06 2.932-.169 4.435-.297h.008a4.03 4.03 0 0 1 4.36 3.674c.18 2.114-1.32 3.99-3.383 4.323-1.55.248-3.128.481-4.746.67a54.2 54.2 0 0 1-4.995.365c-1.716.037-3.495-.027-5.335-.294-1.836-.267-3.74-.745-5.601-1.548a4.389 4.389 0 0 1-2.426-2.63l-.089-.268-8.462-25.365a5.442 5.442 0 1 1 10.412-3.158Z" fill="#FFBAB0"/><path d="M38.96 91.969a.209.209 0 0 1-.105-.39c.065-.038 1.61-.91 3.222-1.034a.21.21 0 0 1 .032.416c-1.517.118-3.03.972-3.045.98l-.104.028Z" fill="#F14558"/><path d="m41.523 91.04-.108-.031c-.973-.59-2.15-.68-2.162-.68a.209.209 0 1 1 .03-.417c.051.004 1.29.097 2.348.74a.208.208 0 0 1-.108.387Z" fill="#F14558"/><path d="M47.812 77.45c3.122.632 4.487-2.596 4.5-2.63a.251.251 0 0 0-.464-.19c-.05.122-1.227 2.876-3.937 2.327-2.843-.576-8.148-6.172-8.202-6.229a.25.25 0 1 0-.365.345c.222.235 5.47 5.77 8.468 6.376Z" fill="#304DA8"/><path d="M42.905 57.132s-5.009-.944-6.422-5.999c-1.344-4.813-.31-7.31 1.09-9.91 1.053-1.958 4.394-4.605 9.08-3.655 4.73.958 8.266 3.386 8.788 7.275.978 7.279-4.894 16.158-12.536 12.289Z" fill="#33313B"/><path d="M36.722 51.914a.261.261 0 0 1-.227-.132c-.09-.159-2.2-3.949-.449-8.937 1.093-3.115 3.247-4.51 4.861-5.13 1.745-.672 3.215-.609 3.277-.606a.262.262 0 0 1-.025.522c-.015 0-1.439-.06-3.084.578-2.188.849-3.714 2.467-4.536 4.81-1.669 4.75.389 8.46.41 8.5a.261.261 0 0 1-.227.39Z" fill="#F7942C"/><path d="M52.621 51.997s1.63-1.288 2.06.417c.428 1.704-.782 4.734-2.679 3.814l.62-4.231Z" fill="#FFA6B0"/><path d="M51.03 55.126c-.809.267-1.526.984-1.707 1.877a2.457 2.457 0 0 0 1.918 2.893 2.457 2.457 0 0 0 2.893-1.918 2.458 2.458 0 0 0-1.918-2.893l-.024-.005c-.047.168-.027.302.068.406a2.075 2.075 0 0 1 1.5 2.416 2.076 2.076 0 0 1-2.442 1.62 2.077 2.077 0 0 1-1.621-2.443 2.014 2.014 0 0 1 1.527-1.576l-.193-.377Z" fill="#F7942C"/><path d="M47.682 59.295 47 63.562s-3.195 3.262-9.03-2.589c1.566-1.167 2.164-3.87 1.98-5.62 0 0 .462.277 1.17.92.138.124.316.222.49.34 1.542 1.05 3.906 2.415 6.073 2.682Z" fill="#FFBAB0"/><path d="m47.682 59.297-.324 2.023c-1.75-.78-4.845-2.448-6.239-5.046.152.109.316.223.49.342 1.543 1.05 3.906 2.414 6.073 2.681Z" fill="#33313B"/><path d="m54.2 50.967-.262 1.29c-.092.443-.18.86-.267 1.254-.646 2.96-1.179 4.54-2.04 5.13-4.357 3-11.447-3.07-11.676-3.26l-.005-.004a27.24 27.24 0 0 1 0-1.03 26.645 26.645 0 0 1 1.32-7.844c.387-2.605 2.409-4.694 5.013-5.088 2.7-.406 4.73 1.156 6 1.847 1.916 1.045 2.667 3.948 1.916 7.715Z" fill="#FFBAB0"/><path d="M41.42 43.814s3.048-5.864 9.131-4.227c6.083 1.636 6.406 4.461 6.513 5.874.108 1.413-3.15-1.09-3.15-1.09s-.111 2.836-1.197 1.966c-1.332-1.068-2.822-3.372-2.822-3.372s-3.622 3.56-7.065 2.6c-1.955-.545-1.41-1.74-1.41-1.74Z" fill="#33313B"/><path d="M48.892 56.719c-.79 0-1.332-.546-1.36-.575a.218.218 0 0 1 .312-.303c.028.03.656.651 1.483.369a.217.217 0 0 1 .14.411c-.202.07-.395.098-.575.098Z" fill="#F14558"/><path d="M47.07 53.166s2.933.87 4.454.87c0 0-.76 2.173-2.934 1.412-1.69-.592-1.52-2.282-1.52-2.282Z" fill="#fff"/><path d="M52.515 47.058s-.762-.078-.638.66c.123.738 1.776.287 2.593 1.766 0 0 .789-1.55-1.955-2.426Zm-3.387-.681s.733.225.332.857c-.401.632-1.748-.427-3.076.618 0 0-.124-1.736 2.744-1.475Z" fill="#33313B"/><path d="M47.806 51.67c-.07.348-.845.485-1.731.306-.886-.18-1.547-.608-1.476-.956.06-.35.835-.486 1.72-.306.887.179 1.548.607 1.477.955Z" fill="#FFA6B0"/><path d="m56.465 51.899-2.37-.404c-.012.1-.036.199-.059.297l-.017.048 2.386.407a.177.177 0 0 0 .204-.144.173.173 0 0 0-.144-.204Zm-9.843.544-.042-.01a2.625 2.625 0 0 1-1.71-1.264 2.622 2.622 0 0 1-.178-2.225l.008-.023a2.636 2.636 0 0 1 2.987-1.63 2.632 2.632 0 0 1 2.044 3.11 2.633 2.633 0 0 1-3.098 2.05Zm3.517-2.572a2.99 2.99 0 0 0-2.35-2.92h-.03a2.989 2.989 0 0 0-3.527 2.32 2.974 2.974 0 0 0 .855 2.753 2.984 2.984 0 0 0 4.99-1.545l.002-.008c.04-.198.06-.396.06-.592Z" fill="#fff"/><path d="M56.636 51.829a1.949 1.949 0 0 1-.041.167 2.618 2.618 0 0 1-1.153 1.537 2.6 2.6 0 0 1-1.064.374 2.624 2.624 0 0 1-.852-.034l-.079-.017-.047-.011a2.612 2.612 0 0 1-1.234-.723 2.626 2.626 0 0 1 .78-4.207 2.634 2.634 0 0 1 1.645-.195 2.63 2.63 0 0 1 .796.305 2.635 2.635 0 0 1 1.248 2.804Zm-1.189-3.175a2.838 2.838 0 0 0-.56-.224 3.04 3.04 0 0 0-.642-.11 2.993 2.993 0 0 0-2.953 1.857l-.006.02A2.987 2.987 0 0 0 53.37 54.2l.084.02a2.95 2.95 0 0 0 1.352-.035 2.983 2.983 0 0 0 .64-5.53Zm-14.779.506-.06-.024a.177.177 0 0 1-.053-.244c1.186-1.854 4.038-.19 4.066-.172a.177.177 0 0 1-.18.304c-.026-.016-2.586-1.508-3.588.06a.177.177 0 0 1-.184.077Z" fill="#fff"/><path d="M51.423 50.278a.176.176 0 0 1-.112-.077c-.38-.586-1.192-.324-1.2-.32a.177.177 0 1 1-.112-.335c.373-.125 1.187-.188 1.608.463a.176.176 0 0 1-.184.269Z" fill="#fff"/><path d="M53.67 53.508c-.805-.195-1.385-.594-1.32-.922.05-.245.448-.385.986-.385.187 0 .39.017.602.052-.092.444-.18.861-.268 1.255Z" fill="#FF8C95"/><path d="M48.429 49.921c-.097.479-.393.823-.66.769-.27-.055-.41-.487-.32-.966.097-.478.392-.823.66-.768.27.054.407.486.31.965Zm4.738.953c-.097.48-.392.823-.66.769-.268-.054-.407-.486-.31-.965.097-.479.393-.823.66-.769.268.054.407.486.31.965Zm-2.446 1.29c.23.046.392.04.406.038a.201.201 0 0 0 .19-.228l-.307-2.236a.201.201 0 0 0-.398.055l.273 1.99a1.58 1.58 0 0 1-.772-.337.201.201 0 1 0-.257.31c.297.246.62.358.865.407Zm-8.814 1.584c-.034.05-.96 1.38-1.952 1.627l-.005-.006a27.297 27.297 0 0 1 0-1.032c.035.002.982.028 1.957-.59Z" fill="#33313B"/><path d="M41.705 50.242s-1.394-2.96-3.206-1.223c-1.493 1.431-.187 6.214 2.402 5.19l.804-3.967Z" fill="#FFBAB0"/><path d="M38.274 52.797c-.809.268-1.526.984-1.707 1.878a2.457 2.457 0 0 0 1.918 2.893 2.457 2.457 0 0 0 2.893-1.918 2.457 2.457 0 0 0-1.918-2.894l-.024-.004c-.047.167-.027.302.068.406a2.075 2.075 0 0 1 1.5 2.416 2.075 2.075 0 0 1-2.443 1.62 2.076 2.076 0 0 1-1.62-2.444 2.014 2.014 0 0 1 1.526-1.575l-.193-.377Z" fill="#F7942C"/><path d="m40.796 53.387.022.003a.2.2 0 0 0 .218-.182c.204-2.236-1.483-3.366-1.555-3.413a.201.201 0 0 0-.22.336c.063.042 1.556 1.05 1.375 3.04a.2.2 0 0 0 .16.216Z" fill="#33313B"/><path d="M39.199 51.816c.043.01.09.003.132-.019.21-.104.79-.34 1.12-.184a.2.2 0 0 0 .176-.362c-.561-.27-1.38.142-1.471.19a.2.2 0 0 0 .054.386Zm4.302-6.589s-1.875 5.093-1.978 6.12c-.14 1.398-1.99-3.396-.127-7.49l2.105 1.37Z" fill="#33313B"/><path d="M74.84 153.195h-7.722s-1.787-8.572-2.387-13.379c-.6-4.806-.91-16.202-.91-16.202s-6.156 1.999-19.039 1.246c-28.546-1.668-17.722-22.64-17.722-22.64.964 1.332 8.2 3.168 12.237 3.804 12.393 1.19 21.815 3.294 28.266 6.077 1.553.67 2.933 1.38 4.143 2.124 1.556.96 2.528 3.868 3.115 7.693 1.762 11.497.02 31.277.02 31.277Z" fill="#424F56"/><path d="M68.075 149.062a.276.276 0 0 1-.27-.221c-1.114-5.514-1.489-12.378-1.79-17.893-.248-4.573-.484-8.893-1.071-9.412-.476-.42-2.452-.092-4.953.323-4.975.826-12.494 2.075-20.785.145-4.516-1.051-7.836-3.244-9.868-6.521-3.504-5.65-1.907-12.653-1.89-12.723a.276.276 0 1 1 .538.127c-.016.068-1.56 6.858 1.824 12.309 1.952 3.145 5.155 5.254 9.521 6.27 8.185 1.904 15.638.667 20.57-.152 2.953-.49 4.736-.786 5.409-.192.727.643.931 3.8 1.258 9.795.3 5.498.672 12.339 1.778 17.814a.277.277 0 0 1-.216.326l-.055.005Z" fill="#4F5058"/><path d="M74.988 149.211h-.006l-8.588-.185a.276.276 0 0 1-.27-.282.273.273 0 0 1 .282-.27l8.587.184a.277.277 0 0 1-.005.553Z" fill="#4F5058"/><path d="M74.626 163.086h-5.45l-1.05-6.395-.575-3.5h6.773l.106 3.5.196 6.395Z" fill="#F57A68"/><path d="M74.626 163.086h-5.451l-.782-4.761-.268-1.634h6.305l.052 1.693.144 4.702Z" fill="#F7942C"/><path d="m74.482 158.391-6.09-.06-.267-1.634h6.305l.052 1.694Z" fill="#D1692A"/><path d="M88.08 171.695H67.462c-.153-.278-.237-.674-.27-1.145-.13-1.744.426-4.527.7-6.282.033-.205.061-.396.083-.57.038-.293.062-.537.062-.717 0-1.43 1.267-1.186 1.267-1.186 2.087 2.046 4.449-1.022 5.828-.016a21.555 21.555 0 0 1 .718.578c.352.294.845.72 1.514 1.32 1.635 1.474 4.42 2.446 6.79 3.437a16.544 16.544 0 0 1 1.403.664c1.937 1.046 2.553 2.045 2.693 2.772.134.698-.17 1.145-.17 1.145Z" fill="#2F67BA"/><path d="M85.554 167.779c-.532.422-1.712 1.268-2.66 1.268-.041 0-.083-.001-.124-.005-.669-.056-3.126-1.263-5.125-2.362a45.129 45.129 0 0 1-2.945-1.746c-1.234-.813-1.448-1.124-1.496-1.34-.18-.813 1.165-1.381 2.108-1.674.117.091.292.232.536.438-1.17.319-2.134.82-2.089 1.105.115.24 1.335 1.17 4.253 2.77 2.226 1.217 4.337 2.202 4.805 2.24.635.052 1.568-.526 2.178-.981.197.096.383.191.56.287Zm2.524 3.916H67.46c-.154-.278-.237-.674-.272-1.145h21.058c.134.697-.17 1.145-.17 1.145Z" fill="#304DA8"/><path d="M69.564 171.695h-.612c.61-.698 1.183-1.77 1.108-3.3-.1-2.038-1.322-3.411-2.171-4.127.033-.205.061-.397.083-.57.916.7 2.458 2.23 2.579 4.67.08 1.465-.4 2.555-.98 3.327Z" fill="#304DA8"/><path d="M77.012 164.898a.34.34 0 0 1-.082-.669l1.288-.32a.34.34 0 1 1 .163.649l-1.288.32-.081.01Zm-1.28-1.07a.34.34 0 0 1-.082-.67l1.288-.319a.339.339 0 1 1 .163.66l-1.287.32-.082.01Zm2.567 1.82a.34.34 0 0 1-.082-.669l1.288-.32a.34.34 0 1 1 .164.649l-1.288.32-.082.01Zm1.288.719a.34.34 0 0 1-.329-.257.341.341 0 0 1 .248-.413l1.288-.32a.34.34 0 0 1 .164.66l-1.288.32-.083.01Zm1.405.664a.34.34 0 0 1-.082-.67l1.288-.31a.34.34 0 1 1 .164.66l-1.288.32-.082.01Zm1.523.58a.34.34 0 0 1-.081-.67l1.288-.32a.34.34 0 0 1 .164.66l-1.288.32-.083.01Z" fill="#fff"/><path d="M103.288 101.911v1.71c0 .987-.595 1.785-1.33 1.785H9.438c-.733 0-1.329-.798-1.329-1.784v-1.71c0-.986.596-1.784 1.33-1.784h92.519c.735 0 1.33.798 1.33 1.783Z" fill="#12AD6D"/><path d="M103.288 102.451v.783H8.109v-.783h95.179Zm-2.78 7.354H13.54a.705.705 0 0 1-.704-.705v-3.716h88.377v3.716c0 .39-.315.705-.705.705Zm-3.906 24.859H18.828v-3.03h77.774v3.03Z" fill="#1A825A"/><path d="m13.22 172.234 15.057-62.431h-5.288L7.932 172.234h5.288Zm88.886 0-15.057-62.431h5.288l15.057 62.431h-5.288Z" fill="#12AD6D"/><path d="m18.446 98.086-1.633.25-1.885-12.31 1.632-.25 1.886 12.31Z" fill="#F7942C"/><path d="m16.56 85.774-1.632.25.36-1.248.185-.645.37.56.717 1.083Z" fill="#F57A68"/><path d="m18.446 98.086-1.633.25-.137-.894 1.633-.25.137.894Z" fill="#33313B"/><path d="m18.446 98.814-1.416.216a.11.11 0 0 1-.125-.092l-.093-.604 1.633-.25.093.604a.11.11 0 0 1-.092.126Z" fill="#F03B53"/><path d="m15.844 84.696-.557.085.186-.64.37.56Z" fill="#33313B"/><path d="m16.578 96.796 1.633-.25.098.641-1.633.25-.098-.64Zm-1.15-10.23 1.396 9.116a.126.126 0 0 0 .25-.038l-1.397-9.116a.126.126 0 1 0-.25.039Zm.636-.094 1.396 9.116a.126.126 0 1 0 .25-.038l-1.396-9.116a.126.126 0 0 0-.25.038Z" fill="#D1692A"/><path d="m19.554 98.284-1.652.005-.04-12.453 1.651-.005.04 12.453Z" fill="#12AD6D"/><path d="m19.513 85.83-1.652.006.54-1.18.28-.61.284.608.548 1.177Z" fill="#F57A68"/><path d="m19.553 98.284-1.652.005-.003-.905 1.652-.005.003.905Z" fill="#33313B"/><path d="m19.445 99.003-1.432.005a.11.11 0 0 1-.11-.11l-.003-.61 1.652-.006.002.61a.11.11 0 0 1-.11.111Z" fill="#F03B53"/><path d="m18.964 84.654-.564.002.28-.61.284.608Z" fill="#33313B"/><path d="m17.896 96.734 1.652-.005.002.648-1.651.006-.003-.65Zm.377-10.285.03 9.222a.126.126 0 1 0 .253 0l-.03-9.22a.127.127 0 0 0-.253 0Zm.647 0 .03 9.222a.126.126 0 0 0 .252 0l-.03-9.22a.126.126 0 1 0-.252 0Z" fill="#1A825A"/><path d="m20.61 98.336-1.635-.232 1.75-12.33 1.636.233-1.751 12.329Z" fill="#2F67BA"/><path d="m22.362 86.008-1.635-.233.704-1.09.365-.563.193.643.373 1.243Z" fill="#F57A68"/><path d="m20.61 98.336-1.635-.232.127-.896 1.635.232-.127.896Z" fill="#33313B"/><path d="m20.4 99.038-1.417-.201a.11.11 0 0 1-.093-.125l.086-.605 1.635.232-.086.605a.11.11 0 0 1-.124.094Z" fill="#F03B53"/><path d="m21.99 84.766-.558-.08.365-.564.193.644Z" fill="#33313B"/><path d="m19.195 96.563 1.635.232-.09.642-1.637-.232.092-.642Zm1.852-10.126-1.298 9.13a.126.126 0 0 0 .1.143.126.126 0 0 0 .14-.108l1.297-9.13a.126.126 0 1 0-.25-.035Zm.64.093-1.297 9.13a.127.127 0 0 0 .107.144.127.127 0 0 0 .143-.108l1.297-9.13a.126.126 0 0 0-.25-.035Z" fill="#304DA8"/><path d="m22.899 90.754-.086.668-.079.606-.119.921-.077.6-.12.92-.076.592-.121.936-.075.582-.123.944-.074.577-.122.952-.075.571-.063.492h-6.491l-.064-.492-.074-.57-.122-.953-.074-.579-.122-.945-.076-.584-.12-.937-.077-.59-.12-.93-.077-.6-.12-.925-.078-.605-.086-.668h8.91Z" fill="#F03B53"/><path d="m22.813 91.425-.078.606h-8.582l-.08-.6h8.74Zm-.198 1.53-.077.6h-8.19l-.077-.6h8.344Zm-.196 1.531-.077.592h-7.796l-.077-.592h7.95Zm-.198 1.524-.076.584h-7.403l-.076-.584h7.555Zm-.198 1.53-.074.577h-7.012l-.074-.577h7.16Zm-.196 1.523-.074.57h-6.618l-.075-.57h6.767Z" fill="#C8232E"/><path d="m102.749 67.022-5.536 23.41-.146.615-.372 1.577a1.51 1.51 0 0 1-1.471 1.165h-37.29a1.513 1.513 0 0 1-1.473-1.86l6.054-25.603a1.51 1.51 0 0 1 1.47-1.163h37.292c.975 0 1.696.91 1.472 1.86Z" fill="#424F56"/><path d="m97.215 90.431-.146.616H58.35v-.615h38.864Z" fill="#4F5058"/><path d="M72.962 70.956c-.31 1.66-1.906 3.005-3.565 3.005-1.66 0-2.754-1.345-2.444-3.005.31-1.66 1.906-3.004 3.565-3.004 1.66 0 2.753 1.345 2.444 3.004Z" fill="#F7942C"/><path d="M69.569 70.375c-.062.332-.229.602-.373.602-.145 0-.212-.27-.15-.602.063-.331.23-.6.374-.6s.21.269.149.6Zm1.569 0c-.063.332-.23.602-.374.602s-.21-.27-.15-.602c.063-.331.23-.6.374-.6s.211.269.15.6Z" fill="#33313B"/><path d="M69.71 72.414c-1.291 0-1.346-1.292-1.347-1.305-.002-.07.056-.14.13-.155.073-.015.134.03.136.1.002.047.052 1.1 1.13 1.1 1.08 0 1.522-1.055 1.54-1.1.03-.07.108-.115.175-.1.067.016.1.085.07.155-.005.013-.541 1.305-1.833 1.305Z" fill="#33313B"/><path d="M90.2 84.984c.033 1.554 2.665 3.5 2.665 3.5s3.06-1.946 3.43-3.5c.403-1.684-1.52-2.201-2.946-.93-1.147-1.271-3.185-.754-3.15.93Z" fill="#F03B53"/><path d="M84.63 80.473c-.177 1.611-1.627 2.918-3.238 2.918-1.612 0-2.774-1.307-2.597-2.918.178-1.611 1.628-2.918 3.24-2.918 1.611 0 2.774 1.307 2.596 2.918Zm-19.164-15.31L59.02 93.789h-1.085c-.976 0-1.696-.91-1.472-1.86l6.053-25.602a1.511 1.511 0 0 1 1.472-1.164h1.478Z" fill="#4F5058"/><path d="m76.266 93.787-1.131 6.36h3.736l1.131-6.36h-3.736Z" fill="#fff"/><path d="m69.544 99.054.765-1.075a1.456 1.456 0 0 1 1.186-.612H81.74c.542 0 1.04.3 1.29.78l.515.987a.693.693 0 0 1-.614 1.014H70.108a.692.692 0 0 1-.564-1.094Z" fill="#fff"/><path d="M48.2 100.148h30.772l.334-1.161a1.142 1.142 0 0 0-1.098-1.458H49.813c-.51 0-.957.337-1.098.826l-.516 1.793Z" fill="#fff"/><path d="m88.548 57.516-13.61-.01a.956.956 0 0 1-.956-.956l.006-8.363c0-.528.428-.956.957-.955l13.61.01c.528 0 .955.428.955.956l-.006 8.363a.956.956 0 0 1-.956.955Z" fill="#F03B53"/><path d="m87.74 55.977-1.243 4.687-2.169-4.405 3.411-.282Z" fill="#F03B53"/><path d="M85.184 51.617c-.277 1.756-3.555 3.953-3.555 3.953s-3.155-2.202-3.334-3.958c-.194-1.905 2.06-2.487 3.474-1.05 1.494-1.435 3.717-.85 3.415 1.055Z" fill="#fff"/><path d="M281.576 172.687c0 1.264-10.376 2.29-23.176 2.29-12.8 0-23.175-1.026-23.175-2.29 0-1.266 10.375-2.291 23.175-2.291s23.176 1.025 23.176 2.291Z" fill="#D3DAE9"/><path d="M272.589 156.125h-29.258c-.556 0-1.007-.45-1.007-1.007v-.462c0-.557.45-1.008 1.007-1.008h29.258c.557 0 1.007.45 1.007 1.008v.462c0 .556-.45 1.007-1.007 1.007Z" fill="#33313B"/><path d="M243.698 126.205h28.587a.86.86 0 0 1 .86.86v3.512a.86.86 0 0 1-.86.86h-28.587a.86.86 0 0 1-.86-.86v-3.512a.86.86 0 0 1 .86-.86Z" fill="#4F5058"/><path d="M250.448 103.938s-12.054-2.383-15.417-10.793c-3.364-8.41 8.935-14.716 15.417-10.2 6.935 4.83 0 20.993 0 20.993Z" fill="#12AD6D"/><path d="M257.615 126.031a.217.217 0 0 1-.215-.186c-1.155-7.81-5.81-19.049-9.51-27.101-4.014-8.732-7.802-15.7-7.84-15.77a.218.218 0 1 1 .383-.209c.038.07 3.833 7.052 7.853 15.796 3.713 8.078 8.383 19.358 9.545 27.22a.218.218 0 0 1-.184.248h-.032Z" fill="#33313B"/><path d="M249.996 103.125a.217.217 0 0 1-.192-.115c-5.243-9.765-13.757-16.85-13.842-16.92a.218.218 0 0 1 .277-.337c.086.071 8.665 7.208 13.949 17.051a.218.218 0 0 1-.089.295l-.103.026Z" fill="#33313B"/><path d="M250.234 103.828a.214.214 0 0 1-.165-.077c-3.83-4.5-7.74-7.298-10.36-8.853-2.831-1.685-4.782-2.313-4.801-2.32a.218.218 0 1 1 .13-.415c.08.026 2.007.645 4.878 2.352 2.644 1.572 6.607 4.401 10.475 8.954a.218.218 0 0 1-.166.36Zm-1.062-2.562a.219.219 0 0 1-.206-.148c-2.94-8.625-1.858-19.108-1.847-19.213a.219.219 0 0 1 .434.046c-.01.105-1.082 10.494 1.826 19.026a.218.218 0 0 1-.136.277l-.07.012Z" fill="#33313B"/><path d="M249.913 102.969a.218.218 0 0 1-.215-.183c-.9-5.46-.208-9.914.53-12.69.802-3.012 1.803-4.71 1.846-4.78a.218.218 0 1 1 .374.225c-.01.016-1.018 1.727-1.803 4.686-.725 2.73-1.402 7.113-.517 12.488.02.119-.06.23-.179.25l-.036.004Z" fill="#33313B"/><path d="M263.162 106.133s12.174-1.665 16.03-9.861c3.855-8.196-8.05-15.22-14.787-11.096-7.209 4.412-1.243 20.957-1.243 20.957Z" fill="#12AD6D"/><path d="M258.546 125.32h-.002c-.12 0-.218-.1-.216-.22.048-4.023.926-8.605 2.608-13.62 1.343-4.005 3.202-8.295 5.521-12.75 3.95-7.582 7.926-13.092 7.966-13.147a.218.218 0 0 1 .353.256c-.04.055-4.001 5.543-7.935 13.099-3.625 6.962-7.969 17.153-8.077 26.167a.217.217 0 0 1-.218.215Z" fill="#33313B"/><path d="M263.675 105.352a.218.218 0 0 1-.114-.033.217.217 0 0 1-.07-.3c5.856-9.513 14.842-16.129 14.932-16.194a.218.218 0 1 1 .257.352c-.089.065-9.007 6.633-14.82 16.07a.218.218 0 0 1-.185.105Z" fill="#33313B"/><path d="M263.398 106.031a.218.218 0 0 1-.158-.369c4.13-4.315 8.254-6.905 10.986-8.318 2.967-1.534 4.928-2.038 5.01-2.06a.218.218 0 1 1 .106.424c-.02.005-2.005.517-4.93 2.031-2.7 1.397-6.774 3.958-10.857 8.225a.214.214 0 0 1-.157.067Zm1.21-2.492-.084-.016a.218.218 0 0 1-.12-.285c3.408-8.345 2.954-18.78 2.95-18.883a.218.218 0 1 1 .435-.021c.005.105.464 10.634-2.98 19.07a.219.219 0 0 1-.202.135Z" fill="#33313B"/><path d="m263.769 105.203-.048-.005a.22.22 0 0 1-.165-.26c1.202-5.314.785-9.73.224-12.498-.609-3.001-1.514-4.768-1.523-4.785a.218.218 0 0 1 .387-.201c.038.072.938 1.826 1.559 4.881.573 2.814 1 7.301-.22 12.698a.22.22 0 0 1-.214.17Z" fill="#33313B"/><path d="M258.476 90.273s-10.315-6.676-10.326-15.733c-.01-9.058 13.75-10.362 18.1-3.767 4.653 7.056-7.774 19.5-7.774 19.5Z" fill="#12AD6D"/><path d="m257.033 113.469-.05-.006a.218.218 0 0 1-.162-.263c1.819-7.683 1.657-19.846 1.2-28.696-.494-9.598-1.432-17.473-1.441-17.552a.217.217 0 0 1 .19-.242.22.22 0 0 1 .243.19c.01.079.95 7.97 1.445 17.58.457 8.88.619 21.088-1.213 28.82a.218.218 0 0 1-.212.17Z" fill="#33313B"/><path d="M258.437 89.367a.218.218 0 0 1-.216-.193c-1.254-11.013-6.54-20.746-6.592-20.843a.218.218 0 1 1 .382-.21c.053.098 5.379 9.904 6.644 21.003a.219.219 0 0 1-.193.242l-.025.001Z" fill="#33313B"/><path d="M258.401 90.11a.218.218 0 0 1-.207-.15c-1.885-5.596-4.487-9.645-6.337-12.056-2.006-2.613-3.585-3.92-3.6-3.932a.216.216 0 0 1-.03-.307.217.217 0 0 1 .305-.031c.065.053 1.627 1.343 3.661 3.99 1.874 2.44 4.508 6.537 6.414 12.198a.218.218 0 0 1-.137.276l-.07.01Zm-.038-2.774h-.011a.218.218 0 0 1-.207-.229c.464-9.1 5.35-18.438 5.4-18.53a.218.218 0 0 1 .385.203c-.05.092-4.891 9.347-5.35 18.35a.22.22 0 0 1-.217.206Z" fill="#33313B"/><path d="m258.418 89.195-.048-.004a.22.22 0 0 1-.166-.26c1.187-5.4 3.485-9.31 5.204-11.64 1.867-2.53 3.432-3.76 3.498-3.81a.218.218 0 1 1 .268.343c-.016.012-1.592 1.256-3.425 3.743-1.69 2.295-3.951 6.146-5.12 11.467a.217.217 0 0 1-.211.17Z" fill="#33313B"/><path d="m271.078 112.297-.36.954-.227.61-.652 1.73-.228.61-.67 1.779-.227.605-2.874 7.629h-15.697l-2.873-7.63-.228-.606-.67-1.78-.228-.603-.652-1.73-.227-.604-.36-.953a1 1 0 0 1 .936-1.352h24.302a1 1 0 0 1 .935 1.352Z" fill="#067FE1"/><path d="m270.719 113.254-.227.605h-25l-.226-.61h25.453Zm-.88 2.337-.228.604h-23.238l-.228-.604h23.694Zm-.897 2.375-.227.604H247.27l-.227-.604h21.899Z" fill="#304DA8"/><path d="m253.787 131.438-.871 2.806-12.118 39.061h-2.368l7.685-38.263.724-3.604h6.948Zm23.838 41.867h-2.37l-12.475-40.217-.512-1.65h6.947l.175.874h.001l8.24 40.993Z" fill="#33313B"/><path d="M272.589 150.742h-29.258c-.556 0-1.007-.45-1.007-1.007v-.462c0-.557.45-1.008 1.007-1.008h29.258c.557 0 1.007.451 1.007 1.008v.462c0 .556-.45 1.007-1.007 1.007Z" fill="#4F5058"/><path d="M93.126 19.875c0 6.178-5.071 11.188-11.328 11.188-6.256 0-11.327-5.01-11.327-11.188 0-6.178 5.071-11.187 11.327-11.187 6.257 0 11.328 5.009 11.328 11.187Z" fill="#C2C6DF"/><path d="M93.126 18.414c0 6.179-5.071 11.188-11.328 11.188-6.256 0-11.327-5.009-11.327-11.188s5.07-11.187 11.327-11.187 11.328 5.008 11.328 11.187Z" fill="#067EE1"/><path d="M81.8 27.508c-5.079 0-9.21-4.08-9.21-9.095 0-5.015 4.131-9.095 9.21-9.095 5.077 0 9.208 4.08 9.208 9.095 0 5.015-4.13 9.095-9.209 9.095Z" fill="#fff"/><path d="M91.008 18.414a9 9 0 0 1-.029.719c-.372-4.68-4.348-8.377-9.18-8.377-4.834 0-8.809 3.696-9.18 8.377a9.085 9.085 0 0 1-.03-.719c0-5.015 4.131-9.094 9.21-9.094 5.077 0 9.209 4.08 9.209 9.094Z" fill="#C2C6DF"/><path d="M81.8 19.36a.23.23 0 0 1-.186-.093l-4.518-6.006a.226.226 0 0 1 .048-.318.233.233 0 0 1 .322.047l4.408 5.86 5.01-2.171a.232.232 0 0 1 .304.11.226.226 0 0 1-.119.3l-5.178 2.241-.092.02Z" fill="#33313B"/></svg>