<svg xmlns="http://www.w3.org/2000/svg" fill="none" width="56" height="56" viewBox="0 0 56 56"><rect fill="#fff" width="55" height="55" x=".5" y=".5" stroke="#E8E8E8" rx="7.5"/><path d="M19.997 29.336c-.733 0-1.333.6-1.333 1.333 0 .734.6 1.334 1.333 1.334.734 0 1.334-.6 1.334-1.334 0-.733-.6-1.333-1.334-1.333Zm0 5.336c-.733 0-1.333.6-1.333 1.333s.6 1.334 1.333 1.334c.734-.003 1.334-.603 1.334-1.336s-.6-1.333-1.334-1.333Zm0-10.672c-.733 0-1.333.6-1.333 1.333 0 .734.6 1.334 1.333 1.334.734 0 1.334-.6 1.334-1.334 0-.733-.6-1.333-1.334-1.333ZM16 24.672a.66.66 0 0 0-.667.666.66.66 0 0 0 .667.667.66.66 0 0 0 .666-.666.66.66 0 0 0-.666-.667Zm3.998-6c-.733 0-1.333.6-1.333 1.333s.6 1.334 1.333 1.334c.734 0 1.334-.6 1.334-1.334 0-.733-.6-1.333-1.334-1.333ZM40 26.005a.66.66 0 0 0 .666-.666.66.66 0 0 0-.666-.667.66.66 0 0 0-.667.666.66.66 0 0 0 .667.667Zm-9.334-4.666c.734 0 1.334-.6 1.334-1.334 0-.733-.6-1.333-1.334-1.333-.733 0-1.333.6-1.333 1.333s.6 1.334 1.333 1.334Zm.002-4.67a.66.66 0 0 0 .666-.666.66.66 0 0 0-.666-.667.66.66 0 0 0-.667.667.66.66 0 0 0 .668.666ZM15.999 30a.66.66 0 0 0-.668.667.66.66 0 0 0 .667.666.66.66 0 0 0 .666-.666A.66.66 0 0 0 16 30Zm9.33 9.336a.66.66 0 0 0-.666.667.66.66 0 0 0 .667.666.66.66 0 0 0 .666-.666.66.66 0 0 0-.666-.667Zm0-22.667a.66.66 0 0 0 .667-.666.66.66 0 0 0-.666-.667.66.66 0 0 0-.667.667.66.66 0 0 0 .667.666Zm.003 4.67c.734 0 1.334-.6 1.334-1.334 0-.733-.6-1.333-1.334-1.333-.733 0-1.333.6-1.333 1.333s.6 1.334 1.332 1.334Zm0 7.333c-1.108 0-2 .893-2 2s.892 2 2 2c1.106 0 2-.893 2-2s-.894-2-2-2Zm10.664.664c-.733 0-1.333.6-1.333 1.333 0 .734.6 1.334 1.333 1.334.734 0 1.334-.6 1.334-1.334 0-.733-.6-1.333-1.334-1.333Zm0 5.336c-.733 0-1.333.6-1.333 1.333s.6 1.334 1.333 1.334c.734-.003 1.334-.603 1.334-1.336s-.6-1.333-1.334-1.333Zm0-10.672c-.733 0-1.333.6-1.333 1.333 0 .734.6 1.334 1.333 1.334.734 0 1.334-.6 1.334-1.334 0-.733-.6-1.333-1.334-1.333Zm0-5.328c-.733 0-1.333.6-1.333 1.333s.6 1.334 1.333 1.334c.734 0 1.334-.6 1.334-1.334 0-.733-.6-1.333-1.334-1.333ZM40 30a.66.66 0 0 0-.667.667.66.66 0 0 0 .667.666.66.66 0 0 0 .666-.666A.66.66 0 0 0 40 30Zm-9.334 4.672c-.733 0-1.333.6-1.333 1.333s.6 1.334 1.333 1.334C31.4 37.336 32 36.736 32 36.003s-.6-1.333-1.334-1.333Zm.002 4.664a.66.66 0 0 0-.667.667.66.66 0 0 0 .668.666.66.66 0 0 0 .666-.666.66.66 0 0 0-.666-.667Zm-5.335-16c-1.107 0-2 .893-2 2s.893 2 2 2 2-.893 2-2-.893-2-2-2Zm.001 11.336c-.733 0-1.333.6-1.333 1.333s.6 1.334 1.333 1.334c.734-.003 1.334-.603 1.334-1.336s-.6-1.333-1.334-1.333Zm5.331-6c-1.107 0-2 .893-2 2s.893 2 2 2 2-.893 2-2-.893-2-2-2Zm0-5.336c-1.107 0-2 .893-2 2s.893 2 2 2 2-.893 2-2-.893-2-2-2Z" fill="#FFCB34" fill-rule="evenodd" clip-rule="evenodd"/></svg>