<svg xmlns="http://www.w3.org/2000/svg" xml:space="preserve" width="210mm" height="297mm" version="1.1" style="shape-rendering:geometricPrecision; text-rendering:geometricPrecision; image-rendering:optimizeQuality; fill-rule:evenodd; clip-rule:evenodd" viewBox="0 0 21000 29700"
    xmlns:xlink="http://www.w3.org/1999/xlink">
    <defs>
        <style type="text/css">
            <![CDATA[
    .str1 {stroke:black;stroke-width:10;stroke-opacity:0.501961}
    .str3 {stroke:black;stroke-width:50}
    .str5 {stroke:#434242;stroke-width:10}
    .str2 {stroke:#3F3E3F;stroke-width:10}
    .str0 {stroke:black;stroke-width:10}
    .str6 {stroke:#2B2A29;stroke-width:7.62}
    .str4 {stroke:black;stroke-width:7.62}
    .fil6 {fill:none}
    .fil0 {fill:#FEFEFE}
    .check {fill:red}
    .fil8 {fill:#D9DADA}
    .fil4 {fill:#FEFEFE;fill-rule:nonzero}
    .fil3 {fill:#D9DADA;fill-rule:nonzero}
    .fil7 {fill:#434242;fill-rule:nonzero}
    .fil5 {fill:#2B2A29;fill-rule:nonzero}
    .fil2 {fill:black;fill-rule:nonzero}
    .fil1 {fill:#FEFEFE;fill-rule:nonzero;fill-opacity:0.501961}
   ]]>
        </style>
    </defs>
    <g id="Plan_x0020_1">
        <metadata id="CorelCorpID_0Corel-Layer"/>
        <rect class="fil0" x="1000" y="1000" width="19000" height="24501"/>
        <path class="fil0 str0" d="M17293 12439c-4,234 -25,477 -41,715l0 0c-137,0 -305,-143 -316,-271 -3,-41 -59,-1 -82,11 -62,31 -54,-27 -80,-81 -37,-79 -91,10 -112,-94 -4,-19 -35,-99 -27,-105 34,-30 80,-64 118,-88 89,-58 -23,-52 -44,-115 40,0 83,-22 123,-11 23,6 32,59 58,72 51,25 115,-122 135,-154 12,-19 110,52 131,60l137 62 0 0z"/>
        <path class="fil0 check str0" d="M17186 8196c-19,92 -27,188 -45,283 -19,102 -73,192 -102,291 -24,81 -39,156 -50,236l0 0c-128,-38 -245,-68 -361,-96 0,-47 57,-8 79,-37 24,-31 19,-81 26,-119 27,-140 -60,-84 -174,-103 -52,-8 -77,-61 -126,-57 -83,6 -88,237 -157,228 -88,-11 -103,-90 -161,-128 -90,-169 247,-202 202,-294 -15,-31 -193,-62 -231,-62 0,-38 199,-277 231,-277 72,0 59,291 138,215l110 -105c58,-55 -74,-189 -129,-248 -70,-76 -43,-57 33,-115 64,-48 93,40 141,79 83,68 88,-165 119,-153 59,23 68,203 64,260 -4,64 -106,218 0,212 111,-6 183,-124 288,-124 4,11 12,12 24,29l82 85 0 0z"/>
        <path class="fil0 check str0" d="M16570 20737c0,-33 -8,-102 31,-110 235,-47 570,23 751,178 56,48 115,108 153,171 16,28 -180,-30 -185,-43 16,63 85,124 136,162 31,23 126,42 92,76 -27,27 -83,8 -118,48 -30,34 8,48 5,84 -1,13 -59,-69 -66,-78 -100,-131 -222,-228 -355,-326 -138,-101 -241,-130 -414,-144l-30 -18zm3430 -2071l-36 -29c-70,-53 -129,-117 -201,-166 -86,-58 -168,-114 -243,-185 -39,-37 -102,-95 -123,-143 -16,-43 -90,-101 -122,-140 -38,-47 -89,-93 -122,-142l-194 -295c-59,-89 -120,-88 -223,-85 -76,2 -308,3 -282,122 8,40 1,115 20,147 38,61 335,-86 397,-20 56,59 78,150 141,198 31,24 90,64 108,98 37,47 88,77 131,117 36,34 63,75 102,104l242 177c55,40 128,67 175,117 15,16 38,55 61,61 -80,0 -196,-69 -256,-121 -91,-77 -231,-141 -336,-203l-207 -222c-37,-40 -154,-223 -188,-223 -72,0 -158,28 -229,8 -28,-8 -61,-56 -86,-41 -34,21 -41,52 -82,13 -28,-26 -32,-69 -36,-105 -10,-106 32,-197 -105,-158 -106,8 -199,-38 -307,-35 -127,4 -232,22 -338,91 -53,34 -90,93 -151,107 -54,13 -18,108 17,134 60,45 84,223 150,211 41,-7 62,-63 62,-100 12,0 76,131 136,118l14 7c28,38 -13,74 24,119 22,27 87,18 120,26 100,24 215,174 307,174 0,-20 -96,-122 -114,-143 -41,-47 -86,-210 0,-236 45,-14 80,8 131,-12 39,-16 78,-54 122,-54 0,13 -31,29 -31,50 0,62 9,49 -25,110 -64,115 -33,-34 -100,-45 -103,-18 -46,6 -60,85 -22,128 131,128 207,193l104 88 95 70c0,-56 -196,-320 -32,-285 82,18 139,71 201,122 67,54 153,89 223,136 108,54 204,135 306,199 67,42 110,141 179,141 36,108 23,149 -83,208 -125,69 -430,128 -546,12 -16,-16 69,-26 41,-56 -43,-46 -50,-131 -102,-155 -49,-23 -114,-58 -156,-92 -49,-14 -99,-5 -142,-37 -62,-47 -134,-111 -203,-143 -64,-30 -176,-91 -244,-91 14,28 99,66 128,91 139,121 303,194 392,363 32,61 7,103 -32,155 -27,36 -98,136 -143,144l-242 111c-41,19 -123,27 -95,90 16,37 18,94 23,135 8,79 95,91 155,127 38,23 98,93 143,93 27,80 -117,48 -56,164 20,37 2,65 -7,101 -7,30 11,90 11,125 -14,44 -49,43 -49,106 0,40 -2,74 -21,109 -19,35 -23,50 -25,90 -3,54 -76,29 -61,104 10,52 -44,81 -21,131 29,66 14,115 -21,177 -28,48 -55,116 -97,153 -61,39 -147,11 -213,38 -45,19 -1,82 -49,111 -69,41 -117,41 -150,123 -31,76 -182,69 -186,84 -12,3 27,39 31,43 112,120 23,244 23,378 105,26 41,20 41,86 51,13 12,55 -5,76 -20,77 15,146 67,202 37,39 44,84 18,130 -38,66 23,148 -18,216 -34,57 25,148 -31,204 1,-1 2,-1 1,-2 -86,86 -85,97 -85,226 0,156 -128,127 -226,152 0,65 0,335 -38,374 -29,29 -90,39 -85,80 4,35 15,145 -6,171 16,96 -2,189 -5,284 -5,164 -27,240 -166,326 -11,7 15,40 19,51 11,33 4,76 23,105 17,26 54,57 41,93 -11,58 -16,58 10,110 45,92 10,132 7,230 -1,47 -44,118 -83,142 -100,60 -3,120 49,191 56,76 76,143 76,242l2852 0 0 -6835zm-2591 -735c-5,-12 -9,-38 -6,-51 7,-28 14,-51 19,-80 5,-30 11,-39 -26,-33 -34,5 -69,7 -104,8 -12,1 -58,-2 -48,20 19,40 39,70 20,117 -8,20 -27,35 -35,55 -9,21 19,23 32,27 27,8 67,33 93,11 7,-6 21,-16 27,-19 13,-6 22,-28 26,-30l0 -25zm250 448c-10,-2 -22,-14 -30,-19 -17,-11 -34,-20 -51,-31 -22,-13 -33,-19 -60,-12 -37,7 -28,75 -66,75 -25,0 -53,-45 -77,-56 -20,-9 -42,-27 -57,-42 -20,-20 -10,-45 -25,-63 -10,-12 -25,-18 -38,-26 -32,-21 -40,-79 -43,-113 -1,-11 -32,-44 -26,-47 14,-7 53,1 73,-5 46,-14 37,20 73,21 17,1 28,-8 43,-8 18,0 55,70 58,88 19,89 73,11 111,49 42,26 75,69 120,90 13,6 23,17 37,24 11,6 27,14 39,17 11,3 45,1 45,18 0,17 -10,49 -14,66 -5,20 -73,5 -88,5l-24 -30zm-725 -174c11,-19 35,-48 26,-72 -3,-7 -19,-50 -30,-38 -6,7 -10,16 -17,23 -16,14 -28,33 -37,53 -5,10 -12,18 -18,27 -7,13 0,35 7,47 3,6 11,15 13,20 2,5 10,11 11,14l4 0c2,5 15,-13 17,-14 6,-6 17,-22 19,-29l5 -31zm-27 288c0,-11 -5,-19 -6,-30 -1,-17 0,-34 0,-51 0,-13 3,-27 -1,-38 -18,0 -55,19 -64,35 -9,15 1,35 6,50 8,23 11,49 19,72 3,9 8,21 15,27 3,3 19,11 19,2 5,0 19,-37 19,-43l-7 -24zm360 122c20,6 39,13 61,13 8,-24 -4,-31 -15,-56 -23,-50 -29,-119 -57,-164 -25,-39 -53,28 -79,38 -30,12 -56,-1 -68,-29 -7,-16 -11,-49 -31,-54 -24,-6 -24,67 -30,82 -11,31 -63,30 -89,37 0,18 13,40 17,58 10,54 207,65 257,69l35 4zm-551 354c0,-66 -20,-132 -20,-199 -70,0 -168,24 -213,-49 -12,-19 -14,-36 -39,-38 -20,-2 -48,-19 -67,-17 -5,1 -2,51 -5,60 -29,94 29,181 110,218 75,35 141,100 217,39l18 -14zm1177 874c-6,-9 -10,-17 -17,-26 -13,-17 -29,-23 -39,-44 -5,-11 -14,-45 -29,-45 -8,33 -49,42 -72,67 -17,19 3,44 23,50 17,6 36,2 54,5 15,2 16,38 32,49 28,20 52,3 48,-30l0 -25zm-1189 5659c-13,-77 -60,-146 -79,-223 -34,-136 -27,-305 -27,-444 0,-65 -15,-152 -30,-215 -27,-113 -49,-78 46,-147 47,-27 127,-51 157,-92 -48,-16 15,-234 29,-266 30,-72 71,-144 86,-221 6,-29 6,-66 6,-95 0,-58 69,-16 38,42 -48,90 -79,221 -113,319 -11,33 -12,65 -12,100 0,99 -8,106 50,21 17,-24 66,-17 24,42 -15,21 -7,71 -4,95 11,78 -81,20 -118,90 -18,34 0,110 10,147 0,81 -79,130 -58,206 18,68 0,126 0,195 0,56 53,48 69,97 8,25 -25,51 -14,80 19,54 -31,68 -24,118 5,35 52,64 61,95l31 56 -128 0z"/>
        <path class="fil0 check str0" d="M1944 16992c-8,-15 -23,-28 -32,-44 -15,-25 -23,-57 -54,-67 -18,-6 -22,1 -21,19 2,29 14,55 17,81 2,19 11,30 25,43 10,9 23,10 32,20 12,13 22,21 38,13 19,-10 10,-22 7,-39l-12 -26zm23 101c-53,12 -137,-16 -143,-73 -2,-21 -15,-41 -17,-63 -3,-29 -5,-57 -12,-85 -3,0 -6,-1 -7,2 -23,5 -46,20 -67,25l0 2c-2,1 16,53 18,62 8,35 25,72 54,93 26,19 41,24 61,51 16,22 27,87 45,99 6,4 84,-9 94,-11 0,-33 7,-55 -15,-86l-11 -18zm203 116c0,-16 -26,-100 -38,-103 -1,-4 -11,-4 -12,-7 -11,0 -28,-14 -41,-17 -4,-13 -44,-20 -56,-17 -3,12 -7,20 -4,35 7,27 14,49 15,79 3,46 25,45 60,64 13,8 27,13 42,19 5,2 35,21 38,10 11,-4 0,-39 0,-47l-5 -17zm128 206c-4,-12 -6,-40 -15,-48 -7,-5 -24,-10 -31,-19 -5,-6 -60,-66 -51,-24 8,38 10,77 23,113 5,14 22,24 35,31 7,4 15,10 23,13 13,5 16,-2 23,-5 0,-5 5,-34 5,-33l-10 -29zm515 -8087c-6,31 -13,61 -24,90 -5,14 -8,27 -17,41 -5,8 -16,26 -24,30 -79,17 -209,51 -232,146 -6,1 -8,6 -13,7 -3,13 -64,46 -81,53 -46,18 -66,-5 -104,-21 -67,-29 -144,110 -236,84 -32,-9 -36,-71 -67,-88 -48,-26 -124,60 -145,95 29,29 1,61 57,48 26,-6 46,-15 70,-12 13,92 -43,207 -48,306 -7,154 126,36 197,111 55,58 107,20 164,67 72,58 152,49 228,85 45,21 87,-4 129,5 37,75 78,221 185,216 140,-7 242,2 343,118 0,16 28,76 35,94 15,43 0,56 -25,94 -15,23 6,51 -2,75 -15,46 -79,2 -93,60l-30 125c-13,56 -122,125 -169,74 -43,-47 -65,4 -89,41 -26,39 -70,75 -70,123 0,48 133,58 133,17 0,-25 -44,-33 -50,-46 -1,-1 -1,-1 1,-1 54,0 119,-14 172,-10 64,0 107,35 154,70 50,38 136,-5 188,-21 136,-42 257,65 374,-39 64,-58 135,-93 197,-143 40,-32 20,-44 60,-12 63,52 130,166 37,223 -37,23 -124,-2 -135,-47 -28,0 -53,56 -75,76 -32,29 16,71 25,98 63,63 225,76 222,172 -4,92 -68,190 -4,271 26,33 187,78 187,92 -93,0 -223,16 -324,21 -114,6 -173,188 -203,283 -28,93 -74,146 -11,229 246,154 754,80 809,437 16,101 90,62 179,62 0,75 -27,160 -30,239 -4,111 -56,126 -98,210 -63,85 110,147 8,248 -92,92 -196,-14 -241,123 -26,78 -3,94 74,132 64,32 -16,175 -26,229 -10,54 21,108 6,161 -15,56 -58,108 -66,166 -8,3 17,104 1,130 -28,46 -9,84 30,115 56,45 108,135 108,205 -77,19 -133,285 -79,302 23,7 63,44 83,30 43,-30 -2,-92 73,-79 115,20 43,69 43,141 0,60 115,159 178,174 70,17 102,7 170,43 85,45 95,24 158,-32l150 -134c30,-27 27,-58 48,-87 17,-17 15,-55 33,-69 24,-20 50,-32 80,-42 81,-28 172,-31 242,-87 37,-30 106,-69 150,-87 92,-38 76,-16 163,8 80,22 127,71 114,161 0,91 83,126 83,221 0,89 61,125 142,125 12,12 -29,75 -35,87 -16,38 -16,78 -25,118 -7,31 -36,229 -66,234 -3,19 -70,8 -86,11 -32,5 -92,7 -117,29 -78,67 -32,158 20,220 0,42 76,95 95,138 21,47 8,85 8,134 0,123 192,110 80,242 -52,62 -120,123 -157,195 -42,79 12,230 -10,322 -12,58 79,170 44,204 -72,72 -42,123 -80,204 -21,45 -72,105 -76,155 -6,79 -20,141 -77,199 -79,79 -36,151 -36,245 2,1 0,0 2,1l99 -18c43,-8 81,39 111,64 81,54 146,93 245,68 31,-8 166,-96 172,-127 52,-13 48,135 77,135 4,-18 39,-39 45,-62 2,-9 2,-56 10,-56 9,29 31,99 31,129 0,56 -32,87 0,142 61,105 313,108 156,248 -74,66 -153,111 -213,191 -35,47 -39,91 -64,141 0,73 10,149 -18,217 -26,64 -140,67 -143,128 -2,47 0,87 -36,117 -68,56 2,88 -7,144 -7,43 -7,63 -27,103 -35,66 -97,218 -93,291 -13,16 -12,98 -32,131 -26,41 -53,79 -91,112 -63,55 -134,90 -148,179 -11,68 2,102 -64,141 -52,30 -125,65 -125,135 0,122 90,181 143,275 70,44 76,123 116,195 41,74 130,89 155,181 34,128 -176,331 -237,429 -24,38 -37,121 -80,136 -73,25 -44,64 -30,127 0,76 88,150 92,217 4,70 84,114 130,160 31,31 43,107 69,149 37,60 77,83 77,160 0,81 2,231 -98,247 -81,14 -83,-25 -137,-70 -4,1 -46,48 -44,53 5,16 19,32 19,44 0,47 -12,94 35,127 14,10 -32,39 -51,49 -31,15 -104,51 -107,87 -3,30 -10,179 -27,187 -26,13 -92,5 -85,44 9,47 39,72 54,118 16,48 26,61 14,97l-7 21c-6,17 -14,30 -32,36 -60,20 -113,-10 -167,-30 -44,-16 -35,-23 -35,27 0,32 28,88 1,97l-39 30 0 0c-14,-12 -27,-25 -40,-39 -47,-82 -225,-173 -301,-234 -90,-72 -147,-130 -195,-232 -37,-77 -120,-162 -179,-224 -86,-91 -127,-228 -217,-309l-497 -577c-81,-94 -342,-380 -355,-498 -138,-138 -255,-407 -460,-440 -127,-20 -176,-438 -200,-548 -55,-63 -106,-247 -141,-331 -43,-104 -86,-213 -144,-310 -73,-122 -182,-326 -207,-460l-89 -202c-26,-58 -81,-127 -97,-184 -38,-137 -112,-271 -145,-408 -16,-63 -46,-158 -46,-221 -45,-229 -100,-459 -100,-697 0,-65 -19,-123 -19,-184 -38,-189 -86,-383 -86,-577 0,-130 -62,-239 -62,-363 43,0 69,222 72,259 5,83 20,244 60,315 23,42 72,145 83,190l2 0c0,-88 -30,-180 -30,-269 0,-99 11,-200 -32,-290 -35,-74 -46,-109 46,-92 0,57 161,57 161,85 0,98 14,197 133,197 0,34 -50,78 -52,111 -3,34 38,70 45,104 20,88 12,190 -18,277 -29,85 13,69 56,124 26,26 45,25 82,25 0,15 -9,51 -15,63 -14,25 -47,23 -51,62 -6,59 -48,106 -67,159 -13,37 4,69 4,104 0,22 -20,21 -30,37 -27,46 -13,122 -26,174 -39,156 238,-55 269,-122 8,-18 9,-40 17,-58 14,-33 42,-106 35,-142 -21,-102 -129,-118 -99,-240 8,-34 40,-108 33,-136 -37,-9 -84,-8 -123,-18 0,-31 22,-135 36,-162 0,-59 -61,-149 -88,-204 -31,-62 90,-102 74,-164 -16,-63 -62,-37 -43,-117 10,-40 -60,-153 -79,-190 -14,-27 -84,-257 -129,-135 -13,34 -52,-24 -93,-29 -7,-4 -10,-10 -18,-12 -16,63 -49,-37 -70,-60 -21,-23 -54,-93 -62,-124 -11,-43 -27,-70 -56,-106 -36,-44 -58,-112 -58,-169 30,7 93,169 111,201 2,2 2,2 2,4 12,-3 -6,-73 -7,-85 -2,-37 -20,-78 -20,-112 0,-85 -47,-172 -86,-248 -13,-26 -71,-123 -95,-131 0,35 59,249 87,255 -7,22 -34,-29 -38,-38 -14,-32 -21,-65 -35,-95 -16,-36 -46,-177 -85,-186 0,79 31,122 43,192 14,80 27,183 61,257 22,47 15,106 31,155 6,19 37,120 24,123 -10,2 -70,12 -72,6l-36 -107 -52 -148c-19,-54 -21,-118 -39,-173l-57 -173c0,-129 -82,-290 -128,-401 -47,-116 -122,-274 -110,-402 -27,-53 -31,-117 -55,-171l-66 -148c-36,-81 -51,-172 -94,-253 -14,-26 -57,-84 -57,-111l0 -6646 0 0 155 -37c108,-14 183,-122 271,-144l0 -2c3,0 4,-2 7,-2 42,126 -17,294 12,432 20,95 38,180 143,107 56,-39 90,-80 156,-106 99,-40 90,155 116,223 58,152 149,35 253,35l1 1c35,75 82,88 111,164 54,141 145,203 296,161 61,-17 111,-64 179,-50 46,9 71,62 95,68 0,3 1,5 1,10l-108 11 4 94c2,58 -24,93 13,144 16,22 83,87 108,91l0 0z"/>
        <path class="fil0 check str0" d="M2811 9330c10,-12 36,-44 39,-58 37,-9 84,-42 116,-66 19,-14 86,-97 101,-99 3,-21 60,31 66,38 33,42 74,72 112,110 37,37 47,81 57,131 11,129 41,154 172,175 92,15 52,69 163,49 269,-49 612,-57 852,80 0,-85 -24,-164 32,-234 35,-43 54,-122 52,-177l-4 -95c-1,-34 33,-71 33,-92 83,-86 102,-162 158,-264 37,-68 224,-74 243,2 23,0 36,-84 66,-105 60,-42 213,-53 260,14 11,15 15,72 27,74 81,12 77,132 167,189 58,37 158,121 230,97 0,-84 -93,-142 -93,-222 153,0 266,-52 418,-64 65,-6 73,0 135,-37 179,-108 305,196 399,156 92,-39 111,-130 211,-68l100 62c19,12 43,55 54,58 0,-41 96,-183 120,-232 50,-100 30,-240 30,-351 0,-95 31,-31 91,-2 77,36 46,5 61,-55 0,-39 -17,-159 55,-159 72,0 53,58 147,14 105,-49 252,23 362,-19 39,-15 62,-44 105,-50 52,-8 98,16 117,-32 -61,-250 387,-433 328,-652 -9,-34 -81,-192 -102,-217 -58,-68 -242,-146 -336,-146 -211,0 -413,-62 -632,-26 -40,7 -62,4 -75,-5 11,-33 16,-79 8,-116 -25,-114 -73,-73 -10,-193 70,-132 122,-5 241,-35 47,-104 137,-183 198,-278 18,-28 39,-62 64,-82 19,-15 50,-4 69,-19 57,-45 83,-286 86,-358l10 -252c-19,26 -90,120 -126,124 -13,2 -48,-36 -39,-49 24,-35 65,-64 88,-103 -26,-46 -105,-14 -128,-61 -27,-56 -21,-141 -7,-201 18,-78 16,-131 55,-202 53,-96 -3,-183 99,-242 145,-84 134,14 249,43 1,3 1,2 4,2 21,129 112,-16 126,-72 26,0 38,75 83,56 19,-8 171,-134 179,-149 19,-36 -57,-153 -13,-164 75,-18 27,-110 68,-158 22,-25 173,-162 122,-198 -128,-88 -47,-109 36,-152 44,-23 371,-134 394,-115 100,81 1,113 1,226 64,16 51,66 110,7 113,-114 77,-20 168,78 57,61 104,84 175,60 0,-7 -55,-47 -55,-80 74,-15 91,-154 110,-211 14,0 57,35 76,44 18,8 83,-10 83,-26 9,0 192,224 222,259 28,15 64,46 92,66 22,16 43,28 66,42 54,33 116,27 179,27 39,0 71,16 107,20 3,5 13,8 18,11l0 0 75 -63c70,-44 -17,-352 30,-377 30,-16 71,-29 91,2 19,31 106,113 136,56 14,-27 25,-183 18,-215 -17,-71 142,53 143,-21l1 -140 114 101c52,46 122,32 164,82 32,38 81,37 126,37 66,0 62,72 107,105 47,34 7,-131 1,-147 0,-71 -132,-96 -176,-112 -107,-39 -32,-86 20,-121 38,-25 57,-97 81,-98 31,-2 64,17 95,12 75,-12 -10,-190 -23,-229 -35,-108 73,-161 164,-168 101,-8 35,-98 50,-138 16,-41 152,-31 73,-94 -43,-72 -108,-76 24,-125 109,-40 9,-96 57,-105 30,-5 128,48 128,-2 0,-100 -101,-53 -133,-93 -35,-43 188,-57 108,-136 -114,-115 93,-127 42,-267 -7,-20 -60,-140 -74,-140 -62,0 7,140 -85,121 -67,-14 -34,36 -55,70 -22,37 -71,-38 -85,-56 -58,-77 -161,-48 -144,-138 7,-37 -9,-92 -52,-42 -40,47 -65,88 -98,21 -87,-174 -134,144 -203,-20 -26,-26 -82,-19 -101,-50 -23,-37 78,-18 88,-16 124,26 66,-78 -23,-98 -51,-11 -109,18 -95,-57l37 -198c20,-106 3,-212 33,-315 15,-53 0,-92 0,-142 0,-45 17,-83 23,-128l46 -160 0 0 -10185 0 0 7131 0 0 155 -37c108,-14 183,-122 271,-144l0 -2c3,0 4,-2 7,-2 42,126 -17,294 12,432 20,95 38,180 143,107 56,-39 90,-80 156,-106 99,-40 90,155 116,223 58,152 149,35 253,35l1 1c35,75 82,88 111,164 54,141 145,203 296,161 61,-17 111,-64 179,-50 46,9 71,62 95,68 0,3 1,5 1,10l-108 11 4 94c2,58 -24,93 13,144 16,22 83,87 108,91l0 0z"/>
        <path class="fil0 str0" d="M11185 1000l6898 0c62,94 182,169 216,269 20,59 30,95 102,92 78,-3 64,27 107,64 27,23 238,18 294,29 52,10 106,65 161,87l0 0 -35 24c-42,23 -139,-33 -181,-53 -48,-23 -127,28 -193,7 -32,-10 -100,-98 -114,-35 -9,40 -34,108 -72,127 -151,76 -78,-59 -98,-135 -32,-126 -16,-81 -119,-81 -89,0 -48,-41 -98,-80 -23,-17 -181,1 -167,67 3,13 115,38 136,49 28,15 60,55 86,62 0,38 -132,86 -163,85 -191,-9 -8,187 -132,260 -41,24 -116,30 -138,72 -25,47 35,92 75,99 0,30 -74,46 -93,80 4,62 -97,38 -128,48 -128,40 -53,118 -247,136l-143 13c-50,5 -78,143 -137,91 -58,-51 -60,-65 -116,-23 -80,61 -181,106 -62,168l178 93c16,0 37,15 52,19 0,41 -114,99 -147,109 -4,29 -47,37 -73,31 0,-34 -18,-141 -66,-97 -14,13 -120,100 -132,55 -10,-36 45,-92 25,-136 -7,-17 -84,-17 -63,-45 50,-70 -22,-87 26,-141 28,-31 -36,-87 -43,-80 -70,70 -123,-50 -159,51 -49,142 -90,54 -172,84 2,0 2,-2 2,0 -37,0 -76,72 -106,91 -60,37 -129,-136 -141,-175 -18,-60 -26,-133 -54,-189 -6,-11 -340,-45 -383,-37 -38,8 -88,61 -138,79 -27,9 -63,15 -92,17 -9,0 -56,2 -56,13 61,15 44,98 155,98 37,0 128,-13 137,36 16,87 -144,81 -111,148 51,103 119,39 204,67 0,14 -49,47 -56,75 -11,45 18,118 -57,118 -48,0 -173,-29 -210,8 -17,17 -68,69 -89,76 -97,34 -90,33 -12,111 17,17 6,41 6,64 0,39 -134,10 -174,57 -98,115 -193,60 -237,-68 -25,-74 -171,-97 -218,-43 -91,103 -242,179 -197,335 22,77 25,110 -70,113 -66,3 -80,-66 -150,-66 -50,16 -55,80 -112,105 -46,21 -93,-54 -122,-75 -68,-51 -186,27 -245,-70 -25,-41 -72,-128 -111,-79 -47,60 -206,0 -281,-4 -89,-4 55,159 102,175 -16,49 -243,80 -219,-73 9,-62 -5,-112 -10,-171 0,-2 -83,-38 -81,-7 10,144 -44,115 -145,69 -103,-46 -133,-27 -222,42 -41,87 -128,29 -174,-8 -36,-29 -36,-48 -74,-1 -47,58 -37,160 -77,218 -57,82 -144,-6 -216,-6 0,150 -33,78 -138,78 -92,0 -56,40 -13,79 73,65 143,130 143,235 0,41 -78,-14 -101,7 -16,14 12,87 -13,101 11,-7 -68,61 -83,82 -29,39 1,174 -2,226 -9,162 -79,262 -228,323 -51,21 -14,95 -4,140 17,71 -43,85 -49,135 -2,0 -3,1 -4,2l-2 0c-35,-103 -17,-242 -156,-242 -16,66 14,143 -13,208 -28,68 35,82 35,137 -49,12 -103,4 -154,11 -55,20 -47,67 -30,115 14,38 39,62 -14,78 -148,44 -359,-63 -489,-128 -98,-36 -171,-111 -256,-164 -74,-45 -118,10 -167,58 -25,25 -13,64 -64,36 -44,-24 -48,-75 -48,-118l2 0c0,-40 137,-18 166,-44 50,-45 -10,-107 -30,-149 -18,-39 -31,-77 -54,-112l0 0 75 -63c70,-44 -17,-352 30,-377 30,-16 71,-29 91,2 19,31 106,113 136,56 14,-27 25,-183 18,-215 -17,-71 142,53 143,-21l1 -140 114 101c52,46 122,32 164,82 32,38 81,37 126,37 66,0 62,72 107,105 47,34 7,-131 1,-147 0,-71 -132,-96 -176,-112 -107,-39 -32,-86 20,-121 38,-25 57,-97 81,-98 31,-2 64,17 95,12 75,-12 -10,-190 -23,-229 -35,-108 73,-161 164,-168 101,-8 35,-98 50,-138 16,-41 152,-31 73,-94 -43,-72 -108,-76 24,-125 109,-40 9,-96 57,-105 30,-5 128,48 128,-2 0,-100 -101,-53 -133,-93 -35,-43 188,-57 108,-136 -114,-115 93,-127 42,-267 -7,-20 -60,-140 -74,-140 -62,0 7,140 -85,121 -67,-14 -34,36 -55,70 -22,37 -71,-38 -85,-56 -58,-77 -161,-48 -144,-138 7,-37 -9,-92 -52,-42 -40,47 -65,88 -98,21 -87,-174 -134,144 -203,-20 -26,-26 -82,-19 -101,-50 -23,-37 78,-18 88,-16 124,26 66,-78 -23,-98 -51,-11 -109,18 -95,-57l37 -198c20,-106 3,-212 33,-315 15,-53 0,-92 0,-142 0,-45 17,-83 23,-128l46 -160 0 0z"/>
        <path class="fil0 str0" d="M18407 1000c6,13 9,27 18,39 6,8 23,15 31,21 17,12 23,57 19,76 -4,19 -12,36 -4,56 19,46 46,-19 55,-37 11,-21 12,-62 12,-86l32 -70 -163 0z"/>
        <path class="fil0 str0" d="M19115 1353l-41 32 0 0c-4,-15 -9,-31 -14,-48l-45 -153c-14,-46 -74,-101 -74,-138l-24 -46 55 0c45,56 72,165 98,234l45 120 0 0z"/>
        <path class="fil0 str0" d="M8100 10379c-18,35 -14,57 -14,93 7,2 180,266 222,301 137,116 176,376 331,418 73,19 224,53 224,150 0,73 -53,142 -36,210 48,16 76,143 76,174 2,33 -10,67 -10,101 0,47 6,96 27,135 8,15 15,33 27,43 19,15 39,13 58,23l45 16 0 0c82,0 169,-22 235,-70 72,-53 186,-35 260,2 145,116 282,-4 423,161l93 109 0 0c17,0 73,-36 91,-44 0,-30 -13,-53 -30,-79l-48 -74c-42,-65 128,-16 164,30 100,125 131,-188 131,-258 48,0 116,85 131,127 34,91 52,92 145,119 93,27 97,311 186,119 60,-130 8,-46 -42,-146 -18,-35 -18,-71 -46,-105 -23,-27 197,-177 217,-245 15,-52 40,-164 92,-184 88,-34 29,-83 120,-113l1 -84c34,-34 59,-85 62,-132 3,-39 28,-129 55,-155 17,-16 62,-70 62,-94 0,-47 -86,-98 -86,-124 18,-4 43,-41 54,-56 21,-30 4,-44 13,-70 19,-54 96,-50 119,-101l0 0c0,-8 -6,-45 -15,-48 -8,-17 -105,40 -119,48 -34,19 -99,56 -75,-16 30,-89 54,-158 -45,-208 -14,-70 -64,-23 -11,-105 18,-28 -3,-81 12,-86 59,-18 186,31 148,-103 -14,-48 -99,-84 -74,-131 10,-19 34,-45 10,-58 -37,-20 -55,-31 -25,-68 81,-101 -67,-97 -124,-39 -46,46 -119,4 -170,39 -25,17 -48,-26 -49,-24 -14,0 -103,251 -169,234 -98,-25 -37,-67 -37,-137 -24,0 -57,2 -80,-4 0,-11 36,-58 44,-66 6,-1 22,-22 24,-29 -30,-22 -195,29 -217,60 -82,112 -90,61 -215,76 -64,8 -86,48 -164,48 -71,0 -126,27 -188,21 -14,-1 -96,-27 -100,-41 -150,0 -128,119 -348,119 -20,-31 -166,-17 -200,-17 -22,67 -24,230 -45,260 -16,23 -142,47 -176,43 -53,-5 -100,23 -100,84 0,90 -5,150 -110,110 -81,-31 -130,55 -164,-84 -22,-4 -81,-52 -102,-64 -42,-26 2,-58 2,-88 -27,-7 -74,5 -95,21 -12,9 -80,54 -86,36l-5 0c-11,-45 33,-84 24,-134 -12,-65 -98,24 -107,55 -22,75 -95,211 -176,88 -9,2 -16,5 -24,10l0 0z"/>
        <path class="fil0 str0" d="M13586 12164l-54 104c-32,62 -88,94 -129,144 -18,22 -113,102 -113,123 29,7 56,53 80,70 81,59 116,127 116,229l0 0c161,4 275,43 427,-55 159,-102 359,-149 541,-185 256,-96 449,-244 671,-397 91,-63 195,-108 262,-195 51,-66 309,-392 379,-424l0 0c-39,-72 -71,-154 -79,-236 -7,-78 50,-165 29,-249 -81,0 -111,-45 -111,-123 -82,0 -106,-40 -161,-99 -27,-30 -28,18 -50,35 -47,36 -34,16 -60,11 0,-30 -21,-72 -21,-107 -25,-50 -3,-119 -20,-169 -19,-53 -155,-12 -195,-12 -46,0 -68,-24 -112,-36 -51,-19 -109,7 -135,50 -27,46 41,92 41,123l-50 -4c-20,-1 -44,-10 -63,-17 -36,-13 -68,-46 -105,-60 -61,-22 -186,67 -255,75l0 0c-25,42 -149,67 -124,113 33,60 -31,84 -79,97 -28,8 -76,39 -44,69 22,20 61,15 77,43 36,63 -33,66 -77,66 -23,0 -50,0 -67,17 -19,19 -10,38 -20,56 8,32 45,42 45,68 0,24 -18,30 -33,45 -37,37 -44,86 -61,134 -8,22 -21,76 -38,91 -19,17 -118,-65 -118,-14 0,34 42,80 42,115 -11,8 -23,72 -29,91 -8,27 -29,51 -41,78 -27,61 37,111 -5,174 -31,47 -78,61 -131,61 -23,0 -41,34 -54,49 -18,20 -54,36 -76,53l0 0z"/>
        <path class="fil0 str0" d="M12114 10723c32,-6 56,-1 82,-25 10,-9 107,-7 83,12 -30,24 -41,33 -55,64 -15,34 -54,45 -75,78 -13,20 -51,83 -73,91 3,3 42,0 52,5 38,16 50,19 95,20l195 5c46,1 58,81 58,117 33,65 -64,97 -87,142 -19,38 -27,102 -52,130 -42,48 70,161 -46,167 -45,2 -156,63 -156,116l2 0c2,9 77,19 82,66 8,72 40,89 64,149 21,51 30,117 52,162 13,45 44,83 62,124 20,45 32,32 79,29 22,-1 4,-49 4,-70 0,-55 13,-30 -8,-82l-38 -97c33,-11 97,-79 130,-47 31,31 131,1 174,12l1 1c0,52 -44,86 -12,144 67,121 187,-47 200,-38 88,56 66,9 104,-48 11,-16 130,-4 147,4 48,21 20,20 82,20 32,0 42,19 69,25 36,9 37,-43 91,-12 30,18 72,52 104,60 7,28 38,99 62,118l0 0c22,-16 58,-32 76,-53 13,-14 31,-49 54,-49 53,0 100,-14 131,-61 42,-63 -22,-113 5,-174 12,-27 32,-51 41,-78 6,-18 17,-83 29,-91 0,-34 -42,-80 -42,-115 0,-50 99,31 118,14 17,-15 30,-68 38,-91 16,-47 24,-97 61,-134 15,-15 33,-21 33,-45 0,-26 -37,-36 -45,-68 11,-18 2,-38 20,-56 17,-17 43,-17 67,-17 44,0 114,-3 77,-66 -16,-28 -56,-23 -77,-43 -32,-30 16,-62 44,-69 48,-13 112,-36 79,-97 -25,-46 99,-71 124,-113l0 0c-58,-58 -143,-101 -224,-112 -89,-13 -238,-44 -322,-11 -55,22 -114,21 -168,0 -46,-18 -124,-6 -172,-6 -1,-3 -8,-3 -10,-6 -28,-4 -224,-243 -242,-264 -39,-46 -106,-113 -119,-165 -43,-11 -90,-64 -148,-64 0,-2 -44,-32 -48,-36l0 0c-5,26 -17,57 -17,81 -45,15 -133,-40 -133,36 -28,9 -62,63 -100,69 0,22 55,71 74,74 0,3 57,65 62,67 0,75 -1,142 -60,201 -114,114 -125,-49 -143,-122 -29,-7 -70,-34 -95,-50 -40,-27 -143,-59 -191,-69 -100,-21 -148,124 -224,143 -21,12 -38,15 -38,43 0,26 18,49 18,76 0,25 -6,52 -6,76l0 0z"/>
        <path class="fil0 str0" d="M10137 14350c61,-6 196,9 241,-33 45,-41 72,-210 82,-272l30 -172c8,-47 4,-112 20,-155 5,-18 37,-282 66,-202 19,53 -63,163 21,165l148 2c57,1 24,-54 57,-88 98,-102 263,153 263,229 32,-11 77,-67 112,-69 40,-2 82,37 125,20 36,-14 -21,-51 -2,-84 0,0 63,26 80,26 67,0 271,-123 325,-169 24,-20 2,-56 -13,-76 -49,-65 141,-110 105,-196 -7,-9 -49,-53 -49,-62 91,0 24,-80 10,-104 -53,-92 88,-190 -83,-196 -124,-4 -238,-15 -352,-54 0,-56 29,-149 -23,-185 -106,-73 -223,-139 -355,-128 -76,6 -152,35 -229,23 -75,-12 -140,-43 -218,-43 -59,17 -120,51 -182,51 -66,0 -149,-52 -182,-107 -16,-27 -32,-46 -39,-79 -6,-29 -19,-121 -31,-148l0 0c17,0 73,-36 91,-44 0,-30 -13,-53 -30,-79l-48 -74c-42,-65 128,-16 164,30 100,125 131,-188 131,-258 48,0 116,85 131,127 34,91 52,92 145,119 93,27 97,311 186,119 60,-130 8,-46 -42,-146 -18,-35 -18,-71 -46,-105 -23,-27 197,-177 217,-245 15,-52 40,-164 92,-184 88,-34 29,-83 120,-113l1 -84c34,-34 59,-85 62,-132 3,-39 28,-129 55,-155 17,-16 62,-70 62,-94 0,-47 -86,-98 -86,-124 18,-4 43,-41 54,-56 21,-30 4,-44 13,-70 19,-54 96,-50 119,-101l0 0c40,-29 89,2 80,51 -4,22 -20,102 8,110 40,11 84,10 125,20 49,13 40,89 26,134 -54,175 117,61 176,13 57,-46 192,53 229,-38 17,-33 24,-73 15,-110l-1 -32 0 0c32,-6 56,-1 82,-25 10,-9 107,-7 83,12 -30,24 -41,33 -55,64 -15,34 -54,45 -75,78 -13,20 -51,83 -73,91 3,3 42,0 52,5 38,16 50,19 95,20l195 5c46,1 58,81 58,117 33,65 -64,97 -87,142 -19,38 -27,102 -52,130 -42,48 70,161 -46,167 -45,2 -156,63 -156,116l2 0c2,9 77,19 82,66 8,72 40,89 64,149 21,51 30,117 52,162 13,45 44,83 62,124 20,45 32,32 79,29 22,-1 4,-49 4,-70 0,-55 13,-30 -8,-82l-38 -97c33,-11 97,-79 130,-47 31,31 131,1 174,12l1 1c0,52 -44,86 -12,144 67,121 187,-47 200,-38 88,56 66,9 104,-48 11,-16 130,-4 147,4 48,21 20,20 82,20 32,0 42,19 69,25 36,9 37,-43 91,-12 30,18 72,52 104,60 7,28 38,99 62,118l0 0 -54 104c-32,62 -88,94 -129,144 -18,22 -113,102 -113,123 29,7 56,53 80,70 81,59 116,127 116,229l0 0 -74 29c-26,20 -88,34 -122,48 -46,19 -92,58 -133,84 -57,35 -105,27 -143,43 -137,57 -118,23 -242,49 -39,8 -129,0 -174,23 -112,56 34,59 82,70 83,19 186,-27 215,-26 96,4 27,0 137,39 7,19 -4,50 7,76 10,23 91,23 83,45 -35,100 -126,126 -117,260 4,60 57,101 57,150l0 0c-67,73 -198,-2 -293,41 -48,21 -46,109 -131,107l-164 -2c-65,-1 -26,-118 -26,-174 0,-41 -125,-134 -153,-134 0,76 -98,101 -102,165 -5,70 -9,132 -26,184 -109,0 -60,-102 -81,-181 -48,-183 -135,75 -207,119 -111,69 -142,-76 -231,-76 -28,13 -89,8 -101,41 -58,151 -158,196 -276,296 -64,54 -24,83 -10,161 12,63 93,64 155,64 20,80 -30,135 -15,212 13,69 138,25 154,-27 7,-24 15,-128 54,-100 37,27 188,-15 153,38 -58,87 -44,96 25,165 51,58 30,136 -37,175 -20,12 -43,36 -60,53 -14,14 -31,37 -39,10 -10,-33 -56,-109 -95,-72 -47,43 -50,144 -48,206 1,25 17,67 -8,85 -16,11 -65,-38 -100,-23l0 0 -21 -44c-23,-28 -75,-55 -111,-55 -71,0 -57,69 -66,117 -4,24 -5,67 -24,82 -16,13 -40,23 -60,30 -48,29 -102,21 -133,-16 -21,-23 -45,-46 -75,-56 -88,-29 -167,66 -231,112l0 0c-75,-48 -186,-11 -209,-127 -26,-129 101,-168 150,-266 29,-58 -93,-128 -136,-122 -50,-23 -103,-55 -157,-66 -51,-10 -102,3 -153,-12 -102,-30 -31,-154 -102,-186 -71,-32 41,-89 68,-100l0 0z"/>
        <path class="fil0 str0" d="M12087 8581c11,-33 0,-36 0,-67 0,-13 -8,-50 12,-50 4,-12 108,-43 141,-43 31,0 69,20 98,31 46,17 85,-9 126,-19 8,-33 -12,-64 -12,-95 -14,-28 -57,-60 -76,-81 -23,-25 27,-46 29,-67 1,-13 -17,-33 -13,-43 3,-9 13,-14 17,-23 6,-14 13,-23 14,-39l0 0c-36,-7 -92,-16 -101,-56 -11,-45 20,-84 38,-122 15,-31 21,-67 36,-100 19,-43 57,-86 72,-128 17,-17 35,-111 46,-140 19,-46 33,-78 33,-130 -80,-20 -163,71 -242,90 -47,11 -178,35 -178,-45 0,-45 -8,-118 7,-159 10,-28 27,-37 18,-70 -5,-18 -36,-52 -55,-55 -1,-8 -11,-8 -18,-10l0 0c-75,0 -84,28 -138,67 -45,32 -38,-82 -76,-95 -52,-18 -56,6 -94,32 -32,22 -110,21 -141,-4 0,21 3,42 7,63l-2 131c-284,0 -125,-101 -267,-165 -94,-42 -347,59 -257,-119 44,-89 -67,-57 -143,-57 -1,-5 -2,-5 -7,-5 -41,-165 26,-162 -181,-236 -128,-46 -249,19 -293,-165 -41,-171 -41,-8 -157,-64 -106,-51 -242,-58 -253,-208 -6,-80 -90,-348 -160,-365 -32,130 -375,-118 -379,-134l-5 0c-29,-116 -181,49 -286,-26 -164,-119 -61,189 -2,232 257,188 28,488 -272,413 -53,-13 -51,412 -155,377 -115,-39 -143,129 -155,220 -9,66 -69,239 -136,222 0,-28 -88,-41 -112,-38l-98 39 0 0c30,57 70,149 77,174 59,219 -388,402 -328,652 -5,14 -13,22 -22,26l0 0 87 30c112,-19 166,71 257,104 78,28 145,26 212,80 102,82 235,-27 334,-27 23,0 72,68 91,86 49,46 55,34 117,24 174,-29 322,-119 478,-179 85,-33 132,76 219,-55 42,-63 147,-64 207,-64 8,-30 391,-74 398,7 11,135 -75,287 69,179 17,22 141,72 195,76 92,8 -26,96 -26,181 115,0 113,-112 243,-112 0,52 -162,461 -226,477 0,51 26,46 36,84 130,0 350,-341 350,-466 29,-6 54,-19 86,-19 102,407 672,296 918,50l0 0z"/>
        <path class="fil0 str0" d="M12087 8581c22,-4 49,-9 67,0 29,15 22,35 67,21 35,-11 48,-5 74,-5 0,14 53,58 62,60 0,30 -32,51 -43,79 -12,30 7,134 -29,134 -53,0 -74,0 -98,43 -19,35 -150,47 -86,127 22,27 11,55 -10,81 -45,56 -11,56 -2,115 41,41 63,252 81,306 34,3 108,35 129,-21 20,-54 -50,-87 -50,-124 0,-64 213,-19 255,-31 64,-18 152,-93 217,-93 25,74 106,99 81,201 -32,8 -52,57 -83,64 -2,7 -26,173 -26,201 46,15 92,28 136,43 0,36 -38,186 -10,186 9,27 162,39 167,41 9,9 3,15 2,31l-21 60c-5,26 -17,57 -17,81 -45,15 -133,-40 -133,36 -28,9 -62,63 -100,69 0,22 55,71 74,74 0,3 57,65 62,67 0,75 -1,142 -60,201 -114,114 -125,-49 -143,-122 -29,-7 -70,-34 -95,-50 -40,-27 -143,-59 -191,-69 -100,-21 -148,124 -224,143 -21,12 -38,15 -38,43 0,26 18,49 18,76 0,25 -6,52 -6,76l0 0 1 32c9,37 2,77 -15,110 -36,91 -172,-7 -229,38 -59,47 -230,162 -176,-13 14,-45 23,-121 -26,-134 -41,-11 -85,-9 -125,-20 -28,-8 -13,-87 -8,-110 9,-49 -40,-80 -80,-51l0 0c0,-8 -6,-45 -15,-48 -8,-17 -105,40 -119,48 -34,19 -99,56 -75,-16 30,-89 54,-158 -45,-208 -14,-70 -64,-23 -11,-105 18,-28 -3,-81 12,-86 59,-18 186,31 148,-103 -14,-48 -99,-84 -74,-131 10,-19 34,-45 10,-58 -37,-20 -55,-31 -25,-68 81,-101 -67,-97 -124,-39 -46,46 -119,4 -170,39 -25,17 -48,-26 -49,-24 -14,0 -103,251 -169,234 -98,-25 -37,-67 -37,-137 -24,0 -57,2 -80,-4 0,-11 36,-58 44,-66 6,-1 22,-22 24,-29 -30,-22 -195,29 -217,60 -82,112 -90,61 -215,76 -64,8 -86,48 -164,48 -71,0 -126,27 -188,21 -14,-1 -96,-27 -100,-41 -150,0 -128,119 -348,119 -20,-31 -166,-17 -200,-17 -22,67 -24,230 -45,260 -16,23 -142,47 -176,43 -53,-5 -100,23 -100,84 0,90 -5,150 -110,110 -81,-31 -130,55 -164,-84 -22,-4 -81,-52 -102,-64 -42,-26 2,-58 2,-88 -27,-7 -74,5 -95,21 -12,9 -80,54 -86,36l-5 0c-11,-45 33,-84 24,-134 -12,-65 -98,24 -107,55 -22,75 -95,211 -176,88 -9,2 -16,5 -24,10l0 0c0,-130 95,-185 150,-296 17,-34 12,-86 12,-124 0,-79 44,-108 74,-172 28,-37 124,-309 33,-332 -9,-35 16,-133 -31,-91 -81,72 -135,201 -241,143 -47,-26 -46,-45 -43,-95 5,-74 -80,-213 -21,-239 77,-33 86,-95 83,-172 -2,-73 7,-184 -14,-248 -23,0 -105,-36 -117,-26 -33,26 -75,76 -112,76 -12,-47 68,-187 64,-189 0,-120 238,-402 105,-489l0 0 87 30c112,-19 166,71 257,104 78,28 145,26 212,80 102,82 235,-27 334,-27 23,0 72,68 91,86 49,46 55,34 117,24 174,-29 322,-119 478,-179 85,-33 132,76 219,-55 42,-63 147,-64 207,-64 8,-30 391,-74 398,7 11,135 -75,287 69,179 17,22 141,72 195,76 92,8 -26,96 -26,181 115,0 113,-112 243,-112 0,52 -162,461 -226,477 0,51 26,46 36,84 130,0 350,-341 350,-466 29,-6 54,-19 86,-19 102,407 672,296 918,50l0 0z"/>
        <path class="fil0 str0" d="M15760 12508c22,3 41,4 57,17 11,9 9,29 26,29 2,6 93,-19 114,-19 47,0 71,6 98,-38 16,-27 96,15 100,33 76,0 63,-78 100,-115 80,-81 133,-142 255,-148 38,-2 88,4 118,30 15,13 20,24 30,39 8,12 38,67 50,74l0 0c40,0 83,-22 123,-11 23,6 32,59 58,72 51,25 115,-122 135,-154 12,-19 110,52 131,60l137 62 0 0c2,-129 -1,-256 -12,-377 0,-251 -31,-481 -70,-725 -10,-61 -37,-156 -32,-214 -48,-129 -33,-545 -137,-684l0 0 -36 45c-1,54 51,213 35,241 -20,34 -68,19 -99,12 -76,-16 -272,206 -356,253 -34,19 -191,73 -187,112l10 100c5,53 -22,64 -31,101 -57,0 -107,-76 -128,5 -10,39 -78,119 -119,123 -24,18 -63,24 -91,35 -40,15 -80,23 -119,39l-123 53 -31 20 0 0c30,21 54,42 89,55 36,13 63,48 94,67 33,20 35,116 35,153 -6,44 -21,58 -55,76 -33,18 -68,16 -50,60 14,35 79,103 43,127 -18,11 -60,44 -60,69 -22,6 -58,19 -76,33 -8,7 5,36 5,53 0,78 -15,74 79,74 0,86 -136,63 -110,162l0 0z"/>
        <path class="fil0 str0" d="M13062 13726c0,-50 -53,-90 -57,-150 -9,-134 82,-160 117,-260 8,-23 -73,-22 -83,-45 -12,-26 0,-58 -7,-76 -111,-40 -42,-35 -137,-39 -29,-1 -132,45 -215,26 -48,-11 -194,-14 -82,-70 45,-23 135,-15 174,-23 124,-26 105,8 242,-49 38,-16 87,-8 143,-43 42,-26 87,-64 133,-84 34,-14 95,-28 122,-48l74 -29 0 0c161,4 275,43 427,-55 159,-102 359,-149 541,-185 256,-96 449,-244 671,-397 91,-63 195,-108 262,-195 51,-66 309,-392 379,-424l0 0c30,21 54,42 89,55 36,13 63,48 94,67 33,20 35,116 35,153 -6,44 -21,58 -55,76 -33,18 -68,16 -50,60 14,35 79,103 43,127 -18,11 -60,44 -60,69 -22,6 -58,19 -76,33 -8,7 5,36 5,53 0,78 -15,74 79,74 0,86 -136,63 -110,162l0 0c-4,14 19,97 19,129 0,51 -71,36 -60,84 8,33 13,74 24,105 43,119 -219,156 -219,279 -31,-31 -36,-105 -36,-150 0,-42 -121,-54 -160,-62 -117,-25 -284,-110 -365,-201 -36,-40 -11,-26 -64,-26 -78,0 104,122 36,160 -31,18 -54,63 -83,76 -47,21 1,116 10,167 0,93 -14,303 -67,368 -81,100 132,141 162,220 18,47 59,181 -21,201l0 10c37,0 101,29 145,29 24,95 26,145 26,236 -93,23 94,131 136,134 112,9 93,102 238,62 48,-13 5,118 26,134 102,74 81,33 81,153 0,19 109,301 -5,258 -51,-20 10,114 9,144l48 110 0 0c-18,3 -40,11 -69,27 -40,23 -96,26 -131,49 -36,23 -4,44 -4,80 -43,0 -58,5 -104,-6 -47,-11 -176,69 -176,117 0,47 -244,174 -300,210 -24,16 -111,77 -122,104 -17,42 49,54 25,86 -10,23 -39,77 -55,94 -68,76 -81,9 -81,125 0,67 -64,42 -58,115l0 0 -114 0c0,-175 -3,-112 -114,-112 -108,0 -153,28 -153,-115 50,-17 140,62 191,31 13,-8 3,-162 -10,-162 -12,46 -369,36 -293,-88 26,-42 97,-65 64,-138 -12,-26 -36,-51 -36,-84 0,-40 52,-57 52,-93 -133,0 58,-145 74,-169 13,-21 28,-225 -7,-234 -12,-38 -57,-130 -45,-165 105,0 219,26 229,-98 5,-62 -182,-36 -243,-36 0,-30 63,-48 48,-88 -44,-116 184,-123 184,-294 -3,-4 -27,-28 -29,-36 -51,-13 -135,-143 -210,-155 0,-34 -6,-93 -17,-124 -71,0 -95,-53 -150,-53 -152,0 -123,-108 -226,-124 -55,-8 -135,-142 -150,-189 -177,0 -68,-19 -155,155 -55,110 -151,-63 -164,-10 -26,0 -51,24 -88,21 -50,-4 -83,-43 -141,-43l0 0z"/>
        <path class="fil0 str0" d="M14717 7716l138 115c37,-1 97,2 136,-10 44,-14 67,20 63,61 -8,81 21,92 43,161 20,60 67,110 -19,157 -26,14 -40,63 -2,85 30,17 26,45 99,67 43,13 154,86 197,112 68,42 78,35 123,105 4,6 43,65 45,70l0 0c56,0 172,62 238,79 102,26 205,20 307,43l112 21 0 0c-28,-29 -48,-66 -82,-88 -90,-169 247,-202 202,-294 -15,-31 -193,-62 -231,-62 0,-38 199,-277 231,-277 72,0 59,291 138,215l110 -105c58,-55 -74,-189 -129,-248 -70,-76 -43,-57 33,-115 64,-48 93,40 141,79 83,68 88,-165 119,-153 59,23 68,203 64,260 -4,64 -106,218 0,212 111,-6 183,-124 288,-124 4,11 12,12 24,29l82 85 0 0c14,-72 35,-142 72,-209 20,-145 172,-326 247,-450l219 -365c28,-47 116,-147 128,-201 29,-21 53,-64 75,-112l0 0c0,0 0,-1 0,-1l0 0 -144 116c-51,75 -203,91 -284,60 -149,-57 -230,-143 -260,-296 -14,-73 -34,-119 -105,-150 -32,-14 -100,-32 -124,-50 -2,5 -14,-1 -19,-2 -43,51 -85,100 -155,100 -64,0 -95,-48 -112,-100 -6,0 -3,-1 -7,-2 -9,35 -92,45 -126,45 -65,0 -151,-34 -207,-62l0 0c-41,-4 -70,-29 -83,-72 -3,-11 -23,-72 -33,-72 -2,-7 -52,90 -55,103 -48,10 -93,-33 -131,-14 -35,17 -80,-19 -112,-33 -34,-15 -64,69 -126,69 -110,0 -72,-47 -72,-134 -3,-3 -87,77 -126,74 -42,-3 -64,-88 -64,-119 -4,-1 -11,-5 -12,-10 -57,0 -130,-49 -169,-93 -23,-26 -29,-60 -60,-79 -35,-21 -95,-32 -129,-57 -53,-35 -204,-19 -272,-19 -56,0 -198,-33 -241,-2 -40,29 -20,74 -33,112 -12,36 -82,100 -43,122 21,12 56,14 81,14 1,3 2,4 5,5 0,59 -23,64 -50,117 -15,15 -4,33 5,48 9,14 19,33 33,38 0,32 -102,11 -122,10l31 69 43 38c60,45 160,-7 219,-7 0,157 -246,210 -102,372 34,39 -26,53 -45,91 -23,45 30,127 24,184 -9,78 -218,-20 -174,64 29,55 243,159 305,174 0,34 -110,122 -124,160 -11,28 -22,40 -35,47l0 0z"/>
        <path class="fil0 str0" d="M12087 8581c22,-4 49,-9 67,0 29,15 22,35 67,21 35,-11 48,-5 74,-5 0,14 53,58 62,60 0,30 -32,51 -43,79 -12,30 7,134 -29,134 -53,0 -74,0 -98,43 -19,35 -150,47 -86,127 22,27 11,55 -10,81 -45,56 -11,56 -2,115 41,41 63,252 81,306 34,3 108,35 129,-21 20,-54 -50,-87 -50,-124 0,-64 213,-19 255,-31 64,-18 152,-93 217,-93 25,74 106,99 81,201 -32,8 -52,57 -83,64 -2,7 -26,173 -26,201 46,15 92,28 136,43 0,36 -38,186 -10,186 9,27 162,39 167,41 9,9 3,15 2,31l0 0c139,0 224,183 262,0 6,-31 57,-50 57,-67 0,-87 -7,-62 62,-84 56,-18 96,2 174,2 105,0 143,-32 143,-136 0,-4 91,4 114,-5 59,-21 -20,108 50,100 15,-2 75,-104 67,-115 -14,-19 -37,-89 -33,-91l86 5c29,2 28,31 41,50 61,96 80,-6 100,2 20,9 -5,77 12,88 15,10 96,48 117,48 72,0 113,27 145,-21 26,-38 31,-78 64,-117 21,-17 20,-49 26,-74 27,-7 48,-10 81,-14 34,-4 32,-48 50,-50 57,-5 135,5 193,5 52,0 152,86 174,-24 6,-1 35,-23 36,-26 15,0 231,-89 231,-91 47,0 53,53 105,53 44,0 73,10 110,10 19,-112 -55,-154 -55,-251 53,-18 116,-55 160,-69 0,-253 -37,58 -119,-107 0,-50 -21,-110 -21,-160 85,-21 101,-189 119,-260l0 0c-2,-5 -41,-64 -45,-70 -46,-70 -56,-63 -123,-105 -42,-26 -154,-99 -197,-112 -73,-22 -69,-50 -99,-67 -38,-22 -24,-71 2,-85 86,-47 39,-97 19,-157 -23,-69 -51,-79 -43,-161 4,-41 -19,-74 -63,-61 -38,12 -99,9 -136,10l-138 -115 0 0c-24,12 -55,9 -103,51 -38,34 -100,-19 -141,-19 -28,113 -137,76 -222,76 -105,0 -102,146 -243,48 -41,-29 51,-113 29,-129 -8,-5 -58,-56 -60,-60 -4,1 -5,2 -10,2 -7,30 -54,154 -83,146 -49,-14 -114,-38 -114,-100 0,-18 3,-103 -14,-103 -2,-10 -65,4 -76,7 -34,9 -72,15 -107,18 -112,64 -156,111 -243,204 -89,95 -89,88 -201,43 -76,-30 -101,16 -161,58 -125,89 -105,-1 -209,-6 -40,-2 -53,45 -91,54 -43,10 -80,-29 -124,2 -47,34 -58,69 -122,75l0 0c-2,16 -9,26 -14,39 -3,8 -13,13 -17,23 -4,10 14,30 13,43 -2,21 -51,42 -29,67 19,21 62,53 76,81 0,31 20,63 12,95 -41,10 -80,36 -126,19 -29,-11 -66,-31 -98,-31 -32,0 -137,31 -141,43 -20,0 -12,37 -12,50 0,31 11,34 0,67l0 0z"/>
        <path class="fil0 str0" d="M12988 10037l-21 60 0 0c4,3 47,34 48,36 57,0 105,54 148,64 13,52 80,119 119,165 17,21 214,260 242,264 1,3 9,3 10,6 48,0 126,-12 172,6 54,21 113,22 168,0 84,-34 233,-2 322,11 81,12 166,54 224,112l0 0c69,-8 194,-97 255,-75 37,13 69,46 105,60 19,7 43,15 63,17l50 4c0,-31 -68,-77 -41,-123 26,-43 83,-69 135,-50 44,11 66,36 112,36 40,0 177,-41 195,12 18,50 -5,120 20,169 0,35 21,77 21,107 25,5 12,26 60,-11 22,-17 23,-64 50,-35 55,59 79,99 161,99 0,78 30,123 111,123 21,85 -36,172 -29,249 8,82 39,165 79,236l0 0 31 -20 123 -53c39,-17 80,-25 119,-39 28,-10 66,-16 91,-35 42,-4 109,-84 119,-123 20,-81 70,-5 128,-5 9,-37 36,-49 31,-101l-10 -100c-4,-39 153,-93 187,-112 84,-47 280,-269 356,-253 31,7 79,22 99,-12 16,-28 -36,-187 -35,-241l36 -45 0 0c-6,-8 -12,-14 -18,-20 -25,-22 -130,-244 -131,-276 -44,-120 -54,-185 -50,-317 3,-104 14,-200 30,-301 24,-150 92,-295 106,-442 3,-27 7,-52 10,-78l0 0c-128,-38 -245,-68 -361,-96 0,-47 57,-8 79,-37 24,-31 19,-81 26,-119 27,-140 -60,-84 -174,-103 -52,-8 -77,-61 -126,-57 -83,6 -88,237 -157,228 -36,-5 -59,-20 -79,-40l0 0 -112 -21c-102,-23 -205,-17 -307,-43 -66,-17 -182,-79 -238,-79l0 0c-18,71 -34,239 -119,260 0,50 21,110 21,160 82,165 119,-145 119,107 -43,14 -107,52 -160,69 0,97 74,138 55,251 -37,0 -66,-10 -110,-10 -52,0 -58,-53 -105,-53 0,1 -216,91 -231,91 -1,4 -30,25 -36,26 -22,110 -122,24 -174,24 -58,0 -136,-10 -193,-5 -18,2 -16,46 -50,50 -33,4 -54,8 -81,14 -6,25 -5,57 -26,74 -33,39 -39,78 -64,117 -32,49 -74,21 -145,21 -21,0 -102,-37 -117,-48 -17,-12 8,-80 -12,-88 -20,-9 -39,93 -100,-2 -12,-19 -12,-49 -41,-50l-86 -5c-4,1 19,72 33,91 8,11 -52,113 -67,115 -71,8 9,-122 -50,-100 -23,8 -114,1 -114,5 0,104 -38,136 -143,136 -78,0 -118,-20 -174,-2 -69,22 -62,-3 -62,84 0,17 -51,36 -57,67 -38,183 -123,0 -262,0l0 0z"/>
        <path class="fil0 str0" d="M11977 4474c107,24 173,18 281,20 68,1 210,-33 272,-66 25,-13 73,-27 105,-43 44,-22 112,-58 159,-69 66,-17 136,-89 197,-130 47,-31 89,-67 132,-103 3,-3 63,-45 63,-31 0,54 -96,128 -64,193 37,74 50,97 32,185 -28,135 -64,110 -163,161 -68,35 -81,164 -89,230 -7,63 0,138 0,202 -12,62 -8,154 -11,221 -2,46 -63,85 -66,186 -1,43 87,68 117,79 7,3 42,12 46,14l0 0c-90,191 -163,370 -199,418l-80 210c-22,58 -92,104 -126,148 -92,117 -150,256 -262,362 -37,35 -55,84 -95,115l0 0c-68,-68 -124,5 -189,25 -41,12 -79,-99 -45,-136 36,-39 48,-31 2,-67 -56,-44 -86,-61 -5,-105 121,-66 -5,-85 -66,-140 -23,-21 -47,-76 -64,-106 -41,-70 -105,-12 -154,-54 -22,-19 -53,-41 -86,-36 -55,8 -189,151 -244,110 -9,-7 3,-74 -1,-93 -10,-41 -33,-36 -7,-84 22,-39 38,-45 38,-88 -1,3 0,3 1,6 -50,-67 -77,-88 -156,-118 -47,-18 -21,-98 -26,-141 -5,-35 -21,-70 -15,-106 8,-50 29,-92 29,-147 0,-67 11,-138 -35,-192l3 -84 0 0c67,16 132,21 189,5 53,-16 28,-39 14,-78 -17,-47 -25,-94 30,-115 51,-6 105,1 154,-11 0,-56 -63,-70 -35,-137 27,-65 -3,-142 13,-208 140,0 121,139 156,242l2 0c1,-2 2,-2 4,-2 6,-50 66,-64 49,-135 -11,-44 -47,-119 4,-140 94,-39 157,-93 192,-169l0 1z"/>
        <path class="fil0 str0" d="M12226 6775c-2,10 -7,22 -8,32 -1,14 9,25 15,36 13,23 20,42 20,70l0 32c0,21 21,86 52,97 0,20 -72,18 -88,17 -26,-2 -41,-27 -72,-23 -2,6 -8,9 -8,18 -1,11 2,22 1,33 -1,13 -14,39 -30,39 -1,3 -26,28 -30,32l0 0c-75,0 -84,28 -138,67 -45,32 -38,-82 -76,-95 -52,-18 -56,6 -94,32 -32,22 -110,21 -141,-4 0,21 3,42 7,63l-2 131c-284,0 -125,-101 -267,-165 -94,-42 -347,59 -257,-119 44,-89 -67,-57 -143,-57 -1,-5 -2,-5 -7,-5 -41,-165 26,-162 -181,-236 -128,-46 -249,19 -293,-165 -41,-171 -41,-8 -157,-64 -106,-51 -242,-58 -253,-208 -6,-80 -90,-348 -160,-365 -32,130 -375,-118 -379,-134l-5 0c-29,-116 -181,49 -286,-26 -164,-119 -61,189 -2,232 257,188 28,488 -272,413 -53,-13 -51,412 -155,377 -115,-39 -143,129 -155,220 -9,66 -69,239 -136,222 0,-28 -88,-41 -112,-38l-98 39 0 0c-11,-21 -20,-37 -26,-43 -58,-68 -242,-146 -336,-146 -211,0 -413,-62 -632,-26 -40,7 -62,4 -75,-5 11,-33 16,-79 8,-116 -25,-114 -73,-73 -10,-193 70,-132 122,-5 241,-35 47,-104 137,-183 198,-278 18,-28 39,-62 64,-82 19,-15 50,-4 69,-19 57,-45 83,-286 86,-358l10 -252c-19,26 -90,120 -126,124 -13,2 -48,-36 -39,-49 24,-35 65,-64 88,-103 -26,-46 -105,-14 -128,-61 -27,-56 -21,-141 -7,-201 18,-78 16,-131 55,-202 53,-96 -3,-183 99,-242 145,-84 134,14 249,43 1,3 1,2 4,2 21,129 112,-16 126,-72 26,0 38,75 83,56 19,-8 171,-134 179,-149 19,-36 -57,-153 -13,-164 75,-18 27,-110 68,-158 22,-25 173,-162 122,-198 -128,-88 -47,-109 36,-152 44,-23 371,-134 394,-115 100,81 1,113 1,226 64,16 51,66 110,7 113,-114 77,-20 168,78 57,61 104,84 175,60 0,-7 -55,-47 -55,-80 74,-15 91,-154 110,-211 14,0 57,35 76,44 18,8 83,-10 83,-26 9,0 192,224 222,259 28,15 64,46 92,66 22,16 43,28 66,42 54,33 116,27 179,27 39,0 71,16 107,20 3,5 13,8 18,11l0 0c22,35 36,74 54,112 20,42 79,105 30,149 -29,26 -166,4 -166,44l-2 0c0,43 4,94 48,118 51,28 39,-11 64,-36 49,-49 92,-104 167,-58 86,52 158,128 256,164 80,40 192,96 300,123l0 0 -3 84c45,54 35,125 35,192 0,55 -21,97 -29,147 -6,36 11,71 15,106 6,43 -21,123 26,141 79,30 106,51 156,118 -1,-3 -2,-3 -1,-6 0,43 -16,49 -38,88 -26,47 -2,42 7,84 4,19 -8,86 1,93 55,41 189,-101 244,-110 32,-5 64,17 86,36 48,42 112,-16 154,54 18,30 41,85 64,106 60,55 187,73 66,140 -81,44 -51,61 5,105 45,35 34,27 -2,67 -34,37 5,149 45,136 66,-20 121,-93 189,-25l0 0z"/>
        <path class="fil0 str0" d="M14999 3344l-25 221c-3,32 -30,257 -69,260 -184,12 -53,32 -140,64 -40,15 -107,-6 -129,73 -20,73 109,104 31,150 -73,42 -124,205 -74,284 34,54 65,109 106,157 3,3 23,57 24,61l0 0c5,-6 12,-10 22,-11 58,-7 138,0 138,-79 33,0 175,295 222,306 173,40 37,239 193,105 94,-81 118,-101 129,67 6,85 -233,94 -310,119 40,53 168,164 224,76 62,-98 189,-38 279,-103 11,-4 67,-32 69,-41 51,-13 36,-265 36,-308 0,-40 37,-56 43,-88 16,-4 23,-52 7,-55 -3,-20 -52,-27 -43,-50 9,-23 19,-38 31,-60 15,-28 50,-136 50,-141 58,-19 146,-6 212,-19l0 0c44,-50 76,-74 76,-143 0,-55 -67,-96 -67,-146 104,-26 280,-60 391,-60 0,-48 21,-91 21,-141 42,-14 142,-84 207,-107 122,-44 208,-169 336,-198l0 0 2 -62c0,-89 -295,-22 -319,-38 -16,-11 58,-270 79,-310 33,-62 49,-153 -52,-153 -228,0 -28,-138 -210,-138 -17,0 -63,-79 -112,-79 -30,0 -36,189 -36,222 0,113 -93,107 -176,107 -41,0 -15,62 -76,62 -66,0 -40,-63 -62,-74 -31,-16 -107,-13 -148,-29 -103,-40 -181,168 -279,91 -43,-34 -87,-141 -138,-86 -53,57 -166,113 -45,167 138,62 6,114 -83,122 -63,5 -186,84 -231,17 -29,22 -59,18 -86,1l-17 -13z"/>
        <path class="fil0 str0" d="M12988 5523c148,-315 344,-664 503,-518 186,171 157,-154 291,-57 83,60 -32,121 -48,184 111,0 206,-251 319,-353 93,-84 359,-100 465,-100 54,0 26,79 52,95 23,15 162,25 162,-17 0,-42 -33,-116 -10,-144l0 0c-1,-4 -21,-58 -24,-61 -41,-48 -72,-103 -106,-157 -50,-79 1,-242 74,-284 78,-45 -52,-76 -31,-150 22,-79 89,-58 129,-73 87,-32 -44,-52 140,-64 40,-3 66,-228 69,-260l25 -221 17 13c-30,-19 -54,-55 -64,-89l9 -82 0 0c-50,-7 -93,-56 -118,-130 -25,-74 -171,-97 -218,-43 -91,103 -242,179 -197,335 22,77 25,110 -70,113 -66,3 -80,-66 -150,-66 -50,16 -55,80 -112,105 -46,21 -93,-54 -122,-75 -68,-51 -186,27 -245,-70 -25,-41 -72,-128 -111,-79 -47,60 -206,0 -281,-4 -89,-4 55,159 102,175 -16,49 -243,80 -219,-73 9,-62 -5,-112 -10,-171 0,-2 -83,-38 -81,-7 10,144 -44,115 -145,69 -103,-46 -133,-27 -222,42 -41,87 -128,29 -174,-8 -36,-29 -36,-48 -74,-1 -47,58 -37,160 -77,218 -57,82 -144,-6 -216,-6 0,150 -33,78 -138,78 -92,0 -56,40 -13,79 73,65 143,130 143,235 0,41 -78,-14 -101,7 -16,14 12,87 -13,101 11,-7 -68,61 -83,82 -29,39 1,174 -2,226 -3,59 -15,111 -35,154l0 1c107,24 173,18 281,20 68,1 210,-33 272,-66 25,-13 73,-27 105,-43 44,-22 112,-58 159,-69 66,-17 136,-89 197,-130 47,-31 89,-67 132,-103 3,-3 63,-45 63,-31 0,54 -96,128 -64,193 37,74 50,97 32,185 -28,135 -64,110 -163,161 -68,35 -81,164 -89,230 -7,63 0,138 0,202 -12,62 -8,154 -11,221 -2,46 -63,85 -66,186 -1,43 87,68 117,79 7,3 42,12 46,14l0 0z"/>
        <path class="fil0 str0" d="M12226 6775c-2,10 -7,22 -8,32 -1,14 9,25 15,36 13,23 20,42 20,70l0 32c0,21 21,86 52,97 0,20 -72,18 -88,17 -26,-2 -41,-27 -72,-23 -2,6 -8,9 -8,18 -1,11 2,22 1,33 -1,13 -14,39 -30,39 -1,3 -26,28 -30,32l0 0c7,2 17,2 18,10 19,3 50,37 55,55 9,34 -7,43 -18,70 -15,40 -7,114 -7,159 0,80 131,56 178,45 78,-19 162,-109 242,-90 0,52 -14,84 -33,130 -12,29 -30,123 -46,140 -14,42 -53,85 -72,128 -15,33 -21,69 -36,100 -18,38 -49,77 -38,122 9,40 66,49 101,56l0 0c63,-6 74,-41 122,-75 44,-31 81,8 124,-2 38,-9 50,-56 91,-54 103,5 83,95 209,6 60,-43 85,-89 161,-58 112,45 113,52 201,-43 87,-93 132,-140 243,-204 36,-3 73,-9 107,-18 11,-3 74,-17 76,-7 17,0 14,85 14,103 0,62 66,87 114,100 29,8 76,-116 83,-146 5,0 5,-1 10,-2 1,3 52,54 60,60 22,16 -70,100 -29,129 141,98 138,-48 243,-48 85,0 193,37 222,-76 40,0 102,53 141,19 48,-43 79,-39 103,-51l0 0c13,-7 24,-19 35,-47 14,-38 124,-126 124,-160 -62,-15 -276,-120 -305,-174 -44,-85 165,14 174,-64 7,-57 -46,-139 -24,-184 19,-38 79,-52 45,-91 -144,-163 102,-216 102,-372 -59,0 -160,52 -219,7l-43 -38 -31 -69c20,2 122,23 122,-10 -14,-5 -25,-24 -33,-38 -9,-15 -20,-32 -5,-48 28,-53 50,-58 50,-117 -3,-1 -4,-2 -5,-5 -25,0 -60,-2 -81,-14 -39,-22 30,-86 43,-122 13,-38 -7,-83 33,-112 43,-31 184,2 241,2 68,0 219,-16 272,19 34,25 94,36 129,57 30,19 37,53 60,79 39,44 112,93 169,93 1,4 7,8 12,10 0,31 23,116 64,119 40,3 124,-77 126,-74 0,87 -38,134 72,134 62,0 93,-84 126,-69 32,14 77,51 112,33 38,-19 83,24 131,14 3,-13 52,-110 55,-103 10,0 30,60 33,72 13,43 43,68 83,72l0 0c10,-26 22,-79 60,-79 34,-103 162,-123 162,-248 0,-71 100,-6 124,-55 21,-41 42,-53 79,-72 35,-17 -3,-43 -14,-60 -25,-37 -8,-89 -29,-119 -9,-13 -42,-21 -60,-29 -33,-13 -36,-19 -36,-48 43,-11 67,-30 122,-33 26,-2 56,-8 57,-29l0 0c0,-7 -3,-17 -12,-28 -27,-45 -108,-101 -155,-119 -32,-12 -17,-62 -14,-88 3,-25 10,-43 10,-69 -26,-9 -59,-15 -86,-21 -3,-12 -19,-25 -21,-33 -46,-11 -89,-7 -133,19 -45,26 -35,-83 -57,-91 0,-30 -36,-60 -62,-67 0,-34 21,-70 41,-100 20,-20 42,-95 69,-95 37,0 105,-17 136,5 92,64 158,44 229,-31 50,-53 -3,-95 -60,-141 -110,-91 51,-86 126,-86 -7,-27 -134,-119 -164,-143 -37,-30 -61,-119 -143,-105 -40,7 -62,86 -122,26 -70,-70 40,-100 14,-158 -36,-80 -193,-73 -260,-43 -42,19 -112,-34 -160,-43l0 0c-66,13 -154,0 -212,19 0,5 -35,113 -50,141 -12,22 -22,37 -31,60 -9,24 40,30 43,50 15,3 9,51 -7,55 -6,32 -43,49 -43,88 0,43 15,295 -36,308 -2,9 -58,36 -69,41 -90,65 -217,5 -279,103 -56,88 -184,-23 -224,-76 77,-26 315,-34 310,-119 -11,-168 -34,-148 -129,-67 -156,134 -20,-65 -193,-105 -47,-11 -189,-306 -222,-306 0,79 -81,72 -138,79 -10,1 -17,5 -22,11l0 0c-22,28 10,102 10,144 0,42 -139,31 -162,17 -26,-16 2,-95 -52,-95 -106,0 -371,16 -465,100 -113,102 -208,353 -319,353 16,-62 131,-124 48,-184 -134,-97 -105,228 -291,57 -159,-146 -355,203 -503,518l0 0c-90,191 -163,370 -199,418l-80 210c-22,58 -92,104 -126,148 -92,117 -150,256 -262,362 -37,35 -55,84 -95,115l0 0z"/>
        <path class="fil0 str0" d="M5537 15292c-1,-49 -6,-110 4,-158 15,-73 15,-137 -48,-179 -30,-20 -97,-79 -114,-113 -28,-54 4,-81 4,-132 37,-63 89,-171 92,-245 3,-67 -4,-129 5,-196 4,-33 7,-100 39,-112 110,-41 398,52 398,-155 42,-64 -48,-134 -89,-166 -131,-101 -140,-253 -94,-409 20,-70 180,-158 123,-254 4,-48 -48,-89 -67,-131 -18,-40 -28,-123 -67,-146 -55,-32 -159,-3 -223,-17 -56,-12 -81,19 -133,19 -10,-40 23,-104 46,-135 14,-17 62,-155 19,-155 -53,-55 -132,-6 -132,-116 0,-41 33,-80 38,-122l14 -106c7,-50 1,-83 27,-127 22,-36 51,-76 77,-109 185,-128 -94,-303 -193,-380 -182,-141 -10,-420 30,-588 68,0 125,1 186,-35 26,-15 32,-44 52,-64 16,-16 39,-25 56,-44 32,-37 33,-92 48,-137 14,-42 48,-63 80,-88l0 0c27,45 54,97 63,124 65,0 219,-103 300,-103 17,52 11,105 2,155 -36,7 -72,62 -112,72 -29,118 177,-63 200,-181 33,-8 30,107 50,117 26,13 76,-211 112,-117 18,48 -32,172 52,193 27,108 70,281 210,129 81,-88 6,-70 12,-167 1,-17 148,18 172,24 0,129 -94,234 -55,351 68,46 112,64 126,147 9,53 40,92 -2,140 -52,59 -122,74 -117,171 3,62 218,-16 250,-16 151,-3 283,80 436,85 88,3 162,-16 248,-21 57,-4 206,-3 257,20 23,16 58,25 77,44 42,42 106,101 163,124 74,30 159,46 226,82l58 13 0 0c-9,9 10,158 10,179 0,70 -77,87 -117,135 -21,122 64,46 64,116 0,135 -93,255 -93,394 0,126 120,51 194,97 34,21 108,67 114,109 24,144 165,-131 188,25 5,33 -17,202 18,202 39,118 -59,32 -172,-30 -34,-19 -99,-62 -139,-42 -53,26 -25,78 -25,123 0,7 -3,49 1,51 18,10 68,-31 86,-37 45,-16 39,158 41,190 1,32 1,70 -2,101 -3,24 -17,42 -17,65l0 0c-35,-12 -32,-41 -83,-41 -37,0 -92,-1 -125,13 -67,30 -78,126 -149,166 -39,22 -113,53 -126,-4 -21,-91 18,-198 0,-285 -6,-29 -10,-122 -67,-75 -30,25 -85,87 -107,118 -14,14 -57,180 -117,107 -82,-100 -74,19 -148,19 -32,0 -90,-31 -117,-48 -25,-15 -78,107 -86,141 -18,4 -45,37 -60,41 -9,36 -7,78 -7,115 -174,44 -103,-78 -191,-100 -35,-138 -124,21 -150,60 -30,44 -167,-17 -207,-17l-45 93c-52,69 -31,100 -148,100 0,69 -38,113 -38,193 0,47 171,100 210,127 -50,67 -96,64 -169,91 -74,27 70,191 33,191 -15,58 -122,8 -143,-10 -39,-34 -56,-128 -93,-38 -12,30 -41,59 -31,93 11,41 -88,449 69,339 34,-24 -9,189 45,203l0 5c49,12 38,146 -43,146 -94,0 -67,138 -129,138 -8,-34 -38,-34 -61,-7l-30 44 0 0c-81,0 -142,-37 -142,-125 0,-95 -83,-129 -83,-221 13,-90 -34,-139 -114,-161 -87,-24 -71,-46 -163,-8 -44,18 -113,57 -150,87 -29,23 -61,37 -95,48l-1 0z"/>
        <path class="fil0 str0" d="M9058 12043c-4,3 10,29 6,43 -12,48 -86,78 -122,113 -29,29 -85,89 -130,60 -40,-26 -19,-73 -76,-82 -75,-12 -72,-55 -128,-86 -15,-8 -138,-13 -162,-13l0 0c-9,9 10,158 10,179 0,70 -77,87 -117,135 -21,122 64,46 64,116 0,135 -93,255 -93,394 0,126 120,51 194,97 34,21 108,67 114,109 24,144 165,-131 188,25 5,33 -17,202 18,202 39,118 -59,32 -172,-30 -34,-19 -99,-62 -139,-42 -53,26 -25,78 -25,123 0,7 -3,49 1,51 18,10 68,-31 86,-37 45,-16 39,158 41,190 1,32 1,70 -2,101 -3,24 -17,42 -17,65l0 0c2,37 -5,174 16,197 98,109 314,-168 454,-38 43,40 97,40 155,32 18,-2 -170,-214 14,-160 165,49 195,-280 113,-321 -24,-12 -158,65 -204,69 -65,6 -79,-53 -79,-127l1 -1c53,0 137,-23 181,2 66,38 100,-18 129,-75 84,0 381,111 423,-16 6,-20 3,-99 39,-86 105,38 91,-138 257,-97 1,2 0,2 2,2 28,113 -48,134 -100,212 -45,68 -63,121 -63,204 0,67 1,111 -21,174 -19,54 76,145 91,210 12,54 -116,103 -141,172 19,38 34,67 43,109 6,30 65,14 87,11 39,-6 102,-25 129,16 10,15 16,22 20,39 5,23 -8,43 -8,64l0 0c61,-6 196,9 241,-33 45,-41 72,-210 82,-272l30 -172c8,-47 4,-112 20,-155 5,-18 37,-282 66,-202 19,53 -63,163 21,165l148 2c57,1 24,-54 57,-88 98,-102 263,153 263,229 32,-11 77,-67 112,-69 40,-2 82,37 125,20 36,-14 -21,-51 -2,-84 0,0 63,26 80,26 67,0 271,-123 325,-169 24,-20 2,-56 -13,-76 -49,-65 141,-110 105,-196 -7,-9 -49,-53 -49,-62 91,0 24,-80 10,-104 -53,-92 88,-190 -83,-196 -124,-4 -238,-15 -352,-54 0,-56 29,-149 -23,-185 -106,-73 -223,-139 -355,-128 -76,6 -152,35 -229,23 -75,-12 -140,-43 -218,-43 -59,17 -120,51 -182,51 -66,0 -149,-52 -182,-107 -16,-27 -32,-46 -39,-79 -6,-29 -19,-121 -31,-148l0 0 -93 -109c-141,-165 -278,-45 -423,-161 -74,-37 -188,-55 -260,-2 -66,49 -153,70 -235,70l6 0z"/>
        <path class="fil0 str0" d="M6713 18792l174 -197 0 0c61,-123 204,-207 204,-351 0,-30 93,-98 118,-135 51,-75 56,-161 98,-234 52,-56 123,-236 195,-265 23,-29 76,-126 72,-165 -6,-49 -64,-86 -64,-134 52,-13 122,-69 126,-127 0,-5 3,-45 5,-45 0,-107 129,-48 129,-134 0,-44 -21,-189 36,-201 11,-42 55,-62 33,-124 -2,-6 -15,-33 -7,-36 0,-21 44,-49 55,-53 0,-17 3,-43 7,-62 20,0 38,-17 48,-33l0 0 -17 -95c0,-119 -138,-161 -126,-282 49,-37 74,-43 131,-29 20,-61 68,-121 38,-208 -14,-41 -76,-218 -105,-196 -50,38 -21,89 -98,115 -68,23 -204,22 -260,-17 -54,-37 -208,200 -310,172 -88,-24 -75,-2 -150,-2 0,18 25,76 45,76 -10,31 -207,104 -250,131 -88,55 -236,81 -343,81 0,-23 -12,-62 -12,-84 -67,0 -110,64 -172,64 -17,0 -135,-35 -155,-48l4 -66 0 0c-3,19 -70,8 -86,11 -32,5 -92,7 -117,29 -78,67 -32,158 20,220 0,42 76,95 95,138 21,47 8,85 8,134 0,123 192,110 80,242 -52,62 -120,123 -157,195 -42,79 12,230 -10,322 -12,58 79,170 44,204 -72,72 -42,123 -80,204 -21,45 -72,105 -76,155 -6,79 -20,141 -77,199 -79,79 -36,151 -36,245 2,1 0,0 2,1l99 -18c43,-8 81,39 111,64 81,54 146,93 245,68 31,-8 166,-96 172,-127 52,-13 48,135 77,135 4,-18 39,-39 45,-62 2,-9 2,-56 10,-56 9,29 31,99 31,129 0,56 -32,87 0,142 29,50 100,76 151,106l0 0z"/>
        <path class="fil0 str0" d="M10675 15228c36,8 69,32 77,68 7,28 2,62 2,91 0,36 107,2 122,60 5,19 15,44 17,62 3,26 27,56 27,79l-1 30c107,15 70,14 85,104 7,41 29,146 0,180 -51,60 -36,56 -36,131 0,132 171,97 261,153 76,47 107,24 67,137 -14,40 -17,98 -62,111 -35,10 -167,8 -130,68 43,70 28,86 117,115 43,107 -13,172 -77,248 -119,141 -119,19 -260,55 0,31 -29,73 -37,100l-164 -5c-42,129 4,220 -139,288 -51,24 -111,56 -169,64 -29,5 -31,-95 -37,-121 -49,0 -53,21 -122,4 -36,-9 -81,18 -110,36 -54,34 -107,-15 -175,32 -48,33 -99,57 -157,72l37 183c30,7 200,-104 269,-109 10,-1 69,56 64,64l-49 82c-3,32 -21,84 -57,84 -8,0 -21,-10 -29,-14 -25,-14 -44,-24 -66,-42 -19,-16 -60,-51 -70,-11 -3,14 -5,28 -8,42 -4,15 2,39 -4,53l0 0c-5,10 -23,26 -25,31 -42,0 -68,-16 -80,-60 -13,-50 -101,-6 -101,-5 38,19 108,111 30,124 -55,9 -81,-6 -81,54 0,29 -43,64 -52,95 -3,11 68,125 66,177 -4,88 -62,65 -108,27 -32,-26 -54,-25 -76,14 -28,49 -132,93 -180,128 -63,45 -113,29 -175,-26 -42,-17 -81,-11 -117,8 -15,8 -32,13 -48,20 -21,10 -40,22 -61,27 -74,6 -59,27 -118,-17 -33,-24 -65,-16 -101,2 -83,42 -147,-32 -238,-14 -71,14 -91,6 -95,-61 -3,-47 -16,-130 -70,-142 -45,-11 -91,-29 -130,-54 -6,-4 -88,5 -106,5l-55 79c-8,50 -115,-9 -129,-44 -22,-56 -7,-108 -81,-93 -62,13 -175,161 -175,232 0,45 -124,44 -162,44 -85,0 -150,163 -194,226 -125,174 -133,99 -310,94l0 0c61,-123 204,-207 204,-351 0,-30 93,-98 118,-135 51,-75 56,-161 98,-234 52,-56 123,-236 195,-265 23,-29 76,-126 72,-165 -6,-49 -64,-86 -64,-134 52,-13 122,-69 126,-127 0,-5 3,-45 5,-45 0,-107 129,-48 129,-134 0,-44 -21,-189 36,-201 11,-42 55,-62 33,-124 -2,-6 -15,-33 -7,-36 0,-21 44,-49 55,-53 0,-17 3,-43 7,-62 20,0 38,-17 48,-33l0 0c113,82 298,-79 450,-79 31,-123 2,-98 157,-98 80,0 158,-12 226,-29 0,-122 100,-117 195,-117l64 -196c10,-30 -4,-183 26,-191 10,-41 257,-65 322,-33 39,19 374,69 374,69 67,17 112,260 112,322 105,15 421,100 455,-74 0,-34 -14,-206 30,-215 1,-9 60,-56 25,-56 -39,0 -77,29 -114,29 0,-10 23,-85 30,-87 0,-2 79,-44 91,-53 33,-25 70,-53 99,-82 44,-44 92,-88 122,-144 26,-49 23,-100 50,-148 22,-39 39,-37 20,-87l0 0z"/>
        <path class="fil0 str0" d="M8598 13755c2,37 -5,174 16,197 98,109 314,-168 454,-38 43,40 97,40 155,32 18,-2 -170,-214 14,-160 165,49 195,-280 113,-321 -24,-12 -158,65 -204,69 -65,6 -79,-53 -79,-127l1 -1c53,0 137,-23 181,2 66,38 100,-18 129,-75 84,0 381,111 423,-16 6,-20 3,-99 39,-86 105,38 91,-138 257,-97 1,2 0,2 2,2 28,113 -48,134 -100,212 -45,68 -63,121 -63,204 0,67 1,111 -21,174 -19,54 76,145 91,210 12,54 -116,103 -141,172 19,38 34,67 43,109 6,30 65,14 87,11 39,-6 102,-25 129,16 10,15 16,22 20,39 5,23 -8,43 -8,64l0 0c-26,11 -139,68 -68,100 72,32 0,157 102,186 51,15 102,2 153,12 54,11 107,43 157,66 43,-6 165,64 136,122 -49,98 -176,137 -150,266 23,116 134,79 209,127l0 0c19,50 2,48 -20,87 -27,48 -24,99 -50,148 -29,56 -78,100 -122,144 -29,29 -66,58 -99,82 -12,9 -90,51 -91,53 -7,2 -30,77 -30,87 38,0 76,-29 114,-29 35,0 -24,47 -25,56 -44,9 -30,181 -30,215 -35,174 -350,89 -455,74 0,-62 -45,-305 -112,-322 0,-1 -335,-50 -374,-69 -65,-32 -311,-8 -322,33 -30,8 -16,161 -26,191l-64 196c-96,0 -195,-5 -195,117 -68,17 -146,29 -226,29 -155,0 -126,-26 -157,98 -152,0 -337,160 -450,79l0 0 -17 -95c0,-119 -138,-161 -126,-282 49,-37 74,-43 131,-29 20,-61 68,-121 38,-208 -14,-41 -76,-218 -105,-196 -50,38 -21,89 -98,115 -68,23 -204,22 -260,-17 -54,-37 -208,200 -310,172 -88,-24 -75,-2 -150,-2 0,18 25,76 45,76 -10,31 -207,104 -250,131 -88,55 -236,81 -343,81 0,-23 -12,-62 -12,-84 -67,0 -110,64 -172,64 -17,0 -135,-35 -155,-48l4 -66 0 0c29,-5 58,-203 66,-234 9,-41 9,-80 25,-118 5,-12 46,-75 35,-87l0 0 30 -44c22,-27 52,-27 61,7 62,0 35,-138 129,-138 81,0 92,-133 43,-146l0 -5c-55,-14 -11,-227 -45,-203 -158,110 -58,-298 -69,-339 -10,-34 19,-63 31,-93 37,-89 54,5 93,38 21,18 128,68 143,10 36,0 -107,-164 -33,-191 73,-27 119,-24 169,-91 -39,-26 -210,-79 -210,-127 0,-81 38,-124 38,-193 117,0 96,-31 148,-100l45 -93c40,0 178,60 207,17 26,-38 116,-198 150,-60 88,22 16,144 191,100 0,-36 -2,-78 7,-115 15,-4 42,-36 60,-41 8,-33 61,-156 86,-141 27,17 85,48 117,48 74,0 66,-119 148,-19 60,73 102,-93 117,-107 22,-31 78,-93 107,-118 57,-47 61,46 67,75 18,88 -21,194 0,285 13,57 88,25 126,4 71,-40 82,-136 149,-166 33,-15 88,-13 125,-13 51,0 48,30 83,41l0 0z"/>
        <path class="fil0 str0" d="M5066 10610c-73,0 -66,53 -117,79 -80,40 -123,19 -186,19 -2,-14 -39,-84 -48,-84 -9,0 -38,112 -93,74 -39,-27 -86,-13 -86,38 -61,20 23,176 -17,239 -29,46 -101,31 -150,31 -30,0 -56,-4 -86,-2 -34,2 -40,27 -57,31 -21,84 -167,152 -237,182l0 0c-4,-4 -8,-7 -12,-11 -39,-32 -20,-20 -60,12 -62,50 -132,86 -197,143 -117,105 -238,-2 -374,39 -52,16 -138,59 -188,21 -47,-35 -90,-70 -154,-70 -53,-5 -118,9 -172,10 -1,0 -1,0 -1,1 6,13 50,21 50,46 0,41 -133,32 -133,-17 0,-48 45,-84 70,-123 24,-36 46,-87 89,-41 48,51 156,-18 169,-74l30 -125c14,-58 78,-14 93,-60 8,-25 -12,-53 2,-75 25,-38 40,-51 25,-94 -7,-19 -35,-78 -35,-94 -102,-116 -203,-125 -343,-118 -107,5 -147,-141 -185,-216 -42,-8 -84,16 -129,-5 -75,-35 -156,-26 -228,-85 -57,-47 -110,-9 -164,-67 -71,-75 -203,43 -197,-111 4,-98 61,-214 48,-306 -25,-3 -44,6 -70,12 -56,14 -29,-19 -57,-48 22,-36 98,-122 145,-95 31,17 35,79 67,88 92,27 169,-113 236,-84 38,17 58,40 104,21 17,-7 78,-39 81,-53 5,-1 7,-6 13,-7 23,-94 153,-128 232,-146 8,-4 19,-21 24,-30 8,-14 11,-27 17,-41 11,-29 18,-59 24,-90l0 0c10,-12 36,-44 39,-58 37,-9 84,-42 116,-66 19,-14 86,-97 101,-99 3,-21 60,31 66,38 33,42 74,72 112,110 37,37 47,81 57,131 11,129 41,154 172,175 92,15 52,69 163,49 269,-49 612,-57 852,80l0 0 86 73c56,35 104,7 164,7 70,0 16,42 86,19 8,-53 104,-31 133,-24 2,7 10,11 10,19 30,15 34,58 79,72 71,22 133,31 133,117 0,113 -161,151 -57,255 32,32 64,99 64,146 0,75 -95,43 -143,55 0,30 21,60 21,88 12,4 0,80 0,93l0 0z"/>
        <path class="fil0 str0" d="M9058 12043c-4,3 10,29 6,43 -12,48 -86,78 -122,113 -29,29 -85,89 -130,60 -40,-26 -19,-73 -76,-82 -75,-12 -72,-55 -128,-86 -15,-8 -138,-13 -162,-13l0 0 -58 -13c-68,-36 -152,-52 -226,-82 -57,-23 -121,-82 -163,-124 -19,-19 -55,-28 -77,-44 -52,-23 -200,-24 -257,-20 -86,6 -160,24 -248,21 -153,-5 -285,-88 -436,-85 -32,0 -247,77 -250,16 -5,-97 64,-112 117,-171 43,-48 12,-87 2,-140 -14,-83 -58,-100 -126,-147 -39,-117 55,-222 55,-351 -24,-6 -170,-41 -172,-24 -6,97 70,79 -12,167 -140,152 -183,-21 -210,-129 -85,-21 -34,-145 -52,-193 -36,-94 -86,130 -112,117 -20,-10 -17,-125 -50,-117 -24,118 -229,299 -200,181 40,-10 76,-64 112,-72 8,-50 15,-103 -2,-155 -82,0 -235,103 -300,103 -9,-27 -35,-79 -63,-124l0 0c-24,-40 -48,-73 -61,-79 -65,-29 -80,-117 -129,-117 -105,0 -329,83 -353,179 -50,12 -68,-38 -107,-64l0 0c0,-13 12,-89 0,-93 0,-28 -21,-58 -21,-88 48,-12 143,20 143,-55 0,-47 -33,-114 -64,-146 -104,-104 57,-143 57,-255 0,-86 -62,-95 -133,-117 -44,-14 -49,-57 -79,-72 0,-9 -8,-12 -10,-19 -30,-7 -126,-29 -133,24 -70,23 -16,-19 -86,-19 -61,0 -108,28 -164,-7l-86 -73 0 0c0,-85 -24,-164 32,-234 35,-43 54,-122 52,-177l-4 -95c-1,-34 33,-71 33,-92 83,-86 102,-162 158,-264 37,-68 224,-74 243,2 23,0 36,-84 66,-105 60,-42 213,-53 260,14 11,15 15,72 27,74 81,12 77,132 167,189 58,37 158,121 230,97 0,-84 -93,-142 -93,-222 153,0 266,-52 418,-64 65,-6 73,0 135,-37 179,-108 305,196 399,156 92,-39 111,-130 211,-68l100 62c19,12 43,55 54,58 0,-41 96,-183 120,-232 50,-100 30,-240 30,-351 0,-95 31,-31 91,-2 77,36 46,5 61,-55 0,-39 -17,-159 55,-159 72,0 53,58 147,14 105,-49 252,23 362,-19 39,-15 62,-44 105,-50 37,-6 71,5 95,-6l0 0c133,87 -105,370 -105,489 4,1 -76,141 -64,189 37,0 79,-51 112,-76 12,-10 94,26 117,26 22,65 12,176 14,248 2,77 -7,138 -83,172 -59,26 27,165 21,239 -4,51 -4,69 43,95 105,58 160,-72 241,-143 47,-42 22,55 31,91 91,23 -5,295 -33,332 -30,64 -74,93 -74,172 0,38 5,90 -12,124 -55,111 -150,166 -150,296l0 0c-18,35 -14,57 -14,93 7,2 180,266 222,301 137,116 176,376 331,418 73,19 224,53 224,150 0,73 -53,142 -36,210 48,16 76,143 76,174 2,33 -10,67 -10,101 0,47 6,96 27,135 8,15 15,33 27,43 19,15 39,13 58,23l45 16 6 0z"/>
        <path class="fil0 str0" d="M5537 15292c-1,-49 -6,-110 4,-158 15,-73 15,-137 -48,-179 -30,-20 -97,-79 -114,-113 -28,-54 4,-81 4,-132 37,-63 89,-171 92,-245 3,-67 -4,-129 5,-196 4,-33 7,-100 39,-112 110,-41 398,52 398,-155 42,-64 -48,-134 -89,-166 -131,-101 -140,-253 -94,-409 20,-70 180,-158 123,-254 4,-48 -48,-89 -67,-131 -18,-40 -28,-123 -67,-146 -55,-32 -159,-3 -223,-17 -56,-12 -81,19 -133,19 -10,-40 23,-104 46,-135 14,-17 62,-155 19,-155 -53,-55 -132,-6 -132,-116 0,-41 33,-80 38,-122l14 -106c7,-50 1,-83 27,-127 22,-36 51,-76 77,-109 185,-128 -94,-303 -193,-380 -182,-141 -10,-420 30,-588 68,0 125,1 186,-35 26,-15 32,-44 52,-64 16,-16 39,-25 56,-44 32,-37 33,-92 48,-137 14,-42 48,-63 80,-88l0 0c-24,-40 -48,-73 -61,-79 -65,-29 -80,-117 -129,-117 -105,0 -329,83 -353,179 -50,12 -68,-38 -107,-64l0 0c-73,0 -66,53 -117,79 -80,40 -123,19 -186,19 -2,-14 -39,-84 -48,-84 -9,0 -38,112 -93,74 -39,-27 -86,-13 -86,38 -61,20 23,176 -17,239 -29,46 -101,31 -150,31 -30,0 -56,-4 -86,-2 -34,2 -40,27 -57,31 -21,84 -167,152 -237,182l0 0c59,56 112,159 25,213 -37,23 -124,-2 -135,-47 -28,0 -53,56 -75,76 -32,29 16,71 25,98 63,63 225,76 222,172 -4,92 -68,190 -4,271 26,33 187,78 187,92 -93,0 -223,16 -324,21 -114,6 -173,188 -203,283 -28,93 -74,146 -11,229 246,154 754,80 809,437 16,101 90,62 179,62 0,75 -27,160 -30,239 -4,111 -56,126 -98,210 -63,85 110,147 8,248 -92,92 -196,-14 -241,123 -26,78 -3,94 74,132 64,32 -16,175 -26,229 -10,54 21,108 6,161 -15,56 -58,108 -66,166 -8,3 17,104 1,130 -28,46 -9,84 30,115 56,45 108,135 108,205 -77,19 -133,285 -79,302 23,7 63,44 83,30 43,-30 -2,-92 73,-79 115,20 43,69 43,141 0,60 115,159 178,174 70,17 102,7 170,43 85,45 95,24 158,-32l150 -134c30,-27 27,-58 48,-87 17,-17 15,-55 33,-69 24,-20 50,-32 80,-42 48,-17 99,-24 147,-39l-1 0z"/>
        <path class="fil0 str0" d="M16298 15107l-9 -190c-14,-71 62,-11 107,-26 26,-9 168,-68 167,-86 -4,-70 -39,-35 12,-86 30,-30 -25,-83 -31,-107 78,0 161,-155 74,-184 -69,-23 -195,-12 -195,-110 131,0 7,-55 7,-110 0,-45 -35,-54 -7,-86 26,-30 7,-52 7,-76 -76,0 -81,-40 -81,-103 83,0 126,-17 126,-112 0,-35 -90,-109 -45,-117 193,-32 82,-270 193,-353 36,-45 60,-64 60,-117 0,-38 -24,-58 -57,-38 -35,21 -107,-12 -129,26 -14,25 -84,55 -114,55 17,-69 89,-102 0,-155 -73,-43 -20,-60 2,-110 15,-33 -3,-67 24,-95 16,-17 52,-34 57,-55 3,-15 8,-104 45,-81 35,22 118,-49 152,-68l0 0c21,99 75,13 111,91 25,54 18,112 80,81 23,-12 79,-52 82,-11 10,129 179,271 316,271l0 0c-10,146 -18,291 -19,429 26,516 -15,1109 107,1599 116,168 -12,343 -195,357 -140,11 43,-250 91,-297 -137,0 -197,-51 -327,-66l-611 -70 0 0z"/>
        <path class="fil0 str0" d="M16709 12410c21,63 134,57 44,115 -38,25 -84,59 -118,88 -7,6 24,86 27,105 0,1 0,2 1,4l0 0c-34,19 -117,90 -152,68 -37,-23 -42,66 -45,81 -5,21 -42,38 -57,55 -26,29 -9,63 -24,95 -22,50 -75,67 -2,110 89,53 17,86 0,155 31,0 100,-30 114,-55 22,-39 94,-6 129,-26 33,-19 57,0 57,38 0,53 -24,72 -60,117 -111,84 0,321 -193,353 -45,8 45,82 45,117 0,96 -43,112 -126,112 0,62 5,103 81,103 0,24 19,47 -7,76 -28,32 7,41 7,86 0,55 124,110 -7,110 0,98 126,87 195,110 87,29 4,184 -74,184 6,25 61,77 31,107 -50,50 -16,16 -12,86 1,18 -141,77 -167,86 -45,16 -121,-45 -107,26l9 190 0 0 -41 -5c-81,-9 -128,58 -206,20 -80,-39 -173,51 -251,86 -92,9 -79,-93 -158,-82l0 0 -48 -110c0,-31 -61,-164 -9,-144 113,44 5,-239 5,-258 0,-120 21,-79 -81,-153 -22,-16 22,-147 -26,-134 -145,40 -126,-54 -238,-62 -42,-3 -229,-111 -136,-134 0,-91 -3,-141 -26,-236 -44,0 -109,-29 -145,-29l0 -10c80,-20 40,-153 21,-201 -30,-78 -243,-119 -162,-220 53,-65 67,-275 67,-368 -9,-51 -57,-146 -10,-167 30,-13 52,-59 83,-76 68,-38 -114,-160 -36,-160 54,0 29,-14 64,26 81,90 248,175 365,201 39,8 160,20 160,62 0,45 5,120 36,150 0,-124 262,-160 219,-279 -11,-31 -16,-72 -24,-105 -12,-48 60,-33 60,-84 0,-32 -23,-115 -19,-129l0 0c22,3 41,4 57,17 11,9 9,29 26,29 2,6 93,-19 114,-19 47,0 71,6 98,-38 16,-27 96,15 100,33 76,0 63,-78 100,-115 80,-81 133,-142 255,-148 38,-2 88,4 118,30 15,13 20,24 30,39 8,12 38,67 50,74l0 0z"/>
        <path class="fil0 str0" d="M15001 20015c-28,-22 -52,-102 -67,-136 -29,-66 142,-100 72,-193 -28,-37 -105,-39 -144,-20 -66,31 -99,116 -169,136 -36,10 -92,13 -128,2 -70,-22 -61,62 -105,62 0,9 37,43 45,48 20,18 24,28 52,33 37,7 79,2 117,7 21,3 35,7 54,14 21,8 61,16 76,31l209 86c94,39 161,122 253,174 35,21 80,47 111,76 26,24 60,65 93,74 2,1 2,1 0,-1 -30,-31 -39,-66 -76,-96 -54,-44 -124,-68 -180,-121 -51,-48 -134,-126 -197,-158l-17 -19zm-4121 741l-61 -71c3,-198 -316,-111 -316,-322 10,-3 49,-61 57,-74 15,-25 17,-67 17,-98 -16,-4 -31,0 -48,-2 -74,-11 -72,-112 -72,-169l36 -146 0 0c74,7 143,-1 212,-14 48,-9 48,-62 88,-62 46,0 143,-37 98,-91 -32,-38 -22,-151 -86,-160 -4,-26 -118,-82 -148,-93 -97,-38 -185,46 -274,-55 -67,-76 -165,-329 33,-275 95,26 140,2 215,-57 35,-27 56,-5 93,5 52,13 56,-28 98,-38 -5,-21 -65,-46 -79,-74 -7,-13 22,-142 33,-153 16,-16 139,46 174,-7 50,-5 48,-15 48,-56 0,-54 -13,-89 4,-143 17,-55 39,-91 88,-125l39 -41 0 0c68,-6 170,-40 234,-8 114,57 211,143 332,190 126,48 208,71 303,166 23,15 68,46 76,70 123,-41 109,-92 164,-186 16,-27 95,-49 74,-91 -16,-31 -57,-67 -57,-105 52,0 113,-22 161,6 143,82 421,59 467,-124 -56,0 -130,-6 -145,-70 -3,-14 27,-57 33,-72 18,-44 -2,-61 -2,-105 -52,-167 -179,-100 -305,-100 -52,0 -32,-67 -48,-111 -26,-75 128,-154 30,-209 -130,-72 4,-101 8,-180 4,-69 -8,-135 -72,-171 -80,-45 51,-128 94,-136 20,-4 160,47 180,60 49,31 42,12 105,14 34,1 60,23 85,45 29,26 -11,35 -29,49 -23,18 -10,30 -12,55 -6,83 57,2 80,43 48,86 -23,76 -73,106 -48,30 -16,25 24,48 40,23 67,42 113,54 0,50 -60,71 -60,141 0,31 -60,41 -60,70 0,14 17,42 17,67 2,1 2,0 2,2 59,0 143,-113 205,-136 46,6 125,50 119,-26 -4,-54 -30,-63 -17,-129 22,-110 -57,-144 -57,-253 0,-58 55,-102 88,-143 34,-42 71,-128 122,-153 94,-47 172,18 238,-91l0 0c66,22 133,-7 188,43 48,43 69,110 69,172 0,50 2,72 48,91 62,25 126,-26 181,-31l63 55 0 -2c-3,15 -8,30 -19,46 -29,43 -72,55 -106,90 -35,35 -59,114 -98,161 -21,25 -25,66 -56,82 -37,19 -61,38 -92,68l-179 228c-101,129 -63,279 -194,396 -115,102 -70,263 -112,400 -25,59 -111,128 -93,183 98,296 402,531 628,729 79,42 172,100 262,113 81,13 131,-32 203,-18 43,9 102,25 145,25 -35,26 -182,22 -230,33 -114,27 -196,71 -319,66 -189,-8 -443,-150 -607,1 -60,55 -36,36 -112,27 -143,-52 -534,139 -684,189 -65,22 -56,102 -108,90 -82,-19 -197,-43 -256,43 -32,47 35,77 44,105 -80,20 -165,2 -240,54 -114,79 -134,12 -255,37 -61,-26 -313,27 -392,37 -134,17 -244,132 -349,222l0 0z"/>
        <path class="fil0 str0" d="M10675 15228c64,-46 143,-142 231,-112 31,10 55,33 75,56 32,36 85,44 133,16 20,-6 43,-17 60,-30 19,-16 20,-59 24,-82 8,-48 -5,-117 66,-117 36,0 88,27 111,55l21 44 0 0c31,57 -73,126 27,159 57,19 96,17 110,84 12,58 -22,212 -62,252 -59,59 -240,-78 -240,69 21,40 94,61 138,61 0,38 -32,67 -42,104 -31,121 151,147 189,32 38,-116 49,-157 176,-172 81,-10 57,-44 73,-113 16,-68 41,-5 80,5 75,18 154,5 189,76 25,51 53,137 85,184 -7,28 41,77 41,122 0,31 -6,93 2,124 38,138 178,-57 181,-57 62,-5 128,69 191,69 70,0 136,-165 136,-224 265,0 49,449 450,248 23,-11 123,143 164,165 138,71 152,-154 241,14 36,68 117,56 17,115 -75,44 -98,17 -131,-50 -13,-27 -51,36 -43,60 9,26 -16,138 -33,155 -36,36 -61,0 -50,64 17,103 113,138 198,158 32,7 43,111 93,26 71,-120 172,-79 172,62 -5,0 -3,0 -7,2 -16,-24 -133,-27 -148,17 -21,64 0,92 -45,153l0 0c-67,109 -145,44 -238,91 -50,25 -87,110 -122,153 -34,41 -88,85 -88,143 0,109 80,143 57,253 -13,66 13,75 17,129 6,76 -73,32 -119,26 -62,23 -146,136 -205,136 -1,-2 0,-2 -2,-2 0,-25 -17,-53 -17,-67 0,-30 60,-39 60,-70 0,-70 60,-91 60,-141 -46,-11 -74,-31 -113,-54 -40,-23 -72,-18 -24,-48 49,-31 120,-21 73,-106 -23,-41 -86,40 -80,-43 2,-25 -11,-37 12,-55 17,-14 57,-23 29,-49 -25,-22 -51,-44 -85,-45 -63,-3 -56,16 -105,-14 -20,-13 -160,-64 -180,-60 -43,8 -174,91 -94,136 64,36 76,102 72,171 -5,79 -138,108 -8,180 98,55 -56,134 -30,209 16,44 -5,111 48,111 126,0 253,-67 305,100 0,44 21,61 2,105 -6,15 -37,57 -33,72 15,65 89,70 145,70 -46,183 -324,206 -467,124 -48,-28 -109,-6 -161,-6 0,38 42,74 57,105 21,41 -58,63 -74,91 -55,94 -42,145 -164,186 -8,-24 -54,-56 -76,-70 -95,-95 -176,-118 -303,-166 -122,-47 -218,-133 -332,-190 -64,-32 -166,3 -234,8l0 0c-17,-21 -39,-52 -48,-76 -9,-25 -63,-41 -81,-60 -14,-14 -31,-28 -46,-41 -29,-23 -71,-18 -98,-37l-58 -42c-40,-54 -35,-101 -91,-153 -37,-35 -124,-64 -113,-129 3,-17 36,-79 23,-90 -9,-7 -128,-20 -145,-20 -30,89 -123,-8 -161,-16 -86,-16 -148,1 -225,44 -27,15 -62,-34 -83,-50 -23,-17 -122,-24 -125,-37l-15 -6 0 0c6,-14 0,-37 4,-53 3,-14 5,-28 8,-42 10,-40 51,-5 70,11 21,18 41,28 66,42 7,4 21,14 29,14 36,0 54,-52 57,-84l49 -82c5,-9 -54,-65 -64,-64 -69,5 -239,116 -269,109l-37 -183c58,-14 110,-38 157,-72 68,-47 121,1 175,-32 29,-18 73,-45 110,-36 68,17 72,-4 122,-4 6,25 7,125 37,121 58,-9 119,-41 169,-64 143,-68 97,-158 139,-288l164 5c8,-27 37,-69 37,-100 141,-36 140,86 260,-55 64,-76 121,-141 77,-248 -88,-29 -74,-45 -117,-115 -37,-60 95,-58 130,-68 45,-13 48,-71 62,-111 40,-113 9,-90 -67,-137 -90,-56 -261,-21 -261,-153 0,-75 -16,-71 36,-131 29,-34 7,-139 0,-180 -15,-90 23,-88 -85,-104l1 -30c0,-23 -24,-53 -27,-79 -2,-18 -12,-43 -17,-62 -15,-57 -122,-24 -122,-60 0,-28 4,-63 -2,-91 -8,-36 -41,-60 -77,-68l0 0z"/>
        <path class="fil0 str0" d="M13062 13726c-67,73 -198,-2 -293,41 -48,21 -46,109 -131,107l-164 -2c-65,-1 -26,-118 -26,-174 0,-41 -125,-134 -153,-134 0,76 -98,101 -102,165 -5,70 -9,132 -26,184 -109,0 -60,-102 -81,-181 -48,-183 -135,75 -207,119 -111,69 -142,-76 -231,-76 -28,13 -89,8 -101,41 -58,151 -158,196 -276,296 -64,54 -24,83 -10,161 12,63 93,64 155,64 20,80 -30,135 -15,212 13,69 138,25 154,-27 7,-24 15,-128 54,-100 37,27 188,-15 153,38 -58,87 -44,96 25,165 51,58 30,136 -37,175 -20,12 -43,36 -60,53 -14,14 -31,37 -39,10 -10,-33 -56,-109 -95,-72 -47,43 -50,144 -48,206 1,25 17,67 -8,85 -16,11 -65,-38 -100,-23l0 0c31,57 -73,126 27,159 57,19 96,17 110,84 12,58 -22,212 -62,252 -59,59 -240,-78 -240,69 21,40 94,61 138,61 0,38 -32,67 -42,104 -31,121 151,147 189,32 38,-116 49,-157 176,-172 81,-10 57,-44 73,-113 16,-68 41,-5 80,5 75,18 154,5 189,76 25,51 53,137 85,184 -7,28 41,77 41,122 0,31 -6,93 2,124 38,138 178,-57 181,-57 62,-5 128,69 191,69 70,0 136,-165 136,-224 265,0 49,449 450,248 23,-11 123,143 164,165 138,71 152,-154 241,14 36,68 117,56 17,115 -75,44 -98,17 -131,-50 -13,-27 -51,36 -43,60 9,26 -16,138 -33,155 -36,36 -61,0 -50,64 17,103 113,138 198,158 32,7 43,111 93,26 71,-120 172,-79 172,62 -5,0 -3,0 -7,2 -16,-24 -133,-27 -148,17 -21,64 0,92 -45,153l0 0c66,22 133,-7 188,43 48,43 69,110 69,172 0,50 2,72 48,91 62,25 126,-26 181,-31l63 55 0 -2c7,-39 -3,-75 15,-108 35,-65 128,-108 128,-185 0,-39 205,-220 241,-263 49,-49 159,-230 240,-230 0,-12 -49,-50 -61,-50 -1,-9 -15,-13 -15,-30 0,-12 13,-30 10,-38 -15,-34 -63,-8 -68,-63l-20 -253 0 0 -114 0c0,-175 -3,-112 -114,-112 -108,0 -153,28 -153,-115 50,-17 140,62 191,31 13,-8 3,-162 -10,-162 -12,46 -369,36 -293,-88 26,-42 97,-65 64,-138 -12,-26 -36,-51 -36,-84 0,-40 52,-57 52,-93 -133,0 58,-145 74,-169 13,-21 28,-225 -7,-234 -12,-38 -57,-130 -45,-165 105,0 219,26 229,-98 5,-62 -182,-36 -243,-36 0,-30 63,-48 48,-88 -44,-116 184,-123 184,-294 -3,-4 -27,-28 -29,-36 -51,-13 -135,-143 -210,-155 0,-34 -6,-93 -17,-124 -71,0 -95,-53 -150,-53 -152,0 -123,-108 -226,-124 -55,-8 -135,-142 -150,-189 -177,0 -68,-19 -155,155 -55,110 -151,-63 -164,-10 -26,0 -51,24 -88,21 -50,-4 -83,-43 -141,-43l0 0z"/>
        <path class="fil0 str0" d="M6073 21661c22,-2 175,-9 206,-17 17,-5 115,2 167,-11 47,-11 219,-52 247,-1 7,12 52,57 62,89 22,69 82,206 157,227 92,27 105,14 191,-31 77,-41 53,-156 225,-99 52,18 218,36 214,-52 -1,-28 45,-67 45,-156 0,-67 -54,-239 -26,-279 59,-85 98,-28 172,8 51,24 43,49 131,32 9,-2 65,-11 70,-15l0 0c-31,-25 -52,-63 -52,-115 0,-24 205,-25 205,-141 -185,0 -185,29 -126,-141 17,-48 19,-132 69,-150 43,-15 110,-65 110,-115 0,-20 -6,-67 -32,-67 -22,-45 -199,84 -220,24 -14,-40 -126,-129 -119,-156 29,-7 206,19 206,-18 0,-108 -52,-168 81,-202 7,-2 56,-12 57,-8 66,0 47,143 175,117 68,-14 134,-78 194,-39 49,31 75,6 100,-38 34,-59 30,-125 107,-147l0 0 51 -107 -10 -50c-35,0 -130,21 -167,33 -86,30 -101,-51 -133,-60 0,-20 -2,-51 -7,-72 -38,0 -58,-24 -93,-17 0,50 29,99 29,143 -47,0 -93,10 -93,-50 -66,-16 -159,-147 -245,-155 -41,-4 -87,-14 -129,-5 -247,54 -361,-75 -419,-227 -22,-57 -42,-34 -88,-64 -50,-33 3,-124 -129,-124 0,46 -35,159 -76,179 -53,27 -238,6 -119,-64 10,-1 24,-10 33,-10 0,-44 -33,-78 -69,-33 -30,37 -80,25 -107,-2 -50,-50 46,-88 -55,-119 -14,-4 -32,-5 -48,-5 -41,0 -75,-11 -114,5l-248 -118 0 0c-4,9 -8,18 -12,28 0,73 10,149 -18,217 -26,64 -140,67 -143,128 -2,47 0,87 -36,117 -68,56 2,88 -7,144 -7,43 -7,63 -27,103 -35,66 -97,218 -93,291 -13,16 -12,98 -32,131 -26,41 -53,79 -91,112 -63,55 -134,90 -148,179 -11,68 2,102 -64,141 -52,30 -125,65 -125,135 0,122 90,181 143,275 70,44 76,123 116,195 41,74 130,89 155,181 4,14 5,30 3,46l0 1z"/>
        <path class="fil0 str0" d="M10880 20755l-61 -71c3,-198 -316,-111 -316,-322 10,-3 49,-61 57,-74 15,-25 17,-67 17,-98 -16,-4 -31,0 -48,-2 -74,-11 -72,-112 -72,-169l36 -146 0 0 -48 -60c-66,-38 -205,-14 -248,-57 -60,-61 -88,-168 -181,-191 0,-12 -3,-70 -10,-76 -75,0 -493,-56 -493,33 0,64 -41,70 -85,105 -53,53 46,87 46,111 -33,11 -124,28 -150,45 -14,9 -57,111 -57,131 -27,13 -31,49 -72,67 -33,15 -66,-15 -66,44 0,86 -78,115 -149,99 -34,-7 -46,74 -75,95 -31,23 -104,-11 -145,-11 -45,0 -43,-22 -72,-48l0 0c-77,22 -73,87 -107,147 -25,44 -51,70 -100,38 -61,-39 -126,26 -194,39 -128,26 -109,-117 -175,-117 -1,-4 -50,7 -57,8 -133,33 -81,93 -81,202 0,37 -177,11 -206,18 -7,27 105,117 119,156 22,61 198,-69 220,-24 27,0 32,47 32,67 0,50 -67,99 -110,115 -51,18 -53,102 -69,150 -58,170 -59,141 126,141 0,116 -205,117 -205,141 0,53 20,90 52,115l0 0c56,45 146,54 220,49 24,-1 57,-31 74,-29 50,6 45,201 64,236 17,31 102,4 136,12 67,16 177,251 184,327 0,85 -52,68 -67,117 -14,46 -20,124 -24,174 -8,110 -28,259 -5,360 11,47 91,119 5,119 -101,0 -224,-5 -150,143 67,134 219,131 105,272 -36,45 41,168 69,201 62,70 -16,154 10,179 35,35 46,34 67,88 51,132 -28,188 10,270 -8,-9 -23,118 64,41 50,-44 96,57 102,110l106 158 0 0c33,-22 67,-43 102,-56 62,-23 78,-74 122,-117 62,-62 438,-183 448,-212 -211,-52 251,-479 251,-507 25,-6 2,-73 -1,-85 -22,-89 -10,-142 15,-230 38,-132 -35,-226 -14,-358 9,-60 -10,-128 29,-179 38,-51 81,-84 112,-146 20,-88 66,-118 156,-118 57,0 15,-130 15,-174 -46,-11 -47,58 -95,75 -82,28 -47,-193 -45,-226l10 -184c1,-22 -3,-49 1,-70 4,-21 33,-30 37,-47 5,-1 111,-241 137,-273l640 -479c19,-14 38,-30 57,-46l0 0z"/>
        <path class="fil0 str0" d="M6713 18792l174 -197 0 0c177,5 185,80 310,-94 45,-62 109,-226 194,-226 38,0 162,1 162,-44 0,-70 113,-219 175,-232 75,-15 59,37 81,93 14,35 120,94 129,44l55 -79c18,0 100,-8 106,-5 39,25 85,42 130,54 55,12 67,95 70,142 4,67 24,75 95,61 91,-18 156,56 238,14 36,-19 68,-27 101,-2 59,44 44,23 118,17 21,-6 40,-18 61,-27 16,-8 32,-12 48,-20 36,-19 75,-25 117,-8 62,55 112,71 175,26 48,-34 152,-79 180,-128 23,-39 44,-40 76,-14 46,38 105,60 108,-27 2,-52 -69,-166 -66,-177 10,-31 52,-66 52,-95 0,-60 26,-45 81,-54 78,-13 8,-105 -30,-124 0,-1 88,-45 101,5 12,44 38,60 80,60 2,-5 20,-21 25,-31l0 0 15 6c3,13 103,20 125,37 21,16 56,65 83,50 77,-44 139,-61 225,-44 38,7 131,105 161,16 18,0 136,13 145,20 13,10 -20,73 -23,90 -11,65 76,94 113,129 55,52 50,99 91,153l58 42c27,19 68,14 98,37 16,13 32,26 46,41 18,18 72,34 81,60 9,25 31,55 48,76l0 0 -39 41c-49,34 -71,70 -88,125 -17,54 -4,89 -4,143 0,41 2,51 -48,56 -35,53 -158,-9 -174,7 -11,11 -40,139 -33,153 14,28 73,53 79,74 -41,10 -46,52 -98,38 -37,-10 -58,-32 -93,-5 -75,59 -119,84 -215,57 -198,-55 -100,199 -33,275 89,101 177,17 274,55 29,11 144,67 148,93 64,9 54,122 86,160 45,54 -52,91 -98,91 -40,0 -40,53 -88,62 -69,13 -138,21 -212,14l0 0 -48 -60c-66,-38 -205,-14 -248,-57 -60,-61 -88,-168 -181,-191 0,-12 -3,-70 -10,-76 -75,0 -493,-56 -493,33 0,64 -41,70 -85,105 -53,53 46,87 46,111 -33,11 -124,28 -150,45 -14,9 -57,111 -57,131 -27,13 -31,49 -72,67 -33,15 -66,-15 -66,44 0,86 -78,115 -149,99 -34,-7 -46,74 -75,95 -31,23 -104,-11 -145,-11 -45,0 -43,-22 -72,-48l0 0 51 -107 -10 -50c-35,0 -130,21 -167,33 -86,30 -101,-51 -133,-60 0,-20 -2,-51 -7,-72 -38,0 -58,-24 -93,-17 0,50 29,99 29,143 -47,0 -93,10 -93,-50 -66,-16 -159,-147 -245,-155 -41,-4 -87,-14 -129,-5 -247,54 -361,-75 -419,-227 -22,-57 -42,-34 -88,-64 -50,-33 3,-124 -129,-124 0,46 -35,159 -76,179 -53,27 -238,6 -119,-64 10,-1 24,-10 33,-10 0,-44 -33,-78 -69,-33 -30,37 -80,25 -107,-2 -50,-50 46,-88 -55,-119 -14,-4 -32,-5 -48,-5 -41,0 -75,-11 -114,5l-248 -118 0 0c16,-39 24,-75 52,-113 60,-80 139,-125 213,-191 83,-74 51,-110 -5,-143l0 0z"/>
        <path class="fil0 str0" d="M6078 22925l61 -11c87,34 347,133 355,167 35,7 87,68 133,84 25,9 141,45 157,45 31,92 138,401 138,475 258,64 286,-22 286,294 -5,40 -29,102 10,129 18,13 64,78 67,79 0,84 3,65 -52,136 -77,99 65,193 19,298 -100,230 90,89 124,224 7,2 46,58 49,64l0 0c-6,8 -11,16 -16,25 -29,50 15,69 15,100 -71,17 -55,58 -149,44l-251 -38c-74,-55 -328,-83 -429,-112 -102,-29 -271,10 -297,-86 -18,-66 -73,-79 -135,-110 -121,-60 -155,-71 -242,-166 -45,-49 -114,-50 -150,-97 -111,-143 -260,-200 -386,-312l0 0 39 -30c27,-9 -1,-65 -1,-97 0,-50 -10,-44 35,-27 54,20 107,50 167,30 18,-6 27,-19 32,-36l7 -21c12,-35 2,-48 -14,-97 -15,-46 -45,-71 -54,-118 -7,-39 58,-31 85,-44 17,-9 25,-158 27,-187 3,-36 76,-72 107,-87 20,-9 65,-39 51,-49 -47,-33 -35,-80 -35,-127 0,-13 -14,-28 -19,-44 -1,-5 40,-51 44,-53 54,46 56,84 137,70 99,-17 98,-166 98,-247 0,-28 -5,-49 -14,-67l0 0z"/>
        <path class="fil0 str0" d="M6078 22925c-15,-31 -40,-55 -63,-93 -26,-42 -39,-119 -69,-149 -46,-46 -126,-90 -130,-160 -4,-68 -92,-141 -92,-217 -14,-63 -43,-101 30,-127 43,-15 56,-98 80,-136 54,-86 226,-256 240,-383l0 1c22,-2 175,-9 206,-17 17,-5 115,2 167,-11 47,-11 219,-52 247,-1 7,12 52,57 62,89 22,69 82,206 157,227 92,27 105,14 191,-31 77,-41 53,-156 225,-99 52,18 218,36 214,-52 -1,-28 45,-67 45,-156 0,-67 -54,-239 -26,-279 59,-85 98,-28 172,8 51,24 43,49 131,32 9,-2 65,-11 70,-15l0 0c56,45 146,54 220,49 24,-1 57,-31 74,-29 50,6 45,201 64,236 17,31 102,4 136,12 67,16 177,251 184,327 0,85 -52,68 -67,117 -14,46 -20,124 -24,174 -8,110 -28,259 -5,360 11,47 91,119 5,119 -101,0 -224,-5 -150,143 67,134 219,131 105,272 -36,45 41,168 69,201 62,70 -16,154 10,179 35,35 46,34 67,88 51,132 -28,188 10,270 -8,-9 -23,118 64,41 50,-44 96,57 102,110l106 158 0 0c-33,22 -67,43 -101,56l-307 118c-127,0 -107,160 -154,198 -43,35 -233,124 -287,136 -186,40 -506,45 -630,213l0 0c-3,-6 -42,-62 -49,-64 -34,-136 -224,5 -124,-224 46,-105 -96,-200 -19,-298 55,-71 52,-52 52,-136 -2,-1 -49,-66 -67,-79 -38,-27 -14,-89 -10,-129 0,-316 -28,-229 -286,-294 0,-74 -108,-383 -138,-475 -17,0 -133,-37 -157,-45 -46,-16 -98,-77 -133,-84 -8,-34 -269,-134 -355,-167l-61 11 0 0z"/>
        <path class="fil0 str0" d="M18698 4016c62,58 59,40 55,126 -2,39 -13,58 20,94 25,28 156,10 188,17l0 0c1,-18 1,-37 1,-55 0,-82 8,-190 30,-269 0,-95 19,-225 52,-313 32,-83 28,-191 64,-267 23,-48 56,-102 72,-153 27,-89 -25,-118 -25,-190 0,-45 38,-81 55,-122l49 -145 0 0 -35 -5c-7,-3 -9,-1 -16,-2 -60,-8 -111,-5 -170,-5 -31,0 -51,5 -76,5 -61,2 -108,39 -146,82 -56,64 -60,71 -134,31 -98,-53 -99,-14 -119,74 -23,24 -63,38 -94,47 -29,9 -36,10 -64,23 -53,23 -36,137 -9,162 25,23 39,44 55,72 5,9 13,45 14,46 12,17 -49,71 -34,100 27,50 71,22 106,11 24,-8 23,46 19,59 -26,76 -46,48 -3,99l0 0c-2,80 -22,47 -42,110 -14,45 -39,91 -49,141 -10,53 -18,114 60,93 31,-8 96,-42 125,-26 44,23 56,23 52,80 -2,27 -7,51 0,78l0 0z"/>
        <path class="fil0 str0" d="M16385 6516c10,-26 22,-79 60,-79 34,-103 162,-123 162,-248 0,-71 100,-6 124,-55 21,-41 42,-53 79,-72 35,-17 -3,-43 -14,-60 -25,-37 -8,-89 -29,-119 -9,-13 -42,-21 -60,-29 -33,-13 -36,-19 -36,-48 43,-11 67,-30 122,-33 26,-2 56,-8 57,-29l0 0 113 -48c38,-19 44,-20 49,-57 4,-32 -24,-71 -35,-102 -11,-31 -25,-43 -38,-83 -18,-58 -48,-149 38,-166 25,-5 68,-21 97,-20 42,2 321,-72 352,-95 51,-39 35,-55 53,-118l2 -7c-6,-43 -3,-63 26,-95 30,-33 126,-38 137,-116 5,-38 -9,-54 -41,-77 -24,-17 -101,-55 -129,-63 -47,-14 -115,-73 -74,-127 40,-52 125,-14 176,0 88,24 79,19 169,6 56,-8 89,-28 125,-71 33,-39 136,-92 183,-121 9,-5 20,-11 29,-16 10,-19 89,-141 105,-160 27,-32 77,-89 114,-107 64,-32 89,-21 155,-41 45,-14 85,-25 133,-23l108 -25 0 0c62,58 59,40 55,126 -2,39 -13,58 20,94 25,28 156,10 188,17l0 0c-2,60 -7,119 -17,178 -9,55 24,76 24,113 0,69 -15,132 -42,196 -135,322 -262,684 -360,1021 -18,63 1,168 -32,221 -84,159 -222,312 -331,457l-193 257c-29,39 -54,105 -82,165l0 0 -144 116c-51,75 -203,91 -284,60 -149,-57 -230,-143 -260,-296 -14,-73 -34,-119 -105,-150 -32,-14 -100,-32 -124,-50 -2,5 -14,-1 -19,-2 -43,51 -85,100 -155,100 -64,0 -95,-48 -112,-100 -6,0 -3,-1 -7,-2 -9,35 -92,45 -126,45 -65,0 -151,-34 -207,-62l0 0z"/>
        <path class="fil0 str0" d="M16849 5745l113 -48c38,-19 44,-20 49,-57 4,-32 -24,-71 -35,-102 -11,-31 -25,-43 -38,-83 -18,-58 -48,-149 38,-166 25,-5 68,-21 97,-20 42,2 321,-72 352,-95 51,-39 35,-55 53,-118l2 -7c-6,-43 -3,-63 26,-95 30,-33 126,-38 137,-116 5,-38 -9,-54 -41,-77 -24,-17 -101,-55 -129,-63 -47,-14 -115,-73 -74,-127 40,-52 125,-14 176,0 88,24 79,19 169,6 56,-8 89,-28 125,-71 33,-39 136,-92 183,-121 9,-5 20,-11 29,-16 10,-19 89,-141 105,-160 27,-32 77,-89 114,-107 64,-32 89,-21 155,-41 45,-14 85,-25 133,-23l108 -25 0 0c-7,-27 -2,-50 0,-78 4,-57 -8,-57 -52,-80 -29,-16 -94,18 -125,26 -78,21 -70,-40 -60,-93 10,-50 34,-96 49,-141 20,-63 40,-30 42,-110l0 0c-142,-18 -167,31 -238,7 -113,-38 -191,71 -315,26 -75,-27 -118,-62 -207,-62 -46,0 -23,-39 -48,-50 -39,-17 -98,59 -133,50 -45,-12 -98,-74 -131,-74 -19,96 -35,203 88,203 124,0 14,109 -41,95 -3,-12 -22,-24 -24,-33 -27,0 -78,-12 -74,36 3,32 50,36 50,72 -25,6 -76,54 -83,81 -19,70 -62,14 -105,5 -2,-8 -122,-72 -141,-76 -4,-17 -49,-154 -62,-162 0,-6 -4,-66 -7,-67l0 -5c-20,0 -42,2 -60,-2 -3,-11 -24,-37 -31,-45l0 0c-128,29 -214,154 -336,198 -66,24 -165,93 -207,107 0,49 -21,92 -21,141 -111,0 -287,34 -391,60 0,50 67,90 67,146 0,69 -33,93 -76,143l0 0c47,9 118,62 160,43 67,-30 224,-37 260,43 26,58 -84,88 -14,158 59,60 82,-20 122,-26 82,-14 106,75 143,105 31,25 158,116 164,143 -75,0 -237,-5 -126,86 56,46 109,88 60,141 -71,75 -137,95 -229,31 -31,-21 -99,-5 -136,-5 -27,0 -49,76 -69,95 -19,30 -41,66 -41,100 25,6 62,37 62,67 22,7 13,117 57,91 44,-26 88,-30 133,-19 2,9 18,22 21,33 27,7 60,13 86,21 0,26 -7,44 -10,69 -3,26 -17,76 14,88 47,18 128,75 155,119 9,11 12,21 12,28l0 0z"/>
        <path class="fil0 str0" d="M14961 3185l-9 82c10,34 34,70 64,89l0 0c26,17 57,21 86,-1 45,67 168,-11 231,-17 90,-8 221,-60 83,-122 -120,-54 -7,-110 45,-167 51,-55 95,52 138,86 98,78 176,-130 279,-91 41,16 117,13 148,29 22,11 -4,74 62,74 61,0 35,-62 76,-62 84,0 176,6 176,-107 0,-33 6,-222 36,-222 49,0 95,79 112,79 182,0 -18,138 210,138 102,0 85,91 52,153 -21,40 -95,299 -79,310 24,17 319,-51 319,38l-2 62 0 0c7,8 28,35 31,45 18,4 40,2 60,2l0 5c4,1 7,61 7,67 13,8 58,145 62,162 18,5 139,69 141,76 43,10 86,65 105,-5 8,-27 59,-75 83,-81 0,-35 -47,-40 -50,-72 -4,-48 47,-36 74,-36 2,9 21,21 24,33 55,14 164,-95 41,-95 -123,0 -107,-107 -88,-203 33,0 86,62 131,74 36,9 95,-67 133,-50 25,11 2,50 48,50 90,0 132,35 207,62 123,44 202,-64 315,-26 72,24 97,-26 238,-7l0 0c-43,-51 -22,-23 3,-99 4,-13 5,-67 -19,-59 -36,11 -80,39 -106,-11 -15,-29 46,-83 34,-100 -1,-1 -8,-37 -14,-46 -16,-29 -30,-50 -55,-72 -28,-25 -44,-138 9,-162 28,-12 35,-14 64,-23 31,-9 71,-23 94,-47 20,-88 21,-127 119,-74 74,40 77,33 134,-31 38,-44 85,-80 146,-82 25,-1 45,-5 76,-5 60,0 110,-3 170,5 7,1 9,-1 16,2l35 5 0 0 49 -145 57 -232c40,-161 -85,-359 -70,-516 11,-15 9,-155 0,-177 -17,-43 -40,-89 -87,-110 -41,-18 -41,-72 -56,-112l-36 -95 0 0 -41 32 0 0c25,93 34,157 75,255 25,61 87,51 120,62 0,13 4,48 -12,48 -6,-25 -74,-39 -94,-30 -60,26 -52,-26 -86,-51 -23,-17 -47,-10 -60,-42 -17,-43 -3,-65 -54,-86l0 0 -35 24c-42,23 -139,-33 -181,-53 -48,-23 -127,28 -193,7 -32,-10 -100,-98 -114,-35 -9,40 -34,108 -72,127 -151,76 -78,-59 -98,-135 -32,-126 -16,-81 -119,-81 -89,0 -48,-41 -98,-80 -23,-17 -181,1 -167,67 3,13 115,38 136,49 28,15 60,55 86,62 0,38 -132,86 -163,85 -191,-9 -8,187 -132,260 -41,24 -116,30 -138,72 -25,47 35,92 75,99 0,30 -74,46 -93,80 4,62 -97,38 -128,48 -128,40 -53,118 -247,136l-143 13c-50,5 -78,143 -137,91 -58,-51 -60,-65 -116,-23 -80,61 -181,106 -62,168l178 93c16,0 37,15 52,19 0,41 -114,99 -147,109 -4,29 -47,37 -73,31 0,-34 -18,-141 -66,-97 -14,13 -120,100 -132,55 -10,-36 45,-92 25,-136 -7,-17 -84,-17 -63,-45 50,-70 -22,-87 26,-141 28,-31 -36,-87 -43,-80 -70,70 -123,-50 -159,51 -49,142 -90,54 -172,84 2,0 2,-2 2,0 -37,0 -76,72 -106,91 -60,37 -129,-136 -141,-175 -18,-60 -26,-133 -54,-189 -6,-11 -340,-45 -383,-37 -38,8 -88,61 -138,79 -27,9 -63,15 -92,17 -9,0 -56,2 -56,13 61,15 44,98 155,98 37,0 128,-13 137,36 16,87 -144,81 -111,148 51,103 119,39 204,67 0,14 -49,47 -56,75 -11,45 18,118 -57,118 -48,0 -173,-29 -210,8 -17,17 -68,69 -89,76 -97,34 -90,33 -12,111 17,17 6,41 6,64 0,39 -134,10 -174,57 -41,49 -82,67 -119,62l0 0z"/>
        
        
        <rect class="fil6 str3" x="1000" y="1000" width="19000" height="24501"/>
        <g id="_2357323246960">
            <polygon class="fil1 str1" points="1260,1234 2076,1234 2076,2827 1260,2827 "/>
            <path class="fil7" d="M1608 1670c-1,3 -2,6 -2,9 0,3 -1,5 -1,7 0,6 2,10 5,12 3,2 10,3 18,3l4 0 -5 23 -78 0 5 -23 3 0c7,0 13,-2 16,-5 4,-3 6,-8 8,-16l38 -154c1,-3 1,-6 2,-8 0,-3 1,-6 1,-9 0,-5 -2,-9 -6,-11 -4,-2 -11,-3 -20,-3l-3 0 5 -23 72 0 62 184 31 -129c1,-4 2,-8 2,-10 0,-3 1,-5 1,-6 0,-6 -2,-10 -5,-12 -4,-2 -10,-3 -18,-3l-4 0 5 -23 79 0 -6 23 -3 0c-7,0 -13,2 -16,5 -4,3 -6,8 -8,16l-51 208 -22 0 -72 -209 -37 155z"/>
            <line class="fil6 str4" x1="1668" y1="2694" x2="1668" y2= "1924" />
            <line class="fil6 str4" x1="1386" y1="2418" x2="1950" y2= "2418" />
            <line class="fil6 str4" x1="1524" y1="2558" x2="1818" y2= "2271" />
            <line class="fil6 str4" x1="1520" y1="2270" x2="1818" y2= "2559" />
            <line class="fil6 str4" x1="1668" y1="1927" x2="1573" y2= "2045" />
            <line class="fil6 str4" x1="1669" y1="1927" x2="1757" y2= "2045" />
        </g>
    </g>
</svg>
