<svg width="608" height="608" viewBox="0 0 608 608" fill="none" xmlns="http://www.w3.org/2000/svg">
<path d="M608 464.998H0V465.302H608V464.998Z" fill="#EBEBEB"/>
<path d="M383.855 473.279H352.896V473.583H383.855V473.279Z" fill="#EBEBEB"/>
<path d="M553.815 479.857H480.454V480.161H553.815V479.857Z" fill="#EBEBEB"/>
<path d="M346.305 473.425H270.512V473.729H346.305V473.425Z" fill="#EBEBEB"/>
<path d="M221.361 482.521H205.504V482.825H221.361V482.521Z" fill="#EBEBEB"/>
<path d="M308.974 482.521H236.768V482.825H308.974V482.521Z" fill="#EBEBEB"/>
<path d="M110.546 477.39H63.791V477.694H110.546V477.39Z" fill="#EBEBEB"/>
<path d="M288.192 410.765H53.3941C51.5547 410.761 49.7918 410.029 48.4923 408.727C47.1928 407.425 46.4629 405.661 46.4629 403.821V73.7624C46.4789 71.9336 47.2158 70.1849 48.5136 68.8963C49.8114 67.6076 51.5652 66.883 53.3941 66.8799H288.192C290.033 66.8799 291.799 67.6114 293.101 68.9135C294.403 70.2157 295.135 71.9817 295.135 73.8232V403.821C295.135 405.663 294.403 407.429 293.101 408.731C291.799 410.033 290.033 410.765 288.192 410.765ZM53.3941 67.1231C51.6353 67.1263 49.9497 67.8272 48.7072 69.072C47.4647 70.3168 46.7669 72.0037 46.7669 73.7624V403.821C46.7669 405.58 47.4647 407.267 48.7072 408.512C49.9497 409.757 51.6353 410.457 53.3941 410.461H288.192C289.951 410.457 291.638 409.757 292.883 408.513C294.127 407.268 294.828 405.581 294.831 403.821V73.7624C294.828 72.0026 294.127 70.3157 292.883 69.0713C291.638 67.8268 289.951 67.1263 288.192 67.1231H53.3941Z" fill="#EBEBEB"/>
<path d="M551.225 410.765H316.415C314.575 410.761 312.81 410.029 311.509 408.728C310.207 407.426 309.475 405.662 309.472 403.821V73.7624C309.491 71.9325 310.23 70.1838 311.53 68.8955C312.83 67.6072 314.585 66.883 316.415 66.8799H551.225C553.051 66.8862 554.802 67.6122 556.097 68.9005C557.392 70.1889 558.128 71.9357 558.144 73.7624V403.821C558.144 405.659 557.415 407.421 556.119 408.722C554.822 410.024 553.062 410.758 551.225 410.765ZM316.415 67.1231C314.655 67.1263 312.968 67.8268 311.724 69.0713C310.479 70.3157 309.779 72.0026 309.776 73.7624V403.821C309.779 405.581 310.479 407.268 311.724 408.513C312.968 409.757 314.655 410.457 316.415 410.461H551.225C552.984 410.457 554.671 409.757 555.916 408.513C557.16 407.268 557.861 405.581 557.864 403.821V73.7624C557.861 72.0026 557.16 70.3157 555.916 69.0713C554.671 67.8268 552.984 67.1263 551.225 67.1231H316.415Z" fill="#EBEBEB"/>
<path d="M238.287 359.534H157.545L152.645 302.99H233.387L238.287 359.534Z" fill="#E6E6E6"/>
<path d="M242.47 359.534H161.728L156.827 302.99H237.57L242.47 359.534Z" fill="#F0F0F0"/>
<path d="M172.769 347.386L170.069 315.126H226.528L229.228 347.386H172.769Z" fill="white"/>
<path d="M256.442 359.534H246.97V464.998H256.442V359.534Z" fill="#E6E6E6"/>
<path d="M259.434 359.534H252.855V464.998H259.434V359.534Z" fill="#F0F0F0"/>
<path d="M167.735 371.172H259.434V359.535H167.735V371.172Z" fill="#F0F0F0"/>
<path d="M170.97 371.172H161.497V464.998H170.97V371.172Z" fill="#E6E6E6"/>
<path d="M173.961 371.172H167.383V464.998H173.961V371.172Z" fill="#F0F0F0"/>
<path d="M103.542 371.172H94.0693V464.998H103.542V371.172Z" fill="#E6E6E6"/>
<path d="M106.534 371.172H99.9551V464.998H106.534V371.172Z" fill="#F0F0F0"/>
<path d="M196.493 371.172H187.021V464.998H196.493V371.172Z" fill="#E6E6E6"/>
<path d="M199.473 371.172H192.895V464.998H199.473V371.172Z" fill="#F0F0F0"/>
<path d="M167.735 359.534H94.0693V371.171H167.735V359.534Z" fill="#E6E6E6"/>
<path d="M442.43 96.5625H157.484V255.202H442.43V96.5625Z" fill="#E0E0E0"/>
<path d="M458.079 96.5625H158.919V255.202H458.079V96.5625Z" fill="#F5F5F5"/>
<path d="M453.191 250.314V101.451L163.808 101.451V250.314L453.191 250.314Z" fill="white"/>
<path d="M280.981 250.314L335.616 101.451H245.449L190.814 250.314H280.981Z" fill="#F5F5F5"/>
<path d="M367.767 250.314L422.402 101.451H354.379L299.744 250.314H367.767Z" fill="#F5F5F5"/>
<path d="M532.742 313.484H508.52V464.998H532.742V313.484Z" fill="#E6E6E6"/>
<path d="M526.37 464.998H532.742V453.337H519.694L526.37 464.998Z" fill="#FAFAFA"/>
<path d="M309.411 313.484H285.188V464.998H309.411V313.484Z" fill="#E6E6E6"/>
<path d="M532.742 313.484H303.854V461.849H532.742V313.484Z" fill="#FAFAFA"/>
<path d="M528.413 361.358H308.195V319.455H528.413V361.358ZM309.411 360.142H527.197V320.671H309.411V360.142Z" fill="#E6E6E6"/>
<path d="M489.647 339.799H351.229C344.809 339.799 338.62 334.618 334.205 325.571L333.792 324.708H507.072L506.659 325.571C502.208 334.618 496.128 339.799 489.647 339.799ZM335.786 325.888C339.896 333.95 345.514 338.546 351.229 338.546H489.647C495.386 338.546 500.98 333.95 505.09 325.888H335.786Z" fill="#E6E6E6"/>
<path d="M310.226 464.998H303.854V453.337H316.902L310.226 464.998Z" fill="#FAFAFA"/>
<path d="M528.413 408.575H308.195V366.721H528.413V408.575ZM309.411 407.359H527.197V367.937H309.411V407.359Z" fill="#E6E6E6"/>
<path d="M489.647 387.065H351.229C344.809 387.065 338.62 381.872 334.205 372.837L333.792 371.962H507.072L506.659 372.837C502.208 381.824 496.128 387.065 489.647 387.065ZM335.786 373.178C339.896 381.24 345.514 385.849 351.229 385.849H489.647C495.386 385.849 500.98 381.24 505.09 373.178H335.786Z" fill="#E6E6E6"/>
<path d="M528.413 455.878H308.195V413.975H528.413V455.878ZM309.411 454.662H527.197V415.191H309.411V454.662Z" fill="#E6E6E6"/>
<path d="M489.647 434.319H351.229C344.809 434.319 338.62 429.139 334.205 420.104L333.792 419.229H507.072L506.659 420.104C502.208 429.139 496.128 434.319 489.647 434.319ZM335.786 420.445C339.896 428.507 345.514 433.103 351.229 433.103H489.647C495.386 433.103 500.98 428.507 505.09 420.445H335.786Z" fill="#E6E6E6"/>
<path d="M147.111 333.524V336.467H145.239L143.682 359.535H120.773L119.229 336.467H117.344V333.524H147.111Z" fill="#E6E6E6"/>
<path d="M139.573 276.287C137.7 262.546 119.156 258.631 95.6264 258.12C73.2398 257.646 66.0654 249.729 66.0654 249.729C66.0654 249.729 66.1384 281.795 98.3989 293.42C129.03 304.437 141.457 290.052 139.573 276.287Z" fill="#E6E6E6"/>
<path d="M128.142 307.429C128.531 301.787 137.554 291.402 159.26 296.12C174.946 299.537 180.783 291.402 180.783 291.402C180.783 291.402 179.324 314.36 155.733 321.255C133.323 327.809 127.449 317.376 128.142 307.429Z" fill="#E6E6E6"/>
<path d="M133.091 342.183C133.213 342.184 133.334 342.158 133.446 342.108C133.557 342.058 133.656 341.983 133.736 341.891C135.304 340.03 134.015 335.58 132.24 329.415C129.954 321.511 127.109 311.661 129.516 304.523C130.851 300.753 132.41 297.066 134.186 293.482C137.59 286.283 140.533 280.106 138.077 273.564C138.039 273.46 137.98 273.364 137.905 273.283C137.829 273.202 137.738 273.136 137.637 273.09C137.536 273.044 137.427 273.019 137.317 273.015C137.206 273.012 137.095 273.03 136.992 273.069C136.888 273.109 136.793 273.168 136.713 273.245C136.632 273.321 136.567 273.412 136.522 273.514C136.478 273.615 136.453 273.724 136.451 273.835C136.448 273.946 136.468 274.056 136.508 274.16C138.709 279.984 136.046 285.627 132.666 292.777C130.867 296.418 129.284 300.162 127.923 303.988C125.358 311.625 128.276 321.754 130.623 329.877C132.009 334.741 133.444 339.605 132.459 340.821C132.381 340.905 132.321 341.004 132.283 341.112C132.245 341.221 132.231 341.336 132.24 341.45C132.249 341.565 132.282 341.676 132.336 341.777C132.391 341.878 132.466 341.966 132.556 342.037C132.712 342.147 132.901 342.199 133.091 342.183Z" fill="#E6E6E6"/>
<path d="M304 519.913C434.212 519.913 539.77 513.75 539.77 506.148C539.77 498.546 434.212 492.383 304 492.383C173.787 492.383 68.2295 498.546 68.2295 506.148C68.2295 513.75 173.787 519.913 304 519.913Z" fill="#F5F5F5"/>
<path d="M303.951 439.037H131.279L121.831 161.339H294.503L303.951 439.037Z" fill="#067DE1"/>
<path d="M312.573 430.416H139.901L130.44 152.718H303.112L312.573 430.416Z" fill="#067DE1"/>
<path opacity="0.3" d="M312.573 430.416H139.901L130.44 152.718H303.112L312.573 430.416Z" fill="white"/>
<path d="M254.719 266.99C273.207 248.182 272.421 217.429 252.962 198.301C233.504 179.172 202.742 178.912 184.253 197.719C165.765 216.526 166.552 247.279 186.01 266.408C205.469 285.536 236.231 285.797 254.719 266.99Z" fill="#067DE1"/>
<path d="M259.58 232.365C259.828 238.982 258.384 245.553 255.384 251.457C252.147 257.818 247.2 263.152 241.1 266.859C235 270.566 227.988 272.5 220.85 272.445C213.544 272.405 206.377 270.445 200.068 266.761C193.759 263.078 188.53 257.8 184.905 251.457C181.525 245.644 179.637 239.085 179.409 232.365C179.184 227.155 180.022 221.953 181.87 217.076C183.718 212.2 186.538 207.749 190.16 203.996C193.781 200.243 198.127 197.265 202.935 195.244C207.743 193.222 212.911 192.2 218.126 192.237C228.87 192.313 239.171 196.525 246.891 203.998C254.61 211.471 259.155 221.63 259.58 232.365Z" fill="white"/>
<path opacity="0.6" d="M255.36 251.457C252.122 257.818 247.176 263.152 241.076 266.859C234.976 270.566 227.964 272.501 220.826 272.445C213.52 272.405 206.353 270.445 200.044 266.762C193.735 263.078 188.506 257.8 184.881 251.457C195.165 244.445 207.334 240.718 219.78 240.768C232.427 240.795 244.792 244.51 255.36 251.457Z" fill="#067DE1"/>
<path opacity="0.6" d="M231.978 231.366C238.776 224.45 238.487 213.142 231.332 206.108C224.177 199.074 212.866 198.979 206.067 205.894C199.269 212.81 199.558 224.118 206.713 231.152C213.868 238.185 225.18 238.281 231.978 231.366Z" fill="#067DE1"/>
<path d="M277.88 329.853H167.735L166.993 307.965H277.138L277.88 329.853Z" fill="white"/>
<path d="M279.218 368.971H169.06L168.318 347.083H278.476L279.218 368.971Z" fill="white"/>
<path d="M236.707 350.099L210.161 353.747C209.908 353.776 209.664 353.856 209.443 353.984C209.223 354.112 209.031 354.284 208.88 354.49C208.73 354.696 208.623 354.93 208.567 355.179C208.511 355.428 208.508 355.685 208.556 355.935L212.046 373.725C212.161 374.248 212.466 374.708 212.902 375.016C213.339 375.325 213.875 375.458 214.405 375.391L240.951 371.743C241.203 371.711 241.447 371.628 241.666 371.498C241.885 371.368 242.075 371.195 242.224 370.988C242.374 370.782 242.479 370.547 242.534 370.299C242.589 370.05 242.592 369.792 242.544 369.542L239.066 351.752C238.952 351.231 238.646 350.772 238.209 350.466C237.772 350.159 237.236 350.028 236.707 350.099ZM229.082 368.12L224.218 368.764L223.744 363.025C223.243 362.808 222.801 362.474 222.456 362.051C222.111 361.627 221.873 361.127 221.762 360.593C221.673 360.179 221.671 359.75 221.758 359.336C221.844 358.921 222.017 358.529 222.265 358.185C222.512 357.841 222.829 357.553 223.195 357.339C223.561 357.126 223.968 356.991 224.389 356.945C225.252 356.834 226.126 357.05 226.838 357.553C227.549 358.055 228.047 358.805 228.231 359.656C228.337 360.17 228.304 360.703 228.138 361.201C227.971 361.698 227.676 362.143 227.283 362.49L229.082 368.12Z" fill="#067DE1"/>
<path d="M234.08 349.138C233.611 349.198 233.136 349.08 232.749 348.808C232.362 348.536 232.091 348.129 231.989 347.667L231.648 345.928C231.162 343.555 229.832 341.439 227.905 339.972C225.977 338.505 223.583 337.787 221.166 337.951C219.947 338.021 218.757 338.352 217.676 338.922C216.596 339.493 215.651 340.289 214.906 341.256C214.161 342.224 213.633 343.341 213.358 344.531C213.082 345.721 213.066 346.957 213.311 348.153L213.7 350.16C213.745 350.382 213.744 350.612 213.695 350.833C213.647 351.055 213.553 351.264 213.419 351.447C213.285 351.63 213.114 351.784 212.918 351.897C212.721 352.01 212.503 352.081 212.277 352.106C211.807 352.171 211.33 352.056 210.941 351.782C210.553 351.509 210.283 351.099 210.186 350.634L209.858 348.944C209.524 347.364 209.513 345.733 209.825 344.149C210.137 342.565 210.767 341.061 211.676 339.726C212.584 338.391 213.753 337.254 215.113 336.383C216.472 335.512 217.993 334.924 219.586 334.656C223.038 334.076 226.58 334.848 229.479 336.811C232.377 338.774 234.408 341.778 235.15 345.199L235.539 347.193C235.585 347.418 235.582 347.65 235.532 347.874C235.481 348.098 235.384 348.309 235.246 348.493C235.108 348.676 234.933 348.829 234.732 348.94C234.531 349.051 234.309 349.119 234.08 349.138Z" fill="#067DE1"/>
<path d="M261.039 399.627H189.332L188.857 385.375H260.553L261.039 399.627Z" fill="#067DE1"/>
<path d="M226.443 318.909C226.465 319.429 226.381 319.947 226.195 320.434C226.01 320.92 225.729 321.364 225.367 321.738C225.005 322.112 224.572 322.408 224.092 322.61C223.612 322.811 223.097 322.913 222.577 322.91C221.504 322.901 220.476 322.481 219.705 321.737C218.933 320.993 218.477 319.98 218.43 318.909C218.409 318.389 218.493 317.87 218.678 317.384C218.863 316.898 219.145 316.454 219.506 316.08C219.868 315.706 220.302 315.409 220.781 315.208C221.261 315.007 221.777 314.905 222.297 314.908C223.37 314.914 224.4 315.332 225.172 316.078C225.944 316.823 226.4 317.837 226.443 318.909Z" fill="#263238"/>
<path d="M209.152 318.909C209.175 319.429 209.092 319.949 208.908 320.436C208.723 320.923 208.441 321.367 208.08 321.741C207.718 322.116 207.283 322.413 206.803 322.613C206.322 322.814 205.806 322.915 205.285 322.91C204.214 322.901 203.187 322.481 202.418 321.736C201.648 320.991 201.194 319.979 201.151 318.909C201.129 318.389 201.214 317.87 201.399 317.384C201.584 316.898 201.866 316.454 202.227 316.08C202.589 315.706 203.022 315.409 203.502 315.208C203.982 315.007 204.497 314.905 205.018 314.908C206.09 314.914 207.118 315.333 207.888 316.078C208.659 316.824 209.111 317.838 209.152 318.909Z" fill="#263238"/>
<path d="M191.97 318.909C191.992 319.429 191.907 319.947 191.722 320.434C191.537 320.92 191.256 321.364 190.894 321.738C190.532 322.112 190.099 322.408 189.619 322.61C189.139 322.811 188.624 322.913 188.103 322.91C187.032 322.904 186.003 322.485 185.233 321.739C184.463 320.994 184.01 319.98 183.969 318.909C183.948 318.389 184.032 317.87 184.217 317.384C184.402 316.898 184.684 316.454 185.045 316.08C185.407 315.706 185.841 315.409 186.32 315.208C186.8 315.007 187.316 314.905 187.836 314.908C188.908 314.914 189.936 315.333 190.707 316.078C191.477 316.824 191.93 317.838 191.97 318.909Z" fill="#263238"/>
<path d="M243.675 318.909C243.696 319.429 243.612 319.947 243.427 320.434C243.242 320.92 242.96 321.363 242.598 321.738C242.237 322.112 241.803 322.408 241.323 322.61C240.843 322.811 240.328 322.913 239.808 322.909C238.736 322.904 237.707 322.485 236.937 321.739C236.167 320.994 235.714 319.98 235.673 318.909C235.655 318.391 235.742 317.874 235.93 317.39C236.117 316.907 236.401 316.466 236.764 316.096C237.126 315.725 237.56 315.432 238.04 315.234C238.519 315.036 239.034 314.938 239.552 314.945C240.616 314.953 241.636 315.368 242.403 316.106C243.17 316.843 243.625 317.846 243.675 318.909Z" fill="#263238"/>
<path d="M260.905 318.909C260.928 319.429 260.845 319.949 260.661 320.436C260.476 320.923 260.194 321.367 259.832 321.741C259.471 322.116 259.036 322.413 258.556 322.613C258.075 322.814 257.559 322.915 257.038 322.91C255.967 322.901 254.94 322.481 254.171 321.736C253.401 320.991 252.947 319.979 252.904 318.909C252.882 318.389 252.967 317.87 253.152 317.384C253.337 316.898 253.618 316.454 253.98 316.08C254.342 315.706 254.775 315.409 255.255 315.208C255.735 315.007 256.25 314.905 256.771 314.908C257.842 314.914 258.871 315.333 259.641 316.078C260.411 316.824 260.864 317.838 260.905 318.909Z" fill="#263238"/>
<path d="M406.035 211.924C407.652 214.526 409.002 217.007 410.388 219.597C411.774 222.187 413.027 224.789 414.255 227.452C416.761 232.844 418.834 238.427 420.456 244.148C420.675 244.865 420.833 245.631 421.016 246.373L421.283 247.504L421.417 248.063L421.575 248.987C421.849 251.084 421.722 253.214 421.198 255.262C420.359 258.443 419.082 261.492 417.404 264.321C414.403 269.464 410.776 274.214 406.606 278.463L401.487 274.596C404.057 269.873 406.343 265 408.333 260.004C409.22 257.803 409.844 255.506 410.193 253.158C410.305 252.442 410.272 251.71 410.096 251.006L409.61 249.523C409.415 248.915 409.233 248.307 409.002 247.686C407.152 242.67 405.012 237.765 402.593 232.997C400.161 228.133 397.547 223.269 394.933 218.624L406.035 211.924Z" fill="#FF8B7B"/>
<path d="M402.788 272.906L397.194 275.861L403.615 283.376C403.615 283.376 407.628 280.664 407.81 276.53L402.788 272.906Z" fill="#FF8B7B"/>
<path d="M389.691 280.494L396.562 285.954L403.615 283.376L397.194 275.861L389.691 280.494Z" fill="#FF8B7B"/>
<path d="M366.198 172.137C366.065 172.818 365.59 173.292 365.153 173.207C364.715 173.122 364.459 172.489 364.593 171.82C364.727 171.152 365.201 170.604 365.651 170.75C366.101 170.896 366.332 171.456 366.198 172.137Z" fill="#263238"/>
<path d="M365.651 173.304C364.426 175.208 362.945 176.935 361.249 178.435C361.65 178.85 362.135 179.174 362.672 179.384C363.21 179.594 363.786 179.685 364.362 179.651L365.651 173.304Z" fill="#FF5652"/>
<path d="M363.462 197.163V189.186L374.017 190.402C374.017 190.402 373.847 197.26 367.937 199.278L363.462 197.163Z" fill="#FF8B7B"/>
<path d="M366.502 183.445L373.932 185.585L374.066 190.462L363.511 189.185L366.502 183.445Z" fill="#FF8B7B"/>
<path opacity="0.2" d="M373.932 185.585L366.503 183.445L365.056 186.218C365.135 188.402 365.817 190.522 367.028 192.343C368.239 194.163 369.93 195.612 371.914 196.529C373.19 194.746 373.937 192.639 374.066 190.449L373.932 185.585Z" fill="black"/>
<path d="M369.433 168.89C369.51 168.888 369.586 168.864 369.651 168.821C369.716 168.777 369.767 168.717 369.799 168.646C369.831 168.574 369.842 168.496 369.831 168.418C369.82 168.341 369.787 168.269 369.737 168.209C369.309 167.727 368.773 167.354 368.172 167.121C367.571 166.888 366.924 166.803 366.283 166.872C366.178 166.89 366.085 166.948 366.023 167.035C365.962 167.121 365.937 167.229 365.955 167.334C365.973 167.439 366.031 167.534 366.117 167.597C366.203 167.661 366.311 167.688 366.417 167.674C366.924 167.624 367.436 167.697 367.91 167.885C368.384 168.073 368.806 168.372 369.141 168.757C369.178 168.797 369.223 168.83 369.273 168.853C369.323 168.876 369.377 168.889 369.433 168.89Z" fill="#263238"/>
<path d="M384.974 184.442C383.758 190.705 383.004 199.375 387.406 203.546C387.406 203.546 385.703 209.893 374.03 209.893C361.25 209.893 367.889 204.324 367.889 204.324C373.203 202.67 373.154 196.627 371.938 191.763L384.974 184.442Z" fill="#FF8B7B"/>
<path d="M389.777 207.729C390.92 206.124 390.871 201.029 389.655 200.129C387.697 198.682 379.295 198.342 367.998 200.944C369.214 205.881 366.6 208.459 366.6 208.459L389.777 207.729Z" fill="#067DE1"/>
<path d="M427.789 496.419C427.441 496.541 427.074 496.594 426.706 496.573C426.339 496.552 425.979 496.458 425.648 496.298C425.523 496.181 425.437 496.028 425.402 495.861C425.367 495.693 425.385 495.518 425.454 495.361C425.492 495.23 425.559 495.108 425.649 495.005C425.739 494.902 425.851 494.821 425.977 494.766C427.132 494.206 429.783 495.288 429.904 495.337C429.941 495.352 429.972 495.377 429.993 495.409C430.015 495.442 430.026 495.48 430.026 495.519C430.026 495.558 430.016 495.597 429.996 495.631C429.977 495.665 429.95 495.693 429.917 495.714C429.231 496.015 428.518 496.251 427.789 496.419ZM426.39 495.045C426.31 495.064 426.232 495.093 426.159 495.13C426.083 495.158 426.015 495.203 425.96 495.263C425.905 495.322 425.865 495.393 425.843 495.471C425.734 495.836 425.843 495.957 425.916 495.994C426.378 496.383 428.08 495.994 429.284 495.544C428.369 495.165 427.38 494.995 426.39 495.045Z" fill="#067DE1"/>
<path d="M429.868 495.727H429.77C428.798 495.447 426.73 493.976 426.706 493.015C426.705 492.862 426.757 492.714 426.852 492.594C426.947 492.475 427.08 492.392 427.229 492.358C427.373 492.304 427.527 492.283 427.681 492.296C427.834 492.308 427.983 492.354 428.117 492.431C429.26 493.015 429.989 495.374 430.014 495.483C430.031 495.513 430.04 495.546 430.04 495.581C430.04 495.615 430.031 495.648 430.014 495.678C429.995 495.697 429.972 495.711 429.946 495.72C429.921 495.728 429.894 495.731 429.868 495.727ZM427.436 492.699H427.338C427.095 492.784 427.095 492.905 427.095 492.966C427.095 493.538 428.481 494.693 429.527 495.155C429.272 494.474 428.712 493.124 427.971 492.723C427.806 492.648 427.619 492.639 427.448 492.699H427.436Z" fill="#067DE1"/>
<path d="M364.63 497.854C363.536 497.854 362.478 497.696 362.125 497.21C362.033 497.08 361.983 496.925 361.983 496.766C361.983 496.607 362.033 496.452 362.125 496.322C362.194 496.203 362.287 496.1 362.398 496.018C362.509 495.937 362.635 495.879 362.77 495.848C364.192 495.459 367.184 497.161 367.305 497.234C367.343 497.252 367.373 497.283 367.39 497.32C367.408 497.358 367.412 497.4 367.403 497.441C367.398 497.482 367.38 497.521 367.352 497.552C367.323 497.583 367.286 497.603 367.244 497.611C366.382 497.769 365.507 497.851 364.63 497.854ZM363.28 496.188C363.151 496.167 363.02 496.167 362.891 496.188C362.809 496.205 362.731 496.239 362.662 496.287C362.593 496.335 362.534 496.397 362.49 496.468C362.344 496.723 362.405 496.845 362.49 496.918C362.891 497.477 365.043 497.489 366.636 497.258C365.597 496.69 364.457 496.327 363.28 496.188Z" fill="#067DE1"/>
<path d="M367.232 497.611H367.147C366.113 497.149 364.07 495.301 364.228 494.328C364.228 494.097 364.423 493.817 364.982 493.769C365.182 493.745 365.385 493.763 365.577 493.822C365.77 493.881 365.948 493.978 366.101 494.109C366.88 495.041 367.348 496.193 367.439 497.405C367.438 497.439 367.431 497.474 367.416 497.505C367.401 497.536 367.38 497.564 367.354 497.587C367.316 497.606 367.274 497.614 367.232 497.611ZM365.14 494.146H365.019C364.654 494.146 364.63 494.316 364.63 494.365C364.532 494.948 365.919 496.407 366.977 497.04C366.884 496.064 366.488 495.141 365.846 494.401C365.646 494.231 365.391 494.14 365.128 494.146H365.14Z" fill="#067DE1"/>
<path d="M376.619 497.417H368.071L367.22 477.608H375.768L376.619 497.417Z" fill="#FF8B7B"/>
<path d="M439.401 493.453L431.047 495.264L422.645 476.818L431.011 475.006L439.401 493.453Z" fill="#FF8B7B"/>
<path d="M430.233 494.426L439.633 492.395C439.797 492.36 439.968 492.382 440.119 492.457C440.269 492.532 440.389 492.656 440.46 492.809L443.719 499.886C443.805 500.057 443.85 500.246 443.85 500.439C443.849 500.631 443.803 500.82 443.715 500.991C443.628 501.161 443.501 501.309 443.345 501.421C443.189 501.534 443.009 501.607 442.819 501.637C439.536 502.281 437.894 502.439 433.772 503.327C431.23 503.886 425.491 505.285 421.977 506.039C418.462 506.793 417.259 503.424 418.633 502.804C424.773 499.995 427.327 497.527 428.993 495.228C429.294 494.818 429.736 494.532 430.233 494.426Z" fill="#263238"/>
<path d="M368.132 496.42H377.471C377.64 496.421 377.804 496.479 377.937 496.585C378.069 496.691 378.162 496.838 378.2 497.004L379.89 504.604C379.94 504.787 379.946 504.98 379.907 505.166C379.869 505.353 379.787 505.527 379.669 505.676C379.551 505.825 379.399 505.945 379.226 506.024C379.054 506.104 378.865 506.142 378.674 506.136C375.306 506.075 370.442 505.88 366.21 505.88C361.249 505.88 356.981 506.148 351.169 506.148C347.654 506.148 346.682 502.597 348.153 502.269C354.841 500.81 360.313 500.652 366.089 497.089C366.696 496.682 367.402 496.451 368.132 496.42Z" fill="#263238"/>
<path d="M402.702 205.504C410.716 207.34 417.294 227.806 417.294 227.806L401.279 240.051C397.123 235.606 394.19 230.16 392.767 224.243C389.934 213.518 394.506 203.607 402.702 205.504Z" fill="#067DE1"/>
<path opacity="0.4" d="M402.702 205.504C410.716 207.34 417.294 227.806 417.294 227.806L401.279 240.051C397.123 235.606 394.19 230.16 392.767 224.243C389.934 213.518 394.506 203.607 402.702 205.504Z" fill="black"/>
<path d="M360.544 229.909C358.55 232.061 356.555 233.983 354.464 235.989C353.43 236.962 352.385 237.935 351.314 238.871L349.697 240.294L349.296 240.646L348.603 241.206C347.889 241.776 347.099 242.242 346.256 242.592C345.317 242.99 344.309 243.197 343.289 243.2C342.418 243.204 341.553 243.051 340.735 242.75C339.829 242.405 339.001 241.879 338.303 241.206C337.412 240.335 336.759 239.251 336.406 238.056C336.222 237.467 336.103 236.86 336.054 236.244C335.99 235.524 335.99 234.8 336.054 234.08C336.114 233.496 336.187 232.986 336.285 232.511C336.617 230.853 337.089 229.226 337.695 227.647C338.242 226.147 338.872 224.677 339.58 223.245C340.358 221.701 341.1 220.57 341.842 219.281C344.855 214.346 348.293 209.683 352.117 205.346C355.903 201.034 360.075 197.078 364.581 193.526L369.056 198.135C365.919 202.342 362.83 206.854 359.972 211.292C357.128 215.705 354.53 220.272 352.19 224.972C351.667 226.115 350.974 227.404 350.646 228.328C350.211 229.402 349.833 230.498 349.515 231.612C349.208 232.614 348.977 233.639 348.822 234.676C348.813 234.838 348.813 235 348.822 235.162C348.822 235.26 348.822 235.308 348.822 235.053C348.802 234.78 348.749 234.51 348.664 234.25C348.401 233.388 347.919 232.609 347.265 231.988C346.684 231.454 346.002 231.041 345.259 230.772C344.606 230.525 343.914 230.397 343.216 230.396C342.545 230.387 341.879 230.516 341.258 230.772C341.048 230.858 340.845 230.96 340.65 231.076L341.112 230.651L342.584 229.313L345.49 226.589C347.411 224.778 349.345 222.844 351.169 221.044L360.544 229.909Z" fill="#FF8B7B"/>
<path opacity="0.2" d="M395.832 220.533C400.185 224.838 401.608 232.693 401.912 239.503L401.207 240.05C397.05 235.606 394.117 230.159 392.695 224.242C392.537 223.61 392.391 223.026 392.281 222.333L395.832 220.533Z" fill="black"/>
<path d="M352.044 214.015C350.293 223.257 349.198 242.239 354.269 279.813H400.063C400.38 272.797 395.966 238.53 402.739 205.443C397.678 204.471 392.56 203.825 387.417 203.509C380.937 203.138 374.441 203.138 367.961 203.509C365.821 203.704 363.705 204.02 361.881 204.348C359.455 204.774 357.216 205.926 355.459 207.652C353.702 209.378 352.511 211.597 352.044 214.015Z" fill="#067DE1"/>
<path opacity="0.4" d="M352.044 214.015C350.293 223.257 349.198 242.239 354.269 279.813H400.063C400.38 272.797 395.966 238.53 402.739 205.443C397.678 204.471 392.56 203.825 387.417 203.509C380.937 203.138 374.441 203.138 367.961 203.509C365.821 203.704 363.705 204.02 361.881 204.348C359.455 204.774 357.216 205.926 355.459 207.652C353.702 209.378 352.511 211.597 352.044 214.015Z" fill="black"/>
<path opacity="0.2" d="M359.048 227.72L350.779 225.738C350.524 230.748 350.5 236.95 350.865 244.623C354.671 240.294 359.535 233.533 359.048 227.72Z" fill="black"/>
<path opacity="0.2" d="M367.22 477.608L367.658 487.823H376.218L375.78 477.608H367.22Z" fill="black"/>
<path opacity="0.2" d="M431.011 475.006L422.645 476.818L426.973 486.327L435.34 484.515L431.011 475.006Z" fill="black"/>
<path d="M389.035 175.298C386.846 183.494 385.971 188.406 380.912 191.811C373.312 196.991 363.827 191.057 363.584 182.399C363.316 174.581 366.952 162.481 375.744 160.828C377.676 160.465 379.669 160.6 381.534 161.221C383.399 161.841 385.075 162.927 386.405 164.374C387.735 165.822 388.674 167.585 389.134 169.496C389.594 171.407 389.56 173.404 389.035 175.298Z" fill="#FF8B7B"/>
<path d="M369.846 175.602C369.432 174.508 367.548 166.032 369.323 163.831C371.098 161.63 391.345 163.223 394.336 166.166C399.31 171.03 395.856 175.408 390.421 181.038C386.335 185.269 386.177 190.036 384.11 190.766C380.462 191.982 374.892 190.839 373.774 186.984C372.655 183.129 369.846 175.602 369.846 175.602Z" fill="#263238"/>
<path d="M391.88 156.523C384.73 153.483 371.317 156.852 364.07 155.101C363.978 157.795 364.864 160.433 366.565 162.525C368.266 164.617 370.667 166.023 373.324 166.482C379.336 167.628 385.444 168.194 391.564 168.173C399.516 167.808 397.96 159.113 391.88 156.523Z" fill="#263238"/>
<path d="M392.999 166.422C395.611 166.679 398.241 166.176 400.575 164.975C401.912 168.209 394.555 169.097 392.999 166.422Z" fill="#263238"/>
<path d="M373.737 175.942C373.573 178.051 372.718 180.047 371.305 181.621C369.433 183.676 367.487 182.387 367.159 179.894C366.867 177.633 367.475 173.814 369.761 172.72C372.047 171.626 373.895 173.401 373.737 175.942Z" fill="#FF8B7B"/>
<path d="M370.503 279.85C370.503 279.85 380.231 345.211 385.545 369.701C391.369 396.514 422.669 485.221 422.669 485.221L437.979 481.901C437.979 481.901 416.091 409.598 411.227 372.108C407.457 343.314 400.052 279.826 400.052 279.826L370.503 279.85Z" fill="#067DE1"/>
<path d="M418.997 480.125C418.936 480.125 421.855 485.67 421.855 485.67L439.073 481.937L437.626 476.757L418.997 480.125Z" fill="#263238"/>
<path opacity="0.3" d="M376.644 303.137C387.867 305.338 386.676 347.192 385.326 368.728C382.091 353.503 377.349 324.222 374.114 303.441C374.898 303.054 375.79 302.947 376.644 303.137Z" fill="black"/>
<path d="M354.269 279.85C354.269 279.85 353.053 343.8 354.026 369.834C354.998 396.963 364.471 485.792 364.471 485.792H378.966C378.966 485.792 379.489 398.544 380.182 371.902C380.887 342.864 384.389 279.802 384.389 279.802L354.269 279.85Z" fill="#067DE1"/>
<path d="M361.687 480.076C361.614 480.076 362.502 486.083 362.502 486.083H380.121L380.608 480.721L361.687 480.076Z" fill="#263238"/>
<path d="M369.968 216.862C374.066 227.915 349.977 240.938 349.977 240.938L339.544 227.562C339.544 227.562 346.56 213.676 355.072 207.425C365.591 199.716 366.843 208.447 369.968 216.862Z" fill="#067DE1"/>
<path opacity="0.4" d="M369.968 216.862C374.066 227.915 349.977 240.938 349.977 240.938L339.544 227.562C339.544 227.562 346.56 213.676 355.072 207.425C365.591 199.716 366.843 208.447 369.968 216.862Z" fill="black"/>
<path d="M464.354 132.946C488.591 132.946 508.24 120.424 508.24 104.978C508.24 89.5315 488.591 77.0098 464.354 77.0098C440.117 77.0098 420.469 89.5315 420.469 104.978C420.469 120.424 440.117 132.946 464.354 132.946Z" fill="#067DE1"/>
<path d="M448.522 119.059C445.631 119.05 442.835 118.022 440.627 116.156C438.419 114.29 436.939 111.706 436.447 108.857C435.963 105.771 436.659 102.616 438.397 100.02C440.134 97.4246 442.785 95.5782 445.822 94.8488C448.315 94.2744 450.924 94.4958 453.284 95.4817C455.644 96.4676 457.636 98.1685 458.979 100.345L487.154 94.5326C488.237 94.2955 489.369 94.4755 490.325 95.0368C491.281 95.5981 491.99 96.4993 492.31 97.5604C492.457 98.1183 492.489 98.7004 492.404 99.2711C492.319 99.8418 492.118 100.389 491.815 100.88C491.511 101.37 491.11 101.794 490.637 102.124C490.164 102.455 489.628 102.685 489.063 102.801L488.334 102.947C488.225 102.967 488.123 103.011 488.034 103.076C487.946 103.142 487.873 103.226 487.823 103.324C487.778 103.424 487.755 103.531 487.755 103.64C487.755 103.749 487.778 103.857 487.823 103.957L488.321 105.246C488.488 105.663 488.505 106.126 488.367 106.555C488.229 106.983 487.947 107.35 487.567 107.592C487.269 107.777 487.016 108.028 486.828 108.325C486.641 108.622 486.523 108.958 486.485 109.307C486.449 109.708 486.288 110.087 486.024 110.391C485.759 110.694 485.406 110.907 485.014 110.997L484.442 111.119C484.046 111.192 483.637 111.137 483.274 110.962C482.911 110.787 482.613 110.502 482.424 110.146C482.171 109.722 481.793 109.387 481.341 109.188C480.889 108.99 480.387 108.937 479.904 109.037C479.421 109.137 478.981 109.386 478.645 109.748C478.31 110.111 478.097 110.568 478.034 111.058C478 111.456 477.841 111.834 477.578 112.135C477.316 112.437 476.965 112.647 476.575 112.736L476.003 112.858C475.607 112.929 475.199 112.873 474.836 112.699C474.474 112.524 474.176 112.239 473.985 111.885C473.803 111.583 473.557 111.325 473.265 111.128C472.973 110.93 472.642 110.799 472.294 110.742C471.827 110.686 471.396 110.461 471.082 110.109C470.769 109.758 470.595 109.304 470.592 108.833V107.447C470.587 107.338 470.559 107.232 470.509 107.135C470.459 107.039 470.389 106.954 470.304 106.887C470.219 106.82 470.12 106.773 470.014 106.747C469.909 106.722 469.799 106.72 469.692 106.741L460.706 108.59C460.339 111.079 459.215 113.395 457.485 115.223C455.755 117.051 453.504 118.301 451.039 118.804C450.21 118.973 449.367 119.059 448.522 119.059ZM446.09 95.9553C443.332 96.5996 440.92 98.2649 439.341 100.616C437.761 102.967 437.131 105.829 437.578 108.626C438.056 111.228 439.45 113.573 441.507 115.237C443.564 116.901 446.148 117.773 448.793 117.697C451.437 117.62 453.967 116.6 455.925 114.82C457.882 113.041 459.138 110.619 459.466 107.994V107.556L469.376 105.55C469.66 105.481 469.956 105.476 470.243 105.536C470.529 105.596 470.798 105.719 471.031 105.896C471.264 106.073 471.455 106.299 471.589 106.559C471.723 106.819 471.798 107.106 471.808 107.398V108.784C471.811 108.949 471.87 109.108 471.977 109.234C472.083 109.361 472.23 109.446 472.392 109.477C472.923 109.553 473.431 109.75 473.875 110.051C474.32 110.352 474.69 110.751 474.958 111.216C475.022 111.347 475.126 111.455 475.254 111.525C475.383 111.595 475.53 111.623 475.675 111.605L476.234 111.484C476.376 111.447 476.502 111.366 476.594 111.252C476.686 111.138 476.739 110.998 476.745 110.851C476.822 110.094 477.137 109.381 477.646 108.815C478.154 108.249 478.829 107.86 479.574 107.703C480.318 107.546 481.093 107.629 481.787 107.942C482.481 108.254 483.057 108.779 483.433 109.441C483.495 109.571 483.597 109.679 483.723 109.748C483.85 109.818 483.995 109.847 484.138 109.83L484.722 109.708C484.862 109.67 484.985 109.587 485.075 109.474C485.164 109.36 485.215 109.221 485.221 109.076C485.281 108.542 485.462 108.029 485.751 107.576C486.04 107.123 486.428 106.742 486.886 106.462C487.02 106.365 487.118 106.226 487.165 106.068C487.211 105.909 487.203 105.74 487.142 105.586L486.643 104.297C486.54 104.031 486.496 103.746 486.515 103.462C486.533 103.177 486.614 102.901 486.75 102.65C486.887 102.4 487.077 102.183 487.306 102.014C487.535 101.844 487.799 101.727 488.078 101.671L488.82 101.512C489.221 101.427 489.601 101.261 489.937 101.025C490.273 100.789 490.558 100.488 490.775 100.14C490.992 99.7912 491.136 99.4025 491.199 98.997C491.262 98.5914 491.243 98.1773 491.142 97.7793C490.905 97.0141 490.387 96.3669 489.693 95.9677C488.998 95.5685 488.178 95.4468 487.397 95.627L458.432 101.646L458.213 101.269C457.049 99.1975 455.243 97.5608 453.067 96.6066C450.89 95.6523 448.463 95.4322 446.15 95.9796L446.09 95.9553ZM448.522 114.536C447.011 114.553 445.528 114.13 444.254 113.32C442.746 112.33 441.628 110.848 441.091 109.126C440.553 107.404 440.63 105.549 441.307 103.877C441.985 102.205 443.221 100.82 444.805 99.9577C446.39 99.0954 448.224 98.8093 449.996 99.1482C451.767 99.4871 453.367 100.43 454.521 101.816C455.675 103.202 456.313 104.946 456.326 106.749C456.338 108.553 455.725 110.306 454.59 111.708C453.455 113.11 451.869 114.075 450.102 114.439C449.585 114.532 449.059 114.573 448.534 114.56L448.522 114.536ZM448.522 100.175C448.069 100.177 447.617 100.222 447.172 100.309C446.325 100.489 445.521 100.835 444.808 101.325C444.094 101.816 443.484 102.443 443.013 103.17C442.541 103.896 442.218 104.709 442.06 105.56C441.903 106.412 441.915 107.286 442.095 108.134C442.276 108.981 442.621 109.784 443.112 110.498C443.603 111.211 444.23 111.821 444.956 112.293C445.683 112.764 446.495 113.088 447.347 113.245C448.199 113.403 449.073 113.391 449.92 113.21C451.192 112.946 452.357 112.31 453.268 111.384C454.179 110.459 454.796 109.284 455.04 108.008C455.285 106.732 455.146 105.413 454.642 104.216C454.137 103.019 453.29 101.998 452.206 101.281C451.13 100.565 449.863 100.188 448.57 100.199L448.522 100.175Z" fill="white"/>
<path opacity="0.6" d="M428.64 149.35C436.605 149.35 443.062 145.234 443.062 140.157C443.062 135.08 436.605 130.964 428.64 130.964C420.676 130.964 414.219 135.08 414.219 140.157C414.219 145.234 420.676 149.35 428.64 149.35Z" fill="#067DE1"/>
<path opacity="0.3" d="M405.694 153.119C408.965 153.119 411.616 151.432 411.616 149.35C411.616 147.268 408.965 145.58 405.694 145.58C402.424 145.58 399.772 147.268 399.772 149.35C399.772 151.432 402.424 153.119 405.694 153.119Z" fill="#067DE1"/>
</svg>
