<svg width="607" height="404" viewBox="0 0 607 404" fill="none" xmlns="http://www.w3.org/2000/svg">
<g clip-path="url(#clip0_866_18239)">
<path d="M217.731 232.505C238.533 195.857 278.214 167.718 320.218 170.429C289.234 204.173 271.167 247.806 269.213 293.607C268.523 311.273 269.593 330.994 257.88 344.223C250.593 352.454 239.454 356.44 228.501 357.276C217.549 358.112 206.598 356.131 195.792 354.157L193.171 354.963C192.173 312.819 196.929 269.153 217.731 232.505Z" fill="#CCCCCC"/>
<path d="M320.281 171.311C289.219 186.287 262.733 211.298 246.474 241.801C242.959 248.396 239.966 255.392 238.66 262.789C237.354 270.19 238.267 277.234 240.791 284.263C243.098 290.689 246.201 296.994 246.909 303.87C247.654 311.117 244.992 317.894 240.199 323.272C234.335 329.852 226.46 333.929 218.62 337.649C209.916 341.779 200.809 345.93 194.644 353.638C193.897 354.572 192.494 353.356 193.239 352.424C203.966 339.014 222.327 336.493 235.059 325.691C241 320.65 245.461 313.786 245.179 305.743C244.933 298.709 241.739 292.205 239.346 285.719C236.834 278.908 235.581 272.06 236.482 264.799C237.404 257.372 240.13 250.244 243.461 243.588C250.974 228.578 261.256 214.797 273.035 202.884C286.572 189.191 302.348 177.918 319.68 169.553C320.753 169.036 321.347 170.797 320.281 171.311Z" fill="white"/>
<path d="M251.236 231.607C246.475 228.12 243.105 223.051 241.731 217.305C240.356 211.56 241.065 205.513 243.732 200.243C244.275 199.178 245.952 199.974 245.408 201.039C242.916 205.942 242.256 211.576 243.547 216.923C244.838 222.27 247.995 226.979 252.449 230.2C253.416 230.901 252.198 232.304 251.236 231.607Z" fill="white"/>
<path d="M239.192 281.159C251.124 279.413 261.961 273.227 269.541 263.834C270.291 262.903 271.695 264.118 270.945 265.048C263.039 274.807 251.748 281.222 239.327 283.012C238.143 283.182 238.014 281.328 239.192 281.159V281.159Z" fill="white"/>
<path d="M287.487 191.478C289.049 193.212 291.016 194.53 293.213 195.314C295.409 196.098 297.765 196.323 300.07 195.97C301.251 195.786 301.379 197.64 300.205 197.823C297.657 198.202 295.055 197.949 292.627 197.088C290.199 196.227 288.018 194.784 286.275 192.884C286.096 192.719 285.986 192.491 285.968 192.248C285.951 192.005 286.026 191.764 286.179 191.574C286.341 191.389 286.569 191.274 286.814 191.256C287.058 191.238 287.301 191.318 287.487 191.478Z" fill="white"/>
<path d="M403.795 286.04C403.061 286.176 402.326 286.313 401.585 286.463C391.722 288.348 382.028 291.031 372.599 294.488C371.866 294.743 371.126 295.014 370.402 295.29C347.774 303.86 326.931 316.563 308.933 332.754C301.777 339.203 295.121 346.188 289.023 353.648C280.603 363.952 272.291 375.795 261.287 382.513C260.147 383.227 258.964 383.869 257.745 384.436L194.355 358.104C194.241 357.972 194.12 357.853 194.006 357.721L191.427 356.785C191.714 356.379 192.021 355.963 192.309 355.556C192.475 355.32 192.655 355.089 192.821 354.852C192.936 354.696 193.052 354.54 193.147 354.393C193.185 354.341 193.224 354.289 193.256 354.252C193.351 354.105 193.454 353.978 193.543 353.845C195.253 351.517 196.983 349.196 198.731 346.884C198.738 346.87 198.738 346.87 198.758 346.861C212.127 329.276 227.079 312.654 244.075 298.834C244.586 298.418 245.103 297.988 245.644 297.584C253.339 291.397 261.527 285.85 270.124 280.999C274.841 278.358 279.688 275.958 284.647 273.807C297.47 268.276 311.082 264.799 324.985 263.504C352.699 260.927 380.928 267.255 402.184 284.692C402.727 285.138 403.257 285.579 403.795 286.04Z" fill="#CCCCCC"/>
<path d="M403.319 286.787C369.515 280.014 333.331 284.014 302.012 298.565C295.241 301.711 288.646 305.492 283.156 310.612C277.664 315.733 274.158 321.908 271.948 329.042C269.927 335.564 268.614 342.469 265.046 348.386C261.284 354.622 255.085 358.427 248.025 359.831C239.387 361.549 230.647 360.056 222.152 358.299C212.719 356.348 202.952 354.171 193.396 356.608C192.238 356.903 191.849 355.087 193.005 354.792C209.631 350.553 225.807 359.611 242.467 358.663C250.241 358.221 257.928 355.43 262.539 348.838C266.57 343.074 267.93 335.954 269.919 329.333C272.008 322.38 275.124 316.157 280.209 310.903C285.41 305.528 291.871 301.481 298.532 298.175C313.555 290.72 330.049 285.917 346.615 283.508C365.655 280.737 385.028 281.249 403.896 285.021C405.064 285.255 404.479 287.019 403.319 286.787V286.787Z" fill="white"/>
<path d="M311.943 293.297C310.238 287.641 310.595 281.562 312.951 276.146C315.307 270.73 319.509 266.329 324.806 263.729C325.88 263.207 326.741 264.853 325.666 265.376C320.729 267.788 316.815 271.888 314.631 276.936C312.447 281.984 312.137 287.648 313.757 292.905C314.107 294.048 312.292 294.433 311.943 293.297Z" fill="white"/>
<path d="M272.537 325.599C283.114 331.4 295.485 332.995 307.184 330.066C308.343 329.775 308.733 331.591 307.576 331.882C295.396 334.907 282.525 333.221 271.531 327.16C270.484 326.582 271.495 325.024 272.537 325.599Z" fill="white"/>
<path d="M365.013 283.115C365.217 285.441 365.996 287.68 367.278 289.63C368.56 291.58 370.306 293.181 372.358 294.289C373.412 294.853 372.4 296.411 371.353 295.85C369.091 294.616 367.165 292.845 365.743 290.694C364.322 288.542 363.449 286.075 363.199 283.507C363.155 283.267 363.205 283.019 363.337 282.814C363.469 282.609 363.674 282.462 363.91 282.403C364.151 282.352 364.401 282.399 364.608 282.532C364.814 282.665 364.96 282.875 365.013 283.115Z" fill="white"/>
<path d="M283.043 329.483C274.165 286.494 263.068 272.162 263.068 272.162L258.829 268.869L253.731 264.903L253.756 264.393L252.547 263.982L252.263 263.761L251.797 263.403L251.722 263.483L251.564 263.647L228.495 255.794L199.227 245.838L185.674 228.195C183.467 225.322 180.626 223 177.372 221.41C174.119 219.821 170.542 219.008 166.922 219.035L123.639 219.356C117.787 219.399 112.162 221.633 107.872 225.619L79.4224 252.048L35.093 273.251L35.0182 273.176L34.5527 273.509L27.7034 276.789L27.986 278.262L23.7467 281.326C23.7467 281.326 12.6499 294.662 3.77235 334.663C1.51401 344.841 0.40237 366.674 0.00112757 393.578C-0.0190268 394.939 0.23118 396.291 0.737193 397.554C1.24321 398.817 1.99494 399.967 2.94867 400.937C3.9024 401.906 5.03911 402.677 6.2927 403.202C7.54629 403.728 8.89175 403.999 10.2509 404H247.023V404H276.575C277.933 403.999 279.278 403.728 280.53 403.203C281.783 402.678 282.919 401.909 283.873 400.94C284.826 399.971 285.578 398.823 286.085 397.561C286.592 396.299 286.843 394.949 286.825 393.589C286.433 364.313 285.322 340.521 283.043 329.483Z" fill="#067DE1"/>
<path d="M313.422 37.4893C304.21 37.4893 295.375 41.1541 288.862 47.6777C282.348 54.2012 278.688 63.049 278.688 72.2747C278.688 81.5003 282.348 90.3481 288.862 96.8717C295.375 103.395 304.21 107.06 313.422 107.06H572.267C581.479 107.06 590.313 103.395 596.827 96.8717C603.341 90.3481 607 81.5003 607 72.2747C607 63.049 603.341 54.2012 596.827 47.6777C590.313 41.1541 581.479 37.4893 572.267 37.4893H313.422Z" fill="#E1E4EC"/>
<path d="M313.422 44.5293C306.074 44.5293 299.028 47.4525 293.832 52.6558C288.637 57.8591 285.718 64.9162 285.718 72.2748C285.718 79.6334 288.637 86.6905 293.832 91.8938C299.028 97.0971 306.074 100.02 313.422 100.02H572.267C579.614 100.02 586.661 97.0971 591.856 91.8938C597.052 86.6905 599.971 79.6334 599.971 72.2748C599.971 64.9162 597.052 57.8591 591.856 52.6558C586.661 47.4525 579.614 44.5293 572.267 44.5293H313.422Z" fill="white"/>
<path d="M152.078 202.75C183.395 202.75 208.783 177.324 208.783 145.96C208.783 114.596 183.395 89.1699 152.078 89.1699C120.761 89.1699 95.373 114.596 95.373 145.96C95.373 177.324 120.761 202.75 152.078 202.75Z" fill="#9E616A"/>
<path d="M137.571 199.969C137.329 199.435 137.088 198.899 136.847 198.361C136.94 198.364 137.031 198.378 137.124 198.38L137.571 199.969Z" fill="#2F2E41"/>
<path d="M93.7961 91.7519C96.6641 89.4606 100.016 87.3524 103.683 87.4709C107.35 87.5892 111.068 90.906 110.308 94.5006C117.043 82.5575 127.764 73.3719 140.588 68.5561C153.411 63.7403 167.519 63.6021 180.434 68.1656C189.548 71.3858 198.485 77.828 200.579 87.2767C201.116 89.7022 201.231 92.3617 202.744 94.3313C204.65 96.8146 208.298 97.3764 211.302 96.5028C211.332 96.4941 211.362 96.4852 211.392 96.4762C211.899 96.3027 212.447 96.2856 212.964 96.4273C213.481 96.5689 213.944 96.8627 214.293 97.2707C214.642 97.6786 214.86 98.182 214.92 98.7156C214.98 99.2493 214.879 99.7887 214.629 100.264L212.05 105.08C215.301 105.806 218.679 105.734 221.895 104.871C222.43 104.73 222.994 104.759 223.512 104.953C224.029 105.146 224.474 105.496 224.786 105.953C225.097 106.41 225.26 106.952 225.251 107.505C225.243 108.059 225.063 108.596 224.738 109.043C216.235 120.734 202.03 128.284 187.534 128.195C177.231 128.132 166.822 124.576 156.794 126.949C152.915 127.867 149.291 129.643 146.186 132.147C143.082 134.651 140.577 137.819 138.854 141.419C137.132 145.019 136.236 148.959 136.233 152.951C136.23 156.943 137.119 160.885 138.835 164.488C135.755 161.114 129.8 161.913 126.649 165.221C123.498 168.53 122.683 173.468 123 178.029C123.486 185.005 126.215 191.578 129.092 197.976C104.97 197.215 82.155 180.269 74.4754 157.349C66.7636 134.332 74.8458 106.892 93.7961 91.7519Z" fill="#2F2E41"/>
<path opacity="0.2" d="M55.8125 316.505L71.7169 403.168L81.26 404L55.8125 316.505Z" fill="black"/>
<path opacity="0.2" d="M231.003 309.969L215.099 403.105L205.556 404L231.003 309.969Z" fill="black"/>
<path d="M107.362 62.5861C104.312 63.8614 101.13 62.4638 99.7956 59.2632C98.4408 56.0136 99.7062 52.7149 102.805 51.4192C105.903 50.1234 109.028 51.5244 110.405 54.8263C111.761 58.0788 110.51 61.2696 107.362 62.5861ZM101.52 45.023L99.0954 46.037C98.4897 46.2873 97.8122 46.3008 97.197 46.0748C96.5819 45.8488 96.0738 45.3999 95.7733 44.8167L95.6534 44.5818C93.0445 39.8696 92.7457 34.1427 94.7702 27.5689C96.6457 21.672 97.4246 17.5247 95.8581 13.7674C94.0469 9.42338 90.1793 8.0626 85.2472 10.0338C83.3343 10.8338 82.7256 10.821 81.2203 12.3166C80.8928 12.6459 80.5025 12.9058 80.0726 13.0807C79.6427 13.2557 79.1821 13.3421 78.7181 13.335C78.2695 13.3297 77.8267 13.234 77.4159 13.0536C77.0051 12.8732 76.6347 12.6118 76.327 12.2849C75.7341 11.6551 75.4019 10.8234 75.3975 9.95781C75.3931 9.09221 75.7169 8.25719 76.3035 7.6214C78.8337 4.96874 81.8855 2.87016 85.2663 1.45807C95.8632 -2.97348 101.198 3.56906 103.639 9.42402C106.027 15.1508 104.683 20.4644 102.525 27.3459C100.717 33.0641 100.822 37.3011 102.877 41.5141C103.025 41.8326 103.107 42.1778 103.119 42.5291C103.131 42.8803 103.072 43.2303 102.945 43.558C102.818 43.8858 102.627 44.1845 102.382 44.4362C102.137 44.688 101.844 44.8876 101.52 45.023L101.52 45.023Z" fill="#067DE1"/>
<path d="M370.597 88.8656H319.097C318.933 88.8667 318.771 88.8354 318.619 88.7734C318.468 88.7115 318.33 88.6202 318.214 88.5047C318.098 88.3892 318.006 88.2519 317.943 88.1006C317.88 87.9493 317.848 87.7871 317.848 87.6232C317.848 87.4594 317.88 87.2971 317.943 87.1458C318.006 86.9946 318.098 86.8572 318.214 86.7418C318.33 86.6263 318.468 86.535 318.619 86.473C318.771 86.4111 318.933 86.3798 319.097 86.3809H370.597C370.925 86.3831 371.238 86.515 371.469 86.7477C371.7 86.9805 371.829 87.2952 371.829 87.6232C371.829 87.9512 371.7 88.266 371.469 88.4987C371.238 88.7314 370.925 88.8633 370.597 88.8656Z" fill="#067DE1"/>
<path d="M435.929 89.2796H384.429C384.265 89.2807 384.103 89.2494 383.951 89.1875C383.8 89.1256 383.662 89.0342 383.546 88.9188C383.43 88.8033 383.338 88.666 383.275 88.5147C383.212 88.3634 383.18 88.2012 383.18 88.0373C383.18 87.8734 383.212 87.7112 383.275 87.5599C383.338 87.4086 383.43 87.2713 383.546 87.1558C383.662 87.0403 383.8 86.949 383.951 86.8871C384.103 86.8251 384.265 86.7938 384.429 86.795H435.929C436.093 86.7938 436.255 86.8251 436.407 86.8871C436.558 86.949 436.696 87.0403 436.812 87.1558C436.928 87.2713 437.02 87.4086 437.083 87.5599C437.146 87.7112 437.178 87.8734 437.178 88.0373C437.178 88.2012 437.146 88.3634 437.083 88.5147C437.02 88.666 436.928 88.8033 436.812 88.9188C436.696 89.0342 436.558 89.1256 436.407 89.1875C436.255 89.2494 436.093 89.2807 435.929 89.2796Z" fill="#067DE1"/>
<path d="M501.26 89.6937H449.759C449.432 89.6915 449.119 89.5596 448.888 89.3268C448.657 89.0941 448.527 88.7794 448.527 88.4513C448.527 88.1233 448.657 87.8086 448.888 87.5758C449.119 87.3431 449.432 87.2112 449.759 87.209H501.26C501.424 87.2079 501.586 87.2392 501.737 87.3011C501.889 87.3631 502.026 87.4544 502.143 87.5699C502.259 87.6854 502.351 87.8227 502.414 87.974C502.477 88.1252 502.509 88.2875 502.509 88.4513C502.509 88.6152 502.477 88.7775 502.414 88.9287C502.351 89.08 502.259 89.2174 502.143 89.3328C502.026 89.4483 501.889 89.5396 501.737 89.6016C501.586 89.6635 501.424 89.6948 501.26 89.6937H501.26Z" fill="#067DE1"/>
<path d="M566.592 90.1077H515.091C514.764 90.1055 514.451 89.9736 514.22 89.7409C513.989 89.5081 513.859 89.1934 513.859 88.8654C513.859 88.5373 513.989 88.2226 514.22 87.9899C514.451 87.7571 514.764 87.6253 515.091 87.623H566.592C566.919 87.6253 567.233 87.7571 567.464 87.9899C567.694 88.2226 567.824 88.5373 567.824 88.8654C567.824 89.1934 567.694 89.5081 567.464 89.7409C567.233 89.9736 566.919 90.1055 566.592 90.1077Z" fill="#067DE1"/>
<path d="M344.734 77.4321C350.02 77.4321 354.306 73.1402 354.306 67.8459C354.306 62.5516 350.02 58.2598 344.734 58.2598C339.448 58.2598 335.162 62.5516 335.162 67.8459C335.162 73.1402 339.448 77.4321 344.734 77.4321Z" fill="#067DE1"/>
<path d="M410.459 77.4321C415.746 77.4321 420.031 73.1402 420.031 67.8459C420.031 62.5516 415.746 58.2598 410.459 58.2598C405.173 58.2598 400.888 62.5516 400.888 67.8459C400.888 73.1402 405.173 77.4321 410.459 77.4321Z" fill="#067DE1"/>
<path d="M476.186 77.4321C481.472 77.4321 485.758 73.1402 485.758 67.8459C485.758 62.5516 481.472 58.2598 476.186 58.2598C470.9 58.2598 466.614 62.5516 466.614 67.8459C466.614 73.1402 470.9 77.4321 476.186 77.4321Z" fill="#067DE1"/>
<path d="M541.912 77.4321C547.198 77.4321 551.483 73.1402 551.483 67.8459C551.483 62.5516 547.198 58.2598 541.912 58.2598C536.625 58.2598 532.34 62.5516 532.34 67.8459C532.34 73.1402 536.625 77.4321 541.912 77.4321Z" fill="#067DE1"/>
</g>
<defs>
<clipPath id="clip0_866_18239">
<rect width="607" height="404" fill="white"/>
</clipPath>
</defs>
</svg>
