<svg width="56" height="56" viewBox="0 0 56 56" fill="none" xmlns="http://www.w3.org/2000/svg">
<rect x="0.5" y="0.5" width="55" height="55" rx="7.5" fill="white" stroke="#E8E8E8"/>
<path fill-rule="evenodd" clip-rule="evenodd" d="M19.9993 29.3359C19.266 29.3359 18.666 29.9359 18.666 30.6693C18.666 31.4026 19.266 32.0026 19.9993 32.0026C20.7327 32.0026 21.3327 31.4026 21.3327 30.6693C21.3327 29.9359 20.7327 29.3359 19.9993 29.3359ZM19.9993 34.6719C19.266 34.6719 18.666 35.2719 18.666 36.0052C18.666 36.7385 19.266 37.3385 19.9993 37.3385C20.7327 37.3385 21.3327 36.7385 21.3327 36.0052C21.3327 35.2719 20.7327 34.6719 19.9993 34.6719ZM19.9993 24C19.266 24 18.666 24.6 18.666 25.3333C18.666 26.0667 19.266 26.6667 19.9993 26.6667C20.7327 26.6667 21.3327 26.0667 21.3327 25.3333C21.3327 24.6 20.7327 24 19.9993 24ZM15.9997 24.6719C15.6263 24.6719 15.333 24.9652 15.333 25.3385C15.333 25.7119 15.6263 26.0052 15.9997 26.0052C16.373 26.0052 16.6663 25.7119 16.6663 25.3385C16.6663 24.9652 16.373 24.6719 15.9997 24.6719ZM19.9993 18.6719C19.266 18.6719 18.666 19.2719 18.666 20.0052C18.666 20.7385 19.266 21.3385 19.9993 21.3385C20.7327 21.3385 21.3327 20.7385 21.3327 20.0052C21.3327 19.2719 20.7327 18.6719 19.9993 18.6719ZM39.9997 26.0052C40.373 26.0052 40.6663 25.7119 40.6663 25.3385C40.6663 24.9652 40.373 24.6719 39.9997 24.6719C39.6263 24.6719 39.333 24.9652 39.333 25.3385C39.333 25.7119 39.6263 26.0052 39.9997 26.0052ZM30.6663 21.3385C31.3997 21.3385 31.9997 20.7385 31.9997 20.0052C31.9997 19.2719 31.3997 18.6719 30.6663 18.6719C29.933 18.6719 29.333 19.2719 29.333 20.0052C29.333 20.7385 29.933 21.3385 30.6663 21.3385ZM30.6667 16.6693C31.04 16.6693 31.3333 16.3759 31.3333 16.0026C31.3333 15.6293 31.04 15.3359 30.6667 15.3359C30.2933 15.3359 30 15.6293 30 16.0026C30 16.3759 30.2933 16.6693 30.6667 16.6693ZM15.9997 30C15.6263 30 15.333 30.2933 15.333 30.6667C15.333 31.04 15.6263 31.3333 15.9997 31.3333C16.373 31.3333 16.6663 31.04 16.6663 30.6667C16.6663 30.2933 16.373 30 15.9997 30ZM25.3327 39.3359C24.9593 39.3359 24.666 39.6293 24.666 40.0026C24.666 40.3759 24.9593 40.6693 25.3327 40.6693C25.706 40.6693 25.9993 40.3759 25.9993 40.0026C25.9993 39.6293 25.706 39.3359 25.3327 39.3359ZM25.3327 16.6693C25.706 16.6693 25.9993 16.3759 25.9993 16.0026C25.9993 15.6293 25.706 15.3359 25.3327 15.3359C24.9593 15.3359 24.666 15.6293 24.666 16.0026C24.666 16.3759 24.9593 16.6693 25.3327 16.6693ZM25.3333 21.3385C26.0667 21.3385 26.6667 20.7385 26.6667 20.0052C26.6667 19.2719 26.0667 18.6719 25.3333 18.6719C24.6 18.6719 24 19.2719 24 20.0052C24 20.7385 24.6 21.3385 25.3333 21.3385ZM25.333 28.6719C24.2263 28.6719 23.333 29.5652 23.333 30.6719C23.333 31.7785 24.2263 32.6719 25.333 32.6719C26.4397 32.6719 27.333 31.7785 27.333 30.6719C27.333 29.5652 26.4397 28.6719 25.333 28.6719ZM35.9993 29.3359C35.266 29.3359 34.666 29.9359 34.666 30.6693C34.666 31.4026 35.266 32.0026 35.9993 32.0026C36.7327 32.0026 37.3327 31.4026 37.3327 30.6693C37.3327 29.9359 36.7327 29.3359 35.9993 29.3359ZM35.9993 34.6719C35.266 34.6719 34.666 35.2719 34.666 36.0052C34.666 36.7385 35.266 37.3385 35.9993 37.3385C36.7327 37.3385 37.3327 36.7385 37.3327 36.0052C37.3327 35.2719 36.7327 34.6719 35.9993 34.6719ZM35.9993 24C35.266 24 34.666 24.6 34.666 25.3333C34.666 26.0667 35.266 26.6667 35.9993 26.6667C36.7327 26.6667 37.3327 26.0667 37.3327 25.3333C37.3327 24.6 36.7327 24 35.9993 24ZM35.9993 18.6719C35.266 18.6719 34.666 19.2719 34.666 20.0052C34.666 20.7385 35.266 21.3385 35.9993 21.3385C36.7327 21.3385 37.3327 20.7385 37.3327 20.0052C37.3327 19.2719 36.7327 18.6719 35.9993 18.6719ZM39.9997 30C39.6263 30 39.333 30.2933 39.333 30.6667C39.333 31.04 39.6263 31.3333 39.9997 31.3333C40.373 31.3333 40.6663 31.04 40.6663 30.6667C40.6663 30.2933 40.373 30 39.9997 30ZM30.6663 34.6719C29.933 34.6719 29.333 35.2719 29.333 36.0052C29.333 36.7385 29.933 37.3385 30.6663 37.3385C31.3997 37.3385 31.9997 36.7385 31.9997 36.0052C31.9997 35.2719 31.3997 34.6719 30.6663 34.6719ZM30.6667 39.3359C30.2933 39.3359 30 39.6293 30 40.0026C30 40.3759 30.2933 40.6693 30.6667 40.6693C31.04 40.6693 31.3333 40.3759 31.3333 40.0026C31.3333 39.6293 31.04 39.3359 30.6667 39.3359ZM25.333 23.3359C24.2263 23.3359 23.333 24.2293 23.333 25.3359C23.333 26.4426 24.2263 27.3359 25.333 27.3359C26.4397 27.3359 27.333 26.4426 27.333 25.3359C27.333 24.2293 26.4397 23.3359 25.333 23.3359ZM25.3333 34.6719C24.6 34.6719 24 35.2719 24 36.0052C24 36.7385 24.6 37.3385 25.3333 37.3385C26.0667 37.3385 26.6667 36.7385 26.6667 36.0052C26.6667 35.2719 26.0667 34.6719 25.3333 34.6719ZM30.666 28.6719C29.5593 28.6719 28.666 29.5652 28.666 30.6719C28.666 31.7785 29.5593 32.6719 30.666 32.6719C31.7727 32.6719 32.666 31.7785 32.666 30.6719C32.666 29.5652 31.7727 28.6719 30.666 28.6719ZM30.666 23.3359C29.5593 23.3359 28.666 24.2293 28.666 25.3359C28.666 26.4426 29.5593 27.3359 30.666 27.3359C31.7727 27.3359 32.666 26.4426 32.666 25.3359C32.666 24.2293 31.7727 23.3359 30.666 23.3359Z" fill="#231F20"/>
</svg>
