<svg width="24" height="24" viewBox="0 0 24 24" fill="none" xmlns="http://www.w3.org/2000/svg">
<path d="M6.75001 9.75H9.75001V14.25H6.75001V9.75ZM21.75 5.25V20.25C21.7508 20.378 21.7184 20.504 21.6559 20.6157C21.5935 20.7274 21.5032 20.8211 21.3938 20.8875C21.2852 20.9557 21.161 20.995 21.033 21.0016C20.905 21.0081 20.7774 20.9818 20.6625 20.925L18 19.5844L15.3375 20.925C15.2319 20.9744 15.1166 21 15 21C14.8834 21 14.7682 20.9744 14.6625 20.925L12 19.5844L9.33751 20.925C9.23222 20.9757 9.11687 21.002 9.00001 21.002C8.88316 21.002 8.7678 20.9757 8.66251 20.925L6.00001 19.5844L3.33751 20.925C3.22258 20.9818 3.09502 21.0081 2.967 21.0016C2.83898 20.995 2.71479 20.9557 2.60626 20.8875C2.49686 20.8211 2.40654 20.7274 2.3441 20.6157C2.28167 20.504 2.24925 20.378 2.25001 20.25V5.25C2.25001 4.85218 2.40805 4.47064 2.68935 4.18934C2.97066 3.90804 3.35219 3.75 3.75001 3.75H20.25C20.6478 3.75 21.0294 3.90804 21.3107 4.18934C21.592 4.47064 21.75 4.85218 21.75 5.25ZM11.25 9C11.25 8.80109 11.171 8.61032 11.0303 8.46967C10.8897 8.32902 10.6989 8.25 10.5 8.25H6.00001C5.8011 8.25 5.61034 8.32902 5.46968 8.46967C5.32903 8.61032 5.25001 8.80109 5.25001 9V15C5.25001 15.1989 5.32903 15.3897 5.46968 15.5303C5.61034 15.671 5.8011 15.75 6.00001 15.75H10.5C10.6989 15.75 10.8897 15.671 11.0303 15.5303C11.171 15.3897 11.25 15.1989 11.25 15V9ZM18.75 13.5C18.75 13.3011 18.671 13.1103 18.5303 12.9697C18.3897 12.829 18.1989 12.75 18 12.75H13.5C13.3011 12.75 13.1103 12.829 12.9697 12.9697C12.829 13.1103 12.75 13.3011 12.75 13.5C12.75 13.6989 12.829 13.8897 12.9697 14.0303C13.1103 14.171 13.3011 14.25 13.5 14.25H18C18.1989 14.25 18.3897 14.171 18.5303 14.0303C18.671 13.8897 18.75 13.6989 18.75 13.5ZM18.75 10.5C18.75 10.3011 18.671 10.1103 18.5303 9.96967C18.3897 9.82902 18.1989 9.75 18 9.75H13.5C13.3011 9.75 13.1103 9.82902 12.9697 9.96967C12.829 10.1103 12.75 10.3011 12.75 10.5C12.75 10.6989 12.829 10.8897 12.9697 11.0303C13.1103 11.171 13.3011 11.25 13.5 11.25H18C18.1989 11.25 18.3897 11.171 18.5303 11.0303C18.671 10.8897 18.75 10.6989 18.75 10.5Z" fill="#969696"/>
</svg>
