<svg width="121" height="17" viewBox="0 0 121 17" fill="none" xmlns="http://www.w3.org/2000/svg">
<path d="M2.13386 5.81224C0.785731 6.11044 -0.0654004 7.44505 0.2328 8.79318C0.531001 10.1413 1.86561 10.9924 3.21374 10.6942L2.13386 5.81224ZM77.8085 5.52272L77.4857 8.00179L77.8085 5.52272ZM117.129 16.1795C118.421 16.6652 119.863 16.0113 120.349 14.7189C120.835 13.4264 120.181 11.9849 118.888 11.4991L117.129 16.1795ZM3.21374 10.6942C4.38421 10.4353 5.89898 10.0922 7.78338 9.70353L6.77343 4.80659C4.84397 5.20452 3.28074 5.55856 2.13386 5.81224L3.21374 10.6942ZM16.9521 8.06749C19.705 7.65245 22.794 7.25362 26.2075 6.91558L25.7147 1.93992C22.2116 2.28684 19.0383 2.69647 16.2067 3.12336L16.9521 8.06749ZM35.5128 6.21766C38.4493 6.06603 41.56 5.96869 44.8403 5.94397L44.8026 0.944111C41.4472 0.969397 38.263 1.06899 35.2549 1.22431L35.5128 6.21766ZM54.1823 6.06969C57.1808 6.17189 60.295 6.33658 63.5223 6.57452L63.8899 1.58806C60.5961 1.34521 57.4161 1.17701 54.3526 1.0726L54.1823 6.06969ZM72.8326 7.43884C74.3618 7.60967 75.9129 7.797 77.4857 8.00179L78.1313 3.04365C76.5283 2.83492 74.947 2.64394 73.3877 2.46975L72.8326 7.43884ZM77.4857 8.00179C79.2957 8.23747 81.008 8.46266 82.6284 8.6781L83.2874 3.72172C81.6621 3.50562 79.9453 3.27984 78.1313 3.04365L77.4857 8.00179ZM92.8116 10.0742C97.0771 10.6822 100.367 11.1897 102.941 11.6284L103.781 6.69951C101.146 6.25033 97.8074 5.73579 93.5171 5.12427L92.8116 10.0742ZM112.275 13.9099C113.216 14.3531 114.552 15.2109 117.129 16.1795L118.888 11.4991C116.486 10.5963 116.05 10.1616 114.407 9.38721L112.275 13.9099Z" fill="#0DA650"/>
</svg>
